<?xml version="1.0" encoding="utf-8"?>
<!-- Generator: Adobe Illustrator 25.0.1, SVG Export Plug-In . SVG Version: 6.00 Build 0)  -->
<svg version="1.1" id="layer" xmlns="http://www.w3.org/2000/svg" xmlns:xlink="http://www.w3.org/1999/xlink" x="0px" y="0px"
	 viewBox="0 0 1370 300" style="enable-background:new 0 0 1370 300;" xml:space="preserve">
<style type="text/css">
	.st0{fill:#003345;}
</style>
<g>
	<path class="st0" d="M622.5,180.7c0-2.2-151.2-4-300-4s-300,1.8-300,4s151.2,4.1,300,4.1C471.3,184.8,622.5,182.9,622.5,180.7
		 M469.7,45.9c4.1,0,8.2-3.8,9.1-8.3c1-4.6-1.7-8.2-5.8-8.1c-4.1,0-8.1,3.7-9.1,8.4C463,42.3,465.5,46,469.7,45.9 M82.1,70.7l1-0.8
		c-1.3-2.2-1.9-6.1-1.8-8.4c0.5-19.4,21-30.4,52.9-30.4h17.7C141.6,37.1,133,45,126.4,60c-2.8,6.4-16.4,41.1-21.9,56.6
		c-6.9,18.5-11.3,26.9-16.7,30l0.9,1.7c15.3,0.9,24.5-6.9,30.4-21.4c5.6-13.7,13-35.5,16.7-45.1c11.8-31.2,16.9-44.3,26.3-50.7
		c13.1-0.1,25.7-0.1,25.7-0.1c14.1-0.4,20.1-3.9,24.5-9.3l-1-1.3c-3.5,1.9-11.1,2.3-17.6,2.3h-63.5c-35.7,0-57.7,11.7-61.2,29.2
		C67.1,60.4,71.9,69.6,82.1,70.7 M198.5,93.5c-9,13-21.5,24.8-32.3,24.8c-4.6,0.2-6.6-2.5-6.5-7.7c0-3.2,0.7-7.6,1.4-9.8
		c10.2-5.1,20.5-10.9,29.8-20.5c5.2-5.5,8.6-11.1,8.8-16.8c0.1-5.4-3.3-8.2-10-8.3c-9.8-0.1-21.5,6.5-29.1,14.6
		c-10,10.9-17.7,26.3-17.9,40c-0.1,9.7,4.5,17.4,17,17c13.3-0.4,26.5-10.7,33.2-18.1c-0.8,3.2-1.3,6.2-1.3,8.7
		c0,8.6,4.3,14.7,12.8,17.3l1.7-0.8c-0.8-2.3-1-4.8-0.8-7.5c0.6-8.4,3.9-17.8,8.8-30.3c9.3-23.5,22.9-50.4,28.9-66.2l-14.2,2.7
		c-2.2,0.5-3.6,2.1-4.3,3.8c-6.9,14.6-13.9,30.2-22.7,50.5C200.5,89,199.6,91.3,198.5,93.5 M185.1,62.2c2.2,0,3,1.5,3,3.4
		c0,9.2-11.3,20.9-25.7,29.4C166,80.9,176.2,62.1,185.1,62.2 M428.6,116.8c0,6.5,4.1,10.5,12,10.3c8.2-0.2,16.5-5,23.3-11.6
		c1.3,7,6.3,12.1,16.6,11.7c10.7-0.4,21-7.1,28.1-14.9v2.3c0,7.2,3.7,12.6,12,12.6c8.8,0,19-6.7,27.1-18.1l0.2,0.1
		c-0.7,2.7-1.6,7.3-1.7,10.4c-0.2,8.6,5,13.6,12.1,15.1l1.7-0.7c-2.6-6.3,1-21.9,2.5-27.1c5.3-17.1,13.7-36.6,18.6-46.8
		c-2.2-1.9-7.4-3.2-13-3.4c-18.4-0.7-37,6.9-50.5,30.9c-2.3,4.2-4.9,9-6.7,14c-1.9,2.6-3.9,4.8-4.8,5.7
		c-4.9,4.7-11.8,10.7-18.9,10.8c-4,0.1-6.2-2.8-6.1-7.8c0.1-19.1,17-48.2,28.4-48.3c3.1,0,4.5,1.4,4.5,4.1c0,3.2-2.2,7.6-5.3,10.4
		l1.3,1.2c7.7-3,14.9-8.3,14.9-14c0-6.5-7.5-7.7-14.1-7.7c-9,0.1-20.1,4.5-29.1,14.3c-11.2,12.2-17,26.9-18.1,37.4
		c-5.1,6-10.9,10-14.7,10.1c-2.1,0.1-3.7-1.1-3.7-3.3c0-2,1.2-6.1,3.1-11.4c5-12.3,12.1-27.7,20.9-46c0,0-13.4,2.3-15.3,2.8
		c-2.1,0.5-3.6,1.9-4.5,3.7c-5.8,12.2-12.6,26.2-16.8,36.7C430.2,106.8,428.6,113.1,428.6,116.8 M554.1,64.5c4.3-2,7.8-2.1,10.9-1.5
		c-1.1,2.4-6.3,12.8-10.3,22.1c-6.4,14.7-15.9,29.5-24.8,31.6c-3,0.9-4.8-0.4-4.8-3.5C525.4,100.2,539.7,71.2,554.1,64.5
		 M222.2,109.9c-0.1,9.5,4.9,17.4,17.7,17c13.7-0.4,26.2-8.3,37-19.7c-2.7,7.3-5,13.5-6.5,16.9c-4,10-7,18.1-13.1,22.8l0.7,1.2
		c18.1,1,24.8-11.7,32.3-32.4c7.4-20.8,13.7-38.8,18.6-51.3c7.9,0,19.1,0.3,25.4-1.1c-16.4,7.3-30.3,33.4-28.7,50.6
		c0.7,7.6,5.3,12.9,15,12.9c18.8,0,34.6-22.3,40.7-36.9c3.5-8.4,5.7-15.6,6.1-22.8c4.5-0.8,8.8-1.6,10.9-1.9c4.1-0.6,3.3,4,2,7.4
		c-7.7,21.5-21,52.6-21.1,53.1h14.7c6.4-13.2,10.3-21.7,15.4-30.7c6.1-10.6,19.8-28.1,25.2-28.1c1.9,0,2.4,1.2,1.9,3.1
		c-1,7.2-18.5,34.7-18.3,48.3c0.2,8.9,4.9,14.3,13,16.3l1.7-1c-1-1.9-1.2-4.3-1.2-7.2c-0.2-9.1,7.2-24.9,10.1-31.1
		c4.5-9.7,12.6-23.8,12.1-31.5c-0.3-3.8-3.1-7.2-9.6-7.2c-12-0.1-23.9,11.6-33.9,27.2l-0.3-0.1c4-9.1,7.1-17.5,7-21.6
		c-0.1-3.8-2.2-5.2-6.7-5.2c-3.2,0.1-7.5,1.3-11.7,2.4c-5.9,1.5-12.2,3.1-19,4.6c-4.2,0.6-5.6,1.3-5.5,2.8
		c0.9,23.8-15.4,51.8-26.2,51.9c-4.6,0-5.7-3.4-5.7-8.1c0-16.5,13.5-44.1,26.7-48.5c1.1-0.3,2.3-0.6,3-0.8l1.7-4.5
		c-2.8,0.6-9.5,0.7-13,0.8h-29.1c7.7-18.3,18.5-30.1,34.2-30.8c9.8-0.3,16.4,3.4,17,9c0.4,4.8-0.9,8.7-4.7,12.6l1.1,1.1
		c8.6-4.1,14.6-11,14.6-15.8c0.1-7.3-8.7-11.8-22.8-11.7c-17.9,0.1-40,4.1-55.5,36.2c-4.6,0.7-8.8,2.4-12.3,6.2l0.6,1.4
		c2.5-0.9,5.5-1,8.8-1c-2.1,5.2-6.4,16.6-10.7,28.3c-13,17.2-26.1,25.3-35.6,25.3c-5.2,0.2-7.3-2.7-7.4-7.7
		c-0.1-3.2,0.7-7.5,1.3-9.8c10.2-5.1,20.5-10.9,29.8-20.5c5.1-5.5,8.7-11.1,8.8-16.8c0.1-5.4-3.2-8.2-10.1-8.3
		c-9.7-0.1-21.4,6.5-29.1,14.6C230.1,80.8,222.4,96.2,222.2,109.9 M264.7,62.2c2.2,0,3.1,1.5,3.1,3.4c-0.1,9.2-11.3,20.9-25.9,29.4
		C245.6,80.9,255.8,62.1,264.7,62.2 M101.6,278.5h6.9v-24.2h18.1v-5.6h-18.1v-18.1H131l0.6-5.5h-30.1L101.6,278.5L101.6,278.5z
		 M178.6,258.9c0,5.5-1.1,9.1-3.5,11.6c-2,2-5.2,3.2-9.2,3.2c-4.4,0-7.5-1.2-9.6-3.2c-2.4-2.3-3.4-5.7-3.4-11.6V225H146v34.2
		c0,7.5,1.7,12.5,5.5,15.9c3.2,2.9,8,4.5,14.3,4.5c6.1,0,10.8-1.6,14-4.7c3.4-3.3,5.2-8.4,5.2-15.6V225h-6.3v33.9H178.6z
		 M237.8,266.6L208.5,225h-4.8v53.4h6.2v-40.7l28.8,40.7h5.3V225h-6.2V266.6z M276.7,225h-13.5v53.4h15c8.4,0,14.3-1.8,18.2-5.8
		c4.3-4.4,6.4-11.4,6.4-21.2c0-9.2-1.9-15.6-5.7-19.8C292.8,227,286.5,225,276.7,225 M290.4,269c-2.7,2.7-6.5,3.9-12.5,3.9h-7.8
		v-42.3h6.2c8.1,0,12.5,1.6,15.4,5.1c2.7,3.4,3.9,8.6,3.9,15.9C295.6,259.7,294,265.6,290.4,269 M330.6,225l-16.9,53.4h6.8l4.4-14.2
		h20.2l4.7,14.2h7.3L338.5,225H330.6z M326.5,258.8l8.1-26.4h0.1l8.6,26.4H326.5z M393.3,273.8c-6.3,0-10.5-1.4-13.4-4.4
		c-3.5-3.6-4.9-9.4-4.9-17.5c0-8.4,1.4-14.1,4.7-17.7c2.6-2.9,6.5-4.3,11.9-4.3c3.4,0,7.2,0.6,10.7,1.5l0.9-5.3
		c-3.4-1.3-7.8-2-12.4-2c-6.6,0-12.4,2-16.2,5.9c-4.7,4.8-7,12.3-7,22.1c0,18.4,7.8,27.5,23.9,27.5c3.8,0,8.7-0.6,11.8-1.6l-0.6-5.3
		C399.7,273.3,395.6,273.8,393.3,273.8 M419.1,278.5h7V225h-7V278.5z M458.3,219.2l14.9-10.7l-3.7-4.9l-13.7,12.1L458.3,219.2z
		 M464.6,224c-16,0-21.3,12.2-21.3,27.8c0,15.6,5.3,27.7,21.3,27.7s21.3-12.1,21.3-27.7C485.9,236.2,480.6,224,464.6,224
		 M464.6,273.5c-11,0-14.1-8.6-14.1-21.7s3-21.8,14.1-21.8c11,0,14.1,8.7,14.1,21.8C478.7,265,475.6,273.5,464.6,273.5 M537.2,266.6
		L507.9,225h-4.8v53.4h6.2v-40.7l28.8,40.7h5.3V225h-6.2L537.2,266.6L537.2,266.6z"/>
</g>
<g id="_x23_00abe1ff">
	<path id="path7" class="st0" d="M928,107.9c4.3-0.7,9.1-0.8,13,1.7c5.6,3.3,8.7,9.3,10.9,15.2c6.2,17,6.8,35.5,4.2,53.2
		c-0.6,4.5-2.3,9.7-6.8,11.7c-2.6,0.9-6,0.6-7.8-1.7c-2.9-3.6-2-8.5-1.8-12.7c1-6.7,1.3-13.5,1-20.2c0-3.1-1.1-6.4-3.7-8.2
		c-2.2-1.7-5.5-1.4-7.7,0.2c-3.7,2.4-6.2,6.3-8.2,10.2c-4.9,10.2-7.7,21.2-11.3,31.8c-1.8,4.9-4.8,9.6-9.2,12.7
		c-5.3,3.7-12,4.7-18.4,4.5c-8.1-0.4-15.4-5.5-19.6-12.2c-5.3-8.6-10-17.5-15.2-26.1c-1.6-2.5-3.9-5.7-7.3-5.4
		c-3.6,0.3-5,4.4-4.8,7.5c0.3,10.6,5.4,20.3,7.2,30.7c0.6,3.2-0.3,7.2-3.5,8.7c-2,0.3-4,0.5-6,0c-2.9-1.1-4.3-4-5.6-6.6
		c-4.5-10.7-7.3-22.1-8.7-33.6c0.2-5.9-0.4-11.9,0.9-17.7c1.7-9.5,4.3-19.5,11.3-26.5c6.1-6.1,16.5-8,23.8-3.1
		c7.1,4.9,11.5,12.6,16.2,19.7c3.4,5.5,6.6,11.9,12.9,14.5c4.3,2.1,9.9,0.8,13.1-2.7c2.3-2.4,3.4-5.5,4.6-8.5
		c2.6-6.4,5.1-12.9,8-19.2C912.9,117.6,919.2,110,928,107.9z"/>
	<path id="path9" class="st0" d="M1243.1,128.3c3.3-0.3,6.6-0.1,9.9,0c0.2,3.3-0.2,6.6,0.3,9.9c3.4-0.1,6.7-0.2,10.1,0.1
		c0.1,2.9,0.4,5.9-0.2,8.8c-3.4-0.1-6.7,0-10,0c-0.2,7.1,0,14.1-0.1,21.2c0,3,0,6.4,2.3,8.7c2.3,2.2,5.7,1.8,8.6,2.1
		c0.4,3,0.4,6.1-0.1,9.1c-5.5,0.1-11.6,0-16.1-3.7c-4-3.2-5.2-8.6-5.3-13.5c-0.1-13.2,0.1-26.3-0.1-39.5
		C1242.6,130.5,1241.8,128.7,1243.1,128.3z"/>
	<path id="path11" class="st0" d="M994.5,142c5-4.5,12.1-5,18.5-4.8c5.2,0,10.4,1.4,14.5,4.7c4.6-4.8,11.7-4.8,17.9-4.7
		c5.6,0,11.6,1.7,15.4,6c2.8,3.3,3.3,7.8,3.4,11.9c0,8.8,0,17.5,0,26.3c0,2.3,0.2,4.6-0.5,6.8c-3.3-0.1-6.5,0.1-9.8-0.2l-0.3-0.5
		c-0.4-11.4,0.3-22.8-0.4-34.2c0.1-3.7-3.3-6.3-6.8-6.6c-3.9-0.2-8.5-0.7-11.7,2.1c-2.4,2-2.1,5.3-2.3,8.1c-0.1,9.1-0.1,18.1,0,27.2
		c-0.2,1.3,0.4,3.1-0.7,4c-3.3,0.1-6.7,0.2-10-0.1c0-11.6,0.3-23.1-0.3-34.7c0-3.9-3.9-6.5-7.5-6.6c-3.3-0.2-6.9-0.4-9.9,1.3
		c-1.9,1.1-3.1,3.2-3.2,5.4c-0.8,11.6,0,23.2-0.5,34.9c-3.4,0-6.7,0-10.1,0c-0.3-1.6-0.5-3.3-0.4-4.9c0.1-9.7-0.1-19.4,0.1-29
		C990,149.8,991,145,994.5,142L994.5,142z"/>
	<path id="path13" class="st0" d="M1086.2,138.2c7.7-1.5,16.3-1.8,23.5,1.7c6.8,3.5,8.5,11.8,8.8,18.8c0.1,7.7,0.6,16.1-3.6,22.9
		c-3.9,6.1-11.9,7.5-18.6,7.4c-6.5,0.2-13.8-0.7-18.3-5.9c-4.9-6.1-4.9-14.5-4.9-21.9c0.2-6.1,0.7-12.7,4.6-17.7
		C1079.8,140.8,1082.9,139.1,1086.2,138.2 M1090.6,146.9c-3.1,0.6-5.3,3.3-5.9,6.3c-1.1,6.5-1.1,13.1,0,19.6
		c0.6,2.5,2.1,5.2,4.7,6.1c3.9,1.3,8.3,1.2,12.3,0.3c2.9-0.6,4.8-3.3,5.4-6c1.2-6.6,1.1-13.5,0-20.1c-0.8-3.1-3.2-5.8-6.4-6.2
		C1097.3,146.4,1093.9,146.4,1090.6,146.9z"/>
	<path id="path15" class="st0" d="M1204.6,139.7c7.2-3.6,15.6-2.6,23.3-1.5c1,0.4,3,0,3.2,1.5c0.1,2.4,0.1,4.8,0,7.3
		c-0.3,0.1-0.9,0.4-1.2,0.5c-5.6-1-11.3-2-16.9-1.1c-2.2,0.4-5,1.7-5,4.3c-0.5,2.2,1.4,3.8,3.2,4.6c6.2,2.8,13.2,4.2,18.6,8.4
		c4.6,3.5,5,10,3.6,15.2c-2.3,6.5-9.4,9.6-15.9,10c-6.2,0.3-12.6,0.1-18.4-2.3c-1.1-2.7-0.4-5.9-0.3-8.8c7,1.7,14.5,3.5,21.6,1.2
		c3.6-1,4.9-6.2,1.8-8.5c-6.3-3.8-14.1-4.6-20-9C1195.2,156.1,1196.7,143.7,1204.6,139.7L1204.6,139.7z"/>
	<path id="path17" class="st0" d="M1276,140.2c-0.3-1.3,1.1-2,2.1-2.1c7.2-1,14.6-1.6,21.8,0c4.6,1.2,9.1,4,11.1,8.5
		c2.5,5.4,1.6,11.5,1.7,17.3c-0.1,5.7,0.6,11.7-1.9,17.1c-2.4,5.1-8.4,7.2-13.6,7.9c-6.5,0.4-13.6,0.5-19.4-2.8
		c-9.7-5.4-9.3-21.9,0.6-26.9c7.3-3.9,15.9-2.6,23.7-1.7c0.2-3.7-0.4-8.3-4.2-9.9c-7-2.7-14.6-0.4-21.9-0.5
		C1276,144.7,1275.9,142.5,1276,140.2 M1283.1,177.3c2.9,3.2,7.7,2.9,11.6,2.8c2.7-0.1,5.8-1.2,6.8-3.9c0.9-3.2,0.5-6.6,0.6-9.9
		c-5-1.3-10.3-1.6-15.4-0.6C1281.7,166.6,1279.7,173.6,1283.1,177.3z"/>
	<path id="path19" class="st0" d="M1325.9,142.3c5.6-5.6,14.1-5.5,21.5-4.9c0.2,3,0.1,5.9-0.1,8.9c-4,0.7-8.8-0.8-12.3,1.9
		c-2.2,1.6-2.4,4.5-2.5,6.9c-0.2,11,0,21.9-0.1,32.9c-3.4,0.4-6.9,0.1-10.3,0.3c-0.8-8.9-0.1-17.9-0.4-26.9
		C1322,154.9,1320.9,147.4,1325.9,142.3z"/>
	<path id="path21" class="st0" d="M1124.4,138.3c3.7-0.1,7.5-0.5,11.1,0.3c0.9,13.6,4.7,26.9,10.7,39.1c1-1.3,1.7-2.9,2.3-4.4
		c4.7-11,8-22.7,8.6-34.7c3.6-0.7,7.4-0.3,11.1-0.2c-0.5,17.3-7.7,33.5-15.5,48.6c-0.5,1.6-2.5,1.2-3.8,1.3
		c-2.7-0.1-5.5,0.2-8.2-0.2c-0.2-0.3-0.7-0.8-0.9-1.1C1131.8,171.9,1124.9,155.6,1124.4,138.3L1124.4,138.3z"/>
	<path id="path23" class="st0" d="M1177.1,138.3c3.5-0.3,7-0.2,10.6,0c0.1,16.5,0.2,33,0,49.5c-3.2,0.9-6.9,0.1-10.3,0.4
		C1177.1,171.6,1176.8,154.9,1177.1,138.3z"/>
</g>
<path d="M716.2,221.7c-0.1,0-0.3,0-0.4,0c-1.4-0.2-2.3-1.5-2.1-2.8l13.9-91c0.2-1.4,1.5-2.3,2.9-2.1c1.4,0.2,2.3,1.5,2.1,2.8
	l-13.9,91C718.5,220.8,717.4,221.7,716.2,221.7z"/>
</svg>
