<?xml version="1.0" encoding="utf-8"?>
<!-- Generator: Adobe Illustrator 25.0.1, SVG Export Plug-In . SVG Version: 6.00 Build 0)  -->
<svg version="1.1" id="Capa_1" xmlns="http://www.w3.org/2000/svg" xmlns:xlink="http://www.w3.org/1999/xlink" x="0px" y="0px"
	 viewBox="0 0 730 270" style="enable-background:new 0 0 730 270;" xml:space="preserve">
<style type="text/css">
	.st0{fill:#0C64AE;}
	.st1{fill:#585857;}
	.st2{fill:#E73439;}
	.st3{clip-path:url(#SVGID_2_);fill:#FFFFFF;}
	.st4{fill:#FFFFFF;}
	.st5{clip-path:url(#SVGID_4_);fill:#FFFFFF;}
	.st6{clip-path:url(#SVGID_6_);fill:#FFFFFF;}
	.st7{clip-path:url(#SVGID_8_);fill:#FFFFFF;}
	.st8{clip-path:url(#SVGID_10_);fill:#FFFFFF;}
	.st9{clip-path:url(#SVGID_12_);fill:#FFFFFF;}
	.st10{clip-path:url(#SVGID_14_);fill:#FFFFFF;}
	.st11{clip-path:url(#SVGID_16_);fill:#FFFFFF;}
</style>
<g>
	<path class="st0" d="M334,184.7c16.2-1.1,29.9-7.1,41-18c12.3-12.2,18.4-27.5,18.4-46c0-16.9-4.8-31.4-15.1-42.9
		c-0.3-0.3-0.8-0.6-1.3-0.6c-0.9,0-1.7,0.7-1.7,1.7c0,0.1,0,0.3,0.1,0.4c7.6,20.4,3.2,41-10.2,46.4c-9.4,3.8-20.8-0.8-29.7-10.7
		c-0.7-0.7-1.8-0.7-2.5,0c-0.6,0.6-0.7,1.6-0.2,2.3c0,0,0.2,0.2,0.2,0.2c7.8,8.8,11.7,19.6,11.7,32.3c0,12.7-3.9,23.4-11.7,32
		c-0.3,0.3-0.5,0.7-0.5,1.2C332.4,183.9,333.1,184.7,334,184.7"/>
	<path class="st0" d="M208.3,179c-1.4-2-3.2-4.9-5.4-8.8c-3.6-6.2-6.3-10.5-8.3-13c-2-2.5-4-4.4-6-5.9c3.5-1.5,6.8-3.6,8.7-6.5
		c1.9-2.9,2.8-6.4,2.8-10.4c0-5.8-1.9-10.5-5.8-13.9c-3.8-3.4-9.6-5.1-16.1-5.1h-16.1v68.5h10.1v-29.8h0.7c3,0,5.2,0.4,6.4,1.1
		c1.3,0.8,2.7,2,4.3,3.6c1.6,1.7,3.3,3.9,5.2,6.7l3.1,5.4l2.9,5l1.8,2.7c0.3,0.4,0.5,0.7,0.5,0.8l2.8,4.5h11.8L208.3,179z
		 M184.7,143.2c-1.6,0.8-5.1,1.2-9.4,1.2h-3.2v-19.7h2.5c4.1,0,7.7,0.3,9.5,1c1.8,0.7,3.2,1.8,4.1,3.4c1,1.6,1.5,3.4,1.5,5.3
		c0,2-0.5,3.8-1.3,5.3C187.5,141.3,186.3,142.4,184.7,143.2"/>
	<polygon class="st0" points="220.1,115.4 254.5,115.4 254.5,125 230.3,125 230.3,142.3 254.5,142.3 254.5,151.9 230.3,151.9 
		230.3,183.9 220.1,183.9 	"/>
	<path class="st0" d="M141.5,124.4c-6.6-6.7-14.9-10-24.9-10c-10,0-18.2,3.4-24.7,10c-6.5,6.7-9.8,15.2-9.8,25.4
		c0,10,3.2,18.3,9.7,24.9c6.5,6.6,14.6,9.9,24.3,9.9c10.2,0,18.6-3.3,25.3-9.9c6.7-6.6,10-15,10-25.1
		C151.4,139.5,148.1,131.1,141.5,124.4 M134,168.2c-4.6,5-10.4,7.5-17.3,7.5c-6.9,0-12.6-2.5-17.2-7.4c-4.6-4.9-6.8-11.1-6.8-18.5
		c0-7.7,2.3-13.9,6.8-18.8c4.6-4.9,10.4-7.4,17.5-7.4c6.7,0,12.4,2.5,17,7.4c4.6,5,6.9,11.1,6.9,18.4
		C140.9,156.9,138.6,163.2,134,168.2"/>
	<path class="st0" d="M323.1,124.4c-6.6-6.7-14.9-10-24.9-10c-10,0-18.2,3.4-24.7,10c-6.5,6.7-9.8,15.2-9.8,25.4
		c0,10,3.2,18.3,9.7,24.9c6.5,6.6,14.6,9.9,24.3,9.9c10.2,0,18.6-3.3,25.3-9.9c6.7-6.6,10-15,10-25.1
		C333.1,139.5,329.8,131.1,323.1,124.4 M315.7,168.2c-4.6,5-10.4,7.5-17.3,7.5c-6.9,0-12.6-2.5-17.2-7.4c-4.6-4.9-6.9-11.1-6.9-18.5
		c0-7.7,2.3-13.9,6.8-18.8c4.6-4.9,10.4-7.4,17.5-7.4c6.7,0,12.4,2.5,17,7.4c4.6,5,6.9,11.1,6.9,18.4
		C322.6,156.9,320.3,163.2,315.7,168.2"/>
	<path class="st0" d="M72.6,168.2c-5.3,5-11.8,7.5-19.7,7.5c-7.8,0-14.3-2.5-19.5-7.4c-5.2-4.9-7.8-11.1-7.8-18.5
		c0-7.7,2.6-13.9,7.8-18.8c5.2-4.9,11.8-7.4,19.9-7.4c7.6,0,14.1,2.5,19.4,7.4c0,0.1,0.1,0.1,0.2,0.2v-0.6v-9.6v-1
		c-8.3-3.8-15.8-5.6-22.6-5.6c-9.8,0-18.1,3.4-24.8,10.2c-6.7,6.8-10,15.2-10,25.2c0,6.3,1.5,12.1,4.4,17.5
		c2.9,5.4,6.9,9.6,11.9,12.7c5,3.1,11.1,4.6,18.3,4.6c8.9,0,16.7-2,23.4-5.9v-1V168v-0.6c0,0-0.1,0-0.1,0
		C73.2,167.7,72.9,167.9,72.6,168.2"/>
	<path class="st0" d="M367.5,99.9c-2.4-2.4-5.3-3.6-8.8-3.6c-3.5,0-6.5,1.2-8.8,3.6c-2.3,2.4-3.5,5.4-3.5,9c0,3.6,1.1,6.5,3.4,8.9
		c2.3,2.3,5.2,3.5,8.6,3.5c3.6,0,6.6-1.2,9-3.5c2.4-2.4,3.6-5.3,3.6-8.9C371.1,105.3,369.9,102.3,367.5,99.9"/>
	<path class="st1" d="M24.4,32.9h-3.7v9.5h-2.8V17.6h6.5c4.8,0,8.9,2.3,8.9,7.4C33.3,30.2,29.5,32.9,24.4,32.9 M24.2,20h-3.5v10.6
		h3.5c3.8,0,6.1-1.8,6.1-5.5C30.3,21.6,27.8,20,24.2,20"/>
	<path class="st1" d="M45.2,26.8c-0.5-0.2-1.3-0.3-2.3-0.3c-1.7,0-3.1,1-4,1.9v14h-2.8v-18h1.9l0.5,2.3c0.8-1,2.4-2.5,4.7-2.5
		c1.3,0,2.1,0.3,2.3,0.3L45.2,26.8z"/>
	<path class="st1" d="M61.8,33.4c0,6.1-2.9,9.4-7.7,9.4c-4.9,0-7.7-3.3-7.7-9.4c0-5.3,2.5-9.3,7.7-9.3C59.1,24,61.8,28,61.8,33.4
		 M59,33.4c0-4.7-1.6-7.2-4.9-7.2c-3.4,0-4.9,2.6-4.9,7.2c0,4.4,1.3,7.3,4.9,7.3C57.6,40.7,59,38.2,59,33.4"/>
	<path class="st1" d="M71.7,42.3l-1.8,0.1l-5.8-18h3.1c0,0,3.4,10.9,4.9,16.3c1.6-5.4,4.9-16.3,4.9-16.3h2.9l-5.8,17.8
		c-1.9,5.7-3.7,7.6-7.2,7.6c-1.5,0-3.3-0.8-4-1.4l0.9-1.9H64c0.5,0.4,1.7,1.1,3,1.1c2.1,0,3.3-1.2,4.4-4.7L71.7,42.3z"/>
	<path class="st1" d="M84.4,34.2c0,4.4,2.3,6.4,5.7,6.4c2.3,0,4.4-1.1,5.6-1.8l0.7,2c-1.5,0.9-3.9,2-6.6,2c-4.9,0-8.2-3.3-8.2-9.5
		c0-5.7,2.8-9.3,7.7-9.3c5.1,0,7.2,4.1,7.2,8.6v1.6H84.4z M89.2,26.2c-3.4,0-4.8,3-4.8,6.1h9.4C93.8,29.1,92.8,26.2,89.2,26.2"/>
	<path class="st1" d="M113.5,41.2c-1.1,0.6-3.4,1.6-6,1.6c-4.6,0-7.9-2.7-7.9-9.4c0-6.1,3.3-9.4,7.9-9.4c2.1,0,4.3,0.4,5.9,1.4
		l-0.8,2c-1.4-0.8-3.1-1.2-4.9-1.2c-3.2,0-5.2,2.6-5.2,7.1c0,5.1,2,7.2,5.2,7.2c2.1,0,3.9-0.7,5.2-1.5L113.5,41.2z"/>
	<path class="st1" d="M122.7,42.8c-2.5,0-4.6-1.3-4.6-5.5V26.4h-2.7v-2h2.7v-3.3l2.8-0.9v4.1h5.2v2h-5.2v11.2c0,1.9,0.7,2.8,2.4,2.8
		c1,0,2.3-0.5,2.9-0.8l0.6,2.1C125.9,42.2,124.2,42.8,122.7,42.8"/>
	<path class="st1" d="M143.6,33.4c0,6.1-2.9,9.4-7.8,9.4c-4.9,0-7.7-3.3-7.7-9.4c0-5.3,2.5-9.3,7.7-9.3
		C140.9,24,143.6,28,143.6,33.4 M140.8,33.4c0-4.7-1.6-7.2-4.9-7.2c-3.4,0-4.8,2.6-4.8,7.2c0,4.4,1.3,7.3,4.8,7.3
		C139.4,40.7,140.8,38.2,140.8,33.4"/>
	<path class="st1" d="M165.9,42.4l-0.5-2.3c-1.1,1.4-3,2.7-5.5,2.7c-3.7,0-5.8-2.5-5.8-5.5c0-3.1,2.3-5.1,6.4-5.1h4.7v-1.4
		c0-3.1-1.4-4.4-4.1-4.4c-2.3,0-4.1,0.6-5.4,1.2l-0.7-2c1.4-0.6,3.6-1.4,6.5-1.4c4.3,0,6.4,2.2,6.4,6.5v11.9H165.9z M165.1,34h-4.2
		c-3,0-4.1,1.3-4.1,3.1c0,2.2,1.2,3.6,3.8,3.6c1.8,0,3.5-1,4.5-2.2V34z"/>
	<path class="st1" d="M174.9,43.6v5.8h-2.8v-25h2.2l0.4,2.1c1.2-1.4,3.2-2.5,5.3-2.5c4.6,0,6.9,3.3,6.9,9.3c0,6.4-3.2,9.4-7.5,9.4
		c-2.2,0-3.6-0.8-4.8-2.1C174.5,40.7,174.9,42.5,174.9,43.6 M174.9,38.7c1.1,1.1,2.6,1.9,4.3,1.9c3.3,0,4.8-2.1,4.8-7.3
		c0-4.7-1.4-7.2-4.6-7.2c-1.8,0-3.4,1-4.4,2.1V38.7z"/>
	<path class="st1" d="M205.3,33.4c0,6.1-2.9,9.4-7.8,9.4c-4.9,0-7.7-3.3-7.7-9.4c0-5.3,2.5-9.3,7.7-9.3
		C202.5,24,205.3,28,205.3,33.4 M202.4,33.4c0-4.7-1.6-7.2-4.9-7.2c-3.4,0-4.8,2.6-4.8,7.2c0,4.4,1.3,7.3,4.8,7.3
		C201,40.7,202.4,38.2,202.4,33.4"/>
	<path class="st1" d="M215.1,42.3l-1.8,0.1l-5.8-18h3.1c0,0,3.4,10.9,4.9,16.3c1.6-5.4,4.9-16.3,4.9-16.3h2.9l-5.8,17.8
		c-1.9,5.7-3.7,7.6-7.2,7.6c-1.5,0-3.3-0.8-4-1.4l0.9-1.9h0.2c0.5,0.4,1.7,1.1,3,1.1c2.1,0,3.3-1.2,4.4-4.7L215.1,42.3z"/>
	<path class="st1" d="M236.4,42.4l-0.5-2.3c-1.1,1.4-3,2.7-5.5,2.7c-3.7,0-5.8-2.5-5.8-5.5c0-3.1,2.3-5.1,6.4-5.1h4.7v-1.4
		c0-3.1-1.4-4.4-4.1-4.4c-2.3,0-4.1,0.6-5.4,1.2l-0.7-2c1.4-0.6,3.6-1.4,6.5-1.4c4.3,0,6.4,2.2,6.4,6.5v11.9H236.4z M235.6,34h-4.2
		c-3,0-4.1,1.3-4.1,3.1c0,2.2,1.2,3.6,3.8,3.6c1.8,0,3.5-1,4.5-2.2V34z"/>
	<path class="st1" d="M254.4,40.2c-1,1.4-3.1,2.5-5.2,2.5c-4.3,0-7.2-3.2-7.2-9.4c0-5.5,2.7-9.3,7.5-9.3c2.2,0,3.8,0.7,4.8,1.5
		c-0.1-1-0.1-1.9-0.1-2.9v-5.6h2.8v25.3h-2.1L254.4,40.2z M254.1,27.5c-0.8-0.6-2.4-1.3-4.4-1.3c-3.4,0-5,2.6-5,7.2
		c0,4.4,1.4,7.3,4.8,7.3c1.6,0,3.1-0.7,4.6-2.3V27.5z"/>
	<path class="st1" d="M276,33.4c0,6.1-2.9,9.4-7.8,9.4c-4.9,0-7.7-3.3-7.7-9.4c0-5.3,2.5-9.3,7.7-9.3C273.3,24,276,28,276,33.4
		 M273.2,33.4c0-4.7-1.6-7.2-4.9-7.2c-3.4,0-4.8,2.6-4.8,7.2c0,4.4,1.3,7.3,4.8,7.3C271.8,40.7,273.2,38.2,273.2,33.4"/>
	<path class="st1" d="M290,43.6v5.8h-2.8v-25h2.2l0.4,2.1c1.2-1.4,3.2-2.5,5.3-2.5c4.6,0,6.9,3.3,6.9,9.3c0,6.4-3.2,9.4-7.5,9.4
		c-2.2,0-3.6-0.8-4.8-2.1C289.6,40.7,290,42.5,290,43.6 M290,38.7c1.1,1.1,2.6,1.9,4.3,1.9c3.3,0,4.8-2.1,4.8-7.3
		c0-4.7-1.4-7.2-4.6-7.2c-1.8,0-3.4,1-4.4,2.1V38.7z"/>
	<path class="st1" d="M320.4,33.4c0,6.1-2.9,9.4-7.8,9.4c-4.9,0-7.7-3.3-7.7-9.4c0-5.3,2.5-9.3,7.7-9.3
		C317.7,24,320.4,28,320.4,33.4 M317.6,33.4c0-4.7-1.6-7.2-4.9-7.2c-3.4,0-4.8,2.6-4.8,7.2c0,4.4,1.3,7.3,4.8,7.3
		C316.2,40.7,317.6,38.2,317.6,33.4"/>
	<path class="st1" d="M333.2,26.8c-0.5-0.2-1.3-0.3-2.3-0.3c-1.7,0-3.1,1-4,1.9v14h-2.8v-18h1.9l0.5,2.3c0.8-1,2.4-2.5,4.7-2.5
		c1.3,0,2.1,0.3,2.3,0.3L333.2,26.8z"/>
	<rect x="476.3" y="15.9" class="st0" width="107.2" height="238.2"/>
	<rect x="583.5" y="15.9" class="st2" width="131.1" height="238.2"/>
</g>
<g>
	<defs>
		<rect id="SVGID_1_" x="476.3" y="15.9" width="238.3" height="238.2"/>
	</defs>
	<clipPath id="SVGID_2_">
		<use xlink:href="#SVGID_1_"  style="overflow:visible;"/>
	</clipPath>
	<path class="st3" d="M610.5,52.7c-2.5,1.1-4.4,1.6-6.6,1.6c-5.4,0-8.2-3.8-8.2-9.6c0-5.5,2.8-9.2,8.5-9.2c2.8,0,4.6,0.7,6,1.6
		l-1.5,2.7c-1-0.7-2.6-1.2-4.5-1.2c-3.3,0-4.8,2.4-4.8,6c0,4.3,1.6,6.6,4.7,6.6c1.2,0,2.2-0.2,3.1-0.6v-3.4h-2.5l-0.2-2.6h6V52.7z"
		/>
	<path class="st3" d="M621.7,47.4c0-3.2-1-4.3-2.6-4.3c-1.7,0-2.6,1.2-2.6,4.3c0,3.1,0.8,4.3,2.6,4.3
		C620.9,51.7,621.7,50.6,621.7,47.4 M625.3,47.4c0,4.5-2.3,6.9-6.2,6.9c-4,0-6.2-2.4-6.2-6.9c0-3.9,2.2-6.9,6.2-6.9
		C623.1,40.5,625.3,43.5,625.3,47.4"/>
	<path class="st3" d="M631.5,50.4c0.5,0.7,1.5,1.4,2.4,1.4c1.5,0,2.7-1.1,2.7-4.3c0-3.1-1-4.3-2.6-4.3c-0.9,0-1.9,0.5-2.5,1.1V50.4z
		 M631.3,42.2c0.6-0.8,2-1.6,3.5-1.6c3.1,0,5.4,2.2,5.4,6.9c0,4.6-2.7,6.9-5.8,6.9c-1.9,0-3-0.7-3.8-1.9l-0.6,1.6H628V35.4h3.5V40
		L631.3,42.2z"/>
</g>
<g>
	<path class="st4" d="M643.8,35.4h3.6v3.2h-3.6V35.4z M643.9,54.1V43.4l-1.5-0.3v-2.3h5.1v13.3H643.9z"/>
</g>
<g>
	<defs>
		<rect id="SVGID_3_" x="476.3" y="15.9" width="238.3" height="238.2"/>
	</defs>
	<clipPath id="SVGID_4_">
		<use xlink:href="#SVGID_3_"  style="overflow:visible;"/>
	</clipPath>
	<path class="st5" d="M656.2,43.1c-1.7,0-2.5,1.6-2.5,3.2h4.9C658.6,44.6,658,43.1,656.2,43.1 M653.7,48.4c0,2.1,1.2,3.3,3.4,3.3
		c1.4,0,2.7-0.5,3.9-1.1l0.7,2.5c-1.1,0.6-2.9,1.3-5,1.3c-4.1,0-6.5-2.6-6.5-6.9c0-4.1,2-6.9,6.2-6.9c4,0,5.6,3,5.6,6.3v1.6H653.7z"
		/>
	<path class="st5" d="M672.2,43.7c-0.4-0.1-1-0.2-1.6-0.2c-1,0-1.8,0.4-2.4,0.9v9.7h-3.5V40.8h2.5l0.4,1.8h0.1c0.4-0.9,1.6-2,3.2-2
		c0.7,0,1.3,0.1,1.5,0.2L672.2,43.7z"/>
	<path class="st5" d="M682.6,54.1v-7.9c0-2-0.8-3-2.4-3c-0.9,0-1.7,0.4-2.3,0.8v10h-3.6V40.8h2.4l0.6,1.5c0.8-0.9,2.2-1.8,4.2-1.8
		c3.4,0,4.7,2,4.7,5.3v8.2H682.6z"/>
	<path class="st5" d="M697.3,47.4c0-3.2-0.9-4.3-2.6-4.3c-1.6,0-2.6,1.2-2.6,4.3c0,3.1,0.8,4.3,2.6,4.3
		C696.5,51.7,697.3,50.6,697.3,47.4 M701,47.4c0,4.5-2.3,6.9-6.2,6.9c-4,0-6.2-2.4-6.2-6.9c0-3.9,2.2-6.9,6.2-6.9
		C698.7,40.5,701,43.5,701,47.4"/>
	<path class="st5" d="M604.4,67.9c-0.6-0.3-1.4-0.7-2.4-0.7c-1.7,0-2.7,1.1-2.7,4.2c0,3.2,1,4.4,2.7,4.4c0.9,0,1.8-0.4,2.5-1.1V67.9
		z M604.7,65.9c-0.2-0.7-0.3-1.4-0.3-2.4v-4h3.5v18.7H605l-0.4-1.4c-0.6,0.8-1.8,1.7-3.5,1.7c-3,0-5.4-2.1-5.4-6.9
		c0-4.4,2.5-6.9,5.7-6.9C602.8,64.6,604,65.1,604.7,65.9"/>
	<path class="st5" d="M616.6,67.2c-1.8,0-2.5,1.6-2.5,3.2h4.8C618.9,68.7,618.5,67.2,616.6,67.2 M614.1,72.4c0,2.1,1.2,3.3,3.4,3.3
		c1.3,0,2.7-0.5,3.9-1.1l0.7,2.5c-1.1,0.6-2.9,1.3-5,1.3c-4.1,0-6.5-2.5-6.5-6.9c0-4.1,2-6.9,6.2-6.9c4,0,5.6,3,5.6,6.3v1.5H614.1z"
		/>
	<path class="st5" d="M638.5,78.4c-5.2,0-7.9-3.4-7.9-9.5c0-5.7,2.7-9.3,7.9-9.3c2.5,0,4.7,0.5,6.2,1.5l-1.4,2.9
		c-1-0.7-2.6-1.3-4.5-1.3c-3.1,0-4.5,2.1-4.5,6.2c0,4.2,1.5,6.4,4.5,6.4c1.8,0,3.6-0.7,4.8-1.7l1.2,2.9
		C643,77.7,640.9,78.4,638.5,78.4"/>
	<path class="st5" d="M647.2,78.1V59.5h3.5v4.9c0,0.9-0.2,1.6-0.3,2c0.7-0.9,1.9-1.8,3.8-1.8c3.8,0,4.9,2,4.9,5.3v8.2h-3.6v-7.9
		c0-1.9-0.8-2.9-2.4-2.9c-0.9,0-1.8,0.4-2.4,0.8v10H647.2z"/>
</g>
<g>
	<path class="st4" d="M662.9,59.5h3.6v3.2h-3.6V59.5z M663,78.1V67.4l-1.5-0.3v-2.2h5v13.2H663z"/>
</g>
<g>
	<defs>
		<rect id="SVGID_5_" x="476.3" y="15.9" width="238.3" height="238.2"/>
	</defs>
	<clipPath id="SVGID_6_">
		<use xlink:href="#SVGID_5_"  style="overflow:visible;"/>
	</clipPath>
	<path class="st6" d="M669.8,74.6V59.5h3.5v15c0,1.1,0.7,1.3,2.1,1.3v2.5c0,0-1,0.2-1.9,0.2C670.7,78.4,669.8,77,669.8,74.6"/>
	<path class="st6" d="M683.2,67.2c-1.8,0-2.5,1.6-2.5,3.2h4.8C685.6,68.7,685.1,67.2,683.2,67.2 M680.7,72.4c0,2.1,1.2,3.3,3.4,3.3
		c1.4,0,2.7-0.5,3.9-1.1l0.7,2.5c-1.1,0.6-3,1.3-5,1.3c-4.1,0-6.5-2.5-6.5-6.9c0-4.1,2-6.9,6.2-6.9c4,0,5.6,3,5.6,6.3v1.5H680.7z"/>
	<path class="st6" d="M601.9,235.4c0-1.2-1-1.5-1.8-1.5c-0.8,0-1.8,0.3-1.8,1.5c0,1.3,1,1.6,1.8,1.6
		C600.9,236.9,601.9,236.6,601.9,235.4 M599.7,241.6c-0.9,0.1-1.5,0.6-1.5,1.5c0,0.9,0.8,1.5,1.9,1.5c1.2,0,2-0.6,2-1.7
		C602.1,242.1,601.3,241.8,599.7,241.6 M605.2,232.1l-0.1,2c-0.4,0-1.2-0.1-1.9-0.4c0.4,0.4,0.9,0.9,1,1.6c0,2.5-2.4,3.5-4.2,3.5
		c-0.4,0-0.9-0.1-1.3-0.2c-0.3,0.1-0.5,0.3-0.5,0.6c0,1.1,6.4-0.2,6.4,3.6c0,2.4-2.3,3.7-4.8,3.7c-2.1,0-4.3-0.9-4.3-2.8
		c0-1.3,1-2,2.7-2.2c-1.3-0.2-2.5-0.5-2.5-1.7c0-0.8,0.8-1.5,1.9-1.5c-1-0.5-1.8-1.4-1.8-2.9c0-2.6,2.5-3.4,4.2-3.4
		C601.2,231.9,603.4,232.1,605.2,232.1"/>
	<path class="st6" d="M613.2,237.1c0-2.4-0.7-3.3-2-3.3c-1.2,0-1.9,0.9-1.9,3.3c0,2.3,0.6,3.3,1.9,3.3
		C612.6,240.4,613.2,239.6,613.2,237.1 M616,237.1c0,3.5-1.7,5.3-4.7,5.3c-3,0-4.7-1.8-4.7-5.3c0-2.9,1.7-5.2,4.7-5.2
		C614.3,231.9,616,234.2,616,237.1"/>
	<path class="st6" d="M620.7,239.4c0.4,0.6,1.1,1,1.8,1c1.2,0,2-0.9,2-3.3c0-2.4-0.8-3.2-2-3.2c-0.7,0-1.4,0.3-1.9,0.8V239.4z
		 M620.5,233.2c0.4-0.6,1.5-1.2,2.7-1.2c2.4,0,4.1,1.7,4.1,5.2c0,3.5-2,5.3-4.4,5.3c-1.4,0-2.3-0.6-2.9-1.4l-0.5,1.2H618V228h2.7
		v3.5L620.5,233.2z"/>
</g>
<g>
	<rect x="629" y="239.3" class="st4" width="2.7" height="2.9"/>
</g>
<g>
	<defs>
		<rect id="SVGID_7_" x="476.3" y="15.9" width="238.3" height="238.2"/>
	</defs>
	<clipPath id="SVGID_8_">
		<use xlink:href="#SVGID_7_"  style="overflow:visible;"/>
	</clipPath>
	<path class="st7" d="M641.8,241.5c-0.6,0.3-1.9,0.9-3.5,0.9c-3,0-4.8-1.7-4.8-5.3c0-3.3,1.8-5.3,4.8-5.3c1.3,0,2.5,0.3,3.5,0.8
		l-0.7,1.8c-0.7-0.5-1.6-0.6-2.5-0.6c-1.4,0-2.3,0.9-2.3,3.2c0,2.3,0.8,3.2,2.3,3.2c1,0,2.1-0.4,2.8-0.8L641.8,241.5z"/>
	<path class="st7" d="M643.6,239.5V228h2.6v11.4c0,0.9,0.5,1,1.6,1v1.9c0,0-0.8,0.2-1.5,0.2C644.4,242.4,643.6,241.3,643.6,239.5"/>
	<path class="st7" d="M539.7,63.2V67C540.4,65.4,540.1,64.1,539.7,63.2"/>
	<path class="st7" d="M547.5,41.4c-0.2,0.3-0.6,0.3-0.7,0.8C546.4,41.8,547.2,41,547.5,41.4 M550.1,41.3c0.3-0.2,0.7-0.9,1.2-0.6
		c0.3,0.2,0.5,0.4,0.8,0.6c0.3,0.2,0.6,0.4,0.7,0.6c0.2,0.3-0.3,1.1-0.7,0.4c-0.3-0.5-0.8-1.4-1.5-1.1c-0.6,0.3-1,0.7-1.1,0.3
		C549.4,41.4,549.8,41.4,550.1,41.3 M550.1,41.9c0.2-0.3,0.3,0.9,1.2,0.6C550.7,43.2,549.8,42.4,550.1,41.9 M547,43.1
		c0.1,0,0-0.5,0.4-0.5c0.4,0,1.1,0.4,1.2,0.7c0.1,0.5-0.3,1.6,1.2,1.8c0,0,0,0.2-0.1,0.5c0,0.3-0.1,0.5-0.2,0.8h0.3
		c2,0.1,3.1,0,3.7-0.7c0,0,0.4-0.3,0.5-0.7c0.5-1.1,0.6-2,0.3-2.8c0-0.1,0-0.1,0-0.2c0-0.1-0.1-0.2-0.1-0.3
		c-0.5-0.8-1.6-1.8-3.1-2.3c-0.1,0-0.2,0-0.3,0l0,0c0,0,0,0,0.1-0.1l0.3,0c1.1,0.1,2.9,1.2,3.3,2.3c0.4-0.2,0.7-0.8,0.7-1.4
		c0-0.1,0-0.7,0.2-1.3c0.1-0.2,0-0.4-0.1-0.4c-0.2-0.1-0.4,0-0.4,0.1c-0.3,0.6-0.9,0.3-0.6-0.3c0.1-0.2,0-0.4-0.2-0.4
		c-0.2-0.1-0.3,0-0.4,0.2c-0.2,0.5-0.9,0.2-0.6-0.3c0.1-0.2,0-0.4-0.1-0.4c-0.1-0.1-0.4,0-0.4,0.2c-0.3,0.6-0.9,0.2-0.6-0.3
		c0.1-0.2,0-0.4-0.2-0.4c-0.1-0.1-0.4,0-0.4,0.2c-0.2,0.4-0.3,0.6-0.5,0.8c1.2,0.2,2.5,0.9,3.3,1.7c0,0,0.3,0.4,0.4,0.4h0h0
		c0,0.1,0,0.1,0,0.1c0,0,0,0,0,0c-0.1-0.2-0.3-0.3-0.4-0.4c-1.4-1.1-2.5-1.6-3.5-1.7c-0.7,0.1-0.5,0.8-0.4,1.3
		c-1.1-0.2-1.9,0.6-2,1.3c0,0.3,0,0.6,0.2,0.9c0,0,0,0.1,0,0.1c-0.1,0-0.2-0.1-0.3-0.3c-0.1-0.2-0.1-0.4-0.1-0.6
		c-0.9,0-1.7,0.5-1.7,1.3C546.2,42.5,546.8,43.1,547,43.1"/>
	<path class="st7" d="M571.4,80.9c-0.6-0.7-2.3-0.4-2.3-0.4c0.9-2.6-1.5-3.3-1.5-3.3c-0.9-0.2-1.4-0.1-1.8,0.2h0c0,0,0,0,0,0.1
		c-0.1,0-0.1,0.1-0.2,0.1c-0.2,0.2-0.3,0.5-0.3,0.9c0,0.7,0.6,1.3,1.3,1.3c0.3,0,0.5-0.1,0.7-0.2c0.2-0.2,0.4-0.4,0.5-0.7
		c0.3,0.2,0.5,0.6,0.5,0.6c0.7,2.2-1.8,3-1.8,3c-5.5,1.7-8.9-1.2-8.9-1.2l1-0.5c0.3-0.1,0.6-0.2,0.9-0.2c0,0.1,0,0.1,0,0.2
		c0,0.6,0.5,1.1,1.1,1.1c0.6,0,1.1-0.5,1.1-1.1c0-0.2-0.1-0.4-0.2-0.5l0,0c0-0.1-0.1-0.1-0.1-0.1c-0.6-1-2.9-0.3-2.9-0.3
		c0.7-1.8,0.1-3.1,0.1-3.1c-0.4-0.7-0.3-0.9-0.3-0.9c0-0.7-0.2-0.7-0.2-0.7c-0.3-0.4-0.9-0.2-0.9-0.2c-0.9,0.2-1.1-0.2-1.1-0.2
		c-0.7-0.5-1.1-0.2-1.1-0.2c-0.3,0.2,0.1,0.8,0.1,0.8c-0.8,0-1,1-1,1c-0.3,1.7,1.1,1.8,1.1,1.8c1,0.1,1-0.7,1-0.7
		c0.1-0.8-1-0.8-1-0.8c0.2-0.4,0.5-0.4,0.5-0.4c1.2-0.3,1.7,1,1.7,1c0.9,1.5-0.2,2.8-0.2,2.8c-0.2,0.2-0.4,0.1-0.4,0.1
		c-0.6-0.3-1.6-1-1.6-1c0,0-0.1,0-0.1-0.1h-0.4c-0.4,0-0.9,0.1-1.2,0.3c0.4,0.5,1.9,1.7,1.9,1.7c-1.1,0.9-1.7,0.3-1.7,0.3
		c-0.5-0.6-0.4-1.5-0.3-1.9c-0.1,0-0.1,0-0.1,0.1c-0.5,0.2-1,0.4-1.5,0.6c0.5,0.9,1.3,2.3,1.3,2.3c-1.3,0.5-1.5-1.2-1.6-2.1
		c-0.3,0.1-0.5,0.2-0.8,0.3c0.1,0.2,0.1,0.4,0.1,0.4c0.1,0.9,0.9,2.1,0.9,2.1c-0.9-0.2-1.5,0.4-1.5,0.4c-0.5,0.5-0.5,1.2-0.5,1.4
		c0,0.4,0.3,0.6,0.6,0.6c0.3,0,0.6-0.3,0.6-0.6c0-0.3-0.3-0.6-0.6-0.6c0.3-0.7,1-0.1,1-0.1c1,0.9-0.6,1.8-0.6,1.8
		c-1.1,0.7-2.1-0.7-2.1-0.7c1.2-2.1,1.4-3.5,1.3-4.4c-0.4,0.1-0.8,0.3-1.2,0.4c0.5,1.8-0.7,2.9-0.7,2.9c-0.4-0.2-0.4-1.2-0.4-1.2
		c-0.1-0.4-0.2-0.8-0.4-1.2c-0.3,0.1-0.7,0.2-1,0.3c0.4,1.1,0.6,2.8,0.6,2.8c-0.2,0.3-0.8,0.3-0.8,0.3c-0.9,0.1-0.4-0.4-0.4-0.4
		c0.4-0.4,0.3-0.7,0.3-0.7c-0.2-0.6-1.2,0-1.2,0c-1.3,0.7-0.9,1.5-0.9,1.5c0.2,0.5,1.5,0.9,1.5,0.9c-0.7,0.6-2.1,0.3-2.2,0.3
		c-0.1-0.4-0.3-0.7-0.7-0.8c-0.1,0-0.1,0-0.1,0c-0.5-0.1-0.7,0.2-0.8,0.3c-0.1,0.1-0.1,0.2-0.2,0.3l-0.8-0.2
		c-0.6-0.1-0.9-1.7-1.1-3.1c-0.2,0-0.4,0.1-0.7,0.1c0.2,1.5,0.5,2.8,0.5,2.8c-0.3,0-1.5-0.8-1.5-0.8c-1.5-0.9-2.5-0.6-2.5-0.6
		c-0.7,0.1-1.3,0.8-1.3,1.6c0,0.9,0.7,1.6,1.6,1.6c0.9,0,1.6-0.7,1.6-1.6c0.6,0.3,1.1,0.6,1.1,0.6c1.4,1,2.7,1.1,3.1,1.1
		c0.1,0.5,0.6,0.9,1.1,0.9c0.4,0,0.8-0.2,1-0.6c3-0.1,4.2-1.5,4.2-1.5c0.3-0.4,0.4-0.2,0.4-0.2c1.1,1.6,3.3,0.6,3.3,0.6
		c0.4-0.2,0.5,0.1,0.5,0.1c0.4,0.7,1.1,0.3,1.1,0.3c0.9-0.4,0.3-1,0.3-1c-0.3-0.3,0.1-0.3,0.1-0.3c1,0.2,1.2-0.4,1.2-0.4
		c0.2-0.5-0.5-0.9-0.5-0.9c-0.2-0.3,0.2-0.5,0.2-0.5c0.6-0.4,0.5-0.7,0.5-0.7c0.7,0,0.7-0.3,0.7-0.3c0-0.3-1-0.3-1-0.3
		c-0.7-0.1-0.6-0.4-0.6-0.4c1.1-0.1,2.8-0.5,2.8-0.5c2.4,2,6.1,2.5,6.1,2.5c0.1,0.4-0.1,0.9-0.1,0.9h0c-0.3,0-0.6,0.3-0.6,0.6
		c0,0.3,0.3,0.6,0.6,0.6c0.1,0,0.2,0,0.2,0c1.1-0.3,1.3-2,1.3-2c3.3,0.3,5.6-2.2,5.6-2.2c0.3-0.3,0.5-0.2,0.6-0.1v0
		c0.2,0.2,0.4,0.4,0.7,0.4c0.3,0,0.6-0.2,0.8-0.4c0.1-0.2,0.2-0.4,0.2-0.5v0C571.6,81.1,571.4,80.9,571.4,80.9"/>
	<path class="st7" d="M531.3,85.1c0.3-0.2,0.4-0.5,0.4-0.5c0.1-0.9-0.6-1.3-0.6-1.3c-0.4,0-0.8,0-1.2,0c-0.4,0-0.8,0-1.2,0
		c0,0-0.6,0.4-0.6,1.3c0,0,0.1,0.4,0.4,0.5c0,0-0.9,0.4-0.9,0.9c0,0-0.1,0.4,0.6,1c0,0,0.5,0.6,0.7,1c0,0,0.1,0.6,0.9,0.6
		c0.9,0,0.9-0.6,0.9-0.6c0.2-0.4,0.7-1,0.7-1c0.7-0.6,0.6-1,0.6-1C532.1,85.5,531.3,85.1,531.3,85.1"/>
</g>
<g>
	<polygon class="st4" points="537.5,81.5 538,81.4 537.7,80.9 	"/>
	<polygon class="st4" points="522.8,81.5 523.3,81.5 523.1,81 	"/>
</g>
<g>
	<defs>
		<rect id="SVGID_9_" x="476.3" y="15.9" width="238.3" height="238.2"/>
	</defs>
	<clipPath id="SVGID_10_">
		<use xlink:href="#SVGID_9_"  style="overflow:visible;"/>
	</clipPath>
	<path class="st8" d="M521.1,80.3L521.1,80.3l-0.2,0.7c0.2,0,0.3,0,0.3,0c0.1,0,0.1-0.1,0.1-0.1c0,0,0.1-0.1,0.1-0.2
		c0-0.1,0-0.2-0.1-0.3C521.4,80.3,521.3,80.3,521.1,80.3"/>
	<path class="st8" d="M527.4,80.8c-0.1,0-0.3,0.1-0.3,0.2c-0.1,0.1-0.1,0.3-0.1,0.6c0,0.3,0,0.5,0.1,0.6c0.1,0.1,0.2,0.2,0.3,0.2
		c0.2,0,0.3,0,0.3-0.1c0.1-0.1,0.1-0.3,0.2-0.6c0-0.2,0-0.4-0.1-0.6C527.7,80.9,527.6,80.8,527.4,80.8"/>
	<path class="st8" d="M533,80.8c-0.2,0-0.3,0.1-0.3,0.2c-0.1,0.1-0.1,0.3-0.1,0.6c0,0.3,0.1,0.5,0.1,0.6c0.1,0.1,0.2,0.2,0.3,0.2
		c0.1,0,0.3-0.1,0.3-0.2c0.1-0.1,0.1-0.3,0.1-0.6c0-0.3-0.1-0.5-0.1-0.6C533.2,80.8,533.1,80.8,533,80.8"/>
</g>
<g>
	<polygon class="st4" points="517.9,80.8 518.3,80.8 518.2,80.3 	"/>
</g>
<g>
	<defs>
		<rect id="SVGID_11_" x="476.3" y="15.9" width="238.3" height="238.2"/>
	</defs>
	<clipPath id="SVGID_12_">
		<use xlink:href="#SVGID_11_"  style="overflow:visible;"/>
	</clipPath>
	<path class="st9" d="M509.5,77.4l-0.2,0.7l0.1,0c0.1,0,0.2,0,0.3,0c0.1,0,0.1-0.1,0.2-0.2c0-0.1,0-0.1,0-0.2c0-0.1-0.1-0.1-0.1-0.1
		C509.7,77.5,509.6,77.5,509.5,77.4"/>
	<path class="st9" d="M511.6,78.1c-0.2,0-0.3,0-0.4,0.1c-0.1,0.1-0.2,0.3-0.3,0.5c-0.1,0.3-0.1,0.5-0.1,0.6c0,0.2,0.1,0.2,0.3,0.3
		c0.2,0,0.3,0,0.4-0.1c0.1-0.1,0.2-0.3,0.3-0.5c0.1-0.2,0.1-0.4,0-0.6C511.9,78.3,511.8,78.2,511.6,78.1"/>
	<path class="st9" d="M513.7,78.8C513.6,78.8,513.6,78.8,513.7,78.8l-0.2,0.6c0.1,0,0.2,0.1,0.3,0.1c0.1,0,0.1,0,0.2-0.1
		c0,0,0.1-0.1,0.1-0.2c0-0.1,0-0.2,0-0.3C513.9,78.9,513.8,78.8,513.7,78.8"/>
	<path class="st9" d="M546.6,78.8c-0.1,0-0.2,0-0.3,0l-0.1,0l0.2,0.7c0.1,0,0.2-0.1,0.3-0.1c0,0,0.1-0.1,0.1-0.1c0-0.1,0-0.1,0-0.2
		C546.7,78.9,546.7,78.8,546.6,78.8"/>
</g>
<g>
	<polygon class="st4" points="550.2,78.6 550.7,78.4 550.3,78 	"/>
</g>
<g>
	<defs>
		<rect id="SVGID_13_" x="476.3" y="15.9" width="238.3" height="238.2"/>
	</defs>
	<clipPath id="SVGID_14_">
		<use xlink:href="#SVGID_13_"  style="overflow:visible;"/>
	</clipPath>
	<path class="st10" d="M550.9,79l-0.1-0.1c0.1,0,0.1-0.1,0.1-0.1c0,0,0,0,0-0.1c0,0,0,0,0,0l0-0.1l-0.1-0.1l-0.5,0.2v0.1
		c0,0.1,0,0.1,0,0.2c0,0,0,0.1,0.1,0.1c0,0,0.1,0,0.1-0.1l0,0.2l-0.5,0.2l0-0.1c0.1,0,0.2-0.2,0.2-0.4l0-1.5l0.2,0l1,1.1
		c0.1,0.1,0.2,0.2,0.2,0.2c0,0,0.1,0,0.1,0l0,0.1L550.9,79z M548.2,80l0-0.1l0.5-1.7l-0.3,0.1c-0.2,0.1-0.3,0.1-0.4,0.2
		c0,0,0,0.1,0,0.3l-0.1,0.1l-0.1-0.5l1.4-0.5l0,0.1l-0.5,1.8l0.4-0.1c0.1,0,0.2-0.1,0.2-0.1c0-0.1,0.1-0.1,0.1-0.2
		c0-0.1,0-0.2,0-0.3l0.1,0l0.2,0.5L548.2,80z M547.3,80.2c0,0-0.2-0.2-0.4-0.4c-0.1-0.1-0.2-0.1-0.2-0.2c0,0,0,0-0.1,0
		c0,0-0.1,0-0.2,0l0.1,0.4c0,0.1,0,0.1,0.1,0.2c0,0,0.1,0,0.2,0l0.1,0l0,0.2l-0.9,0.2l0-0.1l0,0c0.1,0,0.1-0.1,0.1-0.1
		c0,0,0-0.1,0-0.2l-0.3-1c0-0.1-0.1-0.1-0.1-0.1c-0.1,0-0.1,0-0.2,0h0l0-0.1l0.7-0.2l0.2,0c0.2,0,0.3-0.1,0.3-0.1c0.1,0,0.1,0,0.2,0
		c0.1,0,0.1,0.1,0.2,0.1c0.1,0.1,0.1,0.1,0.1,0.2c0.1,0.2,0,0.4-0.3,0.5c0.1,0.1,0.2,0.1,0.4,0.3c0.2,0.1,0.3,0.2,0.3,0.2
		c0.1,0,0.1,0,0.2,0l0,0.1L547.3,80.2z M544,81.1l0-0.1l0,0c0.1,0,0.1-0.1,0.2-0.1c0,0,0-0.1,0-0.2l-0.2-1c0-0.1,0-0.1-0.1-0.2
		c0,0-0.1,0-0.2,0l0,0v-0.2l1.5-0.3l0.1,0.5l-0.1,0c0-0.1-0.1-0.1-0.1-0.2c-0.1-0.1-0.1-0.1-0.1-0.1c-0.1,0-0.1,0-0.2,0l-0.3,0.1
		l0.1,0.6l0.2,0c0.1,0,0.1,0,0.1-0.1c0,0,0-0.1,0-0.2l0.2,0l0.1,0.6l-0.1,0h0c0,0,0-0.1-0.1-0.1c0,0-0.1,0-0.2,0l-0.2,0l0.1,0.4
		c0,0.1,0.1,0.1,0.1,0.2c0,0,0,0,0.1,0.1c0,0,0.1,0,0.2,0c0.1,0,0.2-0.1,0.2-0.1c0-0.1,0.1-0.1,0.1-0.2c0-0.1,0-0.2,0-0.2l0.1,0
		l0.1,0.6L544,81.1z M543.2,79.8l0.1,0.6c0,0.1,0,0.2,0,0.3c0,0.1,0,0.1-0.1,0.2c0,0.1-0.1,0.2-0.2,0.2c-0.1,0.1-0.2,0.1-0.3,0.2
		c-0.1,0-0.3,0-0.4,0c-0.1,0-0.2-0.1-0.3-0.1c-0.1,0-0.1-0.1-0.2-0.2c0-0.1-0.1-0.2-0.1-0.3l-0.1-0.7c0-0.1-0.1-0.1-0.1-0.2
		c0,0-0.1,0-0.2,0l0-0.1l0.9-0.2l0,0.2h0c-0.1,0-0.1,0.1-0.2,0.1c0,0,0,0.1,0,0.2l0.1,0.7c0,0.1,0,0.2,0.1,0.3
		c0.1,0.1,0.1,0.1,0.2,0.2c0.1,0.1,0.2,0.1,0.3,0c0.1,0,0.2,0,0.3-0.1c0.1-0.1,0.1-0.2,0.1-0.2c0-0.1,0-0.2,0-0.3l-0.1-0.6
		c0-0.2-0.1-0.3-0.3-0.2l0-0.1l0.6-0.1l0,0.1c0,0-0.1,0-0.1,0c0,0-0.1,0.1-0.1,0.1V79.8 M541.1,80.3c0-0.1-0.1-0.1-0.1-0.2
		c-0.1-0.1-0.1-0.1-0.1-0.1c-0.1,0-0.1,0-0.2,0l-0.3,0.1l0.1,0.6l0.1,0c0.1,0,0.1,0,0.1-0.1c0,0,0-0.1,0-0.2l0.1,0L541,81l-0.1,0
		c0-0.1-0.1-0.2-0.1-0.2c0,0-0.1,0-0.2,0l-0.1,0l0.1,0.5c0,0.1,0,0.1,0.1,0.2c0,0,0.1,0,0.2,0h0v0.1l-1,0.2l0-0.2h0
		c0.1,0,0.2,0,0.2-0.1c0,0,0-0.1,0-0.2l-0.2-1.1c0-0.1,0-0.1-0.1-0.2c0,0-0.1,0-0.2,0h0l0-0.1l1.5-0.2l0.1,0.5L541.1,80.3z M538,82
		l0-0.1c0.1,0,0.1,0,0.1,0c0,0,0,0,0-0.1v-0.1l-0.1,0l-0.1-0.1l-0.5,0.1l0,0.1c0,0.1,0,0.1,0,0.1c0,0,0,0.1,0.1,0.1c0,0,0.1,0,0.1,0
		l0,0.1l-0.6,0.1l0-0.2c0.1,0,0.2-0.1,0.2-0.3l0.4-1.5l0.2,0l0.7,1.3c0.1,0.1,0.1,0.2,0.2,0.2c0.1,0,0.1,0,0.1,0l0,0.1L538,82z
		 M535.3,82.3l0-0.2h0c0.1,0,0.2,0,0.2-0.1c0,0,0-0.1,0-0.2l-0.1-1.1c0-0.1,0-0.1-0.1-0.2c0,0-0.1,0-0.2,0l0,0v-0.2l1-0.1l0,0.1h0
		c-0.1,0-0.2,0-0.2,0.1c0,0,0,0.1,0,0.2l0.1,1c0,0.1,0,0.1,0,0.2c0,0,0,0,0.1,0c0,0,0.1,0,0.2,0c0.1,0,0.3-0.1,0.3-0.1
		c0.1-0.1,0.1-0.2,0.1-0.3l0.1,0l0,0.6L535.3,82.3z M533.7,82.2c-0.2,0.2-0.4,0.3-0.7,0.3c-0.2,0-0.4,0-0.6-0.1
		c-0.2-0.1-0.3-0.2-0.4-0.3c-0.1-0.1-0.1-0.3-0.1-0.4c0-0.2,0-0.3,0.1-0.5c0.1-0.2,0.2-0.3,0.3-0.3c0.1-0.1,0.3-0.1,0.5-0.1
		c0.3,0,0.6,0.1,0.8,0.2c0.2,0.2,0.3,0.4,0.3,0.7C534,81.8,533.9,82,533.7,82.2 M530.8,80.8c-0.1,0-0.1,0-0.1,0c0,0-0.1,0.1-0.1,0.1
		c0,0.1,0,0.1,0,0.2v1.4h-0.2l-1.2-1.3V82c0,0.1,0,0.2,0.1,0.3c0,0,0.1,0,0.2,0v0.2h-0.7v-0.2c0.1,0,0.1,0,0.2,0l0.1-0.1
		c0,0,0-0.1,0-0.2v-0.9c0-0.2-0.1-0.3-0.3-0.3v-0.1h0.6l1,1.1v-0.7c0-0.2-0.1-0.3-0.3-0.3v-0.1h0.7V80.8z M528.1,82.2
		c-0.2,0.2-0.4,0.3-0.7,0.3c-0.2,0-0.4-0.1-0.6-0.2c-0.1-0.1-0.2-0.2-0.3-0.4c-0.1-0.2-0.1-0.3-0.1-0.5c0-0.2,0.1-0.3,0.2-0.5
		c0.1-0.2,0.2-0.3,0.4-0.3c0.1-0.1,0.3-0.1,0.5-0.1c0.3,0,0.6,0.1,0.8,0.3c0.2,0.2,0.2,0.4,0.2,0.7
		C528.4,81.9,528.3,82.1,528.1,82.2 M526,80.7l-1.1,1.4l0.4,0c0.1,0,0.2,0,0.2,0c0.1,0,0.1-0.1,0.2-0.1c0,0,0.1-0.1,0.1-0.2l0.2,0
		l-0.1,0.5l-1.6-0.1v-0.1l1.1-1.4l-0.3,0c-0.2,0-0.3,0-0.4,0c0,0-0.1,0.1-0.2,0.2l-0.1,0l0-0.5l1.5,0.1V80.7z M524.1,82.2l-0.9-0.1
		l0-0.2h0.1c0,0,0,0,0,0v-0.1l0,0l0-0.1l-0.6-0.1l0,0.1c0,0.1,0,0.1,0,0.1c0,0,0,0.1,0,0.1c0,0,0.1,0,0.2,0l0,0.2l-0.6-0.1l0-0.1
		c0.1,0,0.2-0.1,0.3-0.3l0.7-1.3l0.1,0l0.4,1.5c0.1,0.1,0.1,0.2,0.1,0.2c0,0.1,0.1,0.1,0.1,0.1L524.1,82.2z M522.1,82l-0.6-0.1
		c0-0.1-0.1-0.2-0.2-0.5c-0.1-0.1-0.1-0.2-0.1-0.3c0,0-0.1-0.1-0.1-0.1c0,0-0.1,0-0.2,0l0,0.4c0,0.1,0,0.2,0,0.2c0,0,0.1,0,0.1,0.1
		h0l0,0.1l-1-0.1l0-0.2l0,0c0.1,0,0.1,0,0.2,0c0,0,0.1-0.1,0.1-0.2l0.1-1c0-0.1,0-0.1,0-0.2c0-0.1-0.1-0.1-0.2-0.1h0l0-0.2l0.7,0.1
		l0.2,0c0.1,0,0.2,0,0.3,0c0.1,0,0.1,0.1,0.2,0.1c0.1,0.1,0.1,0.1,0.2,0.2c0,0.1,0,0.1,0,0.2c0,0.2-0.2,0.3-0.4,0.4
		c0.1,0,0.1,0.2,0.2,0.4c0.1,0.2,0.2,0.3,0.2,0.3c0,0,0.1,0.1,0.1,0.1L522.1,82z M519.1,81.6l-0.9-0.2l0.1-0.1c0.1,0,0.1,0,0.1,0
		c0.1,0,0.1-0.1,0.1-0.1c0,0,0-0.1,0-0.1v0l-0.1-0.1l-0.5-0.1l0,0.1c-0.1,0.1-0.1,0.1-0.1,0.1c0,0,0,0.1,0,0.1c0,0,0.1,0,0.1,0.1
		l0,0.1l-0.6-0.1l0-0.1c0.1,0,0.2,0,0.3-0.2l0.8-1.3l0.2,0l0.3,1.5c0,0.1,0.1,0.2,0.1,0.3c0,0.1,0.1,0.1,0.1,0.1L519.1,81.6z
		 M517.1,81.3l-1.6-0.4l0-0.2h0c0.1,0,0.1,0,0.2,0c0.1,0,0.1-0.1,0.1-0.2l0.2-1c0-0.1,0-0.1,0-0.2c0,0-0.1-0.1-0.2-0.1h0l0-0.1
		l0.9,0.2l0,0.1h0c-0.1,0-0.2,0-0.2,0c0,0,0,0.1-0.1,0.2l-0.2,1c0,0.1,0,0.1,0,0.1c0,0,0,0.1,0.1,0.1c0,0,0.1,0.1,0.2,0.1
		c0.1,0,0.3,0,0.4-0.1c0.1-0.1,0.1-0.2,0.2-0.3l0.2,0L517.1,81.3z M514.2,80.1c0.1,0.2,0.1,0.3,0.2,0.3c0,0,0.1,0.1,0.1,0.1l0,0.1
		l-0.5-0.2c0-0.1-0.1-0.2-0.2-0.5c0-0.1-0.1-0.2-0.1-0.3c0,0,0-0.1-0.1-0.1c0,0-0.1,0-0.2-0.1l-0.1,0.4c0,0.1,0,0.2,0,0.2
		c0,0,0.1,0.1,0.2,0.1l0,0l0,0.1l-0.9-0.2l0-0.2l0,0c0.1,0,0.2,0,0.2,0c0-0.1,0.1-0.1,0.1-0.2l0.3-1c0-0.1,0-0.1,0-0.2
		c0,0-0.1-0.1-0.2-0.1h0l0-0.2l0.7,0.2l0.2,0c0.2,0,0.3,0.1,0.3,0.1c0.1,0,0.1,0.1,0.2,0.1c0.1,0.1,0.1,0.1,0.1,0.2
		c0,0.1,0,0.2,0,0.2c-0.1,0.2-0.2,0.3-0.5,0.3C514,79.7,514.1,79.8,514.2,80.1 M512.4,79.2c-0.1,0.2-0.2,0.4-0.5,0.5
		c-0.2,0.1-0.5,0.1-0.8,0c-0.2-0.1-0.4-0.2-0.5-0.3c-0.1-0.1-0.2-0.3-0.2-0.5c0-0.1,0-0.3,0-0.4c0-0.1,0.1-0.3,0.3-0.4
		c0.1-0.1,0.3-0.2,0.4-0.2c0.2,0,0.3,0,0.5,0c0.3,0.1,0.5,0.3,0.6,0.5C512.4,78.7,512.4,79,512.4,79.2 M510.3,78.1
		c0,0.1-0.1,0.2-0.2,0.2c-0.1,0.1-0.2,0.1-0.3,0.1c-0.1,0-0.3-0.1-0.4-0.1l-0.1-0.1l-0.1,0.4c0,0.1,0,0.1,0,0.2c0,0,0.1,0.1,0.1,0.1
		l0,0l0,0.1l-0.9-0.3l0.1-0.1l0,0c0.1,0,0.2,0,0.2,0c0,0,0.1-0.1,0.1-0.1l0.4-1c0-0.1,0-0.1,0-0.2c0-0.1-0.1-0.1-0.1-0.1l0,0
		l0.1-0.1l0.7,0.2c0.2,0.1,0.3,0.1,0.4,0.2c0.1,0,0.2,0.1,0.2,0.2c0.1,0.1,0.1,0.2,0.1,0.3C510.3,77.9,510.3,78,510.3,78.1
		 M527.4,80.1l0.5,0l-0.6,0.4h-0.1L527.4,80.1z M551.9,76.3c-0.2-0.1-0.4-0.2-0.6-0.2c-0.2,0-0.4,0.1-0.4,0.1
		c-0.8,0.2-8.4,3.6-21,3.6c-12.6,0-20.2-3.4-21-3.6c0,0-0.2-0.1-0.4-0.1c-0.2,0-0.4,0.1-0.6,0.2l-2.6,2c0.8,0,1.6,0.4,1.6,0.4
		c6.7,2.9,14.4,4.1,23,4.2c8.6-0.1,16.3-1.3,23-4.2c0,0,0.9-0.4,1.6-0.4L551.9,76.3z"/>
	<path class="st10" d="M521.9,51.3c-0.4-0.2-0.8-0.4-1-0.6c-0.2,0.1-0.6,0.4-0.9,0.6H521.9z"/>
	<path class="st10" d="M526.4,50.9c-0.2,0.1-0.5,0.2-0.8,0.4l-0.1,0h8.1c-0.1,0-0.1,0-0.1,0c-0.3-0.2-0.7-0.3-0.8-0.4
		c0,0-0.1,0-0.1,0c-0.4-0.1-0.8-0.3-1.1-0.4h-3.9c-0.3,0.1-0.7,0.2-1.1,0.4C526.5,50.9,526.5,50.9,526.4,50.9"/>
	<path class="st10" d="M538.6,50.8L538.6,50.8c-0.2,0.1-0.5,0.4-0.9,0.6h1.7C539.2,51.1,538.9,50.9,538.6,50.8
		C538.6,50.8,538.6,50.8,538.6,50.8"/>
	<path class="st10" d="M519.8,66.9v-4.2C519.5,63.5,519,65.3,519.8,66.9"/>
</g>
<g>
	<polygon class="st4" points="529.6,59.9 521.8,57.4 527.9,57.4 	"/>
</g>
<g>
	<defs>
		<rect id="SVGID_15_" x="476.3" y="15.9" width="238.3" height="238.2"/>
	</defs>
	<clipPath id="SVGID_16_">
		<use xlink:href="#SVGID_15_"  style="overflow:visible;"/>
	</clipPath>
	<path class="st11" d="M529.5,51.9h-10.3v0c0,0.1,0,0.2,0.1,0.3c0.1,0.1,0.2,0.3,0.4,0.6h9.6L529.5,51.9z"/>
	<path class="st11" d="M529.1,53.3h-9c0.1,0.3,0.3,0.5,0.4,0.8h8.3L529.1,53.3z"/>
	<path class="st11" d="M528.7,54.7h-7.9c0.1,0.3,0.2,0.5,0.3,0.8h7.4L528.7,54.7z"/>
	<path class="st11" d="M528.3,56h-7.1c0.1,0.3,0.1,0.5,0.2,0.8h6.7L528.3,56z"/>
	<path class="st11" d="M523.7,58.8h-2.4c0,0.3-0.1,0.5-0.2,0.8h3.8L523.7,58.8z"/>
	<path class="st11" d="M523,58.2l-1.2-0.8h-0.5v0.1c0,0.1,0,0.4,0,0.7H523z"/>
	<path class="st11" d="M529.6,51.9l-0.1-0.1L529.6,51.9l-0.1,0.8v0.5v0.8v0.6v0.8V56v0.8v3l7.8-2.5h-6.1l-0.2-0.5h6.8
		c0-0.3,0.1-0.6,0.2-0.8h-7.3l-0.2-0.6h7.6c0.1-0.3,0.2-0.6,0.3-0.8h-8.1l-0.2-0.6h8.5c0.1-0.3,0.3-0.6,0.4-0.8H530l-0.2-0.5h9.8
		c0.3-0.4,0.5-0.7,0.5-0.7c0.1,0,0.1-0.1,0.1-0.1H529.6z"/>
	<path class="st11" d="M531.4,64.3v6.2c0.2-0.2,0.5-0.3,0.8-0.4V65L531.4,64.3z"/>
	<path class="st11" d="M530,63.3v9c0.1-0.2,0.2-0.4,0.3-0.5l0.1-0.1c0.1-0.2,0.3-0.4,0.5-0.6v-7.1L530,63.3z"/>
	<path class="st11" d="M528.6,63.6v7.3c0.2,0.2,0.5,0.5,0.7,0.8l0,0.1c0,0.1,0.1,0.1,0.1,0.2v-9L528.6,63.6z"/>
	<path class="st11" d="M527.3,64.7v5.4c0.3,0.1,0.5,0.3,0.8,0.4V64L527.3,64.7z"/>
	<path class="st11" d="M532.8,69.9c0.3-0.1,0.6-0.1,0.8-0.2V66l-0.8-0.7V69.9z"/>
	<path class="st11" d="M525.9,69.7c0.3,0.1,0.5,0.1,0.8,0.2v-4.8l-0.8,0.6V69.7z"/>
	<path class="st11" d="M525.3,61h0.5v2.4l-0.5,1.6V61z M529.6,59.9l-2.8,1l-1.1-0.8H521c-0.1,0.3-0.2,0.5-0.3,0.8
		c-0.1,0.2-0.2,0.4-0.3,0.6v6.2c0.2,0.2,0.4,0.5,0.8,0.8V61h0.5v7.9c0.2,0.1,0.5,0.2,0.8,0.4V61h0.6v8.4c0.3,0.1,0.5,0.1,0.8,0.2V61
		h0.6v8.6c0.1,0,0.2,0,0.4,0c0,0,0.2,0,0.5,0v-3.5l-0.5,0.4L529.6,59.9z"/>
	<path class="st11" d="M534.2,66.2l-0.6-1.6V61h0.6V66.2z M538.5,61L538.5,61c-0.1-0.3-0.3-0.6-0.3-0.8h-4.7l-1.1,0.7l-2.1-0.7
		l-0.8-0.3l4.6,6.5v3.2c0.3,0,0.6,0,0.7,0c0,0,0.1,0,0.2,0V61h0.6v8.6c0.3,0,0.6-0.1,0.8-0.1V61h0.5v8.3c0.3-0.1,0.6-0.2,0.8-0.3v-8
		h0.6v7.7c0.3-0.2,0.6-0.4,0.8-0.6c0,0,0,0,0.1-0.1v-5.7C538.9,61.8,538.7,61.4,538.5,61"/>
	<path class="st11" d="M534.2,59.6h3.8c-0.1-0.3-0.1-0.6-0.2-0.8h-2.5L534.2,59.6z"/>
	<path class="st11" d="M537.3,57.4l-1.2,0.8h1.7c0-0.3,0-0.5,0-0.6c0-0.1,0-0.2,0-0.2H537.3z"/>
	<path class="st11" d="M541.5,37.8L541.5,37.8C541.4,37.7,541.4,37.7,541.5,37.8c0-0.2,0-0.3,0-0.5c0-0.3,0-0.6,0-1
		c-0.4-1.7-1.8-2.3-2.8-1.3c0,0,1.1-2,3.5-1.3c0.6,0.2,1.1,0.7,1.4,1.4c0.3,0.6,0.2,1.3,0,1.7c0,0,0,0,0,0c0,0,0,0,0-0.1
		c0.1-0.4,0-1-0.3-1.5c-0.1-0.3-0.4-0.8-0.8-0.9c0.2,0.3,0.4,0.7,0.5,0.9c0.2,0.3,0.2,0.5,0.2,0.7c0,0.8-0.3,1.6-0.7,1.9h0
		c0,0-0.1,0-0.1,0c0.4-0.9,0.4-1.7,0.1-2.4c0-0.1-0.1-0.2-0.1-0.2c-0.3-0.5-0.8-1.1-1.5-1.1c0.4,0.3,0.6,0.6,0.9,1.1
		C542.1,36.2,542,37.3,541.5,37.8 M532.7,29.2c-0.1-0.1,1.5,0.3,1.8,1.7c0.1,0.9-0.4,1.1-0.5,1.1c0,0,0-0.1,0-0.1
		c0.3-0.6,0.2-1.5-0.3-2C533.3,29.4,532.7,29.2,532.7,29.2 M531.7,44.2c-0.3-0.6,0.5-1.3,0.7-1.9C533.5,42.2,532.2,44,531.7,44.2
		 M531.9,45.8c-0.2-0.1-0.2-0.6-0.2-0.8c0.1-0.6,0.7-0.8,1-1.1C532.8,43.9,532.8,44.7,531.9,45.8 M532.1,39.3
		c0.7,0.3-0.4,1.8-0.5,2.1c0.2-0.1,0.8-0.7,1-0.5c0.4,0.3-0.8,1.9-1.1,2C529.9,40.7,532,40.1,532.1,39.3 M530.8,46.4
		c-0.3-0.1-0.1-0.5-0.1-0.8c0-1.2,0-2.3-0.3-3.3c-0.1-0.5-0.5-2.1-1.6-4c0.4,0.5,2,2.9,2.2,4.8C531.1,44.1,531.3,45.5,530.8,46.4
		 M529.9,45.7c-0.8,0-0.9-0.6-1-1.2c0.3,0.3,0.8,0.7,0.8,0c-0.3-0.3-2.1-0.7-1.6-1.5c0.3-0.4,1.3,1.3,1.5,0.7
		c0.2-1.1-3.4-1.5-3.3-2.5c0-0.5,2.8,1.4,3.2,1.3c0-0.6-4.2-2.3-5.4-4.6c-0.1-0.2-0.1-0.3-0.1-0.3c0,0,0,0,0,0
		c0.8,1.2,2.8,2.9,5.3,3.6C530.2,41.6,530.6,44.3,529.9,45.7 M521,40c0.4-1.1,0.6-2.8-1.1-3.2c-1.4-0.3-2.6,0.7-3.2,1.2
		c0.4-1.3,1.8-2.2,3.6-1.8c-0.4-1.1-1.7-1.5-3.3-0.6c-0.4,0.2-0.6,0.5-0.9,0.7c0.3-0.8,0.9-1.4,1.7-1.6c1.2-0.4,2.4,0,3,0.6
		C522.6,37.2,521.6,39.8,521,40 M517.6,40.9c0.9-0.3,1.8-0.7,1.5-1.6c-0.1-0.3-0.3-0.5-0.6-0.5c-0.5,0-0.9,0.3-1.2,0.8
		c0.1-0.9,0.6-1.4,1.4-1.3c0.5,0,1.1,0.5,1.2,0.9C520.2,40.5,519,41,517.6,40.9 M541.9,41c0.2,0,0.5,0,0.7,0
		c2.6-0.7,2.7-3.9,2.2-4.1c0,0,0,0,0,0c-0.1,0.2-0.1,0.4-0.2,0.5c-0.2,0.3-0.4,0.6-0.4,0.5c0,0,0,0,0-0.1c0.6-1,0.5-1.8,0.2-2.7
		c-0.2-0.5-0.5-1-1-1.4c-1.3-0.9-3.9-1.1-5.3,0.1c-0.5-0.5-1.1-0.9-1.8-1.2c-0.2,0.8-1.1,1.9-1.8,2.4c-0.2,0.1-0.6,0.4-0.8,0.4
		c0,0-0.2,0,0-0.2c1.4-0.9,2.1-1.9,2.1-3.2v0c0-0.7-0.2-1.9-1-2.8c-1.3-1.4-4.7-1.5-6.2-0.3c-0.4,0.5-0.7,1-0.8,1.6
		c0.2-0.5,0.5-1,1.3-1.2c0.7-0.2,2-0.1,2.2,0.7c-1.2-1.2-3.3-0.3-3.6,1.7v0c-0.1,0.1-0.1,0.1-0.1,0.1c-0.1,0-0.1,0-0.1-0.9
		c0-0.6,0.2-1.3,0.5-1.9c-2.6-0.5-5.7,0.8-5.7,4.7c0.1,0.5,0.2,1.1,0.7,1.6c0.1,0.1,0,0.2,0,0.2c-0.1,0-0.4-0.2-0.6-0.4
		c-0.3-0.4-0.5-0.8-0.6-1.3c-1.6-0.6-2.6-0.6-3.6-0.5c-1,0.1-2.2,0.9-2.7,1.5c-0.2,0.2-0.4,0.6-0.6,0.9c-0.3,0.6-0.6,1.4-0.5,2.3
		c0.1,1.5,0.9,2.8,2,3.4c1.5,0.8,3.4,0.7,4.1,0.6c0.4-0.1,0.8-0.2,1.2-0.5c0.1,0,0.1-0.1,0.2-0.1c0,0,0,0,0.1-0.1
		c0.6-0.5,1-1.3,0.9-2.4l0.1-0.1c0.1,0,0.2,0.3,0.2,0.6c0,0.4-0.1,0.9-0.3,1.3v0.2c0,0.1,0.1,0.3,0.2,0.4c0.3,0.3,1,0.4,1.5,0.2
		c0,0,0.1,0,0.1,0c0,0.1-0.4,0.5-1.1,0.5c-0.1,0-0.3,0-0.4,0c0.4,0.6,1.5,1.1,2.6,1c0,0,0.1,0,0.1,0.1c0,0.1-0.3,0.2-0.6,0.2
		c-0.5,0-1.1-0.1-1.6-0.4c0.5,0.6,1.5,1.2,3,1.4c0,0.2-1.2,0-1.5-0.1c0.7,2.8,2.2,2.5,2.2,2.7c-0.4,0.1-0.7,0.7-0.4,1.3
		c1.6-0.6,2.8-0.6,3.1-0.6c0.4,0,1.6,0.1,3.2,0.6c0.2-0.3,0.2-0.5,0.1-0.7c-0.2-0.7-2.4-1.2-4.4-0.7c-0.1,0-0.2,0.1-0.3,0.1h-0.1
		c0,0,0,0,0.1-0.1c0,0,0.3-0.2,0.3-0.2c0.9-0.5,2.7-0.6,3.8-0.1c0.9,0.4,1.7-0.7,1.4-1.2c0.6,0,1.1-0.4,1.2-1
		c-0.1,0.1-0.2,0.1-0.3,0.2v0c-0.2,0.1-0.4,0.1-0.5,0.1l0,0h0l0,0c0.1,0,0.2-0.1,0.3-0.1c1.2-0.7,1.8-2,1.7-2.4
		c-0.1,0.2-0.5,0.4-0.9,0.4c-0.2,0-0.3,0-0.3-0.1l0,0c0.2,0,0.3-0.1,0.4-0.2c0.4-0.3,0.8-0.8,1-1.3c-0.8-0.7-1-1.5-1.4-2.6
		c-0.2-0.4-0.5-0.8-1-0.9c0,0-0.2,0-0.2,0c-0.1,0-0.1,0-0.2,0h0c0.6-0.5,1.2,0,1.5,0.2c0.1-1.1,0.4-1.3,0.5-1.3c0,0,0,0,0,0
		c-0.7,2.2,0.7,4.2,1.8,4.8c1.5,0.8,4.2,0.9,6-0.6h0c-0.3,0.1-0.7,0.2-1,0.2C542.1,41.3,541.8,41.1,541.9,41
		C541.8,41.1,541.8,41,541.9,41"/>
	<path class="st11" d="M563.5,70.8c-0.2,0.8-0.5,2.7-0.6,2.6c1.7-14.7,0.7-18.3,0.5-18.3c-0.2,0.1-0.5,1.8-1.3,1.3
		c-0.8-0.5,1.8-3.8,0.8-5.5c-0.2-0.3-0.5,0.4-0.9,0.3c-1.1-0.4,0.6-3.1,0.3-3.4c-0.2-0.2-1-0.4-1.1-1.4c0-0.5,0.3-0.8-0.1-1.2
		c-0.3-0.3-0.2,0.3-0.6,0.1c-0.5-0.5,0-1.1-0.3-1.5c-0.1-0.1-0.5,0.3-0.8,0.1c-0.3-0.3,0.2-0.7-0.2-0.9c-0.5,0.1-1.2,0.6-1,1.4
		c0.1,0.4,0.6,0.7,0.5,1.1c0,0.4-0.5,0.9-0.6,1.1c-0.7,1.6,0.5,1.9,0.3,2.5c-0.1,0.3-0.6,0.4-0.9,0.3c-0.4-0.2-0.5-1.6-0.4-2.2
		c0.2-0.7,1.1-1.5,1.1-1.8c0-0.4-0.5-0.9-0.5-1.4c-0.1-0.9,0.6-1.7,1.4-1.5c0.6,0.1,0.9,0.6,1.3,1c0.1,0.1,0.3,0.3,0.4,0.4
		c1,1.2,1.8,3.4,2.3,5.1C564.5,53.8,565.2,61.9,563.5,70.8 M556.2,49.9c-0.2,0.2-0.8,0.5-1.2,0.6c-0.7,0.2-1.5-0.1-1.8-0.6
		c0.5-0.2,1,0.2,1.8,0.1c0.2,0,0.5-0.1,0.7-0.1c0.2-0.1,0.4-0.3,0.6-0.3C556.5,49.8,556.3,49.9,556.2,49.9 M548.2,74.2L548.2,74.2
		c0,0-0.1,0.1-0.1,0.1c-0.4,0-1.3-0.6-1.3-0.6c-0.1-0.1-0.5-0.3-0.8-0.2c-0.4,0.2-0.5,0.5-0.7,0.7c0-0.1,0-0.1,0-0.2l0,0
		c0-0.1,0-0.1,0-0.2v-0.1c0,0,0-0.1,0-0.1c0,0,0,0,0-0.1c0-0.1,0-0.1,0.1-0.1c0-0.1,0-0.1,0-0.1c0,0,0.1-0.1,0.1-0.1
		c0,0,0.1-0.1,0.1-0.1c0,0,0,0,0,0c0.2-0.1,0.5-0.1,0.7-0.1c0.3,0,0.7,0.1,0.9,0.4c0.3,0.3,0.9,0.4,1.3,0.4
		C548.4,73.7,548.2,74,548.2,74.2 M514.7,72.3C514.7,72.3,514.7,72.4,514.7,72.3l-0.1,0.1c0,0,0,0-0.1,0c-0.1,0-0.2,0.1-0.3,0.1
		c-0.2,0-0.4,0-0.6-0.1c0,0.1,0.1,0.2,0.2,0.3v0c0,0,0.1,0.1,0.2,0.1c0.1,0,0.2,0.1,0.3,0.1c0,0.2-0.3,0.3-0.5,0.3
		c-0.3,0-0.6-0.4-0.7-0.6c0,0-0.1,0-0.1-0.1c0,0,0,0,0,0c-0.3-0.2-0.8-0.2-1.2-0.3c0.1-0.8,2.3-0.2,2.3-0.2
		C514.3,72.1,514.6,72.1,514.7,72.3C514.8,72.2,514.7,72.3,514.7,72.3 M549,66.8c-1.9,0.1-3.1-1.5-3-1.5c0.1,0,0.6,0.6,1.3,0.9
		c0.9,0.3,2.1,0.1,2.7-0.4c0,0,0.1,0,0.1,0C550.2,65.9,550.1,66.6,549,66.8 M542.4,65.5L542.4,65.5c0,0-0.1,0.1-0.1,0.1
		c0,0.1-0.1,0.1-0.1,0.1l0,0c-0.1,0-0.1,0.1-0.1,0.1h0c0,0-0.1,0-0.1,0h-0.1h-0.1h-0.1c0,0,0,0-0.1,0c0,0,0,0,0,0
		c-0.1,0-0.1-0.1-0.1-0.1c0,0-0.1,0-0.1,0c-0.1-0.1-0.1-0.1-0.2-0.1c0,0,0,0,0,0c0,0-0.2-0.4,0.1-0.5c0.1,0.1,0.1,0.1,0.1,0.1l0,0
		l0.1,0h0c0,0,0.1,0,0.1,0h0l0.1,0c0,0,0,0,0,0c0,0,0-0.1,0-0.1v0c0,0,0-0.1,0.1-0.1c0,0,0,0,0-0.1c0,0,0-0.1,0-0.1c0,0,0-0.1,0-0.1
		v-0.1c0-0.6,0-1.5,0.2-1.8c0,0,0-0.1,0.1-0.1l0,0c0,0,0,0,0,0h0c0,0,0.1,0,0.1,0c0,0,0,0,0,0c0,0,0,0,0,0.1c0,0,0,0,0,0
		c0,0,0,0,0,0.1c0,0,0,0,0,0.1v0.1v0.1c0,0.2,0,0.4,0,0.6V64c0,0.1,0,0.3,0,0.4C542.7,64.7,542.6,65.2,542.4,65.5 M539.9,67.7
		c-0.1,0.2-1.5,2.3-5,2.3c-0.3,0-3.2,0-4.1,1.9c0,0,0,0.1-0.1,0.1c-0.1,0.2-0.5,0.8-0.6,1.1c0,0.1-0.1,0.1-0.1,0.1
		c-0.1,0-0.2,0-0.2-0.1c-0.2-0.3-0.5-0.9-0.6-1.1c0,0,0-0.1,0-0.1c-1-1.8-3.8-1.9-4.1-1.9c-3.6,0-4.9-2.1-5.1-2.3
		c-1.8-2.6-0.1-5.5-0.1-5.6c1.4-2.5,1.3-4.2,1.3-4.6c0-2.8-1.7-4.9-1.9-5.1c-0.2-0.2-0.2-0.4-0.2-0.5c0-0.3,0.2-0.4,0.3-0.4
		c0.4-0.3,1.2-0.8,1.6-1l0.2-0.1c0,0,0.1,0,0.1,0c0.1,0,0.2,0.1,0.4,0.2c0.3,0.3,1,0.8,2.1,0.8c0.2,0,0.4,0,0.6-0.1
		c0.6-0.1,1.5-0.6,1.6-0.6c0.3-0.1,0.7-0.3,0.8-0.4l0.1,0c1.6-0.7,2.9-0.7,3.3-0.7c0.4,0,1.7,0.1,3.3,0.7l0.1,0.1
		c0.2,0.1,0.6,0.3,0.9,0.4c0,0,1,0.5,1.6,0.6c0.2,0,0.4,0.1,0.6,0.1c1.1,0,1.8-0.5,2.1-0.8c0.2-0.1,0.3-0.2,0.4-0.2
		c0,0,0.1,0,0.1,0.1c0,0,0.1,0,0.2,0.1c0.4,0.2,1.2,0.7,1.6,1c0,0,0.2,0.1,0.3,0.4c0,0.1,0,0.3-0.2,0.6c-0.2,0.2-1.9,2.3-1.9,5.1
		c0,0.4-0.2,2.1,1.3,4.6C540,62.2,541.6,65.1,539.9,67.7 M518.9,62.9c0,0,0,0.1,0,0.1c0,0.1-0.1,0.2-0.1,0.2c0,0,0,0-0.1,0.1
		c0,0-0.1,0.1-0.1,0.1c0,0,0,0.1-0.1,0.1c0,0.1-0.1,0.1-0.1,0.2c0,0,0,0-0.1,0.1c0,0-0.1,0.1-0.1,0.1l-0.1,0
		c-0.1,0.1-0.1,0.1-0.2,0.1h0c-0.1,0-0.1,0-0.2,0.1l0,0c-0.1,0-0.2,0-0.2,0c-0.1-0.1-0.1-0.1-0.1-0.2v0c0-0.2,0.2-0.4,0.3-0.7
		c0.1-0.2,0.1-0.4,0.2-0.6c0.2,0,0.4,0.1,0.5-0.2c-0.4-0.3-0.4-0.9,0.1-1.3c0.7-0.7,0-2.1,0.1-2.2c0.2,0.2,0.3,0.6,0.4,1.2v0.1
		c0,0.1,0,0.1,0,0.2v0.2v0.2v0.1v0.3c0,0.1,0,0.1,0,0.1c0,0,0,0.1,0,0.2v0.1c0,0.1,0,0.2,0,0.2c0,0.1,0,0.1,0,0.2c0,0,0,0.1,0,0.1
		c0,0.1,0,0.1,0,0.1c0,0-0.1,0.1-0.1,0.1c0,0.1,0,0.2,0,0.2C519,62.7,519,62.7,518.9,62.9C518.9,62.8,518.9,62.8,518.9,62.9
		 M540.9,60c0.1,0,0.2,0,0.3,0v0c0.1,0,0.2,0,0.3,0c0.1,0,0.3,0.4,0.4,0.8c0,0.1,0.2,0.7,0.4,0.9c0.2,0.2,0.1,0.6-0.4,0.5h0
		c-0.5-0.1-1.1-0.9-0.9-1.7c-0.2,0-0.3,0-0.4,0h0c-0.1,0-0.1,0-0.2,0c0,0,0,0-0.1,0c0,0-0.1,0.1-0.1,0.1c0,0,0,0-0.1,0
		c-0.1,0.1-0.2,0.3-0.3,0.3c0-0.3,0.2-0.6,0.5-0.8h0C540.5,60.1,540.7,60,540.9,60 M518.6,56.8c-0.3,0.1-0.3-1.2-1.9-0.9
		c-0.8,0.4-1.4,0.1-2-0.1C517,54.6,518.8,55.8,518.6,56.8 M511.1,48.1c-1-0.4-2.2-0.5-2.6-1.3c1.5,0.1,2.9,0.1,3.8,0.6
		c0,0,0.1,0.1,0.1,0.1c0.3,0.2,1.1,0.8,1.4,1.9C512.6,48.7,512.2,48.5,511.1,48.1 M508,43.2c-0.4,0-0.7-0.3-1,0c0,0-0.5,0.4-0.4,0.8
		c0,0.3-0.4,0.5-0.6,0.3c-0.3-0.8,0.9-1.8,1.2-1.9c0.7-0.3,1.2,0.2,2,0.3c0.4,0.1,0.9,0,1.3,0c0.8,0.1,0.6,0.7,0.5,0.8
		c-0.7,0.2-1.1-0.4-1.7-0.4C508.9,43,508.4,43.3,508,43.2 M506.8,44.2c0.9,0.3,1-0.8,1.2-0.6C508.4,44.2,507.5,45,506.8,44.2
		 M501.1,78.4L501.1,78.4c0.1,0.1,0.3,0.2,0.4,0.4c0.1,0,0.1,0.1,0.1,0.1c-0.1,0.2-0.3,0.2-0.5,0.1c0,0,0,0,0,0
		c-0.2-0.1-0.4-0.2-0.5-0.3c-0.2,0.3,0.1,0.5,0.3,0.7c-0.1,0.1-0.1,0.1-0.2,0.1h0c-0.1,0-0.3,0-0.3-0.1h0c-0.3-0.1-0.4-0.6-0.4-0.9
		c0-0.2-0.2-0.6-0.5-0.8C500.1,77.3,501.1,78.3,501.1,78.4 M545.6,49.7c-0.3,0.4-0.6,1-1.2,1.1c-1.1,0.2-2.1-0.6-2.1-0.7
		c-0.1-0.1,0.9,0.4,1.7,0.4C544.7,50.4,545.2,49.9,545.6,49.7C545.6,49.6,545.6,49.6,545.6,49.7 M541.6,44.5c0,0.1-0.1,0.1-0.1,0.1
		c-0.6-0.3-1.8-0.3-2.6,0.1c-0.6,0.3-1.1,1-1.2,1c-0.1,0,1-1.7,2.9-1.8C541.6,43.9,541.7,44.5,541.6,44.5 M565.1,59.1
		c-0.3-4-0.6-7.7-1.5-11c-0.6-2-1.8-6.2-4.5-6.8c-1.3-0.3-2.2,0.9-2.2,2c0,0.9,0.6,1.4,0.4,2.3c-0.3,0.6-0.7,1.2-0.8,1.9
		c-0.2,0.7,0.4,0.9,0.2,1.6c-0.8-0.1-1.3,0.6-2.5,0.3c-1.1,0.4-2.2,0.2-2.2,0.2c0,0,0-0.1,0-0.1c1.2,0,2.3-0.4,2.6-1
		c0.3-0.8,0.1-2-0.5-2.5c-0.7,0.1-1,0.7-3.4,0.6c-2-0.1-2.5,0.3-2.8,1.4c-0.1-0.2-0.1-0.3-0.1-0.6c0.1-0.7,0.7-1,1.6-1.2
		c0.2-0.3,0.2-0.5,0.2-0.8c-0.4,0-0.5,0-1,0c-0.9,0.1-2.2,0.7-2.6,1.6c0,0.1-0.1,0.3-0.1,0.5c0,0.1,0.1,0.3,0.1,0.4
		c0,0.1,0.1,0.2,0.1,0.3c0.3,0.6,1.1,1,2.7,1.1c0,0,0.1,0,0.1,0c0,0.1-0.3,0.1-0.7,0.1c0,0-1.5,0-2.1-0.8c0,0.1-0.1,0.1-0.1,0.2
		c-0.4,0.4-1.1,0.8-1.8,0.8c-0.7,0-1.5-0.4-1.8-0.8c-1-1.3,0.3-3.5,0.3-4.4c-0.1-2.2-3.1-1.2-4.2-0.6c-1.3,0.7-2.4,1.8-3.3,2.9
		c-0.5,0.6-1,1.3-1.3,1.9c0.4,0.2,1.5,0.7,2.4,0.7l0.1,0c0,0,0.1,0,0.3,0c0.4,0,1.3-0.1,1.9-0.6c0.1-0.1,0.3-0.3,0.7-0.3
		c0.3,0,0.5,0.1,0.8,0.3c0.1,0.1,2,1.7,2.7,2.1c0.1,0.1,0.3,0.2,0.3,0.5c0,0.1,0,0.4-0.2,0.7c-0.1,0.2-1.1,1.3-1.7,2.8
		c-0.1,0.2-0.2,0.4-0.2,0.7c-0.2,0.8-0.4,2.1,0.7,2.5c0,0,1.3,0.3,1.2-1.7c0,0,0.2,1.3,1.2,1.3c0.4,0,0.8-0.4,0.7-1.3
		c-0.1-0.8-0.1-1.8,0.1-2.9c0-0.1,0-0.1,0-0.1c0,0,0.1,0.1,0.1,0.5c0,0.5-0.3,5.3,3.6,8.6c0,0-1.7-0.8-2.8-2.8
		c-0.7,0.4-1.6,1.2-1.2,3.1c0.2,0.6,0.7,1.2,1,1.4c0,0,0,0,0,0.1c0,0.1-0.2,0.2-0.6-0.1c-0.1-0.1-0.1-0.1-0.2-0.2
		c-0.1-0.2-0.2-0.4-0.3-0.6c-0.4-0.4-0.9-0.8-1.3-1.3c-0.3-0.6-0.1-2.6-2-2.6h-0.2h0c-0.1,0-0.2,0-0.3,0h0c-0.5-1.7-0.4-2.7-0.3-2.9
		c0.4-2.4,2.1-4.4,2.3-4.7c0.1-0.1,0.2-0.2,0.1-0.3c0-0.1-0.1-0.2-0.1-0.2l0,0c-0.7-0.4-2.5-1.9-2.7-2.1l0,0
		c-0.1-0.1-0.3-0.2-0.4-0.2c-0.3,0-0.4,0.2-0.4,0.2c-0.7,0.6-1.7,0.7-2.2,0.7c-0.2,0-0.3,0-0.3,0h-0.1c-1.1-0.1-2.5-0.7-2.7-0.8
		c-1.9-0.8-3.3-0.8-3.6-0.8c-0.3,0-1.7,0-3.5,0.8c-0.3,0.2-1.6,0.8-2.7,0.8h0c0,0-0.2,0-0.4,0c-0.5,0-1.5-0.1-2.2-0.7h0
		c0,0-0.2-0.2-0.4-0.2c-0.2,0-0.3,0.1-0.5,0.2l0,0c-0.2,0.2-2.1,1.7-2.7,2.1l0,0c0,0-0.1,0.1-0.1,0.2c0,0.1,0,0.2,0.1,0.3
		c0.2,0.2,1.9,2.2,2.3,4.7c0,0.1,0.1,0.5,0,1.1c-0.1-0.5-0.3-1-0.4-1.3c-0.1-0.3-0.2-0.5-0.3-0.7l0,0c-0.3-0.4-0.7-0.7-1.1-0.9
		c-0.3-0.2-0.7-0.3-1-0.5c-0.5-0.3-1-0.7-1.4-1.3c0-1.3-0.7-2.2-0.7-2.2c0.2-0.1,0.9,0.5,1,1.8c0.9-0.9,1.3-2.3,1.7-3.8
		c0.7-0.9,2.5-0.5,3.3-0.4c0.2,0,0.5,0.1,0.6,0.2c0.2,0.1,0.2,0.5,0.5,0.6c0.3,0.1,0.6,0,1,0c0.1,0.1,0.2,0.3,0.3,0.5
		c0.1,0,0.2,0,0.2,0l0,0h0.1c1,0,2.4-0.7,2.5-0.7l0.1,0c0,0,0.1,0,0.1,0c-0.4-0.5-1-0.7-1.6-0.7c-0.7-0.1-1.1-0.7-1.8-0.8
		c-0.2-0.1-0.8-0.2-1-0.1c-1.5,0.2-2.5-0.4-3.9-0.5c-1.3-0.1-1.4,0.8-1.8,1.5c-0.2,0.3-0.4,0.6-0.6,0.8c-0.4,0.4-0.8,0.4-1.2,0.7
		c0,0,0,0-0.1-0.1c-0.1-0.4-0.3-1.2-0.6-1.7v0c-0.1-0.1-0.1-0.1-0.1-0.2c-0.7-1.1-1.6-2-3.2-2.4c-0.3-0.1-0.3-0.1-0.6-0.3
		c-0.2-0.2-0.1-0.4,0-0.4c0.4-0.3,1.3-0.2,1.8-0.4c1.3-0.6,0.8-1.7,0.3-1.7c-0.6-0.1-1.8-0.4-2-0.6c-0.3-0.2-0.5-0.7-1-0.9
		c-0.4-0.1-0.7-0.1-1.1-0.1c-0.3,0.1-0.5,0.3-0.7,0.2c0.3-0.4,0.8-0.6,1.4-0.7c-0.6-0.1-0.4-1.1-0.9-1.3c-0.2,0-0.5,0-0.9,0.3
		c0-0.3-0.2-1.3-0.7-1.6c-0.4-0.2-0.6,0.1-0.6,0.4c0,0.2,0.7,0.5,0.8,1.5c-0.1,0.1-0.2,0.1-0.3,0.2c-0.1-0.4-0.3-1-0.7-1.2
		c-0.4-0.3-0.6,0.1-0.6,0.4c0,0.2,0.6,0.4,0.7,1.3c-0.1,0.1-0.3,0.2-0.4,0.4c-0.9-0.2-1-0.9-1.3-0.9c-0.2-0.1-0.6,0.1-0.4,0.5
		c0.2,0.4,0.8,0.7,1.2,0.8c-0.1,0.1-0.2,0.2-0.3,0.3c-1-0.2-1.2-0.9-1.4-0.9c-0.3,0-0.6,0.1-0.4,0.5c0.3,0.6,1.2,0.8,1.5,0.9
		c-0.2,0.3-0.3,0.5-0.2,0.7c-0.8-0.1-2.2,0.3-1.9,1.2c0.3,0.2,1.2-0.5,2-0.2c0.6,0.9,1.5,0.9,1.7,1.1c0.3,0.2,0.4,0.7,0.5,1.1
		c0.2,0.7,0.8,1.3,1.2,2c0.5,0.7,1,1.5,1.4,2.1c0.1,0.2,0.1,0.4,0.1,0.6c-0.6,0.9-2.3,1.9-3,2.6c-0.7,0.7-7.3,5.7-8.2,7.9
		c-0.2,0.5-0.3,1.1-0.3,1.8c-0.4,0.2-1.1,0.1-1.3-0.1c-0.4-0.5,0.4-1,0.2-1.7c-0.1-0.3-0.4-0.4-0.7-0.3c-0.5,0.2-0.6,1.2-0.4,1.8
		c0.1,0.2,0.3,0.4,0.1,0.5c-0.3,0.1-0.4-0.2-0.4-0.5c-0.1,0.1-0.2,0.3-0.2,0.6c0.1,0.5,0.7,0.5,0.9,0.6c0,0.2-0.4,0.3-0.6,0.1
		c-0.3,0.6,0.1,0.7,0.2,0.7c0.4,0.1,0.8-0.3,1.1-0.3c0.1,0.3-0.1,0.4-0.5,0.5c0.7,0.8,1.3-0.6,2-0.4c0.3,0.1,2.3,2,2,3.5
		c0,0.1-0.1,0.3-0.2,0.4c-0.5,0.6-1.2,1-1.8,1.6c-1.1,0.7,1,5.1,0.9,7.3c-0.2,0.9,0.7,0.7,1.2,2.1c-0.5,0-1.1,0.1-1.3,0.5
		c0,0,0,0-0.1,0.1l0,0c-0.1,0.1-0.1,0.3-0.1,0.5c0,0.6,0.5,1.1,1.1,1.1c0.6,0,1.1-0.5,1.1-1.1v-0.2c0.2,0,0.5,0.1,0.9,0.2l1,0.5
		c0,0-3.4,2.9-8.9,1.2c0,0-2.5-0.8-1.8-3c0,0,0.1-0.4,0.5-0.6c0.1,0.3,0.3,0.5,0.5,0.7c0.2,0.2,0.4,0.2,0.7,0.2
		c0.7,0,1.3-0.6,1.3-1.3c0-0.3-0.2-0.6-0.3-0.9c-0.1-0.1-0.1-0.1-0.2-0.1c0,0,0,0,0,0l0,0c-0.4-0.3-0.9-0.4-1.8-0.2
		c0,0-2.4,0.7-1.5,3.3c0,0-1.6-0.4-2.2,0.4c0,0-0.2,0.3-0.2,0.6v0c0,0.1,0,0.3,0.2,0.5c0.2,0.3,0.4,0.4,0.8,0.4
		c0.3,0,0.5-0.1,0.7-0.4v0c0.1-0.1,0.2-0.2,0.6,0.1c0,0,2.3,2.5,5.6,2.2c0,0,0.1,1.7,1.2,2c0,0,0.1,0,0.2,0c0.3,0,0.6-0.3,0.6-0.6
		c0-0.3-0.3-0.6-0.6-0.6h-0.1c0-0.1-0.1-0.6-0.1-0.9c0,0,3.7-0.5,6.1-2.5c0,0,1.7,0.5,2.8,0.6c0,0,0.2,0.4-0.6,0.4
		c0,0-0.9,0-0.9,0.3c0,0-0.1,0.3,0.7,0.3c0,0-0.1,0.4,0.5,0.7c0,0,0.4,0.2,0.2,0.4c0,0-0.7,0.4-0.5,0.9c0,0,0.2,0.6,1.2,0.4
		c0,0,0.3,0,0.1,0.3c0,0-0.5,0.5,0.3,1c0,0,0.7,0.4,1.1-0.3c0,0,0.1-0.3,0.5-0.1c0,0,2.2,1,3.3-0.6c0,0,0.1-0.3,0.4,0.2
		c0,0,1.1,1.4,4.1,1.5c0.2,0.4,0.6,0.6,1,0.6c0.5,0,1-0.4,1.1-0.9c0.4,0,1.7-0.1,3.1-1.1c0,0,0.5-0.3,1.1-0.6c0,0.9,0.7,1.6,1.6,1.6
		c0.9,0,1.6-0.7,1.6-1.6c0-0.8-0.6-1.4-1.3-1.6c0,0-1.1-0.3-2.5,0.6c0,0-1.2,0.8-1.5,0.8c0,0,0.3-1.3,0.5-2.9c-0.2,0-0.4,0-0.7-0.1
		c-0.1,1.4-0.5,3-1,3.1l-0.8,0.2c0-0.1-0.1-0.2-0.2-0.3c-0.1-0.2-0.4-0.4-0.8-0.3c0,0,0,0-0.1,0c-0.4,0.1-0.6,0.4-0.7,0.8
		c-0.2,0-1.5,0.3-2.2-0.3c0,0,1.3-0.5,1.5-0.9c0,0,0.4-0.8-0.9-1.5c0,0-1-0.6-1.3,0c0,0-0.1,0.3,0.3,0.7c0,0,0.5,0.5-0.4,0.4
		c0,0-0.6-0.1-0.8-0.3c0,0,0.2-1.7,0.6-2.8c-0.3-0.1-0.7-0.2-1-0.3c-0.1,0.4-0.3,0.8-0.4,1.2c0,0-0.1,1-0.4,1.2c0,0-1.3-1.1-0.7-2.9
		c-0.4-0.1-0.8-0.2-1.2-0.4c0,0.9,0.2,2.3,1.3,4.4c0,0-1,1.4-2.1,0.7c0,0-1.5-1-0.6-1.8c0,0,0.7-0.6,1,0.1c-0.4,0-0.6,0.3-0.6,0.6
		c0,0.3,0.3,0.6,0.6,0.6c0.4,0,0.6-0.3,0.6-0.6c0-0.3,0-0.9-0.5-1.4c0,0-0.6-0.6-1.5-0.4c0,0,0.9-1.1,0.9-2.1c0,0,0-0.2,0.1-0.4
		c-0.3-0.1-0.5-0.2-0.8-0.3c-0.1,0.9-0.3,2.6-1.6,2.1c0,0,0.8-1.4,1.3-2.3c-0.5-0.2-1-0.4-1.5-0.6c0,0-0.1-0.1-0.1-0.1
		c0.1,0.4,0.2,1.3-0.3,1.9c0,0-0.6,0.6-1.7-0.3c0,0,1.5-1.2,1.9-1.7c-0.3-0.1-0.8-0.3-1.2-0.3h-0.4c-0.1,0-0.1,0.1-0.1,0.1
		c0,0-1,0.7-1.6,1c0,0-0.2,0.1-0.4-0.1c0,0-1.2-1.4-0.3-2.8c0,0,0.6-1.3,1.7-1c0,0,0.3,0,0.5,0.4c0,0-1.1,0.1-1,0.8c0,0,0,0.8,1,0.7
		c0,0,1.4-0.2,1-1.8c0,0-0.2-1-1-1c0,0,0.5-0.6,0.1-0.8c0,0-0.3-0.3-1.1,0.2c0,0-0.2,0.4-1.1,0.2c0,0-0.6-0.2-0.9,0.2
		c0,0-0.2,0.1-0.2,0.7c0,0,0.1,0.3-0.3,0.9c0,0-0.3,0.5-0.3,1.2c-0.3-0.2-0.6-0.4-0.9-0.4c-0.5-0.5-0.5-2.7-1-3.8
		c-0.1-0.3,0.2-1.4,0.2-2.6c3.4-0.7,4.6-3.3,5-4.4c0.5-1.8-0.2-3.7-0.3-4.2c0,0,0.1,0,0.1,0c0.2,0.3,0.3,0.6,0.4,0.9
		c1.6,0.1,2.7-0.1,3.5-0.4c0.1,0,0.1,0,0.1,0c0,0,0.1,0,0.2-0.1c0.1,0,0.2-0.1,0.4-0.2c0.1,0,0.1,0,0.1-0.1c2.3-1.2,3.4-3.1,4-4.3
		c-0.3-0.1-1.3-0.4-1.7-0.9c0.9,0.1,1.5,0.4,2.4,0.4c1.3,0,2.1-0.7,3.5-0.5c0,0.1,0.2,0.7,1.1,1c0,0.8,0.1,1.5,0.3,2.1
		c0.1,0.2,0.1,0.2,0.1,0.2s-1.1,0.8-0.8,1.5c0.1,0.2,0.1,0.4,0.2,0.5c0,0-0.1,0-0.2,0c-0.2-0.1-0.3,0.2-0.6,0.6
		c-0.1,0.2-0.7,1.3-0.2,1.4c0.1,0,0.1,0,0.2,0c-0.2,1.2-0.2,2.8,0.8,4.2v0c0.1,0.1,1.6,2.6,5.6,2.6h0.1c0.4,0,4,0.1,5.3,2.5
		c0.1,0.1,0.4,0.5,0.7,0.5c0.3,0,0.6-0.4,0.7-0.5c1.3-2.4,4.9-2.5,5.3-2.5h0.1c4.1,0,5.6-2.5,5.7-2.6v0c0.5-0.7,0.8-1.5,0.8-2.2
		c0.8-0.4,0.8-2.2,0.8-2.6c0.2,0.3,0.7,1.2,1.7,1.4c-0.1,0.8-0.1,2.3,0.8,2.4c0.3,0,0.5-0.4,0.4-0.7c0.8,2.3,0.1,3.7,0.7,3.8
		c0.8,0,0.8-1.3,0.9-1.4c0,0.1,0.3,0.5,0.3,1.1c0,0.7-0.1,1.4,0.2,1.5c1.1,0.2,0.6-2.9,1.4-2.6c-0.2,1.4,0,2.2,0.5,2.4
		c0,0.6-0.1,1.2-0.3,1.2c-1.5,0.3-2.9-0.8-4.2-0.5c-0.1-0.1-0.1-0.1-0.1-0.1c-2.4-1.3-4-0.3-4.1-0.5c-0.7-0.6-0.9,0.3-1.1,0.2
		c-1.3-0.7-2,0.5-2.3,0.6c-0.3,0-0.8-0.7-1.4,0.8c-0.3,0.6-1.7,0.9-1.8,0.9c-0.6,0.1-0.7-0.3-0.7-0.3c-0.1-0.2-0.1-0.3-0.2-0.4
		c-0.1-0.1-0.1-0.2-0.2-0.3c-0.2-0.2-0.4-0.2-0.6-0.2c-0.4,0-0.8,0.4-0.8,0.8c0,0.2,0.1,0.4,0.2,0.5c0,0,0.2-0.1,0.3-0.1
		c0.3,0,0.6,0.3,0.6,0.6v0c0,0.6-1,1.3-1,1.3c-0.6,0.5-1.3-0.2-1.3-0.2c-0.4-0.3-0.7-0.4-0.7-0.4c-0.4,0-0.6,0.5-0.6,0.5
		s-0.2-0.4-0.6-0.5c0,0-0.3,0.1-0.7,0.4c0,0-0.7,0.7-1.3,0.2c0,0-1-0.7-1-1.3v0c0-0.3,0.3-0.5,0.6-0.6c0.2,0,0.3,0.2,0.4,0.1
		c0.1-0.1,0.2-0.3,0.2-0.5c0-0.4-0.3-0.7-0.7-0.8c-0.2,0-0.4,0-0.6,0.2c-0.1,0.1-0.1,0.2-0.2,0.3c0,0.1-0.1,0.3-0.2,0.4
		c0,0-0.1,0.4-0.7,0.3c-0.1,0-1.5-0.3-1.8-0.9c-0.6-1.4-1.1-0.7-1.4-0.8c-0.3-0.1-1-1.3-2.3-0.6c-0.2,0.1-0.5-0.8-1.2-0.2
		c-0.1,0.1-1.3-0.6-3.3,0.1c-0.1-0.2-0.7-0.4-0.9-0.4c-0.4-0.1-0.8-0.4-1-0.6c-0.5-0.3-1.4-0.1-2-0.2c-0.3,0-0.6-0.2-0.8-0.3
		c-0.8-0.5-1.7-1.1-2.2-1.8c-0.1-0.1-0.3-0.4-0.3-0.4c-0.2-0.3-0.4-0.6-0.6-1.1c-0.3-1,0.2-2,0.3-3c0.1-0.5,0.1-0.7,0.1-0.9
		c-0.8,0.2-1.8,0.2-3.1-0.1c0.3,1,0.4,2.2,0.3,3.1c0.5,0.4,0.8,1,0.8,1.2c0.1,0.5-0.2,1,0.1,1.4c0.4,0.6,1.4,1.2,2,1.5
		c0.2,0.1,2.9,2.2,3.3,2.3c0.4,0.1,0.6-0.2,1-0.1c0.1,0,0.2,0.1,0.3,0.2c0,0,0.2,0.3,0.6,0.5c-0.8,0.5-1.9,1.1-2.6,1.5
		c0,0-1.2,0.7-0.6,0.7c0,0,0.9,0,0.9,0.2c0,0-0.4,0.1-0.9,0.4c1.3,0.5,2.6,0.9,4,1.2c0.9-0.8,1.9-1.7,3-2.1c0,0,1.5,0.1,2-1.1
		c0.2-0.4,0.8,0.6,2.2-0.1c0.1-0.1,0.3,0.3,0.7,0.4c0.1,0-0.6,0.1-0.4,0.7c0,0.1-1.1,0-1.5,0.6c-0.1,0.2-2.5,0.2-4.6,2
		c0.4,0.1,0.8,0.2,1.2,0.3c0.7-0.5,1.6-0.9,2.5-0.8c0,0,1.3,0.1,1.9,1.6c0.8,0.1,1.6,0.2,2.4,0.3v0c0.2-0.1,1.3-0.6,0.8-1.3
		c0,0-0.3-0.4-0.8,0.1c0,0-0.3,0.3-0.4-0.2c0,0,0-0.3-0.2-0.4c0,0-0.2-0.3,0.2-0.2c0,0,0.4,0.1,0.8,0.1c0.4,0,0.7-0.4,0.7-0.8
		c0-0.4-0.3-0.8-0.7-0.8c0,0-0.1,0-0.1,0.1c0.1,0.1,0.1,0.1,0.1,0.2c0,0.2-0.1,0.3-0.3,0.3c-0.5-0.1-0.3-1,0.3-1c0,0,0.6,0,1,0.6
		c0,0,1.1,1.6,2.1,1.9c0.1,0-0.2,0.6,0.4,0.8c0.1,0,0,0.5,0.6,0.5c0,0,0.2,0.2,0.3,0.6h1.7h1.7c0.2-0.3,0.3-0.6,0.3-0.6
		c0.7,0,0.6-0.4,0.7-0.5c0.6-0.2,0.4-0.8,0.5-0.8c1-0.3,2.1-1.9,2.1-1.9c0.5-0.6,1-0.6,1-0.6c0.6,0,0.8,0.9,0.3,1
		c-0.1,0.1-0.3-0.1-0.3-0.3c0-0.1,0.1-0.2,0.1-0.2c0-0.1-0.1-0.1-0.1-0.1c-0.5,0-0.7,0.4-0.7,0.8c0,0.4,0.3,0.8,0.7,0.8
		c0.4,0.1,0.8-0.1,0.8-0.1c0.5-0.2,0.2,0.2,0.2,0.2c-0.1,0.2-0.2,0.4-0.2,0.4c-0.1,0.4-0.4,0.2-0.4,0.2c-0.5-0.4-0.7-0.1-0.7-0.1
		c-0.5,0.7,0.6,1.2,0.8,1.3l0,0c0.8-0.1,1.7-0.2,2.5-0.3c0.6-1.5,1.8-1.6,1.8-1.6c1,0,1.8,0.3,2.5,0.8c0.4-0.1,0.8-0.2,1.2-0.3
		c-2.1-1.8-4.5-1.8-4.6-2c-0.4-0.6-1.5-0.5-1.5-0.6c0.1-0.6-0.5-0.7-0.4-0.7c0.4-0.1,0.6-0.5,0.7-0.4c1.3,0.8,2-0.2,2.2,0.1
		c0.5,1.1,2,1.1,2,1.1c1.1,0.4,2.2,1.3,3,2.1c1.2-0.3,2.4-0.7,3.6-1.1v0c0-0.1,0-0.1-0.1-0.2c0,0,0,0,0-0.1c0-0.1-0.1-0.2-0.2-0.3
		c-0.3-0.5-0.7-1-0.9-1.2l0,0l0,0c0,0,0.9-1.4,1.5-0.4c0.1,0.1-0.1,0.4-0.6,0.5c0,0,0.7,1,0.8,1.7h0c0.3-0.1,0.5-0.2,0.6-0.2
		c0,0,0.1,0,0.1,0c-0.3-0.7-0.8-1.1-0.7-1.3c0.1-0.1,0.6,0.2,0.9-0.2c0-0.1,0.1-0.6,0.2-1.1c0.3,0.2,0.8,0.2,0.9,0.2
		c0.9,0,1.3-1.4,1-1.9c0.1-0.1,0.7-0.5,0.7-0.4c0.3,0.6,1.8,1.3,1.6-0.1c0.3,0.7,0.4,1.5,1.3,1.4c0.6-0.1,0.2-1.2,0.4-1.2
		c0.2,0.3,0.4,1.5,1.3,1.2c0.3-0.1,0.5-0.3,0.5-0.7c0.1-1.1-3.2-7.1-3.5-9.6c-0.1,0-0.1,0-0.1-0.1c-0.3-0.2-0.3-0.7-0.3-1.1
		c0,0,0,0,0-0.1c-0.4,0-1-0.4-1.1-1.5c0-1,0.4-1.5,0.5-1.5c0,0,0,0.1,0,0.1c-0.3,0.8-0.4,1.7,0.1,2.2c0.1,0.1,0.3,0.2,0.6,0.2
		c0.2-0.3,0.4-0.5,0.4-0.5c0,0,0,0.1,0,0.1c-0.3,0.5-0.3,1.3,0,1.6c0.1,0.2,0.4,0.2,0.6,0.3c0.9-0.3,1.4-2,1.6-2.6
		c0.6,0.1-1,3.6,0.3,4.3c0.5-0.1,0.8-0.6,1-1.1c0.4,1-1.3,3.2-0.1,3.7c0.7,0.2,1-1.7,1-1.5c0.2,2.9-1.3,4.2-0.3,4.7
		c0.8,0.4,1.1-2,1.1-1.7c0,3.1-1.5,3.9-0.9,4.5c0.7,0.3,1.3-1.6,1.3-1.1c-0.1,2.8-1.4,3.5-0.8,4.4c0.7,1,2-1.8,2.1-1.3
		c0.1,0.7-1.5,3.8-0.6,4.1c0.8,0.2,1-0.9,1.1-1.1C565.2,69.3,565.3,61.6,565.1,59.1"/>
</g>
</svg>
