<svg id="Capa_1" data-name="Capa 1" xmlns="http://www.w3.org/2000/svg" viewBox="0 0 547.9 170.17"><defs><style>.cls-1{fill:#e73439;}.cls-2{fill:#fff;}.cls-3{fill:#1266b0;}.cls-4{fill:#575756;}</style></defs><rect class="cls-1" x="76.02" width="110.35" height="168.55"/><path class="cls-2" d="M128.12,64,128,57.35h0c-.14.85-.28,1.46-.39,1.91L126.4,64h-2.25l-1.08-4.76c-.1-.45-.24-1.06-.4-1.91h0L122.52,64h-1.4l.3-7.89h2.64s.86,4,1.32,6.52h0c.53-2.54,1.55-6.52,1.55-6.52h2.59l.3,7.89Z" transform="translate(-36.3 -26.83)"/><path class="cls-2" d="M131.63,64V59.39l-.66-.14v-1h2.18V64Zm0-8.07h1.54v1.4h-1.54Z" transform="translate(-36.3 -26.83)"/><path class="cls-2" d="M138.1,64v-3.4c0-.87-.33-1.28-1-1.28a1.83,1.83,0,0,0-1,.36V64h-1.53V58.29h1.05l.24.66a2.34,2.34,0,0,1,1.81-.78c1.44,0,2,.86,2,2.31V64Z" transform="translate(-36.3 -26.83)"/><path class="cls-2" d="M141.36,64V59.39l-.66-.14v-1h2.18V64ZM141.31,56h1.55v1.4h-1.55Z" transform="translate(-36.3 -26.83)"/><path class="cls-2" d="M145.59,59.8c0,.88,2.48.62,2.48,2.49,0,1-.77,1.84-2.26,1.84a3.72,3.72,0,0,1-1.72-.42l.32-1.06a2.64,2.64,0,0,0,1.36.4c.5,0,.84-.28.84-.63,0-1-2.44-.69-2.44-2.65,0-.84.64-1.6,2.18-1.6a4.37,4.37,0,0,1,1.61.29l-.21,1.1a3.46,3.46,0,0,0-1.38-.29c-.52,0-.78.2-.78.53" transform="translate(-36.3 -26.83)"/><path class="cls-2" d="M151.39,64.14c-1,0-1.69-.48-1.69-1.92V59.38h-.85V58.29h.85v-1l1.51-.49v1.48h1.53v1.09h-1.53v2.8a.58.58,0,0,0,.61.66,2.19,2.19,0,0,0,.88-.21l.23,1.12a3.28,3.28,0,0,1-1.54.39" transform="translate(-36.3 -26.83)"/><path class="cls-2" d="M155.21,61.56A1.31,1.31,0,0,0,156.69,63a3.93,3.93,0,0,0,1.68-.48l.29,1.07a4.65,4.65,0,0,1-2.16.57,2.67,2.67,0,0,1-2.81-3c0-1.76.85-3,2.68-3s2.41,1.29,2.41,2.73v.66Zm1.08-2.27c-.76,0-1.08.7-1.08,1.37h2.09c0-.73-.21-1.37-1-1.37" transform="translate(-36.3 -26.83)"/><path class="cls-2" d="M163.18,59.56a2.86,2.86,0,0,0-.71-.09,1.66,1.66,0,0,0-1,.39V64h-1.52V58.29H161l.16.77h0a1.51,1.51,0,0,1,1.36-.87,2.46,2.46,0,0,1,.67.08Z" transform="translate(-36.3 -26.83)"/><path class="cls-2" d="M164.57,64V59.39l-.67-.14v-1h2.19V64Zm0-8.07h1.55v1.4h-1.55Z" transform="translate(-36.3 -26.83)"/><path class="cls-2" d="M172.62,61.14c0,2-1,3-2.69,3s-2.69-1-2.69-3a2.7,2.7,0,1,1,5.38,0m-1.56,0c0-1.37-.41-1.85-1.13-1.85s-1.11.48-1.11,1.85.37,1.87,1.11,1.87,1.13-.5,1.13-1.87" transform="translate(-36.3 -26.83)"/><path class="cls-2" d="M180,58.74a3.68,3.68,0,0,1-.14-1.06V56h1.52V64h-1.24l-.18-.63a1.84,1.84,0,0,1-1.51.75c-1.3,0-2.34-.94-2.34-3s1.07-3,2.46-3a1.85,1.85,0,0,1,1.43.57m-.14.86a2,2,0,0,0-1-.28c-.73,0-1.18.49-1.18,1.82s.43,1.88,1.16,1.88a1.48,1.48,0,0,0,1.06-.49Z" transform="translate(-36.3 -26.83)"/><path class="cls-2" d="M184.1,61.56A1.31,1.31,0,0,0,185.57,63a4,4,0,0,0,1.69-.48l.29,1.07a4.65,4.65,0,0,1-2.16.57,2.67,2.67,0,0,1-2.82-3c0-1.76.85-3,2.69-3s2.41,1.29,2.41,2.73v.66Zm1.08-2.27c-.76,0-1.08.7-1.08,1.37h2.09c0-.73-.22-1.37-1-1.37" transform="translate(-36.3 -26.83)"/><polygon class="cls-2" points="84.97 51.21 84.97 43.32 89.83 43.32 89.83 44.62 86.5 44.62 86.5 46.56 89.04 46.56 88.92 47.91 86.5 47.91 86.5 49.94 89.83 49.94 89.83 51.21 84.97 51.21"/><path class="cls-2" d="M131,72.75a3.61,3.61,0,0,1-.14-1V70h1.52V78h-1.24L131,77.4a1.88,1.88,0,0,1-1.52.75c-1.3,0-2.34-.93-2.34-3,0-1.89,1.08-3,2.47-3a1.84,1.84,0,0,1,1.42.56m-.14.87a1.91,1.91,0,0,0-1-.28c-.73,0-1.19.49-1.19,1.82s.43,1.88,1.16,1.88a1.52,1.52,0,0,0,1.06-.49Z" transform="translate(-36.3 -26.83)"/><path class="cls-2" d="M137.75,78l-.24-.7a2.24,2.24,0,0,1-1.78.82c-1.43,0-2.09-.79-2.09-2.37V72.31h1.52v3.48c0,.88.32,1.19,1,1.19a1.84,1.84,0,0,0,1-.34V72.31h1.55V78Z" transform="translate(-36.3 -26.83)"/><path class="cls-2" d="M144.58,77.65a4.54,4.54,0,0,1-2,.5c-1.7,0-2.73-1-2.73-3s1-3,2.72-3a3.86,3.86,0,0,1,2,.47l-.4,1a2.82,2.82,0,0,0-1.44-.35c-.79,0-1.3.54-1.3,1.82s.48,1.82,1.31,1.82a3.38,3.38,0,0,0,1.56-.43Z" transform="translate(-36.3 -26.83)"/><path class="cls-2" d="M149.12,78l-.21-.67a2.06,2.06,0,0,1-1.67.79,1.77,1.77,0,0,1-1.92-1.83c0-1.07.79-1.7,2.17-1.7h1.2v-.29c0-.74-.42-1-1-1a4.32,4.32,0,0,0-1.72.38l-.38-1.08a5.7,5.7,0,0,1,2.25-.47c1.63,0,2.33.75,2.33,2.21V78Zm-.43-2.5h-.95c-.63,0-.92.31-.92.74a.76.76,0,0,0,.85.84,1.73,1.73,0,0,0,1-.38Z" transform="translate(-36.3 -26.83)"/><path class="cls-2" d="M156.05,77.65a4.53,4.53,0,0,1-2,.5c-1.71,0-2.74-1-2.74-3s1-3,2.72-3a3.79,3.79,0,0,1,2,.47l-.39,1a2.82,2.82,0,0,0-1.44-.35c-.79,0-1.3.54-1.3,1.82s.48,1.82,1.31,1.82a3.41,3.41,0,0,0,1.56-.43Z" transform="translate(-36.3 -26.83)"/><path class="cls-2" d="M157.53,78V73.41l-.66-.14v-1H159V78ZM157.48,70H159v1.39h-1.54Z" transform="translate(-36.3 -26.83)"/><path class="cls-2" d="M165.58,75.16c0,2-1,3-2.69,3s-2.69-1-2.69-3a2.7,2.7,0,1,1,5.38,0m-4.1-3.74-.15-.88,2.95-.83.2,1.13ZM164,75.16c0-1.38-.4-1.86-1.12-1.86s-1.11.49-1.11,1.86.36,1.87,1.11,1.87,1.12-.5,1.12-1.87" transform="translate(-36.3 -26.83)"/><path class="cls-2" d="M170.28,78v-3.4c0-.86-.33-1.27-1-1.27a1.83,1.83,0,0,0-1,.35V78h-1.53V72.31h1L168,73a2.37,2.37,0,0,1,1.81-.77c1.45,0,2,.85,2,2.3V78Z" transform="translate(-36.3 -26.83)"/><path class="cls-2" d="M127.08,186.41a6.82,6.82,0,0,1-3,.73c-2.44,0-3.69-1.7-3.69-4.3s1.25-4.15,3.81-4.15a4.78,4.78,0,0,1,2.7.72l-.68,1.22a3.6,3.6,0,0,0-2-.53c-1.48,0-2.15,1.09-2.15,2.71,0,1.93.72,3,2.13,3a3.15,3.15,0,0,0,1.38-.26V184h-1.12l-.1-1.19h2.69Z" transform="translate(-36.3 -26.83)"/><path class="cls-2" d="M133.72,184c0,2-1,3.11-2.8,3.11s-2.79-1.07-2.79-3.11c0-1.75,1-3.09,2.79-3.09a2.77,2.77,0,0,1,2.8,3.09m-1.63,0c0-1.44-.42-1.93-1.17-1.93s-1.15.51-1.15,1.93.38,1.94,1.15,1.94,1.17-.52,1.17-1.94" transform="translate(-36.3 -26.83)"/><path class="cls-2" d="M136.38,181.67a2.12,2.12,0,0,1,1.58-.73c1.4,0,2.41,1,2.41,3.09s-1.22,3.11-2.6,3.11a2,2,0,0,1-1.73-.84l-.29.72h-.85v-8.39h1.59v2.08Zm.11,3.69a1.41,1.41,0,0,0,1.08.61c.69,0,1.21-.51,1.21-1.94s-.46-1.92-1.19-1.92a1.7,1.7,0,0,0-1.1.47Z" transform="translate(-36.3 -26.83)"/><path class="cls-2" d="M142.05,187v-4.81l-.69-.15v-1h2.27v6Zm-.05-8.39h1.61v1.45H142Z" transform="translate(-36.3 -26.83)"/><path class="cls-2" d="M146.44,184.47a1.35,1.35,0,0,0,1.53,1.47,4,4,0,0,0,1.75-.5l.3,1.12a4.85,4.85,0,0,1-2.25.58,2.77,2.77,0,0,1-2.93-3.11c0-1.84.89-3.09,2.8-3.09s2.5,1.34,2.5,2.83v.7Zm1.12-2.36c-.8,0-1.12.71-1.12,1.42h2.17c0-.76-.23-1.42-1.05-1.42" transform="translate(-36.3 -26.83)"/><path class="cls-2" d="M154.72,182.39a2.7,2.7,0,0,0-.74-.1,1.71,1.71,0,0,0-1.07.4V187h-1.58v-6h1.1l.18.81h0a1.59,1.59,0,0,1,1.42-.91,2.67,2.67,0,0,1,.7.08Z" transform="translate(-36.3 -26.83)"/><path class="cls-2" d="M159.37,187v-3.54c0-.9-.34-1.32-1.07-1.32a1.94,1.94,0,0,0-1,.36V187h-1.6v-6h1.1l.24.68a2.48,2.48,0,0,1,1.88-.8c1.51,0,2.11.89,2.11,2.4V187Z" transform="translate(-36.3 -26.83)"/><path class="cls-2" d="M167.63,184c0,2-1,3.11-2.8,3.11S162,186.07,162,184c0-1.75,1-3.09,2.79-3.09a2.78,2.78,0,0,1,2.8,3.09M166,184c0-1.44-.42-1.93-1.17-1.93s-1.15.51-1.15,1.93.38,1.94,1.15,1.94S166,185.45,166,184" transform="translate(-36.3 -26.83)"/><path class="cls-2" d="M175.34,181.53a3.63,3.63,0,0,1-.14-1.1v-1.8h1.57V187h-1.28l-.19-.66a1.9,1.9,0,0,1-1.58.78c-1.34,0-2.43-1-2.43-3.1,0-2,1.12-3.1,2.57-3.1a1.92,1.92,0,0,1,1.48.59m-.14.9a2.14,2.14,0,0,0-1.09-.3c-.75,0-1.23.51-1.23,1.9s.46,2,1.21,2a1.62,1.62,0,0,0,1.11-.51Z" transform="translate(-36.3 -26.83)"/><path class="cls-2" d="M179.56,184.47a1.35,1.35,0,0,0,1.54,1.47,4,4,0,0,0,1.75-.5l.3,1.12a4.85,4.85,0,0,1-2.25.58A2.77,2.77,0,0,1,178,184c0-1.84.89-3.09,2.8-3.09s2.5,1.34,2.5,2.83v.7Zm1.12-2.36c-.79,0-1.12.71-1.12,1.42h2.18c0-.76-.23-1.42-1.06-1.42" transform="translate(-36.3 -26.83)"/><path class="cls-2" d="M190.51,187.14c-2.31,0-3.55-1.53-3.55-4.26,0-2.56,1.23-4.19,3.55-4.19a5.12,5.12,0,0,1,2.79.7l-.6,1.29a3.37,3.37,0,0,0-2-.58c-1.36,0-2,1-2,2.76s.68,2.87,2,2.87a3.82,3.82,0,0,0,2.16-.75l.51,1.29a4.86,4.86,0,0,1-2.82.87" transform="translate(-36.3 -26.83)"/><path class="cls-2" d="M194.39,187v-8.39H196v2.2a2.43,2.43,0,0,1-.16.93,2.13,2.13,0,0,1,1.72-.82c1.7,0,2.18.89,2.18,2.4V187H198.1v-3.55c0-.85-.34-1.31-1.06-1.31a1.9,1.9,0,0,0-1.06.36V187Z" transform="translate(-36.3 -26.83)"/><path class="cls-2" d="M201.48,187v-4.81l-.69-.15v-1h2.27v6Zm0-8.39H203v1.45h-1.6Z" transform="translate(-36.3 -26.83)"/><path class="cls-2" d="M204.52,185.44v-6.81h1.57v6.72c0,.5.3.57,1,.57V187a5,5,0,0,1-.88.1c-1.21,0-1.65-.65-1.65-1.7" transform="translate(-36.3 -26.83)"/><path class="cls-2" d="M209.44,184.47a1.35,1.35,0,0,0,1.53,1.47,3.94,3.94,0,0,0,1.75-.5l.31,1.12a4.89,4.89,0,0,1-2.25.58c-1.84,0-2.93-1.14-2.93-3.11s.88-3.09,2.8-3.09,2.49,1.34,2.49,2.83v.7Zm1.12-2.36c-.79,0-1.12.71-1.12,1.42h2.18c0-.76-.24-1.42-1.06-1.42" transform="translate(-36.3 -26.83)"/><path class="cls-2" d="M126.7,48c-3.51,0-5.39-2.33-5.39-6.48,0-3.87,1.87-6.35,5.39-6.35a7.8,7.8,0,0,1,4.24,1.06l-.92,2a5.29,5.29,0,0,0-3.07-.86c-2.06,0-3.09,1.45-3.09,4.18s1,4.36,3.06,4.36a5.72,5.72,0,0,0,3.28-1.15l.78,2A7.37,7.37,0,0,1,126.7,48" transform="translate(-36.3 -26.83)"/><path class="cls-2" d="M137.27,48c-4.11,0-5.29-3.12-5.29-6.51s1.14-6.32,5.29-6.32,5.34,3,5.34,6.32S141.39,48,137.27,48m0-10.74c-2.17,0-2.74,2-2.74,4.21,0,2.47.55,4.5,2.74,4.5s2.77-2,2.77-4.5c0-2.27-.59-4.21-2.77-4.21" transform="translate(-36.3 -26.83)"/><polygon class="cls-2" points="114.32 20.95 110.45 11.15 110.38 11.15 110.53 20.95 108.36 20.95 108.36 8.5 112.07 8.5 116 18.49 116.07 18.49 115.9 8.5 118.14 8.5 118.14 20.95 114.32 20.95"/><rect class="cls-2" x="120.87" y="8.5" width="2.42" height="12.45"/><path class="cls-2" d="M167.28,48c-3.5,0-5.38-2.33-5.38-6.48,0-3.87,1.86-6.35,5.38-6.35a7.86,7.86,0,0,1,4.25,1.06l-.93,2a5.25,5.25,0,0,0-3.06-.86c-2.06,0-3.09,1.45-3.09,4.18s1,4.36,3.06,4.36a5.77,5.77,0,0,0,3.28-1.15l.78,2A7.38,7.38,0,0,1,167.28,48" transform="translate(-36.3 -26.83)"/><polygon class="cls-2" points="142.12 16.61 142.12 20.95 139.68 20.95 139.68 16.59 135.93 8.5 139 8.5 141.16 14.1 141.25 14.1 143.66 8.5 146.3 8.5 142.12 16.61"/><polygon class="cls-2" points="152.21 10.54 152.21 20.95 149.71 20.95 149.71 10.54 146.69 10.54 146.69 8.5 155.31 8.5 155.31 10.54 152.21 10.54"/><path class="cls-2" d="M81.17,60.07V62.7a3.23,3.23,0,0,0,0-2.63" transform="translate(-36.3 -26.83)"/><path class="cls-2" d="M86.7,44.6c-.11.24-.45.24-.49.54-.29-.26.24-.84.49-.54m1.81-.11c.25-.15.47-.65.86-.4.17.09.35.28.55.42a1.68,1.68,0,0,1,.52.46c.11.22-.19.76-.53.28s-.55-1-1.06-.76-.69.51-.8.23.3-.14.46-.23m0,.42c.16-.2.22.65.88.4-.47.57-1.11,0-.88-.4m-2.22.88c.07,0,0-.36.31-.39a.92.92,0,0,1,.83.55c.07.33-.21,1.15.86,1.26l0,.34h0a1.6,1.6,0,0,1-.15.57h.2c1.42.07,2.23,0,2.64-.47a3.11,3.11,0,0,0,.37-.52,2.53,2.53,0,0,0,.22-2h0s0-.08,0-.11l-.09-.19a4.15,4.15,0,0,0-2.19-1.64.71.71,0,0,0-.21,0h0l0,0h0a1.48,1.48,0,0,1,.22,0,3.34,3.34,0,0,1,2.33,1.62,1.35,1.35,0,0,0,.5-1h0a2.42,2.42,0,0,1,.17-.94.25.25,0,0,0-.11-.32.24.24,0,0,0-.31.11c-.19.4-.64.19-.45-.21a.25.25,0,0,0-.11-.33.26.26,0,0,0-.31.12c-.18.38-.61.17-.44-.21a.24.24,0,0,0-.1-.32.24.24,0,0,0-.31.12c-.19.4-.64.17-.45-.22a.24.24,0,0,0-.11-.32.23.23,0,0,0-.31.12,2.31,2.31,0,0,1-.38.6,4.67,4.67,0,0,1,2.34,1.24,3.22,3.22,0,0,1,.26.31h0a0,0,0,0,1,0,0,.15.15,0,0,1,0,.09,0,0,0,0,1,0,0,1.63,1.63,0,0,0-.27-.26,5.06,5.06,0,0,0-2.48-1.23c-.46.06-.33.57-.28.91a1.15,1.15,0,0,0-1.41.94,1.56,1.56,0,0,0,.15.63s0,0,0,0-.15-.08-.2-.24a1.48,1.48,0,0,1-.1-.39c-.63,0-1.21.37-1.16.95a1.05,1.05,0,0,0,.57.78" transform="translate(-36.3 -26.83)"/><path class="cls-2" d="M103.61,72.57c-.43-.53-1.59-.27-1.59-.27a1.72,1.72,0,0,0-1.1-2.35,1.47,1.47,0,0,0-1.27.14h0l0,0-.12.1a.88.88,0,0,0,.65,1.5.91.91,0,0,0,.51-.16A.92.92,0,0,0,101,71a.85.85,0,0,1,.32.41c.5,1.58-1.28,2.15-1.28,2.15a7,7,0,0,1-6.33-.85l.69-.36a1.44,1.44,0,0,1,.62-.14s0,.07,0,.11a.78.78,0,0,0,.78.78.77.77,0,0,0,.77-.78.7.7,0,0,0-.1-.38h0a.37.37,0,0,0-.06-.09c-.46-.69-2-.23-2-.23a2.83,2.83,0,0,0,.05-2.24c-.29-.48-.23-.66-.23-.66,0-.46-.12-.51-.12-.51a.58.58,0,0,0-.66-.15c-.64.14-.78-.12-.78-.12-.52-.37-.76-.14-.76-.14-.22.15.09.54.09.54-.56,0-.73.72-.73.72-.23,1.2.76,1.29.76,1.29.7,0,.71-.53.71-.53.09-.55-.69-.59-.69-.59a.44.44,0,0,1,.37-.32c.82-.2,1.19.73,1.19.73a1.77,1.77,0,0,1-.18,2,.21.21,0,0,1-.27.06A7.81,7.81,0,0,1,92,71.06l-.06,0h-.28a2.55,2.55,0,0,0-.85.18c.31.34,1.34,1.21,1.34,1.21-.77.61-1.22.19-1.22.19a1.6,1.6,0,0,1-.23-1.36l-.08,0c-.36.16-.72.3-1.09.44.37.64,1,1.61,1,1.61-.9.32-1.09-.88-1.14-1.53l-.52.2a.82.82,0,0,1,.05.25,3.57,3.57,0,0,0,.66,1.46,1.15,1.15,0,0,0-1,.28,1.09,1.09,0,0,0-.37,1,.45.45,0,0,0,.9,0,.45.45,0,0,0-.43-.46c.2-.49.67-.1.67-.1.7.62-.39,1.32-.39,1.32-.78.52-1.51-.47-1.51-.47a5.9,5.9,0,0,0,.94-3.09l-.85.28a2,2,0,0,1-.52,2.06c-.26-.18-.3-.88-.3-.88-.08-.3-.17-.59-.27-.86l-.74.2a11.08,11.08,0,0,1,.4,2,1.19,1.19,0,0,1-.59.22c-.64.05-.3-.31-.3-.31.31-.26.25-.46.25-.46-.19-.44-.89,0-.89,0-.93.52-.66,1.06-.66,1.06.12.34,1.06.67,1.06.67a2.33,2.33,0,0,1-1.6.2.65.65,0,0,0-.48-.56h-.07a.59.59,0,0,0-.6.24.56.56,0,0,0-.11.2l-.58-.12c-.4-.06-.62-1.21-.75-2.21l-.47.06c.15,1.07.35,2,.35,2a4.9,4.9,0,0,1-1-.59A2.38,2.38,0,0,0,77.75,75a1.13,1.13,0,1,0,1.32,1.14c.4.19.77.42.77.42a4.32,4.32,0,0,0,2.21.75.83.83,0,0,0,.81.66.8.8,0,0,0,.71-.43,4,4,0,0,0,3-1c.23-.3.28-.13.28-.13.79,1.15,2.33.45,2.33.45.3-.15.36,0,.36,0a.58.58,0,0,0,.78.23c.61-.32.25-.7.25-.7-.2-.21,0-.2,0-.2.72.11.86-.3.86-.3.15-.34-.37-.62-.37-.62-.14-.18.14-.32.14-.32.42-.25.36-.49.36-.49.53,0,.49-.24.49-.24,0-.22-.66-.21-.66-.21-.53,0-.42-.32-.42-.32a10.41,10.41,0,0,0,2-.38A9.92,9.92,0,0,0,97.27,75a1.81,1.81,0,0,1,0,.66h0a.41.41,0,0,0-.42.41.42.42,0,0,0,.42.41l.11,0c.83-.22.9-1.44.9-1.44a5.12,5.12,0,0,0,4-1.55c.23-.2.35-.14.4-.08h0a.68.68,0,0,0,1.08,0,1.1,1.1,0,0,0,.12-.38h0a.64.64,0,0,0-.14-.44" transform="translate(-36.3 -26.83)"/><path class="cls-2" d="M75.22,75.6a.53.53,0,0,0,.27-.37,1.06,1.06,0,0,0-.44-1l-.84,0h0l-.84,0a1.06,1.06,0,0,0-.43,1,.54.54,0,0,0,.26.37s-.59.25-.6.66c0,0-.07.31.46.73a2.93,2.93,0,0,1,.49.76s0,.45.67.45.66-.45.66-.45a2.87,2.87,0,0,1,.5-.76c.52-.42.46-.73.46-.73,0-.41-.61-.66-.61-.66" transform="translate(-36.3 -26.83)"/><polygon class="cls-2" points="43.32 46.16 43.64 46.12 43.44 45.76 43.32 46.16"/><polygon class="cls-2" points="32.9 46.17 33.21 46.2 33.09 45.81 32.9 46.17"/><path class="cls-2" d="M68,72.14h0l-.07.48a.91.91,0,0,0,.22,0,.18.18,0,0,0,.09-.06.26.26,0,0,0,0-.15.23.23,0,0,0,0-.19.42.42,0,0,0-.21-.08" transform="translate(-36.3 -26.83)"/><path class="cls-2" d="M72.47,72.51a.27.27,0,0,0-.24.12.73.73,0,0,0-.1.39.93.93,0,0,0,.07.43.24.24,0,0,0,.22.14.29.29,0,0,0,.26-.11,1,1,0,0,0,0-.82.29.29,0,0,0-.24-.15" transform="translate(-36.3 -26.83)"/><path class="cls-2" d="M76.38,72.51a.27.27,0,0,0-.24.13.75.75,0,0,0-.06.4.8.8,0,0,0,.1.42.24.24,0,0,0,.24.12.29.29,0,0,0,.24-.13.77.77,0,0,0,.06-.42.94.94,0,0,0-.09-.4.25.25,0,0,0-.25-.12" transform="translate(-36.3 -26.83)"/><polygon class="cls-2" points="29.41 45.67 29.71 45.72 29.62 45.31 29.41 45.67"/><path class="cls-2" d="M59.75,70.13l-.17.47.06,0a.22.22,0,0,0,.21,0,.37.37,0,0,0,.11-.15.47.47,0,0,0,0-.16.17.17,0,0,0-.06-.1.65.65,0,0,0-.17-.09" transform="translate(-36.3 -26.83)"/><path class="cls-2" d="M61,70.69a.9.9,0,0,0-.19.36.89.89,0,0,0-.06.42.27.27,0,0,0,.19.2.28.28,0,0,0,.27,0,.66.66,0,0,0,.2-.38.67.67,0,0,0,0-.4.27.27,0,0,0-.19-.21.29.29,0,0,0-.27,0" transform="translate(-36.3 -26.83)"/><path class="cls-2" d="M62.69,71.08l0,0-.12.47a.8.8,0,0,0,.21,0l.11,0a.26.26,0,0,0,.06-.14.2.2,0,0,0,0-.19.34.34,0,0,0-.2-.11" transform="translate(-36.3 -26.83)"/><path class="cls-2" d="M86.05,71.1a.37.37,0,0,0-.23,0h0l.12.46a.53.53,0,0,0,.2-.07.14.14,0,0,0,.07-.1.27.27,0,0,0,0-.15.2.2,0,0,0-.11-.16" transform="translate(-36.3 -26.83)"/><polygon class="cls-2" points="52.34 44.13 52.64 44.02 52.35 43.72 52.34 44.13"/><path class="cls-2" d="M89.08,71.27l0-.1s.08,0,.09,0a0,0,0,0,0,0-.05.05.05,0,0,0,0,0l0,0L89,70.93l-.36.13v.07a.77.77,0,0,0,0,.1.1.1,0,0,0,.06,0,.24.24,0,0,0,.1,0l0,.1-.39.15,0-.1c.08,0,.12-.12.12-.26l0-1.06.1,0,.72.77a.41.41,0,0,0,.16.14h.1l0,.1Zm-1.92.66v-.08l.33-1.25-.19.06a.73.73,0,0,0-.23.12A.31.31,0,0,0,87,71l-.1,0-.08-.33,1-.33,0,.08-.35,1.25.28-.1a.62.62,0,0,0,.16-.07.44.44,0,0,0,.08-.11.9.9,0,0,0,0-.18l.1,0,.1.36Zm-.59.18-.28-.27-.15-.14a.11.11,0,0,0-.07,0,.28.28,0,0,0-.13,0L86,72c0,.05,0,.09.06.1s.06,0,.13,0h0l0,.1-.65.18,0-.1h0c.06,0,.1,0,.11-.07a.28.28,0,0,0,0-.13l-.21-.72a.15.15,0,0,0-.06-.11s-.06,0-.12,0h0l0-.1.49-.13.11,0,.25-.06a.43.43,0,0,1,.16,0,.34.34,0,0,1,.15.09.22.22,0,0,1,.08.13.32.32,0,0,1-.16.37,1.75,1.75,0,0,1,.28.2.93.93,0,0,0,.21.17.12.12,0,0,0,.1,0l0,.1Zm-2.36.59,0-.1h0a.15.15,0,0,0,.11-.06.14.14,0,0,0,0-.13l-.17-.73a.19.19,0,0,0-.06-.11.18.18,0,0,0-.13,0h0l0-.1,1-.24.09.31-.09,0-.1-.12a.2.2,0,0,0-.08,0,.26.26,0,0,0-.12,0l-.24,0,.11.43.11,0c.06,0,.09,0,.11,0a.28.28,0,0,0,0-.13l.1,0,.1.42-.1,0v0a.25.25,0,0,0,0-.09s-.07,0-.13,0l-.12,0,.07.31a.53.53,0,0,0,0,.11s0,0,.07,0a.37.37,0,0,0,.14,0,.54.54,0,0,0,.17-.07.32.32,0,0,0,.07-.13.57.57,0,0,0,0-.18l.1,0,.09.42Zm-.58-.87.08.42a1,1,0,0,1,0,.23.41.41,0,0,1,0,.17.39.39,0,0,1-.15.16.69.69,0,0,1-.25.1.61.61,0,0,1-.27,0,.33.33,0,0,1-.19-.08.53.53,0,0,1-.12-.14s0-.12-.06-.19l-.1-.5c0-.06,0-.1,0-.12h-.13l0-.1.67-.13v.1h0c-.06,0-.1,0-.11.06a.16.16,0,0,0,0,.12l.1.5a.66.66,0,0,0,.07.2.19.19,0,0,0,.12.11.24.24,0,0,0,.19,0,.26.26,0,0,0,.18-.09.26.26,0,0,0,.07-.16.72.72,0,0,0,0-.24l-.08-.42a.16.16,0,0,0-.22-.15l0-.1.46-.1,0,.11a.1.1,0,0,0-.08,0,.08.08,0,0,0,0,.07.2.2,0,0,0,0,.11m-1.47.32a.48.48,0,0,0-.09-.13S82,72,82,72h-.12l-.21,0,.07.43.1,0s.08,0,.09,0,0-.07,0-.13l.1,0,.07.43-.1,0a.18.18,0,0,0-.06-.13.16.16,0,0,0-.1,0h-.1l.06.35a.23.23,0,0,0,0,.11A.17.17,0,0,0,82,73h0l0,.1-.68.11,0-.1h0a.14.14,0,0,0,.12,0,.24.24,0,0,0,0-.12l-.11-.75a.19.19,0,0,0,0-.11.13.13,0,0,0-.13,0h0l0-.11,1.06-.16.06.33ZM80,73.4v-.1l.11,0a.06.06,0,0,0,0,0s0,0,0-.06l0,0,0-.09-.39,0,0,.06s0,.08,0,.1a.05.05,0,0,0,0,.06h.09l0,.1-.42,0v-.1c.08,0,.14-.09.17-.23l.28-1h.11l.51.94c0,.08.09.15.13.16l.09,0v.1ZM78,73.59v-.1h0a.15.15,0,0,0,.12,0,.16.16,0,0,0,0-.12l-.07-.75a.17.17,0,0,0,0-.12.17.17,0,0,0-.12,0h0v-.11l.68-.06v.11h0a.18.18,0,0,0-.13,0,.25.25,0,0,0,0,.13l.06.72a.54.54,0,0,0,0,.11.07.07,0,0,0,0,0,.32.32,0,0,0,.14,0,.3.3,0,0,0,.24-.1.54.54,0,0,0,.1-.23h.1l0,.42Zm-1.08-.1a.71.71,0,0,1-.51.22.87.87,0,0,1-.4-.08.55.55,0,0,1-.25-.25.62.62,0,0,1-.09-.32.7.7,0,0,1,.08-.33.55.55,0,0,1,.25-.25.79.79,0,0,1,.34-.1.68.68,0,0,1,.54.18.66.66,0,0,1,.21.46.59.59,0,0,1-.17.47m-2.12-.93-.09,0s0,0,0,.07a.22.22,0,0,0,0,.12v1h-.13l-.82-.93v.58c0,.1,0,.16.05.18a.2.2,0,0,0,.14,0v.1h-.48v-.1l.1,0,.06-.07a.45.45,0,0,0,0-.13v-.65c0-.13-.06-.19-.18-.19v-.11h.43l.7.78v-.47q0-.21-.18-.21v-.1h.46Zm-1.86,1a.77.77,0,0,1-.53.17A.71.71,0,0,1,72,73.6a.62.62,0,0,1-.24-.27.85.85,0,0,1-.06-.31.65.65,0,0,1,.11-.33.54.54,0,0,1,.27-.23.8.8,0,0,1,.87.14.66.66,0,0,1,.17.49.62.62,0,0,1-.2.45m-1.52-1.09-.8,1,.3,0a.33.33,0,0,0,.18,0,.26.26,0,0,0,.11-.07.48.48,0,0,0,.09-.16h.11l-.05.38-1.14-.09v-.08l.79-1-.2,0a.46.46,0,0,0-.27,0,.43.43,0,0,0-.13.17h-.09l0-.33,1.07.08Zm-1.37,1.09-.63-.06,0-.1h.1s0,0,0,0a.15.15,0,0,0,0-.06l0,0,0-.1-.39,0,0,0a.49.49,0,0,0,0,.1.07.07,0,0,0,0,.06l.1,0v.1l-.42,0v-.1c.08,0,.16,0,.22-.18l.49-.95h.11l.3,1c0,.1,0,.16.09.18a.15.15,0,0,0,.09,0Zm-1.4-.14-.38-.05a1.73,1.73,0,0,1-.16-.35l-.08-.19s0,0-.06,0a.24.24,0,0,0-.13,0l0,.3a.2.2,0,0,0,0,.12.12.12,0,0,0,.12.06h0v.1l-.68-.08v-.11h0a.17.17,0,0,0,.13,0,.43.43,0,0,0,0-.11l.1-.75s0-.1,0-.12,0,0-.11,0h0l0-.11L68,72h.12l.24,0a.51.51,0,0,1,.15.07.41.41,0,0,1,.1.13.33.33,0,0,1,0,.17.31.31,0,0,1-.29.27,1.25,1.25,0,0,1,.17.3,1.2,1.2,0,0,0,.13.23.14.14,0,0,0,.1,0Zm-2.14-.3L65.91,73l0-.1H66s0,0,0,0a.2.2,0,0,0,0-.07v0l0-.1-.38-.07,0,.06a.18.18,0,0,0,0,.08.06.06,0,0,0,0,.07s0,0,.1,0l0,.1-.41-.07v-.11c.08,0,.16,0,.24-.16l.56-.9h.1l.22,1.05c0,.1,0,.17.08.19l.08,0Zm-1.39-.26L64,72.6l0-.1h0c.06,0,.11,0,.13,0a.23.23,0,0,0,0-.12l.16-.73a.28.28,0,0,0,0-.13s0,0-.12-.06h0l0-.1.67.14,0,.1h0c-.07,0-.11,0-.13,0a.15.15,0,0,0-.05.1l-.15.72a.28.28,0,0,0,0,.11l0,0a.44.44,0,0,0,.13,0,.39.39,0,0,0,.27,0,.46.46,0,0,0,.15-.2l.1,0ZM63.05,72a1.2,1.2,0,0,0,.1.25.18.18,0,0,0,.09.06l0,.1-.38-.11a1.54,1.54,0,0,1-.11-.36.68.68,0,0,0-.06-.2.09.09,0,0,0,0-.06.24.24,0,0,0-.13,0l-.08.28c0,.06,0,.1,0,.13s.05,0,.11.06h0l0,.1-.66-.18,0-.1h0A.1.1,0,0,0,62,72s0,0,.06-.1l.2-.73a.28.28,0,0,0,0-.13.27.27,0,0,0-.11-.06h0l0-.1.49.14.12,0,.23.08a.3.3,0,0,1,.13.09.24.24,0,0,1,.09.14.25.25,0,0,1,0,.17.31.31,0,0,1-.32.23,1.21,1.21,0,0,1,.13.32m-1.28-.63a.67.67,0,0,1-.32.38.76.76,0,0,1-.56,0,.93.93,0,0,1-.35-.21.61.61,0,0,1-.16-.32.83.83,0,0,1,0-.32.59.59,0,0,1,.2-.29.52.52,0,0,1,.31-.16.89.89,0,0,1,.36,0,.69.69,0,0,1,.45.33.72.72,0,0,1,0,.52m-1.48-.78a.3.3,0,0,1-.14.17.42.42,0,0,1-.22,0,1.7,1.7,0,0,1-.3-.08l-.09,0-.1.28a.15.15,0,0,0,0,.13.17.17,0,0,0,.1.07h0l0,.09-.65-.23,0-.1h0a.2.2,0,0,0,.13,0,.19.19,0,0,0,.06-.11l.26-.71a.17.17,0,0,0,0-.11.17.17,0,0,0-.11-.08h0l0-.1.49.17.27.11a.43.43,0,0,1,.17.12.27.27,0,0,1,.08.17.26.26,0,0,1,0,.17M72.45,72l.38,0-.45.28H72.3Zm17-2.8a.92.92,0,0,0-.3.05A41.6,41.6,0,0,1,74.21,71.8a41.62,41.62,0,0,1-14.9-2.54.83.83,0,0,0-.29-.05.74.74,0,0,0-.44.13l-1.83,1.44h0a3.44,3.44,0,0,1,1.15.28c4.75,2.08,10.2,2.94,16.3,3a41.45,41.45,0,0,0,16.3-3,3.43,3.43,0,0,1,1.14-.28h0l-1.83-1.44a.71.71,0,0,0-.43-.13" transform="translate(-36.3 -26.83)"/><path class="cls-2" d="M67.81,51.2l-.67.43h1.38c-.29-.16-.55-.32-.71-.43" transform="translate(-36.3 -26.83)"/><path class="cls-2" d="M76.77,51.59c-.21-.11-.46-.21-.57-.27l-.07,0c-.27-.11-.52-.19-.75-.26H72.57a7.64,7.64,0,0,0-.76.26l-.06,0c-.12.06-.37.16-.57.27l-.08,0h5.75l-.08,0" transform="translate(-36.3 -26.83)"/><path class="cls-2" d="M80.42,51.22l0,0,0,0a4.21,4.21,0,0,1-.59.41H81l-.57-.41" transform="translate(-36.3 -26.83)"/><path class="cls-2" d="M67.05,62.69v-3a3.65,3.65,0,0,0,0,3" transform="translate(-36.3 -26.83)"/><path class="cls-2" d="M74,52H66.61a.28.28,0,0,0,.09.19l.29.38h6.78Z" transform="translate(-36.3 -26.83)"/><path class="cls-2" d="M73.65,53H67.24c.1.18.21.37.32.59h5.91Z" transform="translate(-36.3 -26.83)"/><path class="cls-2" d="M73.17,54.57l.18-.6H67.73c.07.19.14.38.2.6Z" transform="translate(-36.3 -26.83)"/><path class="cls-2" d="M73.06,55H68a5.21,5.21,0,0,1,.09.59h4.76Z" transform="translate(-36.3 -26.83)"/><path class="cls-2" d="M68,57.5h2.68l-.82-.59H68.1a3.64,3.64,0,0,1-.12.59" transform="translate(-36.3 -26.83)"/><path class="cls-2" d="M68.13,55.93V56a2.63,2.63,0,0,1,0,.54H69.3l-.83-.6Z" transform="translate(-36.3 -26.83)"/><path class="cls-2" d="M76.86,58.48h.39v3.69L76.86,61ZM74,57.7l3.28,4.63v2.29c.23,0,.4,0,.46,0h.13V58.48h.39v6.09a4.89,4.89,0,0,0,.59-.09v-6h.39v5.9a3.62,3.62,0,0,0,.59-.24V58.48h.39v5.44a3,3,0,0,0,.55-.45l0-.06v-4a9.42,9.42,0,0,1-.45-.9c-.09-.21-.17-.4-.23-.59H76.74l-.76.54-1.47-.54-.53-.2,5.51-1.76H75.18l-.12-.38h4.85A5.59,5.59,0,0,1,80,55H74.89l-.12-.39h5.36a5.31,5.31,0,0,1,.22-.6H74.59l-.12-.39h6.06c.1-.21.22-.41.32-.58H74.29l-.12-.4H81.1c.2-.28.35-.46.39-.51l.05-.07H74l0-.09v5.76Z" transform="translate(-36.3 -26.83)"/><path class="cls-2" d="M75.29,65.25a4.75,4.75,0,0,1,.59-.31V61.29l-.59-.45Z" transform="translate(-36.3 -26.83)"/><path class="cls-2" d="M74.29,66.47l.23-.37,0,0a2.66,2.66,0,0,1,.35-.46V60.53l-.6-.45Z" transform="translate(-36.3 -26.83)"/><path class="cls-2" d="M73.31,65.46a2.11,2.11,0,0,1,.48.59l0,0,.08.14V59.89l-.59.44Z" transform="translate(-36.3 -26.83)"/><path class="cls-2" d="M72.33,64.9a3.19,3.19,0,0,1,.59.28V60.63l-.59.45Z" transform="translate(-36.3 -26.83)"/><path class="cls-2" d="M76.27,64.81c.21-.06.41-.1.59-.14V62l-.59-.45Z" transform="translate(-36.3 -26.83)"/><path class="cls-2" d="M71.36,64.65l.58.12v-3.4l-.58.45Z" transform="translate(-36.3 -26.83)"/><path class="cls-2" d="M71,58.48h.38v1.73L71,61.36Zm-3,5.35V58.48h.4v5.6a3.48,3.48,0,0,0,.58.25V58.48h.39v6l.59.1V58.48h.4v6.11H71V62.12l-.35.26L74,57.7h0l-1.21-1.77h-4.3L74,57.69l-2,.74-.74-.54H67.87a5.37,5.37,0,0,1-.22.59l-.21.45v4.36a2.84,2.84,0,0,0,.58.54" transform="translate(-36.3 -26.83)"/><path class="cls-2" d="M77.27,57.5H80a5.41,5.41,0,0,1-.11-.59H78.09Z" transform="translate(-36.3 -26.83)"/><path class="cls-2" d="M79.88,55.93h-.41l-.83.6h1.21a3.59,3.59,0,0,1,0-.42c0-.06,0-.12,0-.18" transform="translate(-36.3 -26.83)"/><path class="cls-2" d="M65.56,39.78a2.1,2.1,0,0,1,2.13.45c1.36,1.35.61,3.23.2,3.33.29-.78.43-2-.81-2.27a2.65,2.65,0,0,0-2.27.88,2.06,2.06,0,0,1,2.53-1.26c-.27-.74-1.22-1-2.32-.44a4.57,4.57,0,0,0-.65.47,2,2,0,0,1,1.19-1.16m-.08,4.45c.68-.17,1.28-.53,1.1-1.17a.49.49,0,0,0-.46-.35.94.94,0,0,0-.83.53.89.89,0,0,1,1-.92,1,1,0,0,1,.81.67c.19.94-.67,1.33-1.64,1.24M70,42a6.93,6.93,0,0,0,3.78,2.53c.61.17.91,2.13.41,3.1-.56,0-.62-.38-.73-.81.25.2.6.47.57,0-.21-.18-1.47-.5-1.14-1.06.2-.3.88.92,1.08.51.11-.82-2.43-1.07-2.36-1.77,0-.38,2,1,2.29.94,0-.44-3-1.63-3.85-3.23C70,42.09,70,42,70,42s0,0,0,0m5,3.76a4.31,4.31,0,0,1-.13,2.37c-.19-.06-.08-.4-.08-.55a8.77,8.77,0,0,0-.23-2.35,14.47,14.47,0,0,0-1.13-2.87A8.55,8.55,0,0,1,75,45.75m.78-2.65c.54.23-.26,1.3-.33,1.5.12-.05.56-.51.73-.38s-.57,1.34-.79,1.42c-1.2-1.55.34-2,.39-2.54m1.66-6c0,.61-.3.8-.37.77a.06.06,0,0,1,0-.07,1.56,1.56,0,0,0-.21-1.44,2.67,2.67,0,0,0-.68-.46,1.61,1.61,0,0,1,1.28,1.2m-2,9.45c-.23-.41.38-.92.53-1.32.74-.11-.2,1.2-.53,1.32m.15,1.1c-.16-.07-.17-.39-.15-.54.07-.4.53-.58.73-.79a1.84,1.84,0,0,1-.58,1.33m7.26-8.52a1.77,1.77,0,0,1,1,1,1.46,1.46,0,0,1,0,1.21h0l0,0a2,2,0,0,0-.18-1.09,1.06,1.06,0,0,0-.57-.61,3.64,3.64,0,0,1,.38.64,1.06,1.06,0,0,1,.11.5,2,2,0,0,1-.49,1.37h0a0,0,0,0,1,0,0,2.11,2.11,0,0,0,.07-1.73.8.8,0,0,0-.08-.16A1.27,1.27,0,0,0,82,39.45a1.94,1.94,0,0,1,.6.77A1.62,1.62,0,0,1,82.43,42h0v0a2.58,2.58,0,0,1,0-.29,2.18,2.18,0,0,0,0-.71c-.28-1.2-1.27-1.62-2-.91a2.09,2.09,0,0,1,2.5-.92M64.56,44.79a5,5,0,0,0,2.93.43,2.12,2.12,0,0,0,.83-.34l.11-.08,0,0a2.05,2.05,0,0,0,.66-1.7,0,0,0,0,1,0-.05s.11.2.1.46a2.53,2.53,0,0,1-.19.93s0,.09,0,.14a.73.73,0,0,0,.12.3,1.11,1.11,0,0,0,1.11.14s.05,0,.05,0a.87.87,0,0,1-.76.33,1.6,1.6,0,0,1-.3,0,2.07,2.07,0,0,0,1.83.74s0,0,0,0-.19.11-.45.11a2.6,2.6,0,0,1-1.13-.26,3.16,3.16,0,0,0,2.13,1c0,.13-.83,0-1.08-.06.51,2,1.58,1.77,1.6,1.91a.62.62,0,0,0-.31.92,6.76,6.76,0,0,1,2.23-.44,7.06,7.06,0,0,1,2.29.46.48.48,0,0,0,.06-.51c-.17-.5-1.71-.89-3.14-.47a.87.87,0,0,0-.19.1h0s0,0,0,0h0a1.14,1.14,0,0,1,.19-.12,3.47,3.47,0,0,1,2.65-.1h0a.74.74,0,0,0,1-.88.73.73,0,0,0,.83-.7,1.56,1.56,0,0,1-.24.11h0a.47.47,0,0,1-.33.06s0,0,0,0h0l.2-.1a2.21,2.21,0,0,0,1.16-1.73.66.66,0,0,1-.58.32c-.14,0-.22,0-.22,0s0,0,0,0a.53.53,0,0,0,.28-.12,2.22,2.22,0,0,0,.69-.92,4.6,4.6,0,0,1-1-1.86.92.92,0,0,0-.73-.62H77a.5.5,0,0,0-.13,0h0c.4-.34.85,0,1.11.17,0-.74.3-.93.33-.92s0,0,0,0a3.09,3.09,0,0,0,1.3,3.42,4,4,0,0,0,4.25-.43,2.91,2.91,0,0,1-.69.11c-.26,0-.45-.06-.46-.11s0,0,0,0a2.5,2.5,0,0,0,.48,0c1.83-.48,1.9-2.73,1.6-2.88,0,0,0,0,0,0a3.53,3.53,0,0,1-.15.39c-.11.23-.27.38-.31.36a0,0,0,0,1,0,0,2.24,2.24,0,0,0,.18-1.94,2.1,2.1,0,0,0-.71-1,3.62,3.62,0,0,0-3.78,0,3.65,3.65,0,0,0-1.32-.8,3.47,3.47,0,0,1-1.29,1.71,1.84,1.84,0,0,1-.56.28s-.12,0,0-.12A2.68,2.68,0,0,0,78.27,38h0a3.24,3.24,0,0,0-.72-2,3.78,3.78,0,0,0-4.4-.19A2.25,2.25,0,0,0,72.58,37a1.34,1.34,0,0,1,.89-.84c.48-.15,1.42,0,1.56.52-.83-.85-2.33-.22-2.54,1.22h0c0,.09-.07.1-.07.1h0s-.1,0-.07-.65A4.1,4.1,0,0,1,72.66,36a3.2,3.2,0,0,0-4,3.32,1.94,1.94,0,0,0,.52,1.16c.07.08,0,.11,0,.11s-.29-.13-.43-.31a2.72,2.72,0,0,1-.42-.91A5.51,5.51,0,0,0,65.78,39a3.39,3.39,0,0,0-1.89,1.09,4.8,4.8,0,0,0-.42.67,3.14,3.14,0,0,0,1.09,4" transform="translate(-36.3 -26.83)"/><path class="cls-2" d="M53.88,71.16h0a2.29,2.29,0,0,1-.36-.21c-.12.18.1.35.21.51s-.08.08-.15.09h0a.47.47,0,0,1-.24,0h0c-.23-.11-.27-.43-.27-.61a.74.74,0,0,0-.38-.59c.44-.29,1.11.42,1.17.48h0c.09.08.22.15.31.24a.24.24,0,0,1,.08.09c-.05.12-.18.11-.33,0m5.18-22.75a7,7,0,0,1,2.7.46l.09,0a2.59,2.59,0,0,1,1,1.37,7.48,7.48,0,0,0-1.92-.94c-.71-.24-1.53-.36-1.83-.93m-1.24-1.86c.66.25.71-.59.87-.4.23.39-.39,1-.87.4m-.57.11c-.24-.55.64-1.3.86-1.37.49-.18.86.13,1.41.2.32.06.65,0,.91,0,.59,0,.43.47.34.54-.5.14-.77-.24-1.19-.3s-.63.14-.93.11-.47-.19-.71,0c0,0-.37.28-.29.6s-.3.33-.4.19m8.94,8.82c-.2.05-.24-.84-1.32-.63a1.58,1.58,0,0,1-1.38-.06c1.53-.86,2.82,0,2.7.69M66.34,57a1.45,1.45,0,0,1,.28.86.31.31,0,0,1,0,.1s0,.09,0,.13v.7a.28.28,0,0,0,0,.09.88.88,0,0,0,0,.17.43.43,0,0,0,0,.11.52.52,0,0,1,0,.11.29.29,0,0,1,0,.09.44.44,0,0,1,0,.1.75.75,0,0,0,0,.16l0,.09,0,.09a.32.32,0,0,0,0,.09c0,.05,0,.09-.07.14a.21.21,0,0,1,0,.06.41.41,0,0,1,0,.09l0,.06-.09.12,0,0a.6.6,0,0,1-.08.08l0,0a.57.57,0,0,1-.13.08h0l-.14,0h-.19a.26.26,0,0,1,0-.11c0-.16.17-.31.25-.49a1.52,1.52,0,0,1,.14-.41c.18,0,.31,0,.36-.11a.63.63,0,0,1,0-.94c.46-.47,0-1.46.09-1.58M67,59.25a5.39,5.39,0,0,0,.9-3.24,6,6,0,0,0-1.38-3.62.49.49,0,0,1-.14-.39.44.44,0,0,1,.21-.31c.28-.19.88-.56,1.13-.72l.12-.08.08,0c.08,0,.15.06.26.14a2.2,2.2,0,0,0,1.49.55,2.25,2.25,0,0,0,.44,0,5,5,0,0,0,1.1-.41l.6-.28,0,0a6.22,6.22,0,0,1,2.33-.5,6.14,6.14,0,0,1,2.31.5l.06,0c.12,0,.39.17.6.28a5,5,0,0,0,1.1.41,2.25,2.25,0,0,0,.44,0A2.2,2.2,0,0,0,80.17,51c.11-.08.18-.14.26-.14a.18.18,0,0,1,.11,0l.12.07,1.14.73A.41.41,0,0,1,82,52a.47.47,0,0,1-.14.4A5.91,5.91,0,0,0,80.46,56a5.34,5.34,0,0,0,.9,3.26,3.71,3.71,0,0,1-3.65,5.6c-.23,0-2.25,0-2.94,1.33l0,0c-.08.15-.34.56-.45.78a.14.14,0,0,1-.11.07.12.12,0,0,1-.11-.07c-.12-.22-.38-.63-.45-.78l0,0c-.69-1.29-2.7-1.33-2.93-1.33A3.71,3.71,0,0,1,67,59.25m14.64-1.31h0a1.14,1.14,0,0,1,.39-.16h.23a.91.91,0,0,1,.23,0,1.17,1.17,0,0,1,.26.56A2,2,0,0,0,83,59c.15.15.09.43-.26.39h0a1,1,0,0,1-.62-1.24.83.83,0,0,0-.27,0h0l-.13,0h0l-.08,0-.06,0c-.09.08-.12.21-.25.22a.7.7,0,0,1,.33-.54m1.53,1.81,0,0v0a.09.09,0,0,1,0,0,.11.11,0,0,1,0,.05v.65h0c0,.1,0,.2,0,.32a1.33,1.33,0,0,1-.16.78l-.06.09-.07.06h0l-.06,0h0l-.07,0h-.12l-.07,0h0l-.08,0s0,0,0,0a.71.71,0,0,1-.09-.07l0,0s-.17-.29.09-.32l.1.1h0l.07,0h.09s0,0,0,0l0,0,0-.05v0l0-.1v0s0,0,0-.08a.13.13,0,0,0,0-.06V61A4.48,4.48,0,0,1,83,59.78l0-.05h.14l0,0m3.37,2.38a2.14,2.14,0,0,0,1.9-.23.08.08,0,0,1,.09,0c.07.06,0,.52-.79.68a2.45,2.45,0,0,1-2.1-1.07,4,4,0,0,0,.9.62M85.35,50.45a1.48,1.48,0,0,1-.84.79A1.73,1.73,0,0,1,83,50.72a5.13,5.13,0,0,0,1.24.26,2,2,0,0,0,1.09-.57s.06,0,0,0m-2.82-3.63a.08.08,0,0,1-.1,0,2.32,2.32,0,0,0-1.88.11,5.27,5.27,0,0,0-.86.7,2.85,2.85,0,0,1,2-1.29c.78,0,.87.4.81.47m9.53,3.92a4.59,4.59,0,0,0,.51-.1c.16-.06.28-.21.45-.21s-.06.14-.12.18A2.45,2.45,0,0,1,92,51a1.16,1.16,0,0,1-1.27-.39c.4-.12.75.16,1.3.09m1.5-2.23c.11-.46.77-1,.76-1.3s-.32-.61-.35-1a.92.92,0,0,1,1-1.07,1.68,1.68,0,0,1,.88.7c.1.11.23.21.31.31a10.88,10.88,0,0,1,1.59,3.62A36.41,36.41,0,0,1,98,65.4a11.58,11.58,0,0,1-.42,1.8c1.15-10.4.52-13,.32-12.94s-.35,1.29-.93.91,1.3-2.66.56-3.92c-.18-.21-.33.28-.63.2-.77-.26.42-2.23.2-2.45s-.74-.26-.76-1c0-.33.22-.6,0-.88s-.18.19-.4.09c-.36-.38,0-.81-.21-1.09-.1-.08-.34.23-.54.07s.12-.5-.14-.62a.88.88,0,0,0-.74,1c0,.28.39.48.37.8s-.36.62-.43.76c-.49,1.12.34,1.36.22,1.75,0,.19-.4.3-.63.21s-.37-1.13-.27-1.55M87.15,67.84h0a.41.41,0,0,0,0,.08,2.84,2.84,0,0,1-.94-.44.74.74,0,0,0-.59-.13h0c-.25.11-.37.37-.51.5a.83.83,0,0,1,0-.15,0,0,0,0,0,0,0s0-.09,0-.13v0a.38.38,0,0,0,0-.1.08.08,0,0,0,0,0l.06-.11,0-.06,0,0,.08,0,0,0a.94.94,0,0,1,.48-.09h0a1.2,1.2,0,0,1,.66.26,1.62,1.62,0,0,0,.9.26,1.53,1.53,0,0,0-.18.33M63.46,66.48s0,0,0,.06l0,0,0,0a.46.46,0,0,1-.22,0,2.27,2.27,0,0,1-.41,0,.2.2,0,0,0,.11.22h0l.11.06.18.09c0,.14-.24.22-.35.22s-.42-.27-.5-.44l-.08,0,0,0a2,2,0,0,0-.86-.17c0-.57,1.62-.18,1.66-.17a1.68,1.68,0,0,1,.5.13s0,0,0,0M70.67,75a2.4,2.4,0,0,0-1.8.42,4.79,4.79,0,0,1-1,.59s.19-.95.35-2l-.48,0c-.12,1-.35,2.14-.75,2.2l-.57.12a1.28,1.28,0,0,0-.11-.2.61.61,0,0,0-.61-.24H65.6a.65.65,0,0,0-.49.57,2.41,2.41,0,0,1-1.6-.21s.95-.33,1.06-.67c0,0,.28-.54-.65-1.06,0,0-.7-.41-.89,0,0,0-.07.2.24.46,0,0,.34.36-.3.31,0,0-.44,0-.58-.22a10.68,10.68,0,0,1,.39-2l-.74-.2c-.09.27-.19.56-.27.86,0,0,0,.7-.29.88A2,2,0,0,1,61,72.46l-.84-.28a5.8,5.8,0,0,0,.94,3.08s-.74,1-1.52.47c0,0-1.09-.7-.39-1.32,0,0,.47-.39.67.1a.46.46,0,0,0,0,.91.46.46,0,0,0,.45-.43,1.14,1.14,0,0,0-.37-1,1.18,1.18,0,0,0-1-.28,3.44,3.44,0,0,0,.66-1.46.82.82,0,0,1,.05-.25l-.53-.2c0,.65-.23,1.85-1.13,1.53l1-1.6c-.36-.15-.72-.29-1.07-.45l-.1,0a1.63,1.63,0,0,1-.22,1.36s-.45.42-1.23-.19c0,0,1-.87,1.35-1.21a2.6,2.6,0,0,0-.85-.18h-.28l-.06,0a7.54,7.54,0,0,1-1.14.69.21.21,0,0,1-.27-.06,1.77,1.77,0,0,1-.18-2s.38-.93,1.2-.73c0,0,.23,0,.37.32,0,0-.79,0-.7.59,0,0,0,.57.72.54,0,0,1-.1.76-1.3,0,0-.17-.72-.74-.72,0,0,.32-.39.09-.55,0,0-.23-.22-.76.15,0,0-.14.26-.78.12a.58.58,0,0,0-.66.15s-.11.05-.11.51c0,0,.05.18-.24.66a2.34,2.34,0,0,0-.19.84,1.51,1.51,0,0,0-.65-.31c-.32-.33-.35-1.9-.69-2.67-.08-.18.16-1,.16-1.83a4.62,4.62,0,0,0,3.52-3.13,6.13,6.13,0,0,0-.18-3s0,0,.06,0a4.78,4.78,0,0,1,.26.62,5.74,5.74,0,0,0,2.48-.29l.09,0,.11-.05.29-.13.09,0a7,7,0,0,0,2.87-3A2.24,2.24,0,0,1,61,55.71c.61,0,1.07.31,1.68.31.9,0,1.51-.49,2.49-.38,0,.06.14.47.77.73a4.63,4.63,0,0,0,.24,1.5,1.22,1.22,0,0,0,.08.19s-.75.57-.55,1c0,.13.1.27.15.38a.22.22,0,0,1-.11,0c-.1,0-.24.15-.41.41s-.47.94-.17,1l.18,0a3.89,3.89,0,0,0,.55,3h0a4.51,4.51,0,0,0,4,1.83h0c.29,0,2.83.05,3.74,1.74.05.1.25.38.47.38s.42-.28.47-.38c.91-1.69,3.45-1.74,3.73-1.74h.05a4.56,4.56,0,0,0,4-1.83h0A3.63,3.63,0,0,0,83,62.31c.57-.32.54-1.59.55-1.82a2.09,2.09,0,0,0,1.19,1c-.11.6-.07,1.6.58,1.73.19,0,.36-.27.31-.5.56,1.6.09,2.58.51,2.7s.57-.94.61-1a1.67,1.67,0,0,1,.24.8c0,.5-.07,1,.15,1.07.75.13.39-2.06,1-1.84-.15,1,0,1.51.39,1.67,0,.44-.06.87-.25.87-1.07.24-2-.6-3-.35l-.1-.07a3.78,3.78,0,0,0-2.91-.31c-.49-.44-.67.22-.81.15-.9-.52-1.39.35-1.63.39s-.59-.45-1,.56c-.18.45-1.18.64-1.27.67a.42.42,0,0,1-.49-.23q-.06-.17-.12-.3a.85.85,0,0,0-.14-.19.51.51,0,0,0-.41-.14.57.57,0,0,0-.53.57.58.58,0,0,0,.11.34s.13-.1.26-.09a.41.41,0,0,1,.4.4h0c0,.45-.68.91-.68.91-.4.36-.91-.14-.91-.14a1,1,0,0,0-.48-.25.53.53,0,0,0-.42.32.55.55,0,0,0-.43-.32,1.12,1.12,0,0,0-.49.25s-.5.5-.9.14c0,0-.7-.46-.67-.91h0a.4.4,0,0,1,.39-.4c.14,0,.23.12.26.09a.58.58,0,0,0,.12-.34.58.58,0,0,0-.54-.57.48.48,0,0,0-.4.14.9.9,0,0,0-.15.19,2.09,2.09,0,0,0-.11.3.43.43,0,0,1-.5.23c-.08,0-1.08-.22-1.27-.67-.42-1-.8-.53-1-.56s-.73-.91-1.63-.39c-.14.07-.33-.59-.81-.15a3.85,3.85,0,0,0-2.31.05c-.09-.16-.52-.24-.64-.29a3.83,3.83,0,0,1-.71-.39,4.6,4.6,0,0,0-1.45-.12,1.86,1.86,0,0,1-.57-.21,5.45,5.45,0,0,1-1.58-1.29c-.06-.08-.2-.28-.23-.31a2.27,2.27,0,0,1-.39-.75,5.22,5.22,0,0,1,.21-2.17c0-.33,0-.47.07-.67a4.27,4.27,0,0,1-2.16-.09,5.13,5.13,0,0,1,.18,2.16,1.53,1.53,0,0,1,.57.89c0,.36-.12.73.09,1a5.77,5.77,0,0,0,1.41,1.1c.15.1,2.08,1.59,2.33,1.65s.45-.15.69-.11a.57.57,0,0,1,.21.13,2.29,2.29,0,0,0,.4.34c-.59.36-1.32.8-1.86,1.07,0,0-.87.48-.46.49,0,0,.61,0,.67.11l-.65.27c.91.33,1.84.62,2.79.88a6.78,6.78,0,0,1,2.14-1.52s1.09,0,1.45-.76c.12-.24.58.46,1.53-.06.09,0,.23.2.51.27.08,0-.39.1-.3.52,0,.06-.78,0-1,.45a7.13,7.13,0,0,0-3.26,1.37l.85.19A2.67,2.67,0,0,1,66.31,70a1.61,1.61,0,0,1,1.31,1.15c.58.08,1.16.15,1.75.21h0c.16-.07,1-.47.6-1,0,0-.19-.24-.52.08,0,0-.22.19-.31-.11A.83.83,0,0,0,69,70s-.16-.24.16-.13a1.46,1.46,0,0,0,.56,0,.54.54,0,0,0,.52-.55.55.55,0,0,0-.52-.58s-.06,0-.06,0a.21.21,0,0,1,.07.15c0,.11-.1.23-.2.2-.33-.09-.23-.73.22-.75a1.1,1.1,0,0,1,.73.42S71.26,70,72,70.26c0,0-.13.42.32.56,0,0,0,.35.45.32a2,2,0,0,1,.21.4h2.43a2,2,0,0,1,.21-.4c.47,0,.4-.31.45-.32.46-.14.28-.54.33-.56.71-.24,1.47-1.39,1.47-1.39a1.12,1.12,0,0,1,.73-.42c.46,0,.56.66.22.75-.1,0-.2-.09-.2-.2a.22.22,0,0,1,.08-.15s-.06,0-.07,0a.55.55,0,0,0-.51.58.53.53,0,0,0,.51.55,1.53,1.53,0,0,0,.57,0c.32-.11.16.13.16.13a1,1,0,0,0-.12.31c-.08.3-.3.11-.3.11-.34-.32-.53-.08-.53-.08-.36.48.44.88.6,1h0q.89-.09,1.74-.21A1.61,1.61,0,0,1,82,70a2.68,2.68,0,0,1,1.8.59l.85-.19A7.18,7.18,0,0,0,81.4,69c-.26-.44-1.06-.39-1-.45.09-.42-.38-.49-.3-.52.27-.07.42-.32.51-.27,1,.52,1.42-.18,1.53.06.36.8,1.45.76,1.45.76a6.67,6.67,0,0,1,2.14,1.52c.87-.23,1.73-.51,2.56-.8a0,0,0,0,0,0,0,.78.78,0,0,0,0-.14s0,0,0,0h0l-.12-.22A5.73,5.73,0,0,0,87.4,68h0l0,0s.63-1,1-.31c0,.08,0,.31-.43.31a5,5,0,0,1,.57,1.22h0L89,69l.11,0c-.25-.48-.61-.76-.51-.92s.44.13.64-.16a3.8,3.8,0,0,0,.14-.79,1.43,1.43,0,0,0,.63.14c.64,0,.89-1,.71-1.31.09-.06.48-.38.51-.29.2.46,1.26,1,1.17-.09.16.51.29,1.09.88,1,.43-.1.15-.83.3-.83.13.21.3,1,.94.84a.48.48,0,0,0,.34-.49c0-.8-2.26-5-2.46-6.81l-.11,0c-.23-.11-.25-.47-.21-.73,0,0,0,0,0-.06-.28-.05-.71-.29-.78-1.05s.3-1,.37-1,0,0,0,.07c-.17.53-.3,1.18.1,1.54a.71.71,0,0,0,.39.16.66.66,0,0,1,.32-.35s0,0,0,.06a1.07,1.07,0,0,0,0,1.12.73.73,0,0,0,.42.18c.64-.22,1-1.45,1.11-1.83.42.09-.69,2.56.16,3.08.36,0,.56-.43.69-.79.28.72-.91,2.25,0,2.59.52.14.7-1.2.71-1,.16,2-.91,3-.23,3.34s.78-1.39.78-1.18c0,2.18-1.11,2.78-.65,3.16.54.22.92-1.09.92-.79,0,2-1,2.47-.59,3.08s1.44-1.27,1.48-.89-1.06,2.71-.42,2.87.73-.65.78-.81a41.22,41.22,0,0,0,1.63-12.9,34.66,34.66,0,0,0-1.1-7.79c-.42-1.45-1.24-4.42-3.16-4.82a1.37,1.37,0,0,0-1.57,1.4c0,.65.47,1,.27,1.6a5.73,5.73,0,0,0-.6,1.34c-.11.47.3.66.17,1.15-.58-.08-.89.4-1.75.23a2.68,2.68,0,0,1-1.58.15s0,0,0,0c.86,0,1.64-.31,1.8-.69a1.78,1.78,0,0,0-.37-1.76,4.4,4.4,0,0,1-2.45.43c-1.4-.09-1.75.18-2,1a.52.52,0,0,1-.08-.4c.06-.47.53-.76,1.09-.82a.94.94,0,0,0,.14-.59,2.44,2.44,0,0,0-.7,0,2.31,2.31,0,0,0-1.83,1.15,1.13,1.13,0,0,0,0,.35,1.54,1.54,0,0,0,0,.31,1,1,0,0,1,.07.21c.22.46.75.73,1.88.78,0,0,0,0,0,0s-.23.09-.52.06a2.24,2.24,0,0,1-1.51-.54l-.09.09a2,2,0,0,1-1.27.6A1.7,1.7,0,0,1,82.89,50c-.68-.92.2-2.5.19-3.09,0-1.57-2.19-.87-3-.46a7.9,7.9,0,0,0-2.31,2.06,7,7,0,0,0-.9,1.37,4.71,4.71,0,0,0,1.71.5h.25A2.18,2.18,0,0,0,80.24,50a.82.82,0,0,1,.5-.19.79.79,0,0,1,.54.23c.1.09,1.46,1.17,1.9,1.47a.54.54,0,0,1,.22.35.59.59,0,0,1-.17.47,7.54,7.54,0,0,0-1.22,2,4.09,4.09,0,0,0-.18.49c-.16.58-.28,1.49.52,1.78,0,0,.88.23.82-1.24,0,0,.14.94.83.91.29,0,.56-.3.51-.94h0a7.65,7.65,0,0,1,.06-2.06.25.25,0,0,0,0-.08s0,.07.07.38a7.72,7.72,0,0,0,2.57,6.09,5.18,5.18,0,0,1-2-2,1.8,1.8,0,0,0-.82,2.16,2,2,0,0,0,.68,1,.07.07,0,0,1,0,.05c0,.06-.16.18-.41-.08h0l-.12-.14a3.51,3.51,0,0,1-.22-.43,12.6,12.6,0,0,1-.91-.88h0c-.23-.46-.1-1.82-1.44-1.82h-.12l-.23,0h0a5,5,0,0,1-.24-2.06A7.47,7.47,0,0,1,83,52.12a.26.26,0,0,0,.09-.22.17.17,0,0,0-.07-.12h0c-.45-.31-1.78-1.36-1.92-1.48l0,0a.49.49,0,0,0-.33-.14.46.46,0,0,0-.28.11,2.56,2.56,0,0,1-1.59.51,1.26,1.26,0,0,1-.26,0h0a5.43,5.43,0,0,1-1.91-.57,6.88,6.88,0,0,0-2.53-.57,6.8,6.8,0,0,0-2.52.57,5.65,5.65,0,0,1-1.92.57h0a1.11,1.11,0,0,1-.26,0,2.52,2.52,0,0,1-1.58-.51h0a.49.49,0,0,0-.29-.1.47.47,0,0,0-.32.14v0c-.15.12-1.48,1.17-1.93,1.48h0a.12.12,0,0,0-.07.12.29.29,0,0,0,.09.22A7.36,7.36,0,0,1,67,55.43a3.66,3.66,0,0,1,0,.75c-.11-.37-.21-.68-.3-.92a1.57,1.57,0,0,0-.19-.5h0a2,2,0,0,0-.75-.68,6.81,6.81,0,0,1-.73-.33,2.64,2.64,0,0,1-1-1,3,3,0,0,0-.47-1.54c.13-.06.67.32.71,1.28a5.44,5.44,0,0,0,1.17-2.7c.49-.65,1.83-.4,2.34-.31a1.14,1.14,0,0,1,.45.15c.15.1.17.33.37.41a1.42,1.42,0,0,0,.71,0,1.9,1.9,0,0,1,.2.34h.2a5.32,5.32,0,0,0,1.8-.53l0,0,.11,0a1.69,1.69,0,0,0-1.12-.53c-.5-.08-.77-.5-1.25-.6a1.72,1.72,0,0,0-.68,0,12.11,12.11,0,0,1-2.79-.34c-.94-.06-1,.58-1.31,1.11a3.27,3.27,0,0,1-.44.58c-.26.25-.56.26-.87.5l0,0a3.5,3.5,0,0,0-.44-1.21h0l-.06-.12a3.4,3.4,0,0,0-2.23-1.68,1.18,1.18,0,0,1-.39-.22.19.19,0,0,1,0-.33c.33-.19.88-.12,1.25-.29.9-.42.58-1.18.23-1.25A8.27,8.27,0,0,1,60,45c-.22-.14-.35-.52-.71-.65a1.75,1.75,0,0,0-.75,0c-.22,0-.35.19-.52.16a1.36,1.36,0,0,1,1-.47c-.39-.11-.26-.75-.62-.9a1.28,1.28,0,0,0-.65.18c0-.2-.14-.89-.52-1.11s-.41.1-.4.28.47.34.55,1l-.24.16a1.39,1.39,0,0,0-.48-.9c-.31-.18-.41.09-.4.27s.41.32.53.91c-.11.08-.21.18-.31.26-.6-.16-.74-.59-.89-.62s-.45.05-.31.37.6.49.87.58c-.06.07-.13.14-.18.21-.71-.14-.86-.62-1-.65s-.46,0-.31.37.88.59,1.06.63a.78.78,0,0,0-.14.5c-.55-.07-1.52.23-1.34.87.18.13.83-.4,1.42-.1.39.61,1,.63,1.17.75s.26.48.35.77a7.05,7.05,0,0,0,.85,1.41c.34.51.69,1.05,1,1.5a.75.75,0,0,1,.06.44,13.92,13.92,0,0,1-2.09,1.85c-.5.46-5.22,4.05-5.81,5.61a3.37,3.37,0,0,0-.18,1.27,1,1,0,0,1-.94-.1c-.31-.37.32-.72.17-1.21a.41.41,0,0,0-.52-.19c-.35.12-.43.83-.25,1.25,0,.12.23.27.1.36s-.29-.1-.29-.36a.44.44,0,0,0-.15.41c.09.34.51.35.65.44s-.25.23-.41.08c-.26.39,0,.53.1.54.28.06.59-.2.77-.22.07.19-.06.25-.36.33.48.57.89-.41,1.42-.29.16,0,1.64,1.42,1.39,2.47a.93.93,0,0,1-.1.25c-.33.41-.87.72-1.25,1.11-.77.49.74,3.59.61,5.18-.09.62.54.51.9,1.52a1.09,1.09,0,0,0-.95.38l-.05.09h0a.81.81,0,0,0-.1.39.78.78,0,0,0,1.55,0s0-.09,0-.12a1.64,1.64,0,0,1,.63.13l.68.37a7,7,0,0,1-6.33.85s-1.78-.56-1.28-2.15a.87.87,0,0,1,.33-.41.9.9,0,0,0,.35.52.87.87,0,0,0,.52.16.88.88,0,0,0,.89-.88.89.89,0,0,0-.25-.62l-.12-.1s0,0,0,0h0A1.51,1.51,0,0,0,47.48,70,1.71,1.71,0,0,0,46.4,72.3s-1.16-.26-1.6.27a.61.61,0,0,0-.13.44h0a1.07,1.07,0,0,0,.11.37.7.7,0,0,0,.56.29.67.67,0,0,0,.52-.25h0c.05-.06.16-.12.39.08a5.13,5.13,0,0,0,4,1.55s.06,1.22.89,1.44l.12,0a.41.41,0,0,0,.41-.41.41.41,0,0,0-.41-.41h-.05a1.81,1.81,0,0,1,0-.66,10,10,0,0,0,4.33-1.75,10.24,10.24,0,0,0,2,.38s.12.27-.42.32c0,0-.67,0-.66.21,0,0,0,.24.5.23,0,0-.07.25.36.5,0,0,.28.14.13.32,0,0-.52.28-.37.62,0,0,.15.41.87.3,0,0,.24,0,0,.2,0,0-.36.39.25.7a.59.59,0,0,0,.79-.23s.06-.2.35,0c0,0,1.54.7,2.33-.44,0,0,0-.18.28.12a4,4,0,0,0,3,1,.81.81,0,0,0,1.51-.23,4.34,4.34,0,0,0,2.23-.75,7.91,7.91,0,0,1,.76-.42A1.13,1.13,0,1,0,70.67,75" transform="translate(-36.3 -26.83)"/><rect class="cls-3" width="76.02" height="168.48"/><path class="cls-2" d="M81.17,60.07V62.7a3.23,3.23,0,0,0,0-2.63" transform="translate(-36.3 -26.83)"/><path class="cls-2" d="M86.33,45.79c.07,0,0-.37.31-.39a.88.88,0,0,1,.82.55c.08.33-.2,1.15.87,1.26l0,.34a1.86,1.86,0,0,1-.16.57h.2c1.43.06,2.23,0,2.64-.48a2.84,2.84,0,0,0,.37-.51,2.53,2.53,0,0,0,.22-2,.76.76,0,0,1,0-.11l-.09-.19a4.2,4.2,0,0,0-2.19-1.64.71.71,0,0,0-.21,0h0l0,0h0a1.41,1.41,0,0,1,.22,0,3.34,3.34,0,0,1,2.33,1.62,1.39,1.39,0,0,0,.51-1,2.48,2.48,0,0,1,.17-.95.24.24,0,0,0-.11-.31.24.24,0,0,0-.31.11c-.19.4-.64.19-.45-.22a.23.23,0,0,0-.11-.31.24.24,0,0,0-.31.11c-.18.38-.61.17-.44-.21a.25.25,0,0,0-.1-.32.24.24,0,0,0-.31.12c-.19.4-.64.17-.45-.22a.24.24,0,0,0-.11-.32.24.24,0,0,0-.31.12,2.07,2.07,0,0,1-.38.59,4.75,4.75,0,0,1,2.34,1.24,3.51,3.51,0,0,1,.26.32h0a.29.29,0,0,1,0,.09,0,0,0,0,1,0,0,1.63,1.63,0,0,0-.27-.26,5.06,5.06,0,0,0-2.48-1.23c-.46,0-.33.57-.28.91a1.15,1.15,0,0,0-1.41.94,1.56,1.56,0,0,0,.15.63s0,0,0,0-.15-.08-.2-.24a2,2,0,0,1-.11-.39c-.62,0-1.2.37-1.15.95a1.05,1.05,0,0,0,.57.78m2.22-.88c.17-.2.22.65.88.4-.48.57-1.1,0-.88-.4m0-.42c.25-.15.47-.66.86-.41.17.1.35.29.55.43s.43.27.52.45-.19.78-.54.29-.54-1-1.05-.76-.7.51-.8.22c0-.13.3-.13.46-.22m-1.81.11c-.11.23-.45.23-.49.54-.29-.26.24-.84.49-.54" transform="translate(-36.3 -26.83)"/><path class="cls-2" d="M103.61,72.57c-.43-.53-1.59-.27-1.59-.27a1.72,1.72,0,0,0-1.1-2.35,1.51,1.51,0,0,0-1.27.13l0,0h0l-.12.1a.91.91,0,0,0-.25.62.88.88,0,0,0,.89.88.91.91,0,0,0,.52-.16A.86.86,0,0,0,101,71a.83.83,0,0,1,.33.41c.5,1.58-1.28,2.15-1.28,2.15a7,7,0,0,1-6.33-.85l.69-.37a1.57,1.57,0,0,1,.62-.13s0,.07,0,.11a.78.78,0,0,0,.78.78.77.77,0,0,0,.77-.78.8.8,0,0,0-.1-.38h0l-.06-.08c-.46-.7-2-.23-2-.23a2.88,2.88,0,0,0,.05-2.24c-.29-.48-.24-.66-.24-.66,0-.46-.11-.51-.11-.51a.58.58,0,0,0-.66-.15c-.64.14-.78-.12-.78-.12-.52-.37-.76-.15-.76-.15-.22.16.09.55.09.55-.56,0-.73.72-.73.72-.23,1.2.76,1.29.76,1.29.7,0,.71-.53.71-.53.09-.56-.69-.59-.69-.59a.44.44,0,0,1,.37-.32c.82-.2,1.2.73,1.2.73a1.78,1.78,0,0,1-.19,2,.21.21,0,0,1-.27.06A7.81,7.81,0,0,1,92,71.06l-.06,0h-.28a2.67,2.67,0,0,0-.86.18c.32.34,1.35,1.21,1.35,1.21-.78.61-1.22.18-1.22.18a1.61,1.61,0,0,1-.23-1.35l-.08,0-1.09.44c.37.64,1,1.61,1,1.61-.9.32-1.09-.88-1.13-1.53l-.53.2a.82.82,0,0,1,.05.25,3.57,3.57,0,0,0,.66,1.46,1.15,1.15,0,0,0-1,.28,1.1,1.1,0,0,0-.38,1,.47.47,0,0,0,.46.43.46.46,0,0,0,0-.91c.2-.49.67-.1.67-.1.7.62-.39,1.32-.39,1.32-.78.52-1.51-.47-1.51-.47a5.83,5.83,0,0,0,.94-3.09l-.85.28a2,2,0,0,1-.52,2.06c-.26-.18-.3-.88-.3-.88-.08-.3-.17-.59-.27-.86l-.74.2a11.08,11.08,0,0,1,.4,2,1.19,1.19,0,0,1-.59.22c-.64.05-.3-.31-.3-.31.31-.26.25-.46.25-.46-.2-.44-.89,0-.89,0-.93.52-.66,1.06-.66,1.06.12.34,1.06.67,1.06.67a2.33,2.33,0,0,1-1.6.2.66.66,0,0,0-.49-.56h0a.6.6,0,0,0-.61.24.56.56,0,0,0-.11.2l-.58-.12c-.4-.06-.62-1.21-.74-2.21l-.49.06c.16,1.07.36,2,.36,2a4.79,4.79,0,0,1-1-.59,2.35,2.35,0,0,0-1.8-.42,1.13,1.13,0,1,0,1.32,1.14c.4.19.77.42.77.42a4.32,4.32,0,0,0,2.21.75.83.83,0,0,0,.81.66.8.8,0,0,0,.71-.43,4,4,0,0,0,3-1c.23-.31.28-.13.28-.13.79,1.15,2.33.45,2.33.45.3-.15.36,0,.36,0a.58.58,0,0,0,.78.24c.61-.32.25-.7.25-.7-.2-.21,0-.2,0-.2.72.11.86-.3.86-.3.15-.34-.37-.62-.37-.62-.14-.18.13-.32.13-.32.43-.25.37-.5.37-.5.53,0,.49-.23.49-.23,0-.22-.66-.21-.66-.21-.53,0-.42-.32-.42-.32a11.34,11.34,0,0,0,2-.38,10,10,0,0,0,4.32,1.76,1.78,1.78,0,0,1,0,.65h0a.41.41,0,0,0-.41.41.42.42,0,0,0,.41.41l.12,0c.83-.22.9-1.44.9-1.44a5.12,5.12,0,0,0,4-1.55c.23-.2.35-.14.4-.08h0a.68.68,0,0,0,1.08,0,1.1,1.1,0,0,0,.12-.38h0a.64.64,0,0,0-.14-.44" transform="translate(-36.3 -26.83)"/><path class="cls-2" d="M75.22,75.59a.5.5,0,0,0,.27-.36,1,1,0,0,0-.44-1l-.84,0h0l-.84,0a1,1,0,0,0-.43,1,.51.51,0,0,0,.26.36s-.59.26-.6.67c0,0-.07.31.46.73a2.93,2.93,0,0,1,.49.76s0,.45.67.45.66-.45.66-.45a2.87,2.87,0,0,1,.5-.76c.52-.42.46-.73.46-.73,0-.41-.61-.67-.61-.67" transform="translate(-36.3 -26.83)"/><polygon class="cls-2" points="43.32 46.16 43.64 46.13 43.44 45.76 43.32 46.16"/><polygon class="cls-2" points="32.9 46.17 33.21 46.2 33.09 45.81 32.9 46.17"/><path class="cls-2" d="M68,72.14h-.06l-.06.48a.91.91,0,0,0,.22,0,.15.15,0,0,0,.09-.07s0-.07,0-.14a.2.2,0,0,0,0-.19.34.34,0,0,0-.2-.08" transform="translate(-36.3 -26.83)"/><path class="cls-2" d="M72.47,72.51a.26.26,0,0,0-.24.12.73.73,0,0,0-.1.39.93.93,0,0,0,.07.43.24.24,0,0,0,.22.14.28.28,0,0,0,.25-.11.76.76,0,0,0,.11-.42.84.84,0,0,0-.07-.4.29.29,0,0,0-.24-.15" transform="translate(-36.3 -26.83)"/><path class="cls-2" d="M76.38,72.51a.27.27,0,0,0-.24.13.75.75,0,0,0-.06.4.8.8,0,0,0,.1.42.24.24,0,0,0,.24.12.29.29,0,0,0,.24-.13.77.77,0,0,0,.06-.42.8.8,0,0,0-.1-.4.23.23,0,0,0-.24-.12" transform="translate(-36.3 -26.83)"/><polygon class="cls-2" points="29.41 45.67 29.71 45.72 29.62 45.31 29.41 45.67"/><path class="cls-2" d="M59.75,70.13l-.17.47.06,0a.22.22,0,0,0,.21,0,.37.37,0,0,0,.11-.15.47.47,0,0,0,0-.16.17.17,0,0,0-.06-.1.65.65,0,0,0-.17-.09" transform="translate(-36.3 -26.83)"/><path class="cls-2" d="M61.25,70.64a.28.28,0,0,0-.27,0,.85.85,0,0,0-.19.35.94.94,0,0,0-.06.43.29.29,0,0,0,.19.2.28.28,0,0,0,.27,0,.66.66,0,0,0,.2-.37.72.72,0,0,0,0-.41.27.27,0,0,0-.19-.21" transform="translate(-36.3 -26.83)"/><path class="cls-2" d="M62.69,71.08l0,0-.12.47a.8.8,0,0,0,.21,0l.11,0a.37.37,0,0,0,.06-.14.23.23,0,0,0,0-.19.34.34,0,0,0-.2-.11" transform="translate(-36.3 -26.83)"/><path class="cls-2" d="M86.05,71.1a.36.36,0,0,0-.23,0,.05.05,0,0,1,0,0l.12.46a.62.62,0,0,0,.2-.07.17.17,0,0,0,.07-.1.27.27,0,0,0,0-.15.2.2,0,0,0-.11-.16" transform="translate(-36.3 -26.83)"/><polygon class="cls-2" points="52.35 44.13 52.63 44.02 52.35 43.72 52.35 44.13"/><path class="cls-2" d="M89.83,69.34a.72.72,0,0,0-.44-.13.9.9,0,0,0-.29.05A41.6,41.6,0,0,1,74.21,71.8a41.62,41.62,0,0,1-14.9-2.54.92.92,0,0,0-.3-.05.71.71,0,0,0-.43.13l-1.83,1.43h0a3.1,3.1,0,0,1,1.14.29c4.75,2.08,10.2,2.94,16.3,3a41.45,41.45,0,0,0,16.3-3,3.1,3.1,0,0,1,1.14-.29h0ZM72.45,72l.38,0-.45.28H72.3ZM60.29,70.6a.34.34,0,0,1-.14.17.35.35,0,0,1-.22,0,1.05,1.05,0,0,1-.3-.07l-.09,0-.1.28a.19.19,0,0,0,0,.12.2.2,0,0,0,.11.08h0l0,.09-.65-.23,0-.1h0a.2.2,0,0,0,.13,0,.26.26,0,0,0,.07-.11l.25-.71a.19.19,0,0,0,0-.12.2.2,0,0,0-.11-.07l0,0,0-.09.49.17.27.11a.52.52,0,0,1,.17.12.27.27,0,0,1,.08.16.28.28,0,0,1,0,.18m1.47.78a.62.62,0,0,1-.31.38.76.76,0,0,1-.56,0,.82.82,0,0,1-.34-.21.56.56,0,0,1-.17-.32.83.83,0,0,1,0-.32.72.72,0,0,1,.51-.45.87.87,0,0,1,.36,0,.65.65,0,0,1,.44.34.64.64,0,0,1,0,.51m1.29.63a1.53,1.53,0,0,0,.1.25.16.16,0,0,0,.09,0l0,.11-.39-.11a1.93,1.93,0,0,1-.11-.37,1.47,1.47,0,0,0-.06-.19.09.09,0,0,0,0-.06.34.34,0,0,0-.13,0l-.08.29c0,.06,0,.1,0,.13s0,0,.11.06h0l0,.1-.67-.18,0-.1h0A.27.27,0,0,0,62,72a.23.23,0,0,0,.06-.11l.19-.73a.2.2,0,0,0,0-.13l-.11-.06h0l0-.1.49.14.11,0,.24.07.14.1a.29.29,0,0,1,.08.14.25.25,0,0,1,0,.17.31.31,0,0,1-.33.23.89.89,0,0,1,.14.32m2.09.83L64,72.6l0-.1h0a.17.17,0,0,0,.14,0,.4.4,0,0,0,0-.12l.16-.73a.28.28,0,0,0,0-.13s0,0-.12-.06h0l0-.1.67.14,0,.1h0c-.06,0-.11,0-.13,0a.15.15,0,0,0-.05.1l-.15.72a.28.28,0,0,0,0,.11l0,0a.28.28,0,0,0,.13,0,.32.32,0,0,0,.26,0,.41.41,0,0,0,.16-.2l.1,0Zm1.39.26L65.91,73l0-.1a.19.19,0,0,0,.11,0s0,0,0,0a.2.2,0,0,0,0-.07v0l0-.1-.38-.07,0,.06a.28.28,0,0,0-.05.08.06.06,0,0,0,0,.07.19.19,0,0,0,.09,0v.1l-.42-.07,0-.11c.08,0,.16,0,.24-.17l.56-.9.11,0,.21,1.05a.34.34,0,0,0,.08.19l.08,0Zm2.15.3-.39-.05a1.73,1.73,0,0,1-.16-.35l-.08-.19s0,0-.06,0-.06,0-.14,0l0,.3a.14.14,0,0,0,0,.12s0,0,.11.06h0v.1l-.68-.08v-.11h0a.17.17,0,0,0,.13,0,.43.43,0,0,0,0-.11l.1-.75s0-.1,0-.12,0,0-.11,0h0l0-.11L68,72h.11l.25,0a.51.51,0,0,1,.15.07.32.32,0,0,1,.1.13.33.33,0,0,1,0,.17.32.32,0,0,1-.29.27,1.25,1.25,0,0,1,.17.3,1.2,1.2,0,0,0,.13.23.21.21,0,0,0,.1,0Zm1.39.14-.63-.06,0-.1h.1s0,0,0,0,0,0,0-.06l0,0,0-.1-.39,0,0,.06s0,.07,0,.1a.07.07,0,0,0,0,.06l.1,0v.1l-.42,0v-.1c.08,0,.15,0,.22-.18l.49-.95h.11l.3,1a.27.27,0,0,0,.09.18.15.15,0,0,0,.08,0Zm1.38-1.09-.8,1,.29,0a.33.33,0,0,0,.18,0,.26.26,0,0,0,.11-.07.48.48,0,0,0,.09-.16h.11l-.06.38-1.13-.09v-.08l.79-1-.2,0a.46.46,0,0,0-.27,0,.35.35,0,0,0-.12.17h-.1l0-.33,1.07.08ZM73,73.54a.77.77,0,0,1-.53.17.88.88,0,0,1-.4-.11.6.6,0,0,1-.23-.27.71.71,0,0,1-.06-.31.68.68,0,0,1,.11-.33.54.54,0,0,1,.27-.23.71.71,0,0,1,.35-.07.68.68,0,0,1,.52.21.71.71,0,0,1,.18.49.73.73,0,0,1-.21.45m1.86-1-.09,0a.08.08,0,0,0,0,.07s0,.07,0,.12v1h-.12l-.83-.93v.58a.24.24,0,0,0,.05.18.18.18,0,0,0,.13,0v.1h-.47v-.1l.1,0a.21.21,0,0,0,.06-.08.35.35,0,0,0,0-.12v-.65c0-.13-.06-.19-.17-.19v-.11h.42l.7.77v-.46q0-.21-.18-.21v-.1h.46Zm2.12.94a.71.71,0,0,1-.51.21.67.67,0,0,1-.4-.08.53.53,0,0,1-.25-.24.65.65,0,0,1-.09-.32.7.7,0,0,1,.08-.33.55.55,0,0,1,.25-.25.79.79,0,0,1,.34-.1.72.72,0,0,1,.54.17.66.66,0,0,1,.21.47.62.62,0,0,1-.17.47m1.08.1v-.1h0a.17.17,0,0,0,.12,0,.24.24,0,0,0,0-.13l-.07-.74a.15.15,0,0,0,0-.12.17.17,0,0,0-.12,0h0v-.11l.68-.06v.11h0a.18.18,0,0,0-.13,0,.25.25,0,0,0,0,.13l.06.72a.27.27,0,0,0,0,.11.07.07,0,0,0,0,0,.32.32,0,0,0,.14,0,.3.3,0,0,0,.24-.1.54.54,0,0,0,.1-.23h.1l0,.42ZM80,73.4v-.1l.11,0a.07.07,0,0,0,0,0,.17.17,0,0,0,0,0v0L80,73.05l-.39,0,0,.06a.46.46,0,0,0,0,.1.05.05,0,0,0,0,.06h.09l0,.1-.42,0v-.1c.08,0,.14-.09.17-.23l.29-1h.1l.51.94a.46.46,0,0,0,.13.16h.1v.11Zm2.2-1.25a.85.85,0,0,0-.09-.14A.14.14,0,0,0,82,72h-.12l-.2,0,.07.43.1,0a.19.19,0,0,0,.1,0,.45.45,0,0,0,0-.13l.1,0,.07.43-.1,0a.16.16,0,0,0-.06-.12s-.06,0-.1,0l-.1,0,0,.33a.23.23,0,0,0,0,.12A.17.17,0,0,0,82,73h0v.1l-.67.11,0-.1h0a.14.14,0,0,0,.12,0,.24.24,0,0,0,0-.12l-.11-.75a.19.19,0,0,0,0-.11.17.17,0,0,0-.13,0h0l0-.11,1.06-.16.06.33Zm1.47-.32.08.42a1,1,0,0,1,0,.23.41.41,0,0,1,0,.17.39.39,0,0,1-.15.16.63.63,0,0,1-.25.1.57.57,0,0,1-.26,0,.37.37,0,0,1-.2-.08.36.36,0,0,1-.11-.14,1.07,1.07,0,0,1-.07-.19l-.09-.5a.22.22,0,0,0-.06-.12s-.07,0-.14,0l0-.1.67-.14,0,.11h0c-.06,0-.1,0-.11.06a.16.16,0,0,0,0,.12l.1.5a.66.66,0,0,0,.07.2.19.19,0,0,0,.12.11.25.25,0,0,0,.19,0,.26.26,0,0,0,.18-.09.26.26,0,0,0,.07-.16,1,1,0,0,0,0-.24l-.09-.42c0-.13-.1-.18-.22-.16l0-.1.46-.09,0,.11a.13.13,0,0,0-.08,0,.1.1,0,0,0,0,.08.2.2,0,0,0,0,.11m.58.87,0-.1h0a.15.15,0,0,0,.11-.06.14.14,0,0,0,0-.13l-.17-.73a.19.19,0,0,0-.07-.11s0,0-.12,0h0l0-.1,1-.24.1.31-.1,0-.1-.12a.2.2,0,0,0-.08,0,.26.26,0,0,0-.12,0l-.24.06.1.42.12,0s.09,0,.1,0a.14.14,0,0,0,0-.13l.11,0,.1.43-.1,0a0,0,0,0,1,0,0,.25.25,0,0,0,0-.09.17.17,0,0,0-.13,0l-.12,0,.07.31,0,.11s0,0,.07,0a.37.37,0,0,0,.14,0,.54.54,0,0,0,.17-.07.27.27,0,0,0,.07-.13.57.57,0,0,0,0-.18l.1,0,.09.41Zm2.36-.6a3.55,3.55,0,0,1-.28-.26.79.79,0,0,0-.15-.14.11.11,0,0,0-.07,0,.49.49,0,0,0-.14,0L86,72c0,.06,0,.1.06.11s.06,0,.13,0h0l0,.1-.66.18,0-.1h0c.06,0,.1,0,.11-.06a.28.28,0,0,0,0-.13l-.21-.72a.15.15,0,0,0-.06-.11.12.12,0,0,0-.12,0h0l0-.1.49-.13.11,0,.25-.06a.43.43,0,0,1,.16,0,.28.28,0,0,1,.15.08.29.29,0,0,1,.08.14.32.32,0,0,1-.16.37,1.42,1.42,0,0,1,.27.2,1.16,1.16,0,0,0,.22.17.17.17,0,0,0,.1,0l0,.1Zm.59-.17v-.08l.33-1.25-.19.06a.56.56,0,0,0-.23.12A.3.3,0,0,0,87,71l-.1,0-.08-.33,1-.34,0,.09-.35,1.24.28-.09a.62.62,0,0,0,.16-.07.44.44,0,0,0,.08-.11.9.9,0,0,0,0-.18l.1,0,.1.36Zm1.92-.66,0-.1.09,0a0,0,0,0,0,0-.05.05.05,0,0,0,0,0l0,0L89,70.93l-.36.13v.07a.41.41,0,0,0,0,.09s0,0,0,.06a.22.22,0,0,0,.1,0l0,.1-.39.15,0-.09c.08,0,.11-.13.12-.27l0-1.06.1,0,.72.78a.46.46,0,0,0,.16.13h.1l0,.1Z" transform="translate(-36.3 -26.83)"/><path class="cls-2" d="M68.51,51.63c-.28-.16-.54-.32-.7-.43l-.67.43Z" transform="translate(-36.3 -26.83)"/><path class="cls-2" d="M71.75,51.32c-.13.06-.37.16-.57.27l-.08,0h5.74l-.07,0c-.21-.11-.46-.21-.58-.27l-.06,0c-.27-.11-.52-.19-.75-.26H72.56a7.37,7.37,0,0,0-.74.26l-.07,0" transform="translate(-36.3 -26.83)"/><path class="cls-2" d="M80.39,51.21h0a5.3,5.3,0,0,1-.59.41H81l-.57-.4,0,0" transform="translate(-36.3 -26.83)"/><path class="cls-2" d="M67.05,62.69v-3a3.65,3.65,0,0,0,0,3" transform="translate(-36.3 -26.83)"/><polygon class="cls-2" points="37.67 30.87 32.16 29.1 36.46 29.1 37.67 30.87"/><path class="cls-2" d="M74,52H66.61a.33.33,0,0,0,.08.19s.15.18.3.38h6.78Z" transform="translate(-36.3 -26.83)"/><path class="cls-2" d="M73.65,53H67.24c.1.18.21.37.32.59h5.91Z" transform="translate(-36.3 -26.83)"/><path class="cls-2" d="M73.35,54H67.72a5.89,5.89,0,0,1,.21.59h5.24Z" transform="translate(-36.3 -26.83)"/><path class="cls-2" d="M73.06,55H68a5.21,5.21,0,0,1,.09.59h4.76Z" transform="translate(-36.3 -26.83)"/><path class="cls-2" d="M69.84,56.92H68.1a3.76,3.76,0,0,1-.12.58h2.68Z" transform="translate(-36.3 -26.83)"/><path class="cls-2" d="M69.3,56.52l-.83-.59h-.34V56a2.56,2.56,0,0,1,0,.53Z" transform="translate(-36.3 -26.83)"/><path class="cls-2" d="M74,52l0-.09V57.7l5.51-1.77h-4.3l-.11-.38h4.84A5.59,5.59,0,0,1,80,55H74.89l-.12-.4h5.36a5.14,5.14,0,0,1,.22-.59H74.59l-.12-.39h6c.11-.21.22-.41.33-.59H74.29l-.12-.39H81.1c.2-.28.35-.46.39-.51s0-.06,0-.07Z" transform="translate(-36.3 -26.83)"/><path class="cls-2" d="M75.29,60.84v4.41a3.64,3.64,0,0,1,.59-.3V61.29Z" transform="translate(-36.3 -26.83)"/><path class="cls-2" d="M74.29,60.08v6.38l.23-.36,0,0a2.32,2.32,0,0,1,.35-.46V60.53Z" transform="translate(-36.3 -26.83)"/><path class="cls-2" d="M73.31,60.33v5.13a2.3,2.3,0,0,1,.48.59l0,0,.08.13V59.88Z" transform="translate(-36.3 -26.83)"/><path class="cls-2" d="M72.33,61.07V64.9a3.19,3.19,0,0,1,.59.28V60.63Z" transform="translate(-36.3 -26.83)"/><path class="cls-2" d="M76.27,64.81a5.5,5.5,0,0,1,.59-.14V62l-.59-.45Z" transform="translate(-36.3 -26.83)"/><path class="cls-2" d="M71.36,64.65l.58.12v-3.4l-.58.45Z" transform="translate(-36.3 -26.83)"/><path class="cls-2" d="M74,57.69l-2,.74-.74-.54H67.87a5.37,5.37,0,0,1-.22.59h0c-.07.15-.13.3-.21.45v4.36a3.14,3.14,0,0,0,.58.54V58.48h.39v5.6a4,4,0,0,0,.59.25V58.48h.39v6l.59.11V58.48h.4v6.11H71V62.12l-.35.26Zm-3,.79h.38v1.73L71,61.36Z" transform="translate(-36.3 -26.83)"/><path class="cls-2" d="M80.32,58.48h0c-.08-.21-.16-.4-.22-.59H76.73l-.75.54-1.47-.54-.54-.2,3.28,4.64v2.29c.23,0,.4,0,.46,0h.13V58.48h.4v6.09a5,5,0,0,0,.58-.09v-6h.39v5.9a3.62,3.62,0,0,0,.59-.24V58.48h.39v5.44a4,4,0,0,0,.55-.44.43.43,0,0,1,0-.07v-4c-.18-.32-.33-.62-.46-.9m-3.07,3.69L76.86,61V58.48h.39Z" transform="translate(-36.3 -26.83)"/><path class="cls-2" d="M77.28,57.5H80a3.75,3.75,0,0,1-.11-.59H78.1Z" transform="translate(-36.3 -26.83)"/><path class="cls-2" d="M79.46,55.93l-.82.59h1.21a2.13,2.13,0,0,1,0-.41,1.09,1.09,0,0,1,0-.18Z" transform="translate(-36.3 -26.83)"/><path class="cls-2" d="M82.69,44.32a2.5,2.5,0,0,0,.48,0c1.83-.48,1.9-2.74,1.6-2.88,0,0,0,0,0,0a3.53,3.53,0,0,1-.15.39c-.11.23-.26.38-.3.36a0,0,0,0,1,0,0,2.2,2.2,0,0,0,.18-1.94,2.1,2.1,0,0,0-.71-1,3.62,3.62,0,0,0-3.78,0,3.52,3.52,0,0,0-1.32-.8,3.53,3.53,0,0,1-1.3,1.71,1.68,1.68,0,0,1-.55.28s-.12,0,0-.12A2.68,2.68,0,0,0,78.27,38h0a3.24,3.24,0,0,0-.72-2,3.78,3.78,0,0,0-4.4-.19A2.25,2.25,0,0,0,72.58,37a1.31,1.31,0,0,1,.89-.84c.48-.15,1.42,0,1.56.52-.83-.85-2.33-.22-2.54,1.22h0c0,.09-.07.1-.07.1h0s-.1,0-.07-.65A3.8,3.8,0,0,1,72.66,36a3.2,3.2,0,0,0-4,3.32,1.88,1.88,0,0,0,.52,1.16c.07.08,0,.11,0,.11s-.29-.13-.43-.31a2.81,2.81,0,0,1-.42-.91A5.22,5.22,0,0,0,65.78,39a3.3,3.3,0,0,0-1.89,1.08,4.8,4.8,0,0,0-.42.67,3.14,3.14,0,0,0,1.09,4,5,5,0,0,0,2.93.43,2,2,0,0,0,.83-.35l.11-.07,0,0a2,2,0,0,0,.65-1.7s0-.05,0-.05.11.2.11.46a2.59,2.59,0,0,1-.2.93.71.71,0,0,0,0,.14.64.64,0,0,0,.12.29,1.09,1.09,0,0,0,1.11.15s.05,0,.05,0a.87.87,0,0,1-.76.33,1.53,1.53,0,0,1-.3,0,2.07,2.07,0,0,0,1.82.74,0,0,0,0,1,.05,0c0,.06-.19.12-.45.12a2.63,2.63,0,0,1-1.13-.26,3.18,3.18,0,0,0,2.13,1c0,.13-.83,0-1.08,0,.51,2,1.58,1.76,1.6,1.9a.62.62,0,0,0-.31.92,7,7,0,0,1,2.23-.44,7.11,7.11,0,0,1,2.29.46.5.5,0,0,0,.06-.51c-.17-.5-1.71-.89-3.14-.47a.87.87,0,0,0-.19.1h0s0,0,0,0h0a1.14,1.14,0,0,1,.19-.12,3.49,3.49,0,0,1,2.66-.1h0a.74.74,0,0,0,1-.88.73.73,0,0,0,.83-.7l-.24.11h0c-.16.09-.32.1-.34.07h0l.2-.1a2.21,2.21,0,0,0,1.16-1.73.69.69,0,0,1-.59.32c-.13,0-.21,0-.21,0s0,0,0,0a.49.49,0,0,0,.28-.12,2.33,2.33,0,0,0,.7-.92,4.5,4.5,0,0,1-1-1.86.92.92,0,0,0-.72-.62H77l-.13,0h0c.41-.34.85,0,1.11.17,0-.74.3-.93.33-.92s0,0,0,0a3.08,3.08,0,0,0,1.3,3.43,4,4,0,0,0,4.25-.43,3.41,3.41,0,0,1-.69.11.65.65,0,0,1-.46-.1s0,0,0,0m-17.21-.09c.68-.17,1.28-.53,1.1-1.17a.5.5,0,0,0-.47-.35.94.94,0,0,0-.82.53.89.89,0,0,1,1-.92,1,1,0,0,1,.81.67c.19.94-.67,1.33-1.64,1.24m2.41-.67c.28-.78.43-2-.81-2.27a2.66,2.66,0,0,0-2.27.88,2.05,2.05,0,0,1,2.52-1.26c-.26-.74-1.21-1-2.31-.44a4.57,4.57,0,0,0-.65.47,2,2,0,0,1,1.18-1.16,2.09,2.09,0,0,1,2.13.46c1.36,1.34.62,3.22.21,3.32m6.31,4.06c-.56,0-.63-.38-.73-.81.25.2.59.47.57,0-.21-.18-1.48-.5-1.14-1.06.2-.3.88.91,1.07.51.12-.82-2.42-1.07-2.34-1.77,0-.38,2,1,2.28.93,0-.43-3-1.62-3.85-3.22C70,42.09,70,42,70,42h0a6.92,6.92,0,0,0,3.79,2.54c.61.17.91,2.13.41,3.1m.67.5c-.19-.06-.09-.4-.09-.55a8.78,8.78,0,0,0-.22-2.35,14.23,14.23,0,0,0-1.13-2.87A8.55,8.55,0,0,1,75,45.75a4.22,4.22,0,0,1-.13,2.37m.91-5c.54.22-.26,1.3-.33,1.51.13-.06.56-.53.73-.38s-.57,1.34-.79,1.41c-1.19-1.56.33-2,.39-2.54m-.14,4.56c-.16-.07-.17-.39-.15-.54.06-.4.52-.58.73-.79a1.84,1.84,0,0,1-.58,1.33m-.15-1.11c-.23-.4.38-.91.52-1.31.75-.11-.19,1.2-.52,1.31m.67-10.64a1.61,1.61,0,0,1,1.28,1.2c0,.61-.31.8-.37.77a.06.06,0,0,1,0-.07,1.56,1.56,0,0,0-.21-1.44,2.2,2.2,0,0,0-.68-.46M82.43,42h0l0,0c0-.1,0-.2,0-.29a1.92,1.92,0,0,0,0-.71c-.28-1.2-1.27-1.63-2-.91a2.1,2.1,0,0,1,2.51-.91,1.63,1.63,0,0,1,1,1,1.43,1.43,0,0,1,0,1.21h0l0,0a2.15,2.15,0,0,0-.18-1.09c-.09-.2-.28-.54-.57-.62a4.06,4.06,0,0,1,.38.65,1.06,1.06,0,0,1,.11.5,2,2,0,0,1-.49,1.37h0s0,0,0,0a2.09,2.09,0,0,0,.07-1.74c0-.05,0-.1-.08-.16A1.28,1.28,0,0,0,82,39.45a1.9,1.9,0,0,1,.6.76A1.63,1.63,0,0,1,82.43,42" transform="translate(-36.3 -26.83)"/><path class="cls-2" d="M99.2,57.09a35.33,35.33,0,0,0-1.1-7.79c-.42-1.45-1.24-4.42-3.16-4.82a1.37,1.37,0,0,0-1.57,1.4c0,.64.47,1,.27,1.6a5.73,5.73,0,0,0-.6,1.34c-.11.47.3.66.17,1.16-.58-.09-.89.39-1.75.22a2.68,2.68,0,0,1-1.58.15s0,0,0,0c.86,0,1.64-.3,1.8-.68a1.78,1.78,0,0,0-.37-1.76,4.38,4.38,0,0,1-2.44.43c-1.42-.09-1.77.18-2,1a.63.63,0,0,1-.07-.4c0-.47.53-.76,1.1-.82a1,1,0,0,0,.14-.59,2.5,2.5,0,0,0-.71,0,2.31,2.31,0,0,0-1.83,1.15,1.13,1.13,0,0,0,0,.35,1.54,1.54,0,0,0,0,.31,1.72,1.72,0,0,1,.07.21c.22.46.75.73,1.88.78,0,0,0,0,0,0s-.22.09-.51.06a2.28,2.28,0,0,1-1.52-.54l-.09.09a2.08,2.08,0,0,1-1.26.6A1.68,1.68,0,0,1,82.89,50c-.68-.91.2-2.49.19-3.08,0-1.58-2.19-.87-3-.46a7.77,7.77,0,0,0-2.31,2.06,7,7,0,0,0-.9,1.37,4.71,4.71,0,0,0,1.71.5h.25A2.18,2.18,0,0,0,80.24,50a.78.78,0,0,1,1,0c.11.09,1.46,1.17,1.9,1.47a.54.54,0,0,1,.22.34.65.65,0,0,1-.17.48,7.74,7.74,0,0,0-1.23,2c-.06.16-.12.32-.17.49-.17.57-.28,1.49.52,1.77,0,0,.88.24.82-1.23,0,0,.14.94.83.91.3,0,.55-.3.51-.94h0a7.29,7.29,0,0,1,.07-2.06.19.19,0,0,1,0-.08,2.11,2.11,0,0,1,.06.37,7.7,7.7,0,0,0,2.57,6.09,5.11,5.11,0,0,1-2-2,1.8,1.8,0,0,0-.82,2.16,1.94,1.94,0,0,0,.68,1,.08.08,0,0,1,0,.06c0,.06-.16.17-.41-.08l-.12-.14a2.51,2.51,0,0,1-.22-.43,12.46,12.46,0,0,1-.91-.87h0c-.22-.46-.1-1.82-1.43-1.83h-.13a1.24,1.24,0,0,0-.23,0h0a5.22,5.22,0,0,1-.24-2.06A7.36,7.36,0,0,1,83,52.12a.35.35,0,0,0,.1-.22.26.26,0,0,0-.08-.12h0c-.46-.31-1.79-1.37-1.94-1.48v0a.49.49,0,0,0-.33-.14.5.5,0,0,0-.28.11,2.56,2.56,0,0,1-1.59.51,1.26,1.26,0,0,1-.26,0h0a5.43,5.43,0,0,1-1.91-.57,5.88,5.88,0,0,0-5,0,5.57,5.57,0,0,1-1.92.57h0a1.18,1.18,0,0,1-.26,0,2.58,2.58,0,0,1-1.59-.51h0a.49.49,0,0,0-.29-.1.49.49,0,0,0-.32.14v0c-.15.11-1.48,1.17-1.94,1.48h0a.16.16,0,0,0-.07.12.29.29,0,0,0,.09.22A7.36,7.36,0,0,1,67,55.43a3.54,3.54,0,0,1,0,.74c-.11-.36-.21-.68-.3-.91a1.57,1.57,0,0,0-.19-.5,2.07,2.07,0,0,0-.76-.68,6.81,6.81,0,0,1-.73-.33,2.57,2.57,0,0,1-1-1,3,3,0,0,0-.47-1.55c.13,0,.67.33.71,1.29a5.44,5.44,0,0,0,1.17-2.7c.49-.65,1.83-.39,2.33-.31a1.14,1.14,0,0,1,.46.15c.15.1.18.33.38.41a1.5,1.5,0,0,0,.7,0,1,1,0,0,1,.19.34h.21a5.26,5.26,0,0,0,1.8-.54h0l.11,0a1.65,1.65,0,0,0-1.12-.53c-.5-.08-.77-.5-1.25-.6a1.72,1.72,0,0,0-.68,0,12.11,12.11,0,0,1-2.79-.34c-.94-.06-1,.58-1.31,1.11a3.27,3.27,0,0,1-.44.58c-.26.25-.56.26-.87.5l0,0a3.47,3.47,0,0,0-.43-1.21s0,0,0,0l-.07-.11a3.35,3.35,0,0,0-2.22-1.68,1.14,1.14,0,0,1-.4-.22.19.19,0,0,1,0-.33c.32-.19.88-.12,1.25-.29.9-.42.58-1.19.23-1.25A8.27,8.27,0,0,1,60,45c-.22-.14-.35-.52-.71-.65a1.6,1.6,0,0,0-.75,0c-.22,0-.35.19-.52.16a1.36,1.36,0,0,1,1-.47c-.39-.11-.26-.75-.62-.9a1.28,1.28,0,0,0-.65.18c0-.2-.14-.89-.52-1.11s-.41.1-.4.27.47.35.54,1l-.23.16a1.39,1.39,0,0,0-.48-.9c-.31-.18-.42.09-.4.27s.41.32.53.91a3.88,3.88,0,0,0-.31.26c-.61-.16-.74-.59-.89-.62s-.45.05-.31.37.6.49.87.58c-.06.07-.13.14-.18.21-.71-.14-.86-.62-1-.65s-.46.06-.31.37.88.59,1.06.63a.71.71,0,0,0-.14.5c-.55-.07-1.52.23-1.34.87.18.13.83-.4,1.42-.1a2.12,2.12,0,0,0,1.17.74c.22.18.25.49.35.78a7.05,7.05,0,0,0,.85,1.41c.34.51.69,1.05,1,1.5a.84.84,0,0,1,.06.44,14.5,14.5,0,0,1-2.09,1.85c-.5.46-5.22,4.05-5.81,5.61a3.15,3.15,0,0,0-.18,1.27,1,1,0,0,1-.94-.1c-.31-.37.32-.72.17-1.21a.41.41,0,0,0-.52-.19c-.35.12-.43.83-.25,1.25,0,.12.23.27.09.36s-.28-.1-.28-.36a.42.42,0,0,0-.15.41c.1.34.51.35.65.44,0,.16-.25.23-.41.08-.26.39,0,.53.1.54.28.05.59-.2.77-.22.08.19-.06.25-.36.33.48.57.89-.41,1.42-.29.16,0,1.64,1.42,1.39,2.48a1.3,1.3,0,0,1-.1.25c-.33.4-.87.71-1.25,1.1-.77.49.74,3.59.61,5.18-.09.62.54.5.9,1.51a1.12,1.12,0,0,0-.95.39l-.06.08h0a.8.8,0,0,0-.1.38.78.78,0,1,0,1.55,0s0-.08,0-.11a1.64,1.64,0,0,1,.63.13l.68.37a7,7,0,0,1-6.33.85s-1.78-.57-1.28-2.15a.83.83,0,0,1,.33-.41.9.9,0,0,0,.35.52.91.91,0,0,0,.52.16.88.88,0,0,0,.89-.88.87.87,0,0,0-.25-.62l-.12-.1,0,0h0A1.56,1.56,0,0,0,47.48,70,1.71,1.71,0,0,0,46.4,72.3s-1.16-.26-1.6.27a.64.64,0,0,0-.14.44h0a1.37,1.37,0,0,0,.12.38.71.71,0,0,0,.55.29.67.67,0,0,0,.53-.25h0c0-.06.16-.12.39.08a5.13,5.13,0,0,0,4,1.55s.06,1.22.89,1.44l.12,0a.41.41,0,0,0,.41-.41.41.41,0,0,0-.41-.41h-.05a1.78,1.78,0,0,1,0-.65,10.06,10.06,0,0,0,4.33-1.76,11.34,11.34,0,0,0,2,.38s.11.27-.43.32c0,0-.67,0-.65.21,0,0,0,.24.49.23,0,0-.07.25.36.5,0,0,.28.14.13.32,0,0-.51.28-.37.61,0,0,.15.42.87.31,0,0,.24,0,0,.2,0,0-.36.38.25.7a.59.59,0,0,0,.79-.24s.06-.19.35,0c0,0,1.54.7,2.33-.45,0,0,0-.18.28.12a4,4,0,0,0,3,1,.81.81,0,0,0,1.51-.23,4.37,4.37,0,0,0,2.23-.75,7.91,7.91,0,0,1,.76-.42A1.13,1.13,0,1,0,70.67,75a2.34,2.34,0,0,0-1.8.42,4.66,4.66,0,0,1-1.05.59s.2-.95.36-2l-.48-.06c-.13,1-.35,2.15-.75,2.21l-.58.12a.75.75,0,0,0-.1-.2.6.6,0,0,0-.61-.24H65.6a.66.66,0,0,0-.49.56,2.33,2.33,0,0,1-1.6-.2s.95-.33,1.06-.66c0,0,.28-.55-.65-1.07,0,0-.71-.41-.89,0,0,0-.07.2.24.46,0,0,.34.36-.3.31,0,0-.44,0-.58-.22a10.68,10.68,0,0,1,.39-2l-.74-.2c-.09.27-.19.55-.27.86,0,0,0,.7-.29.88A2,2,0,0,1,61,72.46l-.84-.28a5.8,5.8,0,0,0,.94,3.08s-.74,1-1.52.47c0,0-1.09-.7-.39-1.32,0,0,.47-.39.67.1a.46.46,0,1,0,.48.48,1.14,1.14,0,0,0-.37-1,1.18,1.18,0,0,0-1-.28,3.44,3.44,0,0,0,.66-1.46.82.82,0,0,1,.05-.25l-.53-.2c0,.65-.23,1.85-1.13,1.52,0,0,.58-1,1-1.6-.36-.13-.72-.28-1.07-.44l-.1,0a1.6,1.6,0,0,1-.22,1.35s-.45.43-1.23-.18c0,0,1-.87,1.35-1.21a2.66,2.66,0,0,0-.85-.18h-.28l-.06,0a7.54,7.54,0,0,1-1.14.69.19.19,0,0,1-.26-.06,1.76,1.76,0,0,1-.19-2s.38-.93,1.2-.73c0,0,.23,0,.37.32,0,0-.79,0-.7.59,0,0,0,.57.72.53,0,0,1-.09.76-1.29,0,0-.17-.72-.74-.72,0,0,.32-.39.09-.55,0,0-.24-.22-.76.15,0,0-.14.26-.78.12a.58.58,0,0,0-.66.15s-.11.05-.11.51c0,0,.05.18-.24.66a2.34,2.34,0,0,0-.19.84,1.38,1.38,0,0,0-.65-.3c-.32-.34-.35-1.92-.69-2.68-.08-.18.16-1,.16-1.84a4.62,4.62,0,0,0,3.52-3.12,6.13,6.13,0,0,0-.18-3s0,0,.06,0a4.78,4.78,0,0,1,.26.62,5.56,5.56,0,0,0,2.48-.3l.09,0,.11-.05.29-.13.09,0a7,7,0,0,0,2.87-3A2.24,2.24,0,0,1,61,55.71c.6,0,1.07.31,1.68.31.9,0,1.5-.49,2.49-.38,0,.06.14.47.77.73a4.37,4.37,0,0,0,.24,1.5.79.79,0,0,0,.08.19s-.75.57-.55,1c0,.13.1.27.15.38l-.11,0c-.1,0-.24.15-.41.41s-.47.94-.18,1l.19,0a3.89,3.89,0,0,0,.55,3h0a4.51,4.51,0,0,0,4,1.83h0c.29,0,2.83.05,3.74,1.74.05.1.25.38.47.38s.42-.28.48-.38c.9-1.69,3.44-1.74,3.73-1.74h0a4.57,4.57,0,0,0,4-1.83h0A3.51,3.51,0,0,0,83,62.31c.57-.32.54-1.59.55-1.82a2.09,2.09,0,0,0,1.19,1c-.11.6-.07,1.6.58,1.73.19,0,.36-.27.31-.5.56,1.6.09,2.58.51,2.7s.57-1,.61-1a1.67,1.67,0,0,1,.24.8c0,.49-.07,1,.15,1.07.75.12.39-2.06,1-1.84-.14,1,0,1.51.4,1.67,0,.44-.06.87-.25.87-1.07.24-2-.61-3-.35l-.1-.07a3.77,3.77,0,0,0-2.91-.31c-.48-.44-.67.22-.81.14-.9-.51-1.39.36-1.63.4s-.59-.45-1,.57c-.19.44-1.19.64-1.27.66-.4,0-.49-.23-.49-.23a2.33,2.33,0,0,0-.12-.3,2.43,2.43,0,0,0-.14-.2.54.54,0,0,0-.41-.13.57.57,0,0,0-.53.57.6.6,0,0,0,.11.34s.12-.1.25-.09a.4.4,0,0,1,.4.4h0c0,.46-.67.92-.67.92-.4.36-.9-.14-.9-.14A1.06,1.06,0,0,0,74.6,69a.53.53,0,0,0-.43.32.55.55,0,0,0-.43-.32,1.12,1.12,0,0,0-.49.25s-.5.5-.9.14c0,0-.7-.46-.67-.92h0a.4.4,0,0,1,.4-.4c.13,0,.22.12.25.09a.54.54,0,0,0,.12-.34.58.58,0,0,0-.54-.57.51.51,0,0,0-.4.13.81.81,0,0,0-.14.2,1.42,1.42,0,0,0-.13.3s-.09.28-.49.23c-.08,0-1.08-.22-1.27-.66-.42-1-.8-.54-1-.57s-.73-.91-1.63-.4c-.14.08-.32-.58-.81-.14a3.86,3.86,0,0,0-2.31.05c-.09-.16-.52-.24-.64-.29a3.53,3.53,0,0,1-.71-.39,4.62,4.62,0,0,0-1.45-.12,1.71,1.71,0,0,1-.56-.21,5.36,5.36,0,0,1-1.59-1.29l-.23-.32a2.12,2.12,0,0,1-.39-.74,5.22,5.22,0,0,1,.21-2.17c0-.33.06-.47.07-.67a4.23,4.23,0,0,1-2.15-.09,5.28,5.28,0,0,1,.17,2.16,1.53,1.53,0,0,1,.57.89c0,.36-.12.73.09,1a5.77,5.77,0,0,0,1.41,1.1c.15.1,2.08,1.59,2.33,1.65s.45-.15.69-.11a.67.67,0,0,1,.21.13,2.16,2.16,0,0,0,.41.34c-.59.36-1.33.81-1.87,1.07,0,0-.87.48-.46.49,0,0,.61,0,.66.11l-.64.27c.91.33,1.84.62,2.79.88a6.78,6.78,0,0,1,2.14-1.52s1.09,0,1.45-.76c.12-.24.58.46,1.53-.06.09,0,.24.2.51.27.08,0-.4.1-.3.52,0,.06-.78,0-1,.45a7.24,7.24,0,0,0-3.27,1.36l.85.2a2.71,2.71,0,0,1,1.8-.59,1.61,1.61,0,0,1,1.31,1.15c.58.08,1.16.15,1.75.21h0c.16-.07,1-.47.6-1,0,0-.19-.24-.52.08,0,0-.22.19-.31-.11A.83.83,0,0,0,69,70s-.17-.24.16-.13a1.46,1.46,0,0,0,.56,0,.54.54,0,0,0,.52-.55.56.56,0,0,0-.52-.58s-.06,0-.06,0a.21.21,0,0,1,.07.15c0,.11-.09.23-.2.2-.33-.09-.23-.73.22-.75a1.1,1.1,0,0,1,.73.42S71.26,70,72,70.26c0,0-.13.42.32.56,0,0,0,.35.45.32a2,2,0,0,1,.21.4h2.43a2,2,0,0,1,.21-.4c.47,0,.4-.31.45-.32.46-.14.28-.54.33-.56.7-.24,1.47-1.39,1.47-1.39a1.12,1.12,0,0,1,.73-.42c.46,0,.56.66.22.75-.1,0-.19-.09-.19-.2a.18.18,0,0,1,.07-.15s-.06,0-.07,0a.55.55,0,0,0-.51.58.54.54,0,0,0,.51.55,1.53,1.53,0,0,0,.57,0c.32-.11.16.13.16.13a.75.75,0,0,0-.12.31c-.08.3-.3.11-.3.11-.34-.32-.53-.08-.53-.08-.36.48.44.88.6,1h0c.59-.06,1.17-.13,1.75-.21A1.59,1.59,0,0,1,82,70a2.68,2.68,0,0,1,1.8.59l.85-.2A7.24,7.24,0,0,0,81.4,69c-.25-.44-1.06-.39-1-.45.09-.42-.38-.49-.3-.52.28-.07.42-.32.51-.27,1,.52,1.42-.18,1.53.06.35.8,1.45.76,1.45.76a6.67,6.67,0,0,1,2.14,1.52c.87-.23,1.73-.51,2.56-.8a0,0,0,0,0,0,0s0-.09,0-.14l0,0h0l-.12-.22h0A6.59,6.59,0,0,0,87.4,68h0l0,0s.62-1,1-.31c0,.08,0,.31-.43.31a5,5,0,0,1,.57,1.22h0A3.33,3.33,0,0,1,89,69l.11,0c-.25-.48-.61-.76-.51-.92s.45.13.64-.16a3.2,3.2,0,0,0,.14-.79,1.43,1.43,0,0,0,.63.14c.64,0,.89-1,.71-1.31.1-.06.48-.37.51-.29.2.46,1.26,1,1.17-.08.16.5.29,1.08.88,1,.43-.1.15-.83.3-.83.13.21.3,1,.94.84a.48.48,0,0,0,.34-.49c0-.8-2.26-5-2.46-6.81l-.11,0c-.22-.12-.25-.48-.21-.74a.43.43,0,0,1,0,0,1,1,0,0,1-.78-1.06c0-.69.3-1,.37-1s0,0,0,.07c-.17.53-.3,1.18.1,1.54a.74.74,0,0,0,.4.16.76.76,0,0,1,.31-.35s0,0,0,.06a1.05,1.05,0,0,0,0,1.11.68.68,0,0,0,.42.19c.64-.23,1-1.45,1.11-1.83.42.09-.69,2.56.16,3.08.36,0,.56-.43.69-.79.28.72-.91,2.25,0,2.59.52.14.71-1.2.72-1,.15,2-.92,3-.24,3.34s.78-1.39.78-1.18c0,2.18-1.11,2.78-.65,3.16.54.22.92-1.1.92-.78,0,1.94-1,2.46-.59,3.07s1.44-1.27,1.48-.9-1.06,2.72-.41,2.87.72-.63.77-.8a41.22,41.22,0,0,0,1.63-12.9M82.53,46.82a.08.08,0,0,1-.1,0,2.32,2.32,0,0,0-1.88.11,5.79,5.79,0,0,0-.86.7,2.85,2.85,0,0,1,2-1.29c.78,0,.87.4.81.47m2.82,3.63a1.48,1.48,0,0,1-.84.79A1.73,1.73,0,0,1,83,50.72a5.27,5.27,0,0,0,1.24.26,2.12,2.12,0,0,0,1.1-.58s0,0,0,.05M53.81,70.79h0c.09.08.21.15.31.24l.09.08c-.07.13-.19.11-.34,0h0a3,3,0,0,1-.37-.21c-.11.17.11.35.22.51s-.08.08-.15.09h0a.47.47,0,0,1-.24,0h0c-.22-.11-.26-.43-.26-.61a.76.76,0,0,0-.38-.6c.44-.27,1.11.43,1.17.49m4-24.24c.66.25.71-.59.87-.4.23.39-.39,1-.87.4m.83-.68c-.27,0-.47-.19-.71,0,0,0-.37.28-.3.6s-.29.33-.39.19c-.24-.55.64-1.3.85-1.37.5-.18.87.13,1.42.2.31.06.65,0,.92,0,.58,0,.42.47.33.54-.49.14-.77-.23-1.19-.3s-.63.14-.93.11m2.24,3.47c-.71-.24-1.53-.36-1.83-.93a7.17,7.17,0,0,1,2.7.45l.08,0a2.64,2.64,0,0,1,1,1.37,7.85,7.85,0,0,0-1.93-.94m5.3,6.14c-.2.05-.24-.85-1.32-.63a1.58,1.58,0,0,1-1.38-.06c1.54-.86,2.82,0,2.7.69M82,57.77h.23a.61.61,0,0,1,.23,0,1.17,1.17,0,0,1,.26.56A1.83,1.83,0,0,0,83,59c.14.15.09.43-.26.39h0a1,1,0,0,1-.62-1.24.83.83,0,0,0-.27,0h0l-.14,0h0l-.07,0a.1.1,0,0,0,0,0c-.1.08-.13.21-.26.22a.69.69,0,0,1,.33-.54h0a1.29,1.29,0,0,1,.4-.16m-15.61,2a.31.31,0,0,0,0,.08l-.07.15a.21.21,0,0,1,0,.06.41.41,0,0,1,0,.09l0,.06a.94.94,0,0,1-.09.12l0,0a.34.34,0,0,1-.09.08s0,0,0,0l-.13.07h0l-.14,0h-.19a.26.26,0,0,1,0-.11c0-.16.17-.31.24-.49a2,2,0,0,1,.15-.41c.18,0,.31,0,.36-.11a.63.63,0,0,1,0-.94c.47-.47,0-1.46.09-1.58a1.4,1.4,0,0,1,.28.86s0,.07,0,.1a.57.57,0,0,0,0,.13v.48a.41.41,0,0,1,0,.11v.11a.28.28,0,0,0,0,.09c0,.05,0,.11,0,.17s0,.07,0,.11a.52.52,0,0,1,0,.11.29.29,0,0,1,0,.09s0,.06,0,.1,0,.11,0,.16l0,.08a.3.3,0,0,1,0,.1M81.29,63.2a4,4,0,0,1-3.58,1.65c-.23,0-2.25,0-2.94,1.33l0,0c-.08.15-.33.55-.45.78a.13.13,0,0,1-.11.06.13.13,0,0,1-.12-.06c-.11-.23-.36-.63-.44-.78l0,0c-.69-1.29-2.7-1.33-2.93-1.33A4,4,0,0,1,67,63.19,4,4,0,0,1,67,59.25,5.27,5.27,0,0,0,67.87,56a5.93,5.93,0,0,0-1.37-3.62.49.49,0,0,1-.14-.39.41.41,0,0,1,.21-.31c.28-.19.88-.56,1.13-.72l.12-.08.08,0c.09,0,.15,0,.26.14a2.32,2.32,0,0,0,1.93.51,4.74,4.74,0,0,0,1.1-.41c.22-.11.47-.23.6-.28l.06,0a6.18,6.18,0,0,1,2.32-.5,6.27,6.27,0,0,1,2.31.49l.06,0,.6.28a5.17,5.17,0,0,0,1.1.41,2.25,2.25,0,0,0,.44,0A2.2,2.2,0,0,0,80.17,51c.11-.09.18-.14.26-.14a.18.18,0,0,1,.11,0l.12.07,1.14.73A.39.39,0,0,1,82,52a.47.47,0,0,1-.14.4A5.91,5.91,0,0,0,80.46,56a5.35,5.35,0,0,0,.9,3.26,4.06,4.06,0,0,1-.07,4m1.78-1.53h0l-.06.09-.07.06h0l-.07,0h0l-.06,0h-.13l-.08,0,0,0-.07,0,0,0-.09-.07s0,0,0,0-.17-.29.09-.32a.41.41,0,0,0,.1.09l0,0,.07,0h.09s0,0,0,0,0,0,0,0l0-.05v0l0-.09v0s0,0,0-.08,0,0,0-.06V61A4.48,4.48,0,0,1,83,59.78l0-.05h.14l0,0s0,0,0,0,0,0,0,0a207313368720.71,207313368720.71,0,0,0,0,.1v.65h0c0,.1,0,.2,0,.32a1.26,1.26,0,0,1-.16.78m4.65.91a2.45,2.45,0,0,1-2.1-1.07,4.4,4.4,0,0,0,.9.62,2.12,2.12,0,0,0,1.89-.23.09.09,0,0,1,.1,0c.07.06,0,.52-.79.68m-24.26,3.9s0,0,0,.06l0,0,0,0a.43.43,0,0,1-.22,0,2.5,2.5,0,0,1-.42,0,.22.22,0,0,0,.12.22h0l.11.06.18.08c0,.15-.24.23-.36.23s-.42-.27-.49-.44l-.07,0-.06,0a2.06,2.06,0,0,0-.86-.19c0-.56,1.62-.17,1.66-.16a2,2,0,0,1,.5.12.06.06,0,0,1,0,0m23.69,1.36h0s0,0,0,.08a2.84,2.84,0,0,1-.94-.44.75.75,0,0,0-.6-.13h0c-.25.11-.37.37-.5.5a.44.44,0,0,1,0-.15h0a.69.69,0,0,1,0-.13v0a.3.3,0,0,1,0-.1.09.09,0,0,1,0,0,.39.39,0,0,1,.06-.11l0-.06,0,0,.08,0,0,0a.86.86,0,0,1,.48-.09,1.12,1.12,0,0,1,.66.25,1.71,1.71,0,0,0,.9.26,1.53,1.53,0,0,0-.18.33M92.9,50.61A2.45,2.45,0,0,1,92,51a1.17,1.17,0,0,1-1.27-.38c.4-.13.75.14,1.29.08a4.35,4.35,0,0,0,.52-.1c.16-.06.28-.21.45-.21s-.06.14-.12.18M98,65.4a11.58,11.58,0,0,1-.42,1.8c1.15-10.4.52-13,.32-12.94s-.35,1.28-.93.91,1.3-2.66.56-3.92c-.17-.21-.33.28-.63.19-.77-.25.42-2.23.2-2.44s-.74-.27-.76-1c0-.33.22-.6,0-.88s-.18.19-.4.09c-.36-.38,0-.81-.21-1.09-.1-.08-.35.23-.54.07s.12-.5-.14-.62a.88.88,0,0,0-.74,1c0,.28.39.48.37.8s-.36.61-.43.76c-.5,1.12.34,1.35.22,1.75,0,.19-.4.3-.64.21s-.36-1.13-.26-1.54.77-1.05.77-1.31-.32-.61-.36-1a.91.91,0,0,1,1-1.07,1.72,1.72,0,0,1,.88.7c.1.11.23.21.31.3a11,11,0,0,1,1.59,3.63A36.25,36.25,0,0,1,98,65.4" transform="translate(-36.3 -26.83)"/><polygon class="cls-4" points="202.08 91.75 202.08 98.63 210.15 98.63 209.78 102.94 202.08 102.94 202.08 112.73 197.21 112.73 197.21 87.62 212.64 87.62 212.64 91.75 202.08 91.75"/><path class="cls-4" d="M260.4,139.93c-8.3,0-10.68-6.29-10.68-13.14,0-6.58,2.31-12.72,10.68-12.72,8.52,0,10.75,6.07,10.75,12.72s-2.45,13.14-10.75,13.14m0-21.65c-4.39,0-5.54,4-5.54,8.48,0,5,1.11,9.07,5.54,9.07s5.58-4,5.58-9.07c0-4.58-1.19-8.48-5.58-8.48" transform="translate(-36.3 -26.83)"/><polygon class="cls-4" points="251 112.73 243.18 92.97 243.03 92.97 243.37 112.73 238.98 112.73 238.98 87.62 246.46 87.62 254.38 107.78 254.53 107.78 254.19 87.62 258.7 87.62 258.7 112.73 251 112.73"/><path class="cls-4" d="M308.83,139.93a31.45,31.45,0,0,1-8.93-1.34V114.44h8.37c7.3,0,11.91,3,11.91,12.32,0,8.14-3.54,13.17-11.35,13.17m-.74-21.54h-3.31v16.92a16.67,16.67,0,0,0,4.31.52c3.28,0,5.92-1.89,5.92-9.11,0-6.06-1.9-8.33-6.92-8.33" transform="translate(-36.3 -26.83)"/><polygon class="cls-4" points="288.27 112.73 288.27 87.62 303.7 87.62 303.7 91.75 293.14 91.75 293.14 97.92 301.21 97.92 300.84 102.24 293.14 102.24 293.14 108.67 303.7 108.67 303.7 112.73 288.27 112.73"/><polygon class="cls-4" points="312.56 91.75 312.56 98.63 320.63 98.63 320.26 102.94 312.56 102.94 312.56 112.73 307.69 112.73 307.69 87.62 323.12 87.62 323.12 91.75 312.56 91.75"/><polygon class="cls-4" points="199.88 124.08 199.88 128.9 205.53 128.9 205.27 131.92 199.88 131.92 199.88 138.77 196.47 138.77 196.47 121.19 207.28 121.19 207.28 124.08 199.88 124.08"/><path class="cls-4" d="M255.32,159.19c0,4.35-2.19,6.66-6,6.66s-6-2.29-6-6.66c0-3.75,2.08-6.62,6-6.62s6,2.87,6,6.62m-3.49,0c0-3.08-.91-4.14-2.5-4.14s-2.47,1.09-2.47,4.14.8,4.16,2.47,4.16,2.5-1.12,2.5-4.16" transform="translate(-36.3 -26.83)"/><path class="cls-4" d="M265.79,165.59V158c0-1.92-.73-2.83-2.29-2.83a4.09,4.09,0,0,0-2.24.78v9.63h-3.42V152.83h2.35l.52,1.46a5.3,5.3,0,0,1,4-1.72c3.23,0,4.5,1.9,4.5,5.13v7.89Z" transform="translate(-36.3 -26.83)"/><path class="cls-4" d="M280.29,153.82a7.8,7.8,0,0,1-.31-2.34v-3.86h3.39v18H280.6l-.39-1.4a4.12,4.12,0,0,1-3.38,1.66c-2.89,0-5.21-2.08-5.21-6.64,0-4.22,2.39-6.64,5.49-6.64a4.14,4.14,0,0,1,3.18,1.25m-.31,1.93a4.58,4.58,0,0,0-2.32-.63c-1.61,0-2.63,1.1-2.63,4.07s1,4.19,2.58,4.19a3.39,3.39,0,0,0,2.37-1.09Z" transform="translate(-36.3 -26.83)"/><path class="cls-4" d="M297.9,159.19c0,4.35-2.19,6.66-6,6.66s-6-2.29-6-6.66c0-3.75,2.09-6.62,6-6.62s6,2.87,6,6.62m-3.5,0c0-3.08-.91-4.14-2.5-4.14s-2.47,1.09-2.47,4.14.81,4.16,2.47,4.16,2.5-1.12,2.5-4.16" transform="translate(-36.3 -26.83)"/><path class="cls-4" d="M314.43,153.82a7.8,7.8,0,0,1-.31-2.34v-3.86h3.38v18h-2.76l-.39-1.4a4.12,4.12,0,0,1-3.38,1.66c-2.9,0-5.21-2.08-5.21-6.64,0-4.22,2.39-6.64,5.49-6.64a4.15,4.15,0,0,1,3.18,1.25m-.31,1.93a4.58,4.58,0,0,0-2.32-.63c-1.62,0-2.63,1.1-2.63,4.07s1,4.19,2.58,4.19a3.39,3.39,0,0,0,2.37-1.09Z" transform="translate(-36.3 -26.83)"/><path class="cls-4" d="M323.49,160.12c0,2,1.14,3.16,3.28,3.16a8.6,8.6,0,0,0,3.75-1.07l.65,2.39a10.34,10.34,0,0,1-4.82,1.26c-3.93,0-6.27-2.45-6.27-6.67,0-3.94,1.9-6.62,6-6.62,3.85,0,5.36,2.87,5.36,6.07v1.48Zm2.4-5.05c-1.7,0-2.4,1.54-2.4,3.05h4.66c0-1.64-.49-3.05-2.26-3.05" transform="translate(-36.3 -26.83)"/><polygon class="cls-4" points="307.03 124.08 307.03 128.9 312.68 128.9 312.42 131.92 307.03 131.92 307.03 138.77 303.62 138.77 303.62 121.19 314.43 121.19 314.43 124.08 307.03 124.08"/><path class="cls-4" d="M362.47,159.19c0,4.35-2.19,6.66-6,6.66s-6-2.29-6-6.66c0-3.75,2.08-6.62,6-6.62s6,2.87,6,6.62m-3.49,0c0-3.08-.91-4.14-2.5-4.14s-2.47,1.09-2.47,4.14.8,4.16,2.47,4.16,2.5-1.12,2.5-4.16" transform="translate(-36.3 -26.83)"/><path class="cls-4" d="M376.3,157.7v7.89h-3.44V158c0-1.93-.7-2.84-2.29-2.84a3.83,3.83,0,0,0-2.16.78v9.63H365V152.83h2.3l.57,1.49a4.79,4.79,0,0,1,3.78-1.75c2.08,0,3.33.63,4,1.8a5,5,0,0,1,3.86-1.8c3.64,0,4.71,1.9,4.71,5.13v7.89h-3.46V158c0-1.93-.81-2.84-2.4-2.84a3.94,3.94,0,0,0-2.16.78,9.47,9.47,0,0,1,.13,1.74" transform="translate(-36.3 -26.83)"/><path class="cls-4" d="M389.86,160.12c0,2,1.15,3.16,3.29,3.16a8.6,8.6,0,0,0,3.75-1.07l.65,2.39a10.41,10.41,0,0,1-4.82,1.26c-3.94,0-6.28-2.45-6.28-6.67,0-3.94,1.9-6.62,6-6.62,3.86,0,5.37,2.87,5.37,6.07v1.48Zm2.4-5.05c-1.69,0-2.4,1.54-2.4,3.05h4.67c0-1.64-.5-3.05-2.27-3.05" transform="translate(-36.3 -26.83)"/><path class="cls-4" d="M408.3,165.59V158c0-1.92-.73-2.83-2.29-2.83a4.12,4.12,0,0,0-2.24.78v9.63h-3.41V152.83h2.34l.52,1.46a5.3,5.3,0,0,1,4-1.72c3.23,0,4.5,1.9,4.5,5.13v7.89Z" transform="translate(-36.3 -26.83)"/><path class="cls-4" d="M419.26,165.85c-2.26,0-3.75-1.06-3.75-4.27v-6.33h-1.9v-2.42h1.9v-2.21l3.36-1.1v3.31h3.41v2.42h-3.41v6.25a1.28,1.28,0,0,0,1.36,1.46,4.59,4.59,0,0,0,1.95-.47l.52,2.51a7.36,7.36,0,0,1-3.44.85" transform="translate(-36.3 -26.83)"/><path class="cls-4" d="M435.69,159.19c0,4.35-2.18,6.66-6,6.66s-6-2.29-6-6.66c0-3.75,2.09-6.62,6-6.62s6,2.87,6,6.62m-3.49,0c0-3.08-.91-4.14-2.5-4.14s-2.47,1.09-2.47,4.14.81,4.16,2.47,4.16,2.5-1.12,2.5-4.16" transform="translate(-36.3 -26.83)"/><path class="cls-4" d="M451.84,165.59l-.47-1.51a4.57,4.57,0,0,1-3.73,1.77,4,4,0,0,1-4.27-4.09c0-2.37,1.75-3.77,4.82-3.77h2.68v-.65c0-1.64-.93-2.17-2.24-2.17a9.41,9.41,0,0,0-3.83.86l-.86-2.42a13.07,13.07,0,0,1,5-1c3.62,0,5.18,1.67,5.18,4.92v8.1Zm-1-5.57h-2.11c-1.4,0-2.05.68-2.05,1.64a1.7,1.7,0,0,0,1.9,1.88,3.83,3.83,0,0,0,2.26-.86Z" transform="translate(-36.3 -26.83)"/><path class="cls-4" d="M457.15,162.21V147.62h3.36V162c0,1.06.65,1.22,2.05,1.22v2.4a10.93,10.93,0,0,1-1.87.2c-2.61,0-3.54-1.38-3.54-3.64" transform="translate(-36.3 -26.83)"/><path class="cls-4" d="M476.91,165.86a22,22,0,0,1-6.25-.94V148h5.86c5.11,0,8.34,2.09,8.34,8.62,0,5.71-2.48,9.23-7.95,9.23m-.52-15.09h-2.32v11.86a11.82,11.82,0,0,0,3,.36c2.3,0,4.15-1.33,4.15-6.38,0-4.25-1.33-5.84-4.85-5.84" transform="translate(-36.3 -26.83)"/><path class="cls-4" d="M490.66,160.12c0,2,1.15,3.16,3.28,3.16a8.6,8.6,0,0,0,3.75-1.07l.65,2.39a10.33,10.33,0,0,1-4.81,1.26c-3.94,0-6.28-2.45-6.28-6.67,0-3.94,1.9-6.62,6-6.62,3.85,0,5.36,2.87,5.36,6.07v1.48Zm2.4-5.05c-1.7,0-2.4,1.54-2.4,3.05h4.66c0-1.64-.49-3.05-2.26-3.05" transform="translate(-36.3 -26.83)"/><path class="cls-4" d="M504.12,156.19c0,2,5.52,1.38,5.52,5.55,0,2.32-1.71,4.12-5,4.12a8.16,8.16,0,0,1-3.83-.94l.7-2.37a6,6,0,0,0,3,.88c1.12,0,1.88-.62,1.88-1.4,0-2.3-5.45-1.54-5.45-5.89,0-1.88,1.44-3.57,4.87-3.57a10.14,10.14,0,0,1,3.6.63l-.47,2.47a7.61,7.61,0,0,0-3.07-.65c-1.18,0-1.75.44-1.75,1.17" transform="translate(-36.3 -26.83)"/><path class="cls-4" d="M520.19,165.59l-.47-1.51a4.56,4.56,0,0,1-3.72,1.77,4,4,0,0,1-4.28-4.09c0-2.37,1.75-3.77,4.82-3.77h2.69v-.65c0-1.64-.94-2.17-2.24-2.17a9.37,9.37,0,0,0-3.83.86l-.86-2.42a13,13,0,0,1,5-1c3.62,0,5.18,1.67,5.18,4.92v8.1Zm-1-5.57h-2.11c-1.41,0-2.06.68-2.06,1.64a1.7,1.7,0,0,0,1.9,1.88,3.86,3.86,0,0,0,2.27-.86Z" transform="translate(-36.3 -26.83)"/><path class="cls-4" d="M532.71,155.67a5.67,5.67,0,0,0-1.59-.21,3.68,3.68,0,0,0-2.29.86v9.27h-3.38V152.83h2.37l.36,1.72h.08a3.42,3.42,0,0,1,3-2,5.67,5.67,0,0,1,1.48.18Z" transform="translate(-36.3 -26.83)"/><path class="cls-4" d="M542,155.67a5.78,5.78,0,0,0-1.59-.21,3.66,3.66,0,0,0-2.29.86v9.27h-3.39V152.83h2.37l.37,1.72h.08a3.41,3.41,0,0,1,3-2,5.76,5.76,0,0,1,1.49.18Z" transform="translate(-36.3 -26.83)"/><path class="cls-4" d="M554.87,159.19c0,4.35-2.18,6.66-6,6.66s-6-2.29-6-6.66c0-3.75,2.09-6.62,6-6.62s6,2.87,6,6.62m-3.49,0c0-3.08-.91-4.14-2.5-4.14s-2.47,1.09-2.47,4.14.81,4.16,2.47,4.16,2.5-1.12,2.5-4.16" transform="translate(-36.3 -26.83)"/><path class="cls-4" d="M557.45,162.21V147.62h3.36V162c0,1.06.65,1.22,2.06,1.22v2.4a11.12,11.12,0,0,1-1.88.2c-2.6,0-3.54-1.38-3.54-3.64" transform="translate(-36.3 -26.83)"/><path class="cls-4" d="M565.1,162.21V147.62h3.36V162c0,1.06.66,1.22,2.06,1.22v2.4a11.09,11.09,0,0,1-1.87.2c-2.61,0-3.55-1.38-3.55-3.64" transform="translate(-36.3 -26.83)"/><path class="cls-4" d="M584.19,159.19c0,4.35-2.18,6.66-6,6.66s-6-2.29-6-6.66c0-3.75,2.09-6.62,6-6.62s6,2.87,6,6.62m-3.49,0c0-3.08-.91-4.14-2.5-4.14s-2.47,1.09-2.47,4.14.81,4.16,2.47,4.16,2.5-1.12,2.5-4.16" transform="translate(-36.3 -26.83)"/><path class="cls-4" d="M239.8,191.89c-5,0-7.61-3.28-7.61-9.14,0-5.47,2.63-9,7.61-9a11,11,0,0,1,6,1.49l-1.3,2.76a7.31,7.31,0,0,0-4.33-1.23c-2.91,0-4.37,2.06-4.37,5.91,0,4.07,1.46,6.15,4.32,6.15a8.21,8.21,0,0,0,4.64-1.61l1.09,2.76a10.35,10.35,0,0,1-6,1.87" transform="translate(-36.3 -26.83)"/><path class="cls-4" d="M248.55,191.63V181.32l-1.49-.31v-2.14h4.87v12.76Zm-.11-18h3.44v3.1h-3.44Z" transform="translate(-36.3 -26.83)"/><path class="cls-4" d="M258,186.16c0,2,1.14,3.15,3.28,3.15a8.58,8.58,0,0,0,3.75-1.06l.65,2.39a10.38,10.38,0,0,1-4.82,1.25c-3.93,0-6.27-2.44-6.27-6.66,0-3.94,1.9-6.62,6-6.62,3.85,0,5.36,2.86,5.36,6.07v1.48Zm2.39-5c-1.69,0-2.39,1.54-2.39,3h4.66c0-1.64-.49-3-2.27-3" transform="translate(-36.3 -26.83)"/><path class="cls-4" d="M276.39,191.63v-7.58c0-1.92-.73-2.84-2.3-2.84a4.16,4.16,0,0,0-2.24.79v9.63h-3.41V178.87h2.34l.53,1.46a5.26,5.26,0,0,1,4-1.72c3.23,0,4.51,1.9,4.51,5.13v7.89Z" transform="translate(-36.3 -26.83)"/><path class="cls-4" d="M287.35,191.89c-2.27,0-3.75-1.06-3.75-4.27v-6.33h-1.91v-2.42h1.91v-2.21l3.36-1.1v3.31h3.41v2.42H287v6.25c0,.89.44,1.46,1.35,1.46a4.59,4.59,0,0,0,1.95-.47l.52,2.5a7.2,7.2,0,0,1-3.43.86" transform="translate(-36.3 -26.83)"/><path class="cls-4" d="M292.16,176.89l-.34-1.95,6.59-1.85.45,2.5ZM294,191.63V181.32l-1.48-.31v-2.14h4.87v12.76Z" transform="translate(-36.3 -26.83)"/><path class="cls-4" d="M308.28,176.16a5.62,5.62,0,0,0-1.61-.21c-1.17,0-1.85.65-1.85,2v.91h2.84v2.45h-2.84v10.31h-3.41V181.32h-1.88v-2.45h1.88V177.8c0-3,1.69-4.58,5-4.58a8.92,8.92,0,0,1,2.09.26Z" transform="translate(-36.3 -26.83)"/><path class="cls-4" d="M310.52,191.63V181.32L309,181v-2.14h4.87v12.76Zm-.1-18h3.43v3.1h-3.43Z" transform="translate(-36.3 -26.83)"/><path class="cls-4" d="M327.16,190.77a9.9,9.9,0,0,1-4.37,1.12c-3.81,0-6.1-2.16-6.1-6.64,0-4.17,2.29-6.64,6.07-6.64a8.71,8.71,0,0,1,4.38,1l-.89,2.32a6.3,6.3,0,0,0-3.2-.78c-1.77,0-2.89,1.2-2.89,4.06s1.06,4.06,2.91,4.06a7.48,7.48,0,0,0,3.47-1Z" transform="translate(-36.3 -26.83)"/><path class="cls-4" d="M340.88,185.23c0,4.35-2.18,6.66-6,6.66s-6-2.29-6-6.66c0-3.76,2.09-6.62,6-6.62s6,2.86,6,6.62m-3.49,0c0-3.08-.91-4.15-2.5-4.15s-2.47,1.1-2.47,4.15.81,4.16,2.47,4.16,2.5-1.12,2.5-4.16" transform="translate(-36.3 -26.83)"/><path class="cls-4" d="M354,191.35l-2.37.41-3.8-12.89h3.83l2.71,10.71h.05l2.73-10.71h3.39L356.64,192c-1.1,3.67-2.95,5-5.58,5a6.59,6.59,0,0,1-3.59-1.27l1.07-2.32h.31a4.29,4.29,0,0,0,2.37.91c1.35,0,2.24-.94,2.71-2.58Z" transform="translate(-36.3 -26.83)"/><polygon class="cls-4" points="338.46 150.12 338.46 164.81 334.92 164.81 334.92 150.12 330.67 150.12 330.67 147.22 342.84 147.22 342.84 150.12 338.46 150.12"/><path class="cls-4" d="M381.11,186.16c0,2,1.15,3.15,3.28,3.15a8.55,8.55,0,0,0,3.75-1.06l.66,2.39a10.42,10.42,0,0,1-4.82,1.25c-3.94,0-6.28-2.44-6.28-6.66,0-3.94,1.9-6.62,6-6.62,3.86,0,5.37,2.86,5.37,6.07v1.48Zm2.4-5c-1.69,0-2.4,1.54-2.4,3h4.66c0-1.64-.49-3-2.26-3" transform="translate(-36.3 -26.83)"/><path class="cls-4" d="M401.79,190.77a9.91,9.91,0,0,1-4.38,1.12c-3.8,0-6.09-2.16-6.09-6.64,0-4.17,2.29-6.64,6.07-6.64a8.64,8.64,0,0,1,4.37,1l-.88,2.32a6.34,6.34,0,0,0-3.21-.78c-1.77,0-2.89,1.2-2.89,4.06s1.07,4.06,2.92,4.06a7.48,7.48,0,0,0,3.47-1Z" transform="translate(-36.3 -26.83)"/><path class="cls-4" d="M412,191.63v-7.58c0-1.92-.73-2.84-2.29-2.84a4.13,4.13,0,0,0-2.24.79v9.63H404V178.87h2.34l.52,1.46a5.3,5.3,0,0,1,4-1.72c3.23,0,4.5,1.9,4.5,5.13v7.89Z" transform="translate(-36.3 -26.83)"/><path class="cls-4" d="M429.68,185.23c0,4.35-2.19,6.66-6,6.66s-6-2.29-6-6.66c0-3.76,2.08-6.62,6-6.62s6,2.86,6,6.62m-3.49,0c0-3.08-.91-4.15-2.5-4.15s-2.48,1.1-2.48,4.15.81,4.16,2.48,4.16,2.5-1.12,2.5-4.16" transform="translate(-36.3 -26.83)"/><path class="cls-4" d="M432.25,188.25V173.66h3.36v14.4c0,1.07.65,1.23,2.06,1.23v2.4a11.09,11.09,0,0,1-1.87.2c-2.61,0-3.55-1.38-3.55-3.64" transform="translate(-36.3 -26.83)"/><path class="cls-4" d="M451.34,185.23c0,4.35-2.19,6.66-6,6.66s-6-2.29-6-6.66c0-3.76,2.08-6.62,6-6.62s6,2.86,6,6.62m-9.14-8.34-.34-1.95,6.59-1.85.44,2.5Zm5.65,8.34c0-3.08-.91-4.15-2.5-4.15s-2.47,1.1-2.47,4.15.8,4.16,2.47,4.16,2.5-1.12,2.5-4.16" transform="translate(-36.3 -26.83)"/><path class="cls-4" d="M465.46,178.87l-.06,2.53A9.86,9.86,0,0,1,463,181a3.4,3.4,0,0,1,1.27,2c0,3.12-3.1,4.37-5.26,4.37a7.61,7.61,0,0,1-1.64-.23c-.39.13-.62.37-.62.7,0,1.39,8.1-.23,8.1,4.56,0,3-2.87,4.64-6.07,4.64-2.68,0-5.39-1.17-5.39-3.52,0-1.64,1.3-2.5,3.38-2.81-1.59-.18-3.18-.68-3.18-2.16,0-1.07,1-1.85,2.43-2a3.9,3.9,0,0,1-2.29-3.59c0-3.39,3.2-4.35,5.26-4.35,1.38,0,4.24.23,6.46.26m-7,12a1.88,1.88,0,0,0-1.95,1.88c0,1.12,1,1.93,2.39,1.93,1.54,0,2.56-.79,2.56-2.11,0-1.12-1-1.54-3-1.7m2.76-8c0-1.51-1.27-1.9-2.26-1.9s-2.3.39-2.3,1.9,1.23,2,2.3,2,2.26-.39,2.26-2" transform="translate(-36.3 -26.83)"/><path class="cls-4" d="M468.71,191.63V181.32l-1.49-.31v-2.14h4.87v12.76Zm-.11-18H472v3.1H468.6Z" transform="translate(-36.3 -26.83)"/><path class="cls-4" d="M485.35,190.77a9.91,9.91,0,0,1-4.38,1.12c-3.8,0-6.09-2.16-6.09-6.64,0-4.17,2.29-6.64,6.07-6.64a8.64,8.64,0,0,1,4.37,1l-.88,2.32a6.34,6.34,0,0,0-3.21-.78c-1.77,0-2.89,1.2-2.89,4.06s1.07,4.06,2.92,4.06a7.4,7.4,0,0,0,3.46-1Z" transform="translate(-36.3 -26.83)"/><path class="cls-4" d="M499.07,185.23c0,4.35-2.19,6.66-6,6.66s-6-2.29-6-6.66c0-3.76,2.08-6.62,6-6.62s6,2.86,6,6.62m-3.49,0c0-3.08-.91-4.15-2.5-4.15s-2.47,1.1-2.47,4.15.8,4.16,2.47,4.16,2.5-1.12,2.5-4.16" transform="translate(-36.3 -26.83)"/></svg>