<?xml version="1.0" encoding="utf-8"?>
<!-- Generator: Adobe Illustrator 25.0.1, SVG Export Plug-In . SVG Version: 6.00 Build 0)  -->
<svg version="1.1" id="Capa_1" xmlns="http://www.w3.org/2000/svg" xmlns:xlink="http://www.w3.org/1999/xlink" x="0px" y="0px"
	 viewBox="0 0 440 310" style="enable-background:new 0 0 440 310;" xml:space="preserve">
<style type="text/css">
	.Sombra_x0020_paralela{fill:none;}
	.Resplandor_x0020_externo_x0020_5_x0020_pt_x002E_{fill:none;}
	.Neón_x0020_azul{fill:none;stroke:#8AACDA;stroke-width:7;stroke-linecap:round;stroke-linejoin:round;}
	.Resalte_x0020_cromado{fill:url(#SVGID_1_);stroke:#FFFFFF;stroke-width:0.3629;stroke-miterlimit:1;}
	.A_x0020_todo_x0020_ritmo_GS{fill:#FFDD00;}
	.Alyssa_GS{fill:#A6D0E4;}
	.st0{fill:#0063AF;}
	.st1{fill:#FFFFFF;}
	.st2{fill:none;}
	.st3{fill:#E73439;}
</style>
<linearGradient id="SVGID_1_" gradientUnits="userSpaceOnUse" x1="-148.8287" y1="-85.4199" x2="-148.8287" y2="-86.4199">
	<stop  offset="0" style="stop-color:#656565"/>
	<stop  offset="0.618" style="stop-color:#1B1B1B"/>
	<stop  offset="0.6292" style="stop-color:#545454"/>
	<stop  offset="0.9831" style="stop-color:#3E3E3E"/>
</linearGradient>
<g>
	<g>
		<g>
			<g>
				<rect x="15.1" y="13.4" class="st0" width="127.7" height="283.1"/>
			</g>
			<g>
				<g>
					<g>
						<path class="st1" d="M81.6,52.3c0.3-0.2,0.9-0.7,0.4-1.7c-0.2-0.5-0.8-0.5-0.6-0.5c3.2-0.8,4.9-5.4,4.8-7.2
							c1.6,1.5,5.3,2,8-0.3c1.7-1.7,2.6-6-0.4-8.2c-1.5-1.1-4.2-1.2-5.9,0.1c-0.5-0.9-1.5-1.5-2.4-1.5c0-0.3,0-2.4-1.2-3.8
							c-1.6-1.7-6.1-1.9-7.7,0c-3.2-0.8-7.4,0.7-7.2,5.7c-2.3-0.9-3.6-0.9-4.8-0.8c-1.1,0.1-2.6,1.1-3.2,1.8
							c-0.2,0.3-0.5,0.7-0.7,1.1c-0.4,0.7-0.7,1.7-0.5,2.7c0.2,1.8,1.1,3.3,2.4,4c1.8,1,4.1,0.9,4.9,0.7c0.6-0.1,1.3-0.4,2-1.1
							c0.2-0.2,0.4-0.6,0.7-0.6c0,0.5-0.2,2.9,2.5,4c0,0.1,0.1,0.2,0.1,0.4c0.9,3.3,3.1,2.9,3.1,3.2c-1,0.6-0.6,1.5-0.3,1.9
							c1.5-0.5,2.6-0.5,3-0.5C79,51.8,80.1,51.8,81.6,52.3z"/>
						<g>
							<polygon class="st2" points="78.3,55.6 76.2,62.3 69,62.3 69.1,62.3 74.9,66.5 72.7,73.1 78.3,68.9 83.9,73.1 81.6,66.5 
								87.5,62.3 87.5,62.3 80.3,62.3 							"/>
							<path class="st1" d="M89.2,62.4c0-3.3,2.3-5.9,2.3-6c0.2-0.3,0.3-0.5,0.3-0.7c0-0.3-0.3-0.5-0.3-0.5
								c-0.6-0.4-2.1-1.3-2.1-1.3l-0.1-0.1h-0.1c-0.2,0-0.3,0.1-0.5,0.2c-0.4,0.3-1.1,0.9-2.4,0.9c-0.2,0-0.5,0-0.7-0.1
								c-0.7-0.1-1.8-0.7-1.8-0.7c-0.4-0.2-0.8-0.4-1-0.5l-0.1,0c-1.9-0.8-3.5-0.8-3.9-0.8c-0.4,0-2,0.1-3.9,0.8l-0.1,0
								c-0.1,0-0.3,0.1-0.5,0.2L73,54.4c-0.4,0.2-0.9,0.4-1.2,0.4c-0.2,0-0.5,0.1-0.7,0.1c-1.3,0-2-0.6-2.5-0.9
								c-0.2-0.1-0.3-0.2-0.5-0.2l-0.1,0l-0.1,0c0,0-1.5,0.9-2.1,1.3c-0.1,0-0.3,0.2-0.4,0.6c0,0.2,0,0.4,0.3,0.7
								c0.1,0.1,2.3,2.7,2.3,6c0.1,0.4,0.2,2.4-1.5,5.4c-0.1,0.2-2,3.6,0.1,6.6c0,0,1.6,2.9,6.1,2.9c0.4,0,3.7,0.1,4.9,2.2
								c0,0.1,0.6,0.9,0.8,1.4l0.3,0.5l0.3-0.5c0.2-0.4,0.7-1.3,0.8-1.4c1.1-2.1,4.5-2.2,4.8-2.2c4.5,0,6.1-2.8,6.1-2.8
								c2.1-3.1,0.1-6.7,0.1-6.7C89,64.8,89.2,62.8,89.2,62.4z M87.5,62.3l-5.8,4.2l2.2,6.6l-5.6-4.3l-5.6,4.3l2.2-6.6l-5.8-4.2l0,0
								h7.2l2-6.7l2,6.7L87.5,62.3L87.5,62.3z"/>
							<g>
								<path class="st2" d="M58.7,94.6c3.2,3.3,7.8,1.5,7.8,1.5c0.7-0.1,1.1-2.4,1.3-4.1c-2.8-0.4-5.4-0.8-8-1.5
									C59,92.5,58.7,94.6,58.7,94.6z"/>
								<path class="st2" d="M57.9,80.7c-0.1-0.1-0.2-0.2-0.4-0.2c-0.4-0.1-0.7,0.3-1.2,0.2c-0.4-0.1-3.7-2.6-3.9-2.7
									c-0.7-0.5-1.8-1.1-2.4-1.8C49.8,75.6,50,75,50,74.4c0-0.4-0.6-1.5-1.5-1.8c-0.2,1-1.6,4.7-6,5.6c-0.6,2.4,0.3,7,0.9,7.6
									c0.4,0.1,0.8,0.3,1.1,0.5c0-0.9,0.3-1.5,0.3-1.5c1.2-2.5,4.1-1.7,4.1-1.7c1,0.3,1.2,1.2,1.2,1.2c0.4,2-1.3,2.2-1.3,2.2
									c-1.2,0.1-1.2-0.9-1.2-0.9c-0.1-0.9,1.2-1,1.2-1c-1.1-1.9-4.6,1.2-2.3,4.1c0.2,0.3,0.5,0.1,0.5,0.1c6.9-3.4,8-4.9,8-4.9
									c1.5-1.3,2.6-2.1,3.4-2.7C58.1,81,57.9,80.7,57.9,80.7z"/>
								<path class="st2" d="M90.5,53.2c0.1,0.1,0.3,0.2,0.4,0.3C90.8,53.4,90.7,53.3,90.5,53.2z"/>
								<path class="st2" d="M92.8,54.9c-0.2-0.2-0.5-0.4-0.7-0.6C92.3,54.5,92.5,54.7,92.8,54.9L92.8,54.9z"/>
								<path class="st2" d="M91.2,53.7c0.2,0.2,0.4,0.3,0.7,0.5C91.7,54.1,91.4,53.9,91.2,53.7z"/>
								<path class="st2" d="M57.4,93.4c0.2-0.3,0.5-1.5,0.5-1.5c0.2-0.7,0.4-1.2,0.7-1.8c-0.8-0.2-1.5-0.5-2.2-0.7
									C56.4,91.6,57.4,93.4,57.4,93.4z"/>
								<path class="st2" d="M89.9,91.9c0.2,1.8,0.6,4,1.3,4.1c0,0,4.6,1.8,7.8-1.5c0,0-0.2-2-1.1-4.2C95.4,91,92.7,91.5,89.9,91.9z
									"/>
								<path class="st2" d="M99.9,91.9c0,0,0.3,1.2,0.5,1.5c0,0,1-1.7,1-4c-0.7,0.2-1.5,0.5-2.2,0.7C99.5,90.7,99.7,91.2,99.9,91.9
									z"/>
								<path class="st2" d="M65.5,85.6c-1.5,0-2.7,0.6-3.6,1.5c1.7,0.4,3.8,0.8,6,1.1C67.6,85.5,65.5,85.6,65.5,85.6z"/>
								<path class="st2" d="M97,86.8c1.4-0.3,2.6-0.7,3.6-1c-0.2-0.4-0.4-0.8-0.7-1.2c0,0-3.9-4.7-10.9-2.1c-0.1,0,0.3,1.2,2.2,1.6
									C91.4,84.2,94.5,84.4,97,86.8z"/>
								<path class="st2" d="M92.2,85.6c0,0-2.1,0-2.4,2.6c2.2-0.3,4.3-0.7,6-1.1C94.9,86.2,93.7,85.6,92.2,85.6z"/>
								<path class="st2" d="M72.5,83.9c-0.5-0.7-1.2-0.7-1.2-0.7c-1,0-1.2,2.4-1.5,5.1c2.2,0.2,4.5,0.4,7.1,0.5
									C75.8,86.6,73.4,85.2,72.5,83.9z"/>
								<path class="st2" d="M57.9,84.6c-0.3,0.4-0.5,0.8-0.7,1.2c1,0.3,2.2,0.7,3.6,1c2.5-2.4,5.5-2.6,5.8-2.6
									c1.9-0.4,2.4-1.6,2.2-1.6C61.8,79.8,57.9,84.6,57.9,84.6z"/>
								<path class="st2" d="M86.5,83.2c0,0-0.7,0-1.2,0.7c-0.9,1.2-3.3,2.7-4.3,4.9c2.5-0.1,4.9-0.2,7.1-0.5
									C87.7,85.6,87.5,83.2,86.5,83.2z"/>
								<path class="st1" d="M128.3,90.1c-0.7-0.9-2.7-0.4-2.7-0.4c1-3.1-1.8-3.9-1.8-3.9c-1-0.3-1.7-0.1-2.1,0.2c0,0,0,0,0,0
									c0,0,0,0,0,0c-0.1,0.1-0.1,0.1-0.2,0.2c-0.3,0.3-0.4,0.6-0.4,1c0,0.8,0.7,1.5,1.5,1.5c0.3,0,0.6-0.1,0.9-0.3
									c0.3-0.2,0.5-0.5,0.6-0.9c0.4,0.3,0.6,0.7,0.6,0.7c0.8,2.6-2.1,3.6-2.1,3.6c-6.6,2-10.6-1.4-10.6-1.4l1.1-0.6
									c0.4-0.2,0.8-0.2,1-0.2c0,0.1,0,0.1,0,0.2c0,0.7,0.6,1.3,1.3,1.3c0.7,0,1.3-0.6,1.3-1.3c0-0.5-0.3-0.8-0.3-0.8
									c-0.8-1.2-3.4-0.4-3.4-0.4c0.9-2.2,0.1-3.7,0.1-3.7c-1.2-2.5-4.1-1.7-4.1-1.7c-1,0.3-1.2,1.2-1.2,1.2
									c-0.4,2,1.3,2.2,1.3,2.2c1.2,0.1,1.2-0.9,1.2-0.9c0.2-0.9-1.2-1-1.2-1c1.1-1.9,4.6,1.2,2.3,4.1c-0.2,0.3-0.5,0.1-0.5,0.1
									c-4.1-2-6.1-3.3-7.1-4.1c-0.1-1.1-1.1-1.7-0.9-2c0.2-0.1,0.7,0.2,1.1-0.3c0.1-0.2,0.4-1.9,0.6-3.2c3.6,1.7,6.7,1.2,7.3,1
									c0.3-0.1,0.6-0.4,0.6-0.8c0.1-1.4-3.5-9.5-3.6-12.4c1.7,0.8,2.7-1.8,3-2.6c2.3,1,3,22.1,4.8,22.8c0.9,0.4,1.2-1.1,1.3-1.3
									c2.8-9.4,2.9-18.5,2.7-21.6c-0.3-4.8-0.7-9.1-1.8-13c-0.7-2.4-2.1-7.4-5.3-8.1c-1.5-0.3-2.6,1.1-2.6,2.3
									c0,1.1,0.8,1.6,0.4,2.7c-0.4,0.7-0.8,1.5-1,2.2c-0.2,0.8,0.5,1.1,0.3,1.9c-1-0.2-1.5,0.7-3.1,0.3c1-0.5,1.1-3.5-0.2-4
									c-0.2-0.1-0.4-0.1-0.4-0.3c0,0,0.4-0.4,0.6-0.9c0.7-1.5,0.7-2.8,0.1-3.8c0.5,0,1.1-0.9,1.2-1.7l0,0c0,0,0,0,0-0.1v0
									c0-0.2,0-0.9,0.3-1.5c0.1-0.2,0-0.4-0.2-0.5c-0.2-0.1-0.4,0-0.5,0.2c-0.3,0.7-1.1,0.3-0.7-0.4c0.1-0.2,0-0.4-0.2-0.5
									c-0.2-0.1-0.4,0-0.5,0.2c-0.3,0.6-1,0.3-0.7-0.4c0.1-0.2,0-0.4-0.2-0.5c-0.2-0.1-0.4,0-0.5,0.2c-0.3,0.7-1.1,0.3-0.8-0.4
									c0.1-0.2,0-0.5-0.2-0.5c-0.2-0.1-0.4,0-0.5,0.2c-0.3,0.7-0.6,1-0.9,1.3c-0.7,0.1-0.5,0.9-0.4,1.5c-1.3-0.3-2.3,0.7-2.4,1.6
									h-0.1c-1.1,0-2.1,0.6-2.1,1.6c0,0.6,0.7,1.3,1,1.3c0.1,0-0.1-0.6,0.5-0.6c0.5,0,1.3,0.4,1.4,0.9c0.1,0.6-0.3,1.9,1.4,2.1
									c0,0,0,0.3,0,0.6c-0.6,0-0.8-0.1-1.4,0c-1.1,0.2-2.7,0.8-3.1,1.9c-0.1,0.2-0.1,0.6-0.1,0.9c0,0.2,0.2,0.5,0.2,0.8
									c0,0.1-0.3,0.4-0.4,0.5c-0.5,0.5-1.3,1-2.1,1c-0.9,0-1.7-0.5-2-1c-1.1-1.5,0.3-4.2,0.3-5.2c-0.1-2.6-3.4-1.1-4.7-0.4
									c-1.6,0.8-2.8,2.1-3.9,3.5c-0.6,0.7-1.2,1.6-1.5,2.4c-0.1,0.1-0.2,0.2-0.3,0.2c0.7,0.3,1.9,0.7,2.8,0.8c0,0,1.8,0.2,3.1-0.8
									c0,0,0.2-0.2,0.5-0.2c0.2,0,0.4,0.1,0.5,0.2c0,0,0.2,0.2,0.4,0.3c0.1,0.1,0.3,0.2,0.4,0.3c0.1,0.1,0.2,0.1,0.2,0.2
									c0.2,0.2,0.5,0.4,0.7,0.5c0,0,0.1,0.1,0.1,0.1c0.3,0.2,0.5,0.4,0.7,0.6l0,0c0.3,0.2,0.5,0.4,0.7,0.5l0,0
									c0,0,0.1,0.1,0.1,0.2c0,0.1,0,0.2-0.1,0.3c0,0-0.1,0.2-0.4,0.4c-0.4,0.6-1.2,1.7-1.7,3c0.6,1.1,1.7,2.4,3.2,2.4
									c1.2,0,1.7-0.6,1.9-1.3c0,0,0.1,0.1,0.1,0.1c0.1-0.1,0.8,3.4,1.7,4.4c-0.8,0.4-2.1,1.7-1.4,5.2c-0.7-0.5-1.9-1.5-2.5-2.1
									c-0.4-0.7-1-2.4-3-2.6c0.3,0.9,0.7,1.9,1.3,3c0,0,1.2,2.3,0.8,4.8c0.8-0.9,0.7-3.2,0.7-3.2c0,0,0.1-0.1,0.2-0.1
									c0.2,0,1,1.6,2.4,2c1.9,3.2,4,5.2,6,6.5c0,0.8,0.1,2.6-0.4,2.6c-1.6,0.4-3.1-0.7-4.5-0.7c-0.1-0.1-0.2-0.1-0.2-0.1
									c-6.1-2.9-14.1,3.4-15.4,4.6c-0.7,0.6-1.5-0.2-1.5-0.2c-0.5-0.6-1.1-0.9-1.7-0.8c-0.6-0.1-1.2,0.2-1.7,0.8
									c0,0-0.8,0.9-1.5,0.2c-1.3-1.2-8.5-6.8-14.5-4.9c0-0.3-0.8-0.5-1-0.6c-0.5-0.1-0.9-0.5-1.2-0.7c-0.6-0.3-1.7-0.1-2.4-0.2
									c-0.3,0-0.7-0.2-0.9-0.3c-1-0.6-2-1.3-2.6-2.2c-0.1-0.1-0.3-0.5-0.4-0.5c-0.3-0.4-0.4-0.6-0.7-1.3c-0.3-1.2,0.2-2.4,0.4-3.6
									c0.1-0.9,0.1-0.9,0.2-1.9c3.8-1.3,5.3-4.1,6.2-5.6c0.1-0.1,0.3-0.6,0.3-0.6c0.2,0,0.3,0,0.5,0c1.5,0,2.5-0.8,4.2-0.6
									c0,0.1,0.2,0.8,1.3,1.2c0,1.1,0.1,2,0.5,2.8c0.1,0.1,0.2,0.3,0.3,0.4c0.7-1.7,0.9-3.1,0.9-3.9c-0.1-0.1-0.1-0.2-0.1-0.3
									c-0.4-1.8-1.2-2.3-2-2.8c-0.4-0.2-0.8-0.3-1.2-0.6c-0.6-0.4-1.2-0.8-1.6-1.6c0,0,0.2-0.2,0.4-0.4c1.1-1.1,1.6-2.7,2-4.5
									c0.8-1.1,3-0.7,3.9-0.5c0.2,0,0.6,0.1,0.8,0.2c0.2,0.2,0.3,0.5,0.6,0.7c0.4,0.1,0.8,0,1.2,0c0.2,0.2,0.2,0.4,0.4,0.7
									c0,0,0.1,0.2,0.3,0.4c1,0,2.5-0.6,3-0.9c-0.1,0-0.1-0.1-0.2-0.1c-0.5-0.6-1.2-1.3-1.8-1.4c-0.8-0.1-1-0.9-1.8-1
									c-0.2-0.1-0.9-0.2-1.2-0.1c-1.8,0.2-3-0.4-4.7-0.6c-1.6-0.1-1.6,1-2.2,1.8c-0.2,0.3-0.5,0.7-0.7,1c-0.4,0.4-0.9,0.4-1.5,0.8
									L60,52.6c-0.1-0.5-0.3-1.1-0.7-1.6c-0.9-1.3-1.8-2.4-3.7-2.8c-0.4-0.1-0.4-0.2-0.7-0.4c-0.3-0.2-0.1-0.5,0-0.6
									c0.5-0.3,1.5-0.2,2.1-0.5c1.5-0.7,1-2,0.4-2.1c-0.8-0.1-2.1-0.5-2.4-0.7c-0.4-0.2-1-1.4-1.6-1.7c-0.7-0.2-0.4-1.3-1-1.5
									c-0.3,0-0.7,0.1-1.1,0.3c0-0.2-0.2-1.5-0.9-1.9c-0.5-0.3-0.7,0.2-0.7,0.5c0,0.3,0.7,0.6,0.9,1.8c-0.1,0.1-0.2,0.1-0.4,0.2
									c-0.1-0.5-0.3-1.2-0.8-1.5c-0.5-0.3-0.7,0.2-0.7,0.5c0,0.3,0.7,0.6,0.9,1.6c-0.2,0.1-0.3,0.3-0.4,0.4c-1-0.3-1.3-1-1.5-1
									c-0.3-0.1-0.7,0.1-0.5,0.6c0.2,0.5,1,0.8,1.5,1c-0.1,0.1-0.2,0.2-0.3,0.3c-1.2-0.2-1.5-1-1.7-1.1c-0.3-0.1-0.8,0.1-0.5,0.6
									c0.3,0.7,1.7,1,1.8,1.1c-0.2,0.3-0.3,0.6-0.3,0.8c-0.9-0.1-2.5,0.4-2.2,1.5c0.3,0.2,1.4-0.7,2.4-0.2c0.7,1,1.7,1.1,1.9,1.3
									c0.4,0.3,0.4,0.8,0.6,1.3c0.3,0.9,0.9,1.6,1.4,2.4c0.6,0.9,1.2,1.8,1.7,2.5c0.1,0.2,0.1,0.4,0.1,0.7
									c-0.7,1.1-2.7,2.3-3.5,3.1c-0.8,0.8-8.7,6.8-9.7,9.4C40.1,67.5,40,68.3,40,69c-0.5,0.3-1.5,0.7-1.9,0.2
									c-0.6-0.8,0.6-1.5,0.3-2.3c-0.1-0.3-0.6-0.5-0.9-0.3c-2,1.4-1,3.9,0.3,4.5c1.4,0.6,1.6-0.9,2.6-0.3c0.3,0.1,2.8,2.4,2.3,4.1
									c0,0.1-0.1,0.3-0.2,0.4c-0.5,0.7-1.5,1.2-2.1,1.8c-1.3,0.8,1.2,6,1,8.7c-0.1,1,0.8,0.9,1.4,2.5c-0.6,0-1.2,0.2-1.5,0.6
									c0,0-0.3,0.3-0.3,0.8c0,0.7,0.6,1.3,1.3,1.3c0.7,0,1.3-0.6,1.3-1.3c0-0.1,0-0.1,0-0.2c0.3,0,0.6,0.1,1,0.2l1.1,0.6
									c0,0-4,3.4-10.6,1.4c0,0-3-0.9-2.1-3.6c0,0,0.1-0.4,0.6-0.7c0.1,0.4,0.3,0.7,0.6,0.9c0.2,0.2,0.5,0.3,0.9,0.3
									c0.8,0,1.5-0.7,1.5-1.5c0-0.4-0.2-0.8-0.4-1c-0.1-0.1-0.1-0.1-0.2-0.2c0,0,0,0,0,0c0,0,0,0,0,0c-0.4-0.3-1.1-0.5-2.2-0.2
									c0,0-2.9,0.8-1.8,3.9c0,0-1.9-0.4-2.7,0.4c0,0-0.3,0.3-0.2,0.7v0v0c0,0.2,0.1,0.4,0.2,0.6c0.2,0.3,0.5,0.5,0.9,0.5
									c0.4,0,0.7-0.2,0.9-0.4c0,0,0,0,0,0c0.1-0.1,0.3-0.2,0.7,0.1c4.4,4.5,11.5,2.7,15.4-0.4c0,0,2.2-2.2,4.6-3.5
									c0.9,0.4,2,0.7,2.9,1.1c-0.1,1.4,0.2,3.4,1.8,5.8c0,0-1.1,2.1-3,0.9c0,0-1.4-1.1-0.2-2.4c0,0,0.8-0.7,1.1,0.2
									c-0.4,0-0.7,0.4-0.7,0.8c0,0.4,0.3,0.8,0.8,0.8c0.4,0,0.7-0.3,0.8-0.7c0-0.3,0.1-1.1-0.6-1.7c0,0-0.6-0.6-1.7-0.5
									c-1.7,0.3-2.6,3.7,0.7,5.1c0,0,2.6,1.2,3.9-0.7c0,0,0-0.3,0.5,0.2c2.7,2.6,8.8,1.9,11.2,0.1c0,0,0.6-0.4,1.3-0.7
									c0,1,0.9,1.8,1.9,1.8c1,0,1.9-0.9,1.9-1.9c0-0.9-0.7-1.7-1.6-1.9c0,0-1.2-0.4-3,0.7c0,0-1.9,1.2-1.8,1c0.6-1,1-2.3,1.3-3.7
									c2.6,0.3,5.4,0.5,8.2,0.5c0,0.8-0.1,1.8-0.5,2.6c0,0-1,0.4-1,1.1c0,0-0.1,0.5,0.8,1.2c0,0,0.6,0.7,0.8,1.3
									c0,0,0.1,0.8,1.1,0.8c0.1,0,0.1,0,0.2,0c0.1,0,0.1,0,0.2,0c1.1,0,1.1-0.8,1.1-0.8c0.2-0.6,0.8-1.3,0.8-1.3
									c0.9-0.7,0.8-1.2,0.8-1.2c0-0.7-1-1.1-1-1.1c-0.3-0.8-0.4-1.8-0.5-2.6c2.8-0.1,5.5-0.3,8.2-0.5c0.3,1.4,0.7,2.7,1.3,3.7
									c0.1,0.2-1.7-1-1.7-1c-1.8-1.1-3-0.7-3-0.7c-0.9,0.2-1.6,0.9-1.6,1.9c0,1,0.8,1.9,1.9,1.9c1,0,1.9-0.8,1.9-1.8
									c0.7,0.3,1.3,0.7,1.3,0.7c2.4,1.8,8.5,2.6,11.2-0.1c0.5-0.5,0.5-0.2,0.5-0.2c1.3,1.9,3.9,0.7,3.9,0.7
									c3.3-1.4,2.3-4.9,0.7-5.1c-1.1-0.2-1.7,0.5-1.7,0.5c-0.7,0.6-0.7,1.4-0.6,1.7c0,0.4,0.3,0.7,0.8,0.7c0.4,0,0.8-0.3,0.8-0.8
									c0-0.4-0.3-0.7-0.7-0.8c0.3-0.8,1.1-0.2,1.1-0.2c1.2,1.3-0.2,2.4-0.2,2.4c-1.9,1.1-3-0.9-3-0.9c1.6-2.3,1.9-4.4,1.8-5.8
									c1-0.4,2-0.7,2.9-1.1c2.4,1.3,4.6,3.5,4.6,3.5c3.9,3,11,4.9,15.4,0.4c0.3-0.4,0.6-0.2,0.7-0.1c0,0,0,0,0,0
									c0.2,0.3,0.5,0.4,0.9,0.4c0.4,0,0.7-0.2,0.9-0.5c0.1-0.2,0.2-0.5,0.2-0.6v0v0C128.5,90.4,128.3,90.1,128.3,90.1z M47,88.7
									c0,0-0.2,0.2-0.5-0.1c-2.3-2.8,1.2-6,2.3-4.1c0,0-1.3,0-1.2,1c0,0,0,1,1.2,0.9c0,0,1.7-0.2,1.3-2.2c0,0-0.2-0.9-1.2-1.2
									c0,0-2.9-0.8-4.1,1.7c0,0-0.3,0.6-0.3,1.5c-0.3-0.3-0.7-0.5-1.1-0.5c-0.5-0.6-1.5-5.2-0.9-7.6c4.4-0.9,5.8-4.6,6-5.6
									c0.9,0.3,1.4,1.3,1.5,1.8c0.1,0.6-0.2,1.2,0.1,1.7c0.5,0.7,1.7,1.4,2.4,1.8c0.2,0.2,3.5,2.7,3.9,2.7
									c0.5,0.1,0.7-0.2,1.2-0.2c0.1,0,0.2,0.1,0.4,0.2c0,0,0.2,0.2,0.6,0.5c-0.9,0.6-2,1.4-3.4,2.7C55,83.9,53.9,85.3,47,88.7z
									 M57.9,91.9c0,0-0.3,1.2-0.5,1.5c0,0-1-1.7-1.1-4c0.7,0.2,1.5,0.5,2.2,0.7C58.3,90.6,58,91.2,57.9,91.9z M66.5,96
									c0,0-4.6,1.8-7.8-1.5c0,0,0.2-2,1.1-4.2c2.6,0.7,5.2,1.2,8,1.5C67.6,93.6,67.3,95.9,66.5,96z M62,87
									c0.9-0.9,2.1-1.4,3.6-1.5c0,0,2.1,0,2.4,2.6C65.7,87.8,63.7,87.4,62,87z M66.6,84.1c-0.3,0.1-3.3,0.3-5.8,2.6
									c-1.4-0.3-2.6-0.7-3.6-1c0.2-0.4,0.4-0.8,0.7-1.2c0,0,3.9-4.7,10.9-2.1C68.9,82.6,68.5,83.7,66.6,84.1z M69.8,88.4
									c0.3-2.8,0.5-5.2,1.5-5.1c0,0,0.7,0,1.2,0.7c0.9,1.2,3.3,2.7,4.3,4.9C74.3,88.8,71.9,88.6,69.8,88.4z M80.9,88.8
									c1.1-2.2,3.5-3.7,4.3-4.9c0.5-0.7,1.2-0.7,1.2-0.7c1,0,1.2,2.4,1.5,5.2C85.8,88.6,83.4,88.8,80.9,88.8z M88.9,82.5
									c7-2.7,10.9,2.1,10.9,2.1c0.3,0.4,0.5,0.8,0.7,1.2c-1,0.3-2.2,0.7-3.6,1c-2.5-2.4-5.5-2.6-5.8-2.6
									C89.3,83.7,88.8,82.6,88.9,82.5z M92.2,85.6c1.5,0,2.7,0.6,3.6,1.5c-1.7,0.4-3.8,0.8-6,1.1C90.2,85.5,92.2,85.6,92.2,85.6z
									 M91.2,96c-0.7-0.1-1.1-2.4-1.3-4.1c2.8-0.4,5.4-0.8,8-1.5c0.9,2.1,1.1,4.2,1.1,4.2C95.8,97.8,91.2,96,91.2,96z M100.4,93.4
									c-0.2-0.3-0.5-1.5-0.5-1.5c-0.2-0.7-0.4-1.2-0.7-1.8c0.7-0.2,1.5-0.5,2.2-0.7C101.4,91.6,100.4,93.4,100.4,93.4z"/>
							</g>
						</g>
					</g>
				</g>
			</g>
		</g>
	</g>
</g>
<g>
	<rect x="240.8" y="13.4" class="st3" width="184.1" height="283.1"/>
	<path class="st1" d="M265.4,281.5c-1.9,0.9-3.4,1.3-5.2,1.3c-4.1,0-6.1-2.9-6.1-7.3c0-4.2,2.1-7.1,6.4-7.1c2.1,0,3.5,0.5,4.6,1.2
		l-1.1,2c-0.8-0.5-1.9-0.9-3.4-0.9c-2.5,0-3.6,1.9-3.6,4.6c0,3.3,1.2,5.1,3.5,5.1c0.9,0,1.8-0.2,2.4-0.5v-2.5H261l-0.1-2h4.5V281.5z
		"/>
	<path class="st1" d="M276.6,277.5c0,3.4-1.7,5.3-4.7,5.3c-3,0-4.7-1.8-4.7-5.3c0-3,1.6-5.2,4.7-5.2
		C274.9,272.3,276.6,274.5,276.6,277.5 M273.8,277.5c0-2.4-0.7-3.3-2-3.3c-1.3,0-1.9,0.9-1.9,3.3c0,2.3,0.6,3.3,1.9,3.3
		C273.2,280.8,273.8,279.9,273.8,277.5"/>
	<path class="st1" d="M281.1,273.5c0.5-0.6,1.5-1.2,2.7-1.2c2.4,0,4.1,1.7,4.1,5.2c0,3.5-2.1,5.3-4.4,5.3c-1.4,0-2.3-0.6-2.9-1.4
		l-0.5,1.2h-1.4v-14.2h2.7v3.5L281.1,273.5z M281.3,279.7c0.4,0.6,1.1,1,1.8,1c1.2,0,2-0.9,2-3.3c0-2.4-0.8-3.2-2-3.2
		c-0.7,0-1.4,0.4-1.9,0.8V279.7z"/>
	<path class="st1" d="M290.7,282.5v-8.1l-1.1-0.2v-1.7h3.8v10.1H290.7z M290.6,268.4h2.7v2.4h-2.7V268.4z"/>
	<path class="st1" d="M298.1,278.2c0,1.6,0.9,2.5,2.6,2.5c1,0,2.1-0.4,2.9-0.9l0.5,1.9c-0.8,0.4-2.2,1-3.8,1c-3.1,0-5-1.9-5-5.3
		c0-3.1,1.5-5.2,4.7-5.2c3,0,4.3,2.3,4.3,4.8v1.2H298.1z M300,274.2c-1.3,0-1.9,1.2-1.9,2.4h3.7C301.8,275.3,301.4,274.2,300,274.2"
		/>
	<path class="st1" d="M312.1,274.7c-0.3-0.1-0.8-0.2-1.3-0.2c-0.7,0-1.4,0.3-1.8,0.7v7.3h-2.7v-10.1h1.9c0.1,0.5,0.2,0.9,0.3,1.4
		h0.1c0.3-0.7,1.2-1.5,2.4-1.5c0.5,0,0.9,0.1,1.2,0.1C312.1,273.2,312.1,273.9,312.1,274.7"/>
	<path class="st1" d="M320,282.5v-6c0-1.5-0.6-2.2-1.8-2.2c-0.7,0-1.3,0.3-1.8,0.6v7.6h-2.7v-10.1h1.8l0.4,1.1
		c0.6-0.7,1.7-1.4,3.2-1.4c2.5,0,3.5,1.5,3.5,4v6.2H320z"/>
	<path class="st1" d="M333.9,277.5c0,3.4-1.7,5.3-4.7,5.3c-3,0-4.7-1.8-4.7-5.3c0-3,1.6-5.2,4.7-5.2
		C332.2,272.3,333.9,274.5,333.9,277.5 M331.2,277.5c0-2.4-0.7-3.3-2-3.3c-1.2,0-1.9,0.9-1.9,3.3c0,2.3,0.6,3.3,1.9,3.3
		C330.5,280.8,331.2,279.9,331.2,277.5"/>
	<path class="st1" d="M347,273.2c-0.2-0.6-0.3-1.1-0.3-1.8v-3h2.7v14.2h-2.2l-0.3-1.1c-0.4,0.6-1.4,1.3-2.7,1.3
		c-2.3,0-4.1-1.6-4.1-5.2c0-3.3,1.9-5.2,4.3-5.2C345.6,272.3,346.4,272.6,347,273.2 M346.7,274.8c-0.4-0.2-1-0.5-1.8-0.5
		c-1.3,0-2.1,0.9-2.1,3.2c0,2.4,0.8,3.3,2,3.3c0.7,0,1.4-0.3,1.9-0.9V274.8z"/>
	<path class="st1" d="M354.1,278.2c0,1.6,0.9,2.5,2.6,2.5c1,0,2.1-0.4,2.9-0.9l0.5,1.9c-0.8,0.4-2.2,1-3.8,1c-3.1,0-5-1.9-5-5.3
		c0-3.1,1.5-5.2,4.7-5.2c3,0,4.2,2.3,4.2,4.8v1.2H354.1z M356,274.2c-1.3,0-1.9,1.2-1.9,2.4h3.7C357.8,275.3,357.4,274.2,356,274.2"
		/>
	<path class="st1" d="M372.6,282.7c-3.9,0-6-2.6-6-7.2c0-4.3,2.1-7.1,6-7.1c1.9,0,3.6,0.4,4.7,1.2l-1,2.1c-0.7-0.5-2-0.9-3.4-0.9
		c-2.3,0-3.4,1.7-3.4,4.7c0,3.2,1.1,4.9,3.4,4.9c1.4,0,2.7-0.6,3.7-1.3l0.9,2.2C376,282.2,374.4,282.7,372.6,282.7"/>
	<path class="st1" d="M379.2,282.5v-14.2h2.7v3.7c0,0.7-0.2,1.4-0.3,1.6c0.6-0.7,1.4-1.4,2.8-1.4c2.9,0,3.7,1.5,3.7,4v6.2h-2.7v-6
		c0-0.3,0-0.5-0.1-0.6c-0.1-1.1-0.7-1.6-1.7-1.6c-0.7,0-1.3,0.3-1.8,0.6v7.6H379.2z"/>
	<path class="st1" d="M391.2,282.5v-8.1l-1.2-0.2v-1.7h3.8v10.1H391.2z M391.1,268.4h2.7v2.4h-2.7V268.4z"/>
	<path class="st1" d="M396.3,279.9v-11.5h2.6v11.4c0,0.8,0.5,1,1.6,1v1.9c0,0-0.8,0.2-1.5,0.2C397.1,282.7,396.3,281.6,396.3,279.9"
		/>
	<path class="st1" d="M404.7,278.2c0,1.6,0.9,2.5,2.6,2.5c1,0,2.1-0.4,2.9-0.9l0.5,1.9c-0.8,0.4-2.2,1-3.8,1c-3.1,0-5-1.9-5-5.3
		c0-3.1,1.5-5.2,4.7-5.2c3,0,4.2,2.3,4.2,4.8v1.2H404.7z M406.5,274.2c-1.3,0-1.9,1.2-1.9,2.4h3.7
		C408.3,275.3,407.9,274.2,406.5,274.2"/>
	<g>
		<path class="st1" d="M270.4,59.7L270,44.9h-0.1c-0.3,1.9-0.6,3.2-0.9,4.2l-2.5,10.6h-5l-2.4-10.6c-0.2-1-0.5-2.4-0.9-4.2h-0.1
			L258,59.7h-3.1l0.7-17.6h5.9c0,0,1.9,8.8,2.9,14.5h0.1c1.2-5.6,3.5-14.5,3.5-14.5h5.7l0.7,17.6H270.4z"/>
		<path class="st1" d="M278.2,59.7V49.4l-1.5-0.3V47h4.9v12.7H278.2z M278.1,41.8h3.4v3.1h-3.4V41.8z"/>
		<path class="st1" d="M292.6,59.7v-7.6c0-1.9-0.7-2.8-2.3-2.8c-0.9,0-1.6,0.4-2.2,0.8v9.6h-3.4V47h2.3l0.5,1.5
			c0.7-0.9,2.1-1.7,4-1.7c3.2,0,4.5,1.9,4.5,5.1v7.9H292.6z"/>
		<path class="st1" d="M299.9,59.7V49.4l-1.5-0.3V47h4.9v12.7H299.9z M299.8,41.8h3.4v3.1h-3.4V41.8z"/>
		<path class="st1" d="M309.3,50.3c0,2,5.5,1.4,5.5,5.5c0,2.3-1.7,4.1-5,4.1c-1.5,0-3-0.4-3.8-0.9l0.7-2.4c0.6,0.4,1.8,0.9,3,0.9
			c1.1,0,1.9-0.6,1.9-1.4c0-2.3-5.4-1.5-5.4-5.9c0-1.9,1.4-3.6,4.9-3.6c1.3,0,2.7,0.3,3.6,0.6l-0.5,2.5c-0.9-0.4-2-0.7-3.1-0.7
			C309.9,49.2,309.3,49.6,309.3,50.3z"/>
		<path class="st1" d="M322.2,60c-2.3,0-3.7-1.1-3.7-4.3v-6.3h-1.9V47h1.9v-2.2l3.4-1.1V47h3.4v2.4h-3.4v6.2c0,0.9,0.4,1.5,1.4,1.5
			c0.7,0,1.4-0.2,2-0.5l0.5,2.5C324.9,59.6,323.5,60,322.2,60z"/>
		<path class="st1" d="M330.1,54.3c0,2,1.1,3.1,3.3,3.1c1.3,0,2.6-0.5,3.7-1.1l0.7,2.4c-1.1,0.6-2.8,1.2-4.8,1.2
			c-3.9,0-6.3-2.4-6.3-6.7c0-3.9,1.9-6.6,6-6.6c3.8,0,5.4,2.9,5.4,6.1v1.5H330.1z M332.5,49.2c-1.7,0-2.4,1.5-2.4,3h4.7
			C334.7,50.6,334.2,49.2,332.5,49.2z"/>
		<path class="st1" d="M347.8,49.8c-0.4-0.1-1-0.2-1.6-0.2c-0.9,0-1.7,0.4-2.3,0.9v9.3h-3.4V47h2.4l0.4,1.7h0.1c0.4-0.9,1.5-2,3-2
			c0.7,0,1.2,0.1,1.5,0.2L347.8,49.8z"/>
		<path class="st1" d="M350.9,59.7V49.4l-1.5-0.3V47h4.9v12.7H350.9z M350.8,41.8h3.4v3.1h-3.4V41.8z"/>
		<path class="st1" d="M368.8,53.3c0,4.3-2.2,6.7-6,6.7c-3.8,0-6-2.3-6-6.7c0-3.7,2.1-6.6,6-6.6C366.7,46.7,368.8,49.6,368.8,53.3z
			 M365.3,53.3c0-3.1-0.9-4.1-2.5-4.1c-1.6,0-2.5,1.1-2.5,4.1c0,3,0.8,4.2,2.5,4.2C364.5,57.5,365.3,56.4,365.3,53.3z"/>
		<path class="st1" d="M385.3,48c-0.2-0.7-0.3-1.4-0.3-2.3v-3.8h3.4v17.9h-2.8l-0.4-1.4c-0.5,0.8-1.7,1.7-3.4,1.7
			c-2.9,0-5.2-2.1-5.2-6.6c0-4.2,2.4-6.6,5.5-6.6C383.5,46.7,384.6,47.2,385.3,48z M385,49.9c-0.5-0.3-1.3-0.6-2.3-0.6
			c-1.6,0-2.6,1.1-2.6,4.1c0,3,1,4.2,2.6,4.2c0.9,0,1.7-0.4,2.4-1.1V49.9z"/>
		<path class="st1" d="M394.4,54.3c0,2,1.1,3.1,3.3,3.1c1.3,0,2.6-0.5,3.7-1.1l0.7,2.4c-1.1,0.6-2.8,1.2-4.8,1.2
			c-3.9,0-6.3-2.4-6.3-6.7c0-3.9,1.9-6.6,6-6.6c3.8,0,5.4,2.9,5.4,6.1v1.5H394.4z M396.8,49.2c-1.7,0-2.4,1.5-2.4,3h4.7
			C399,50.6,398.5,49.2,396.8,49.2z"/>
		<path class="st1" d="M255.2,84.2V66.7H266v2.9h-7.4v4.3h5.6l-0.3,3h-5.4v4.5h7.4v2.8H255.2z"/>
		<path class="st1" d="M275.8,72.5c-0.2-0.7-0.3-1.4-0.3-2.3v-3.8h3.4v17.9h-2.8l-0.4-1.4c-0.5,0.8-1.7,1.7-3.4,1.7
			c-2.9,0-5.2-2.1-5.2-6.6c0-4.2,2.4-6.6,5.5-6.6C274,71.2,275.1,71.7,275.8,72.5z M275.4,74.4c-0.5-0.3-1.3-0.6-2.3-0.6
			c-1.6,0-2.6,1.1-2.6,4.1c0,3,1,4.2,2.6,4.2c0.9,0,1.7-0.4,2.4-1.1V74.4z"/>
		<path class="st1" d="M290.8,84.2l-0.5-1.6c-0.6,0.8-2,1.8-4,1.8c-3.2,0-4.6-1.8-4.6-5.3v-7.7h3.4v7.7c0,2,0.7,2.7,2.2,2.7
			c0.9,0,1.7-0.3,2.3-0.8v-9.6h3.5v12.7H290.8z"/>
		<path class="st1" d="M306,83.4c-0.7,0.4-2.4,1.1-4.4,1.1c-3.8,0-6.1-2.2-6.1-6.6c0-4.2,2.3-6.6,6.1-6.6c1.7,0,3.1,0.3,4.4,1
			l-0.9,2.3c-0.9-0.5-2.1-0.8-3.2-0.8c-1.8,0-2.9,1.2-2.9,4.1c0,2.9,1.1,4.1,2.9,4.1c1.3,0,2.6-0.5,3.5-1L306,83.4z"/>
		<path class="st1" d="M316.1,84.2l-0.5-1.5c-0.7,0.9-1.9,1.8-3.7,1.8c-2.5,0-4.3-1.6-4.3-4.1c0-2.4,1.7-3.8,4.8-3.8h2.7V76
			c0-1.6-0.9-2.2-2.2-2.2c-1.5,0-2.8,0.4-3.8,0.9l-0.9-2.4c1.3-0.5,3-1,5-1c3.6,0,5.2,1.7,5.2,4.9v8.1H316.1z M315.2,78.7H313
			c-1.4,0-2.1,0.7-2.1,1.6c0,1.2,0.6,1.9,1.9,1.9c0.8,0,1.6-0.4,2.3-0.9V78.7z"/>
		<path class="st1" d="M331.5,83.4c-0.7,0.4-2.4,1.1-4.4,1.1c-3.8,0-6.1-2.2-6.1-6.6c0-4.2,2.3-6.6,6.1-6.6c1.7,0,3.1,0.3,4.4,1
			l-0.9,2.3c-0.9-0.5-2.1-0.8-3.2-0.8c-1.8,0-2.9,1.2-2.9,4.1c0,2.9,1.1,4.1,2.9,4.1c1.3,0,2.6-0.5,3.5-1L331.5,83.4z"/>
		<path class="st1" d="M334.8,84.2V73.9l-1.5-0.3v-2.1h4.9v12.7H334.8z M334.7,66.3h3.4v3.1h-3.4V66.3z"/>
		<path class="st1" d="M352.7,77.8c0,4.3-2.2,6.7-6,6.7c-3.8,0-6-2.3-6-6.7c0-3.7,2.1-6.6,6-6.6C350.6,71.2,352.7,74.1,352.7,77.8z
			 M343.6,69.5l-0.3-2l6.6-1.8l0.4,2.5L343.6,69.5z M349.3,77.8c0-3.1-0.9-4.1-2.5-4.1c-1.6,0-2.5,1.1-2.5,4.1c0,3,0.8,4.2,2.5,4.2
			C348.4,82,349.3,80.9,349.3,77.8z"/>
		<path class="st1" d="M363.2,84.2v-7.6c0-1.9-0.7-2.8-2.3-2.8c-0.9,0-1.6,0.4-2.2,0.8v9.6h-3.4V71.5h2.3l0.5,1.5
			c0.7-0.9,2.1-1.7,4-1.7c3.2,0,4.5,1.9,4.5,5.1v7.9H363.2z"/>
	</g>
</g>
</svg>
