<?xml version="1.0" encoding="utf-8"?>
<!-- Generator: Adobe Illustrator 25.0.1, SVG Export Plug-In . SVG Version: 6.00 Build 0)  -->
<svg version="1.1" id="Capa_1" xmlns="http://www.w3.org/2000/svg" xmlns:xlink="http://www.w3.org/1999/xlink" x="0px" y="0px"
	 viewBox="0 0 310 160" style="enable-background:new 0 0 310 160;" xml:space="preserve">
<style type="text/css">
	.Sombra_x0020_paralela{fill:none;}
	.Resplandor_x0020_externo_x0020_5_x0020_pt_x002E_{fill:none;}
	.Neón_x0020_azul{fill:none;stroke:#8AACDA;stroke-width:7;stroke-linecap:round;stroke-linejoin:round;}
	.Resalte_x0020_cromado{fill:url(#SVGID_1_);stroke:#FFFFFF;stroke-width:0.3629;stroke-miterlimit:1;}
	.A_x0020_todo_x0020_ritmo_GS{fill:#FFDD00;}
	.Alyssa_GS{fill:#A6D0E4;}
	.st0{fill:#004F9E;}
</style>
<linearGradient id="SVGID_1_" gradientUnits="userSpaceOnUse" x1="-164.8287" y1="-160.4199" x2="-164.8287" y2="-161.4199">
	<stop  offset="0" style="stop-color:#656565"/>
	<stop  offset="0.618" style="stop-color:#1B1B1B"/>
	<stop  offset="0.6292" style="stop-color:#545454"/>
	<stop  offset="0.9831" style="stop-color:#3E3E3E"/>
</linearGradient>
<g>
	<path class="st0" d="M299.5,147.1v-3.3h-6.6v-5.4h6v-3.1h-6v-4.6h6.5v-3.3h-10.1v19.7H299.5z M278.8,147.1v-3.4h-6.6v-16.4h-3.7
		v19.7H278.8z M257.2,127.4h-3.7v19.7h3.7V127.4z M233.6,147.1v-9h5v9h3.7v-19.7h-3.7v7.7h-5v-7.7H230v19.7H233.6z M215.6,140.3
		c0,1.6-0.2,2.7-0.5,3.3c-0.3,0.6-0.9,0.9-1.7,0.9c-0.9,0-1.5-0.4-1.8-1.2c-0.3-0.8-0.5-2.9-0.5-6.5c0-3.3,0.2-5.3,0.5-6
		c0.3-0.7,0.9-1.1,1.8-1.1c0.7,0,1.2,0.3,1.6,0.8c0.3,0.5,0.5,1.3,0.5,2.4v0.5h3.6c0-2.3-0.5-4-1.4-5c-0.9-1-2.4-1.6-4.4-1.6
		c-1.2,0-2.2,0.2-3,0.6c-0.8,0.4-1.4,1.1-2,2c-0.3,0.6-0.6,1.5-0.8,2.7c-0.2,1.2-0.2,2.8-0.2,4.9c0,3,0.1,5.1,0.4,6.3
		c0.3,1.2,0.7,2.1,1.4,2.8c0.5,0.5,1.1,0.9,1.7,1.1c0.7,0.2,1.5,0.4,2.4,0.4c2,0,3.5-0.6,4.4-1.7c1-1.1,1.4-2.8,1.4-5.1
		c0-0.1,0-0.2,0-0.4c0-0.2,0-0.3,0-0.4h-3.6V140.3z"/>
	<path class="st0" d="M10.5,41v75.1c0,9.3,7.5,10.3,12.7,11.6l24.7,6.2l24-6c8.9-1.9,12.9-4.2,12.9-11.9V41H10.5z M77.4,113.2
		c0.1,6.6-3.1,6.4-17.8,10.5l-11.8,2.9c-0.1,0-7.1-1.6-12.3-2.9c-16.3-3.9-17.6-4.4-17.6-12V48.2h59.4V113.2z"/>
	<path class="st0" d="M47.3,33.2l1.3,0l0,2.6h-1.3L47.3,33.2z M47.1,12.4h1.4V15l-1.4,0L47.1,12.4z M49.2,33.1l1.4-0.3l0.6,3h-1.7
		L49.2,33.1z M46.6,33.1l-1.4-0.3l-0.6,2.9h1.8L46.6,33.1z M51.3,32.6l1-0.4l1.9,3.4l-1.7,0.2L51.3,32.6z M44.7,32.7l-1-0.4l-2,3.4
		l1.8,0.1L44.7,32.7z M52.8,31.9l1.1-0.7l3.2,4.2l-1.9,0.1L52.8,31.9z M43,31.9L42,31.2l-3.2,4.2l1.8,0.2L43,31.9z M54.4,30.8
		l0.9-0.9l5.7,4.9l-2.6,0.4L54.4,30.8z M41.5,30.9L40.6,30L35,34.9l2.6,0.4L41.5,30.9z M55.7,29.3l0.6-1l10.2,5.4l-3.5,0.7
		L55.7,29.3z M40.1,29.4l-0.6-1l-10.2,5.4l3.5,0.7L40.1,29.4z M56.8,27.4l0.4-1.1l17.3,5.2L70,32.9L56.8,27.4z M39,27.5l-0.4-1.1
		l-17.3,5.2l4.5,1.4L39,27.5z M57.3,25.7l0.2-1.3l25.1,3.2l-3.9,2.2L57.3,25.7z M38.5,25.7l-0.1-1.3l-25,3.2l3.9,2.2L38.5,25.7z
		 M49,15l1.2,0.2l0.9-2.8h-1.6L49,15z M46.7,15l-1.2,0.2l-0.8-2.8h1.6L46.7,15z M51,15.5l1.2,0.5l1.8-3.3l-1.5-0.1L51,15.5z
		 M44.8,15.5l-1.2,0.5l-1.8-3.3l1.5-0.1L44.8,15.5z M52.9,16.3l0.9,0.6l3-4l-1.6-0.1L52.9,16.3z M43,16.3l-0.9,0.6l-2.9-4l1.6-0.1
		L43,16.3z M54.3,17.4l0.6,0.5l5.5-4.5L58.1,13L54.3,17.4z M41.6,17.2L41,17.8l-5.4-4.5l2.2-0.3L41.6,17.2z M55.3,18.4l0.7,1l10-5
		l-4.2-0.7L55.3,18.4z M40.5,18.3l-0.7,1l-9.9-5l4.2-0.7L40.5,18.3z M56.5,20.1l0.4,1l15.8-4.9L69.2,15L56.5,20.1z M39.3,20.1
		l-0.4,1l-15.8-4.9l3.5-1.2L39.3,20.1z M57,21.6l0.2,1l23.6-3.1l-3.8-1.8L57,21.6z M38.7,21.6l-0.2,1l-23.6-3.1l3.8-1.8L38.7,21.6z
		 M57.4,24L57.4,23l27.4-0.6v2.7L57.4,24z M38.3,24l0.1-1.1l-27.8-0.6v2.7L38.3,24z"/>
	<polygon class="st0" points="52.4,30.1 47.9,26.9 43.4,30.1 45.1,24.9 40.6,21.6 46.1,21.6 47.9,16.3 49.6,21.6 55.1,21.6 
		50.7,24.9 	"/>
	<path class="st0" d="M52.3,66.3l-4.4-3l-4.4,3l1.5-5.1l-4.2-3.3l5.3-0.1l1.8-5l1.8,5l5.3,0.1l-4.2,3.3L52.3,66.3z M50.8,115.8
		l4.2-3.3l-5.3-0.1l-1.8-5l-1.8,5l-5.3,0.1l4.2,3.3l-1.5,5.1l4.4-3l4.4,3L50.8,115.8z M32.6,81.4l4.2-3.3L31.5,78l-1.8-5l-1.8,5
		l-5.3,0.1l4.2,3.3l-1.5,5.1l4.4-3l4.4,3L32.6,81.4z M60.9,91.8l3.1-2.4l-3.9-0.1l-1.3-3.7l-1.3,3.7l-3.9,0.1l3.1,2.4l-1.1,3.8
		l3.2-2.2l3.2,2.2L60.9,91.8z M68.6,77.1l4.2-3.3l-5.3-0.1l-1.8-5l-1.8,5l-5.3,0.1l4.2,3.3l-1.5,5.1l4.4-3l4.4,3L68.6,77.1z"/>
	<path class="st0" d="M285,112.2c1.2,1.7,3.2,2.5,6.1,2.5c2.9,0,5-0.8,6.1-2.5c1.2-1.7,1.7-4.7,1.7-9.2c0-4.5-0.6-7.6-1.7-9.2
		c-1.2-1.7-3.2-2.5-6.1-2.5c-2.9,0-4.9,0.8-6.1,2.5c-1.2,1.7-1.7,4.7-1.7,9.2C283.2,107.5,283.8,110.6,285,112.2 M288.5,101.3
		c0-2.6,0.2-4.3,0.5-5c0.4-0.7,1-1,2-1c1,0,1.7,0.4,2,1.1c0.4,0.8,0.5,2.6,0.5,5.5v1.3v0.9c0,3-0.2,4.9-0.5,5.6
		c-0.4,0.7-1.1,1.1-2.1,1.1c-1,0-1.7-0.4-2-1.2c-0.3-0.8-0.5-2.9-0.5-6.3v-0.5V101.3z M265.8,107.2c0,0.2,0,0.3,0,0.4
		c0,2.5,0.6,4.3,1.7,5.4c1.2,1.2,3,1.7,5.4,1.7c2.3,0,4.1-0.5,5.4-1.6c1.3-1.1,1.9-2.6,1.9-4.6c0-2.5-1.9-4.9-5.6-7.4
		c-0.5-0.3-0.9-0.6-1.2-0.8c-1.2-0.8-1.9-1.4-2.3-1.9c-0.3-0.4-0.5-0.9-0.5-1.5c0-0.6,0.2-1,0.6-1.4c0.4-0.4,0.9-0.5,1.5-0.5
		c0.9,0,1.5,0.3,1.9,0.8c0.4,0.5,0.6,1.3,0.6,2.4v0.5h4.5v-0.5c0-2.3-0.6-4.1-1.7-5.2c-1.1-1.1-2.8-1.7-5.1-1.7
		c-2.3,0-4.1,0.5-5.3,1.6c-1.2,1-1.8,2.5-1.8,4.5c0,2.5,1.9,5,5.7,7.6c0.1,0.1,0.2,0.1,0.3,0.2c0.2,0.2,0.6,0.4,1,0.7
		c1.7,1.1,2.5,2.1,2.5,2.9c0,0.7-0.2,1.2-0.6,1.6c-0.4,0.4-1,0.6-1.7,0.6c-0.9,0-1.6-0.3-2-0.8c-0.4-0.5-0.6-1.4-0.6-2.7v-0.6h-4.6
		C265.8,106.8,265.8,107,265.8,107.2 M259.2,89.5l5.9-5.5h-4.9l-3.3,5.5H259.2z M262.1,91.9H257v22.3h5.1V91.9z M253.5,114.1
		c-0.3-0.5-0.5-1-0.6-1.5c-0.1-0.5-0.2-1.1-0.2-1.7V98.4c0-2.6-0.5-4.4-1.6-5.5c-1.1-1-3-1.6-5.7-1.6c-2.7,0-4.7,0.6-5.9,1.7
		c-1.2,1.1-1.8,3-1.8,5.5h5v-0.4c0-1.1,0.2-1.8,0.7-2.3c0.4-0.5,1.1-0.8,2.1-0.8c0.7,0,1.3,0.2,1.7,0.6c0.4,0.4,0.6,0.9,0.6,1.6
		c0,1.2-1,2.2-3,3c-0.5,0.2-0.8,0.3-1,0.5c-2.4,1.1-4.1,2.2-4.9,3.3c-0.8,1.1-1.2,2.5-1.2,4.4c0,2,0.5,3.6,1.4,4.8
		c0.9,1.1,2.3,1.7,4,1.7c1.1,0,2.1-0.2,3-0.7c0.9-0.5,1.5-1.1,2.1-2c0.1,0.6,0.2,1.1,0.3,1.4c0.1,0.3,0.2,0.6,0.3,0.7H253.5z
		 M247.7,106c0,1.6-0.2,2.7-0.7,3.5c-0.4,0.8-1.1,1.2-2,1.2c-0.8,0-1.4-0.2-1.7-0.7c-0.4-0.5-0.5-1.2-0.5-2.2c0-1.1,0.3-2,1-2.7
		c0.7-0.8,2-1.6,3.9-2.6V106z M229.9,114.1v-13c0-1.1,0.3-2,1-2.6c0.6-0.6,1.5-1,2.6-1c0.3,0,0.5,0,0.7,0c0.2,0,0.4,0,0.6,0.1v-6.3
		c-1.2,0-2.1,0.3-2.9,1c-0.8,0.6-1.6,1.7-2.3,3.2v-3.6h-4.9v22.3H229.9z M221.1,114.1c-0.3-0.5-0.5-1-0.6-1.5
		c-0.1-0.5-0.2-1.1-0.2-1.7V98.4c0-2.6-0.5-4.4-1.6-5.5c-1.1-1-3-1.6-5.7-1.6c-2.7,0-4.7,0.6-5.9,1.7c-1.2,1.1-1.8,3-1.8,5.5h5v-0.4
		c0-1.1,0.2-1.8,0.7-2.3c0.4-0.5,1.1-0.8,2.1-0.8c0.7,0,1.3,0.2,1.7,0.6c0.4,0.4,0.6,0.9,0.6,1.6c0,1.2-1,2.2-3,3
		c-0.5,0.2-0.8,0.3-1,0.5c-2.5,1.1-4.1,2.2-4.9,3.3c-0.8,1.1-1.2,2.5-1.2,4.4c0,2,0.5,3.6,1.4,4.8c0.9,1.1,2.3,1.7,4,1.7
		c1.1,0,2.1-0.2,3-0.7c0.9-0.5,1.5-1.1,2.1-2c0.1,0.6,0.2,1.1,0.3,1.4c0.1,0.3,0.2,0.6,0.3,0.7H221.1z M215.3,106
		c0,1.6-0.2,2.7-0.7,3.5c-0.4,0.8-1.1,1.2-2,1.2c-0.8,0-1.4-0.2-1.7-0.7c-0.4-0.5-0.5-1.2-0.5-2.2c0-1.1,0.3-2,1-2.7
		c0.7-0.8,2-1.6,3.9-2.6V106z M191.5,121.6v-9.4c0.4,0.8,1,1.5,1.7,1.9c0.7,0.4,1.6,0.6,2.6,0.6c2.1,0,3.6-0.8,4.5-2.5
		c0.9-1.7,1.3-4.8,1.3-9.3c0-4.3-0.4-7.4-1.3-9.1c-0.9-1.7-2.4-2.6-4.5-2.6c-1.1,0-2,0.2-2.8,0.7c-0.8,0.5-1.3,1.2-1.8,2.2v-2.3
		h-4.9v29.7H191.5z M192,96.7c0.4-0.8,1.1-1.2,2.1-1.2c0.9,0,1.5,0.4,1.9,1.3c0.3,0.9,0.5,2.9,0.5,6.1c0,3.3-0.2,5.4-0.5,6.2
		c-0.3,0.8-1,1.2-1.9,1.2c-1,0-1.7-0.5-2.1-1.5c-0.4-1-0.6-3.3-0.6-6.9C191.4,99.3,191.6,97.5,192,96.7 M181.9,84.5h-5.1v29.6h5.1
		V84.5z M173.3,114.1c-0.3-0.5-0.5-1-0.6-1.5c-0.1-0.5-0.2-1.1-0.2-1.7V98.4c0-2.6-0.5-4.4-1.6-5.5c-1.1-1-3-1.6-5.7-1.6
		c-2.7,0-4.7,0.6-5.9,1.7c-1.2,1.1-1.8,3-1.8,5.5h5v-0.4c0-1.1,0.2-1.8,0.7-2.3c0.4-0.5,1.1-0.8,2.1-0.8c0.7,0,1.3,0.2,1.7,0.6
		c0.4,0.4,0.6,0.9,0.6,1.6c0,1.2-1,2.2-3,3c-0.4,0.2-0.8,0.3-1,0.5c-2.5,1.1-4.1,2.2-4.9,3.3c-0.8,1.1-1.2,2.5-1.2,4.4
		c0,2,0.5,3.6,1.4,4.8c0.9,1.1,2.3,1.7,4,1.7c1.1,0,2.1-0.2,3-0.7c0.9-0.5,1.5-1.1,2.1-2c0.1,0.6,0.2,1.1,0.3,1.4
		c0.1,0.3,0.2,0.6,0.3,0.7H173.3z M167.6,106c0,1.6-0.2,2.7-0.7,3.5c-0.4,0.8-1.1,1.2-2,1.2c-0.8,0-1.4-0.2-1.7-0.7
		c-0.4-0.5-0.5-1.2-0.5-2.2c0-1.1,0.3-2,1-2.7c0.7-0.8,2-1.6,3.9-2.6V106z M150.2,114.1l6.2-29.6h-5.8l-4,23.6l-4.4-23.6h-5.9
		l6.7,29.6H150.2z M125.5,109.8c-0.4,0.7-1.1,1-2,1c-0.9,0-1.6-0.4-2-1.3c-0.4-0.8-0.6-2.3-0.6-4.4c0-0.4,0-0.7,0-0.9
		c0-0.2,0-0.4,0-0.5h10.1V102c0-2.5-0.1-4.3-0.4-5.4c-0.2-1.1-0.6-2.1-1.2-2.8c-0.7-0.8-1.5-1.5-2.5-1.9c-1-0.4-2.2-0.6-3.5-0.6
		c-1.4,0-2.7,0.2-3.7,0.6c-1,0.4-1.9,1-2.5,1.7c-0.6,0.7-1.1,1.7-1.3,2.9c-0.3,1.2-0.4,3.1-0.4,5.8c0,3.4,0.1,5.7,0.4,7.1
		c0.3,1.3,0.8,2.4,1.5,3.3c0.6,0.7,1.4,1.3,2.3,1.6c0.9,0.3,2.1,0.5,3.5,0.5c2.6,0,4.5-0.6,5.8-1.8c1.2-1.2,1.8-3,1.8-5.6
		c0-0.1,0-0.2,0-0.4c0-0.2,0-0.3,0-0.4h-4.8C126.1,108,125.9,109.2,125.5,109.8 M120.9,99.3c0-1.5,0.2-2.5,0.6-3.1
		c0.4-0.6,1-0.9,1.9-0.9c0.9,0,1.6,0.3,2,0.9c0.4,0.6,0.6,1.6,0.6,3.2v0.9h-5C120.9,100,120.9,99.7,120.9,99.3 M106.9,114.1h4.9
		V84.5h-5.2v9.3c-0.4-0.8-1-1.5-1.7-1.9c-0.7-0.4-1.6-0.6-2.7-0.6c-2.1,0-3.6,0.8-4.5,2.5c-0.9,1.7-1.3,4.8-1.3,9.3
		c0,4.3,0.4,7.4,1.3,9.1c0.9,1.7,2.4,2.6,4.5,2.6c1.1,0,2-0.2,2.8-0.7c0.8-0.5,1.3-1.2,1.8-2.2V114.1z M102.2,96.9
		c0.3-0.8,1-1.3,1.9-1.3c1,0,1.7,0.5,2.1,1.5c0.4,1,0.6,3.4,0.6,7.4c0,2.4-0.2,4.1-0.6,4.9c-0.4,0.8-1.1,1.2-2.1,1.2
		c-0.9,0-1.5-0.4-1.9-1.3c-0.3-0.9-0.5-3-0.5-6.5C101.7,99.7,101.9,97.7,102.2,96.9"/>
	<path class="st0" d="M293.4,70.6h4.9V41h-5.2v9.3c-0.4-0.8-1-1.5-1.7-1.9c-0.7-0.4-1.6-0.6-2.7-0.6c-2.1,0-3.6,0.8-4.5,2.5
		c-0.9,1.7-1.3,4.8-1.3,9.3c0,4.3,0.4,7.4,1.3,9.1c0.9,1.7,2.4,2.6,4.5,2.6c1.1,0,2-0.2,2.8-0.7c0.8-0.5,1.3-1.2,1.8-2.2V70.6z
		 M288.7,53.3c0.3-0.8,1-1.3,1.9-1.3c1,0,1.7,0.5,2.1,1.5c0.4,1,0.6,3.4,0.6,7.4c0,2.4-0.2,4.1-0.6,4.9c-0.4,0.8-1.1,1.2-2.1,1.2
		c-0.9,0-1.5-0.4-1.9-1.3c-0.3-0.9-0.5-3-0.5-6.5C288.2,56.1,288.4,54.2,288.7,53.3 M278.1,70.6c-0.3-0.5-0.5-1-0.6-1.5
		c-0.1-0.5-0.2-1.1-0.2-1.7V54.8c0-2.6-0.5-4.4-1.6-5.5c-1.1-1-3-1.6-5.7-1.6c-2.7,0-4.7,0.6-5.9,1.7c-1.2,1.1-1.8,3-1.8,5.5h5v-0.4
		c0-1.1,0.2-1.8,0.7-2.3c0.4-0.5,1.1-0.8,2.1-0.8c0.7,0,1.3,0.2,1.7,0.6c0.4,0.4,0.6,0.9,0.6,1.6c0,1.2-1,2.2-3,3
		c-0.5,0.2-0.8,0.3-1,0.5c-2.4,1.1-4.1,2.2-4.9,3.3c-0.8,1.1-1.2,2.5-1.2,4.4c0,2,0.5,3.6,1.4,4.8c0.9,1.1,2.3,1.7,4,1.7
		c1.1,0,2.1-0.2,3-0.7c0.9-0.5,1.5-1.2,2.1-2c0.1,0.6,0.2,1.1,0.3,1.4c0.1,0.3,0.2,0.6,0.3,0.8H278.1z M272.3,62.5
		c0,1.6-0.2,2.7-0.7,3.5c-0.5,0.8-1.1,1.2-2,1.2c-0.8,0-1.4-0.2-1.7-0.7c-0.4-0.5-0.5-1.2-0.5-2.2c0-1.1,0.3-2,1-2.7
		c0.7-0.8,2-1.6,3.9-2.6V62.5z M251.2,70.6h4.9V41h-5.2v9.3c-0.4-0.8-1-1.5-1.7-1.9c-0.7-0.4-1.6-0.6-2.7-0.6
		c-2.1,0-3.6,0.8-4.5,2.5c-0.9,1.7-1.3,4.8-1.3,9.3c0,4.3,0.4,7.4,1.3,9.1c0.9,1.7,2.4,2.6,4.5,2.6c1.1,0,2-0.2,2.8-0.7
		c0.8-0.5,1.3-1.2,1.8-2.2V70.6z M246.5,53.3c0.3-0.8,1-1.3,1.9-1.3c1,0,1.7,0.5,2.1,1.5c0.4,1,0.6,3.4,0.6,7.4
		c0,2.4-0.2,4.1-0.6,4.9c-0.4,0.8-1.1,1.2-2.1,1.2c-0.9,0-1.5-0.4-1.9-1.3c-0.3-0.9-0.5-3-0.5-6.5C246,56.1,246.2,54.2,246.5,53.3
		 M235,48.3h-5.1v22.3h5.1V48.3z M235,41h-5.1v4.6h5.1V41z M209.8,63.6c0,0.2,0,0.3,0,0.4c0,2.4,0.6,4.3,1.7,5.4
		c1.2,1.2,3,1.7,5.4,1.7c2.3,0,4.1-0.5,5.4-1.6c1.3-1.1,1.9-2.6,1.9-4.6c0-2.5-1.9-4.9-5.6-7.4c-0.5-0.3-0.9-0.6-1.2-0.8
		c-1.2-0.8-1.9-1.4-2.3-1.8c-0.3-0.4-0.5-0.9-0.5-1.5c0-0.6,0.2-1,0.6-1.4c0.4-0.4,0.9-0.5,1.5-0.5c0.9,0,1.5,0.3,1.9,0.8
		c0.4,0.5,0.6,1.3,0.6,2.4v0.5h4.5v-0.5c0-2.3-0.6-4.1-1.7-5.2c-1.1-1.1-2.8-1.7-5.1-1.7c-2.3,0-4.1,0.5-5.3,1.6
		c-1.2,1-1.8,2.5-1.8,4.5c0,2.5,1.9,5,5.7,7.6c0.1,0.1,0.2,0.1,0.3,0.2c0.2,0.2,0.6,0.4,1,0.7c1.7,1.1,2.5,2.1,2.5,2.9
		c0,0.7-0.2,1.2-0.6,1.6c-0.4,0.4-1,0.6-1.7,0.6c-0.9,0-1.6-0.3-2-0.8c-0.4-0.5-0.6-1.4-0.6-2.7v-0.6h-4.6
		C209.8,63.3,209.8,63.4,209.8,63.6 M200.6,70.6v-13c0-1.1,0.3-2,1-2.6c0.6-0.7,1.5-1,2.6-1c0.3,0,0.5,0,0.7,0c0.2,0,0.4,0,0.6,0.1
		v-6.3c-1.2,0-2.1,0.3-2.9,1c-0.8,0.6-1.6,1.7-2.3,3.2v-3.6h-4.9v22.3H200.6z M183.8,66.3c-0.4,0.7-1.1,1-2,1c-0.9,0-1.6-0.4-2-1.3
		c-0.4-0.8-0.6-2.3-0.6-4.4c0-0.4,0-0.7,0-0.9c0-0.2,0-0.4,0-0.5h10.1v-1.7c0-2.5-0.1-4.3-0.4-5.4c-0.2-1.1-0.6-2.1-1.2-2.8
		c-0.7-0.8-1.5-1.5-2.5-1.9c-1-0.4-2.2-0.6-3.5-0.6c-1.4,0-2.7,0.2-3.7,0.6c-1,0.4-1.9,1-2.5,1.7c-0.6,0.7-1.1,1.7-1.3,2.9
		c-0.3,1.2-0.4,3.1-0.4,5.8c0,3.4,0.1,5.8,0.4,7.1c0.3,1.3,0.8,2.4,1.5,3.3c0.6,0.7,1.4,1.3,2.3,1.6c0.9,0.3,2.1,0.5,3.5,0.5
		c2.6,0,4.5-0.6,5.8-1.8c1.2-1.2,1.8-3,1.8-5.6c0-0.1,0-0.2,0-0.4c0-0.2,0-0.3,0-0.4h-4.8C184.4,64.5,184.2,65.6,183.8,66.3
		 M179.2,55.7c0-1.5,0.2-2.5,0.6-3.1c0.4-0.6,1-0.9,1.9-0.9c0.9,0,1.6,0.3,2,0.9c0.4,0.6,0.6,1.6,0.6,3.2v0.9h-5
		C179.3,56.4,179.3,56.1,179.2,55.7 M164.8,70.6l5.1-22.3h-5.3l-2.8,17l-3-17h-5.5l5.2,22.3H164.8z M148.8,48.3h-5.1v22.3h5.1V48.3z
		 M148.8,41h-5.1v4.6h5.1V41z M127.8,70.6V56.4c0-1.6,0.2-2.7,0.6-3.3c0.4-0.7,1-1,1.8-1c0.8,0,1.3,0.3,1.7,0.8
		c0.3,0.5,0.5,1.5,0.5,2.8v14.9h5V53.1c0-1.7-0.4-3.1-1.3-4c-0.9-0.9-2.1-1.4-3.7-1.4c-1,0-1.9,0.2-2.7,0.7c-0.8,0.5-1.4,1.2-2,2.1
		v-2.3h-5v22.3H127.8z M97.4,61.4c0,3.7,0.7,6.2,2.1,7.7c1.4,1.5,3.8,2.2,7.2,2.2c1.8,0,3.3-0.3,4.7-0.8c1.3-0.5,2.4-1.3,3.2-2.3
		c0.5-0.7,0.9-1.5,1.1-2.4c0.2-0.9,0.3-2.4,0.3-4.4V41h-5.4v19.9c0,2.3-0.3,3.9-0.8,4.7c-0.5,0.8-1.5,1.2-2.9,1.2
		c-1.4,0-2.4-0.4-3-1.2c-0.6-0.8-0.8-2.4-0.8-4.6V41h-5.5V61.4z"/>
</g>
</svg>
