<?xml version="1.0" encoding="utf-8"?>
<!-- Generator: Adobe Illustrator 25.0.1, SVG Export Plug-In . SVG Version: 6.00 Build 0)  -->
<svg version="1.1" id="Capa_1" xmlns="http://www.w3.org/2000/svg" xmlns:xlink="http://www.w3.org/1999/xlink" x="0px" y="0px"
	 viewBox="0 0 174.3 74.5" style="enable-background:new 0 0 174.3 74.5;" xml:space="preserve">
<style type="text/css">
	.Sombra_x0020_paralela{fill:none;}
	.Resplandor_x0020_externo_x0020_5_x0020_pt_x002E_{fill:none;}
	.Neón_x0020_azul{fill:none;stroke:#8AACDA;stroke-width:7;stroke-linecap:round;stroke-linejoin:round;}
	.Resalte_x0020_cromado{fill:url(#SVGID_1_);stroke:#FFFFFF;stroke-width:0.3629;stroke-miterlimit:1;}
	.A_x0020_todo_x0020_ritmo_GS{fill:#FFDD00;}
	.Alyssa_GS{fill:#A6D0E4;}
	.st0{fill:#3D3935;}
	.st1{fill:#DA291C;}
	.st2{fill:#FFFFFF;}
	.st3{fill:none;stroke:#FFFFFF;stroke-width:0.3595;stroke-miterlimit:3.864;}
	.st4{fill:none;stroke:#FFFFFF;stroke-width:0.3458;stroke-miterlimit:3.864;}
</style>
<linearGradient id="SVGID_1_" gradientUnits="userSpaceOnUse" x1="-232.6572" y1="-203.1589" x2="-232.6572" y2="-204.1589">
	<stop  offset="0" style="stop-color:#656565"/>
	<stop  offset="0.618" style="stop-color:#1B1B1B"/>
	<stop  offset="0.6292" style="stop-color:#545454"/>
	<stop  offset="0.9831" style="stop-color:#3E3E3E"/>
</linearGradient>
<g>
	<rect x="65.2" y="0" class="st0" width="109.2" height="74.5"/>
	<rect y="0" class="st1" width="61.4" height="74.5"/>
	<g>
		<path class="st2" d="M46.6,11.4c0.1-0.2,0.1-0.3,0.1-0.3c0,0-0.1-0.1-0.3-0.2l0-0.3l1.1,0.4l0.2,2.5l1.9-1.8l1.1,0.4l-0.1,0.2
			c-0.3-0.1-0.4-0.1-0.4-0.1c0,0-0.1,0.1-0.2,0.2l-0.8,2c-0.1,0.2-0.1,0.2,0,0.3c0,0,0.1,0.1,0.3,0.2l0,0.3l-1.5-0.5l0.1-0.2
			c0.3,0.1,0.4,0.1,0.4,0.1c0,0,0.1-0.1,0.2-0.3l0.7-1.7l-2,1.9l-0.1-0.1l-0.2-2.6l-0.6,1.5c-0.1,0.2-0.1,0.4-0.1,0.5
			c0,0,0.1,0.1,0.3,0.2l0,0.3l-1.3-0.5l0.1-0.2c0.3,0.1,0.4,0.1,0.4,0c0.1,0,0.1-0.1,0.2-0.4L46.6,11.4z M43.2,10.5L42.8,12
			c-0.1,0.2-0.1,0.4-0.1,0.6c0.1,0.2,0.2,0.4,0.6,0.5c0.4,0.1,0.7,0,0.8-0.1c0.1-0.1,0.2-0.3,0.3-0.6l0.4-1.2c0.1-0.3,0.1-0.4,0-0.4
			c0-0.1-0.1-0.1-0.3-0.2l0-0.3l1.3,0.3l-0.1,0.2c-0.3,0-0.4,0-0.4,0c-0.1,0-0.1,0.1-0.2,0.4l-0.3,1.2c-0.1,0.3-0.2,0.6-0.4,0.8
			c-0.3,0.3-0.8,0.4-1.3,0.2c-0.6-0.1-0.9-0.4-1-0.8c-0.1-0.2,0-0.5,0-0.8l0.4-1.5c0.1-0.2,0-0.3,0-0.3c0,0-0.1-0.1-0.3-0.2l0-0.3
			l1.6,0.4l-0.1,0.2c-0.3,0-0.4,0-0.4,0C43.3,10.3,43.3,10.4,43.2,10.5 M41.4,10.5c0-0.3,0-0.5-0.1-0.6c-0.1-0.1-0.2-0.1-0.5-0.2
			l-0.2,0l-0.5,2.4c0,0.2,0,0.3,0,0.3c0,0,0.1,0.1,0.4,0.1l0,0.3l-1.7-0.3l0-0.2c0.3,0,0.4,0,0.4,0c0,0,0.1-0.1,0.1-0.3l0.5-2.3
			l-0.2,0c-0.3-0.1-0.5,0-0.5,0c-0.1,0-0.2,0.2-0.3,0.4l-0.3,0l0.2-1l3,0.6l-0.2,1L41.4,10.5z M38.1,12.4L35.2,12l0-0.2
			c0.3,0,0.4,0,0.4,0c0,0,0.1-0.1,0.1-0.3l0.3-2.1c0-0.2,0-0.3,0-0.3c0,0-0.1-0.1-0.3-0.1l0-0.2l1.6,0.2l0,0.2c-0.3,0-0.4,0-0.4,0
			c0,0-0.1,0.1-0.1,0.2l-0.3,2.3c0,0,0,0.1,0,0.1l0.2,0l0.2,0c0.5,0.1,0.8,0.1,0.9,0c0.1,0,0.3-0.2,0.5-0.5l0.3,0L38.1,12.4z
			 M32,10.9l1.2-2.4l0.2,0l1.2,2.8c0.1,0.2,0.1,0.3,0.2,0.3c0,0,0.1,0.1,0.2,0.1l0.1,0.2l-1.5-0.1l0-0.2c0.2,0,0.3,0,0.3,0v-0.2
			l-0.1-0.2l-0.2-0.4l-1.2,0l-0.2,0.5c0,0.1,0,0.1,0,0.1c0,0.1,0,0.1,0.1,0.1c0,0,0.1,0.1,0.2,0.1l0.1,0.2l-1.2,0l0-0.2
			c0.2,0,0.3-0.1,0.3-0.1C31.8,11.4,31.9,11.2,32,10.9 M33.6,10.5l-0.4-1.1l-0.5,1L33.6,10.5z M26.6,9.1C26.4,9,26.4,9,26.4,8.9
			c0,0-0.1,0-0.2,0L26,8.7l1,0l2,2.1L29,9.3c0-0.3-0.1-0.4-0.1-0.5c0,0-0.1,0-0.3-0.1l-0.1-0.2l1.4-0.1l0,0.2
			c-0.3,0-0.4,0.1-0.4,0.1c0,0-0.1,0.2,0,0.4l0.2,2.6l-0.2,0L27,9.5l0.1,1.7c0,0.3,0.1,0.4,0.1,0.5c0,0,0.1,0.1,0.3,0.1l0.1,0.2
			L26.3,12l0-0.2c0.3,0,0.4-0.1,0.4-0.1c0,0,0.1-0.2,0-0.4L26.6,9.1z M24.6,9.5c0-0.2-0.1-0.3-0.1-0.3c0,0-0.1,0-0.4,0L24,8.9
			l1.7-0.2l0,0.2c-0.3,0-0.4,0.1-0.4,0.1c0,0-0.1,0.1,0,0.3l0.3,2.1c0,0.2,0.1,0.3,0.1,0.3c0,0,0.2,0,0.4,0l0.1,0.2l-1.7,0.2l0-0.2
			c0.3,0,0.4-0.1,0.4-0.1c0,0,0-0.1,0-0.3L24.6,9.5z M21.6,9.2l0.2-0.1l0.3,1.2l-0.3,0.1c-0.1-0.2-0.3-0.4-0.4-0.5
			c-0.2-0.2-0.5-0.3-0.8-0.2c-0.3,0.1-0.6,0.2-0.7,0.5c-0.2,0.3-0.2,0.7-0.1,1.1c0.1,0.4,0.3,0.7,0.5,0.9c0.3,0.2,0.6,0.3,0.9,0.2
			c0.2,0,0.5-0.2,0.6-0.3c0.1-0.1,0.2-0.2,0.3-0.4l0.3,0.1c-0.1,0.2-0.2,0.4-0.4,0.5c-0.3,0.2-0.6,0.4-0.9,0.5
			c-0.6,0.1-1.1,0-1.5-0.2c-0.4-0.3-0.6-0.6-0.7-1.1c-0.1-0.5,0-0.9,0.2-1.3c0.3-0.4,0.7-0.7,1.2-0.8c0.2,0,0.4-0.1,0.6,0l0.3,0
			c0,0,0.1,0,0.1,0C21.6,9.3,21.6,9.3,21.6,9.2 M16,11.2l0.5,1.5c0.1,0.2,0.2,0.4,0.3,0.5c0.2,0.2,0.4,0.2,0.8,0.1
			c0.4-0.1,0.6-0.3,0.6-0.6c0-0.1,0-0.4-0.1-0.7l-0.4-1.2c-0.1-0.3-0.2-0.4-0.2-0.4c-0.1,0-0.2,0-0.4,0l-0.2-0.2l1.3-0.4l0.1,0.2
			c-0.3,0.1-0.3,0.2-0.4,0.2c0,0.1,0,0.2,0.1,0.4l0.4,1.2c0.1,0.3,0.1,0.6,0.1,0.8c-0.1,0.4-0.4,0.7-1,0.9c-0.6,0.2-1,0.1-1.3-0.2
			c-0.2-0.2-0.3-0.4-0.4-0.7l-0.5-1.4c-0.1-0.2-0.1-0.2-0.1-0.3c0,0-0.1,0-0.3,0l-0.2-0.2l1.6-0.5l0.1,0.2c-0.3,0.1-0.3,0.1-0.4,0.2
			C15.9,10.9,15.9,11,16,11.2 M11.5,12.7c-0.1-0.2-0.1-0.2-0.2-0.2c0,0-0.1,0-0.3,0l-0.2-0.2l1.4-0.5c0.4-0.2,0.9-0.2,1.2-0.2
			c0.7,0,1.2,0.4,1.4,1.1c0.1,0.2,0.1,0.5,0.1,0.7c0,0.3-0.1,0.5-0.2,0.7c-0.1,0.1-0.2,0.3-0.3,0.4c-0.2,0.2-0.5,0.3-0.9,0.5
			l-1.4,0.5L12,15.2c0.2-0.1,0.3-0.2,0.3-0.2c0,0,0-0.1-0.1-0.3L11.5,12.7z M14.1,12.9c-0.2-0.4-0.5-0.7-0.8-0.8
			C13,12,12.6,12,12.2,12.1c-0.1,0-0.2,0.1-0.2,0.1c0,0,0,0,0,0.1l0.9,2.3c0,0.1,0.1,0.1,0.1,0.1c0,0,0.1,0,0.2,0
			c0.4-0.1,0.6-0.3,0.8-0.5C14.3,13.8,14.4,13.4,14.1,12.9"/>
		<path class="st1" d="M49,32.1L49,18H12.4l0,14.1c0,5.8,0.6,10.8,1.5,14.3c2.2,7.9,7.8,14.3,16.8,19c9-4.7,14.6-11.2,16.8-19
			C48.4,43,49,37.9,49,32.1"/>
		<path class="st3" d="M49,32.1L49,18H12.4l0,14.1c0,5.8,0.6,10.8,1.5,14.3c2.2,7.9,7.8,14.3,16.8,19c9-4.7,14.6-11.2,16.8-19
			C48.4,43,49,37.9,49,32.1"/>
		<path class="st4" d="M49,32.1L49,18H12.4l0,14.1c0,5.8,0.6,10.8,1.5,14.3c2.2,7.9,7.8,14.3,16.8,19c9-4.7,14.6-11.2,16.8-19
			C48.4,43,49,37.9,49,32.1z"/>
		<path class="st2" d="M23,32.8v0.3c-0.7,0-1.2,0.2-1.4,0.3c-0.2,0.2-0.3,0.6-0.3,1.2v5.5c0,0.9,0.1,1.6,0.4,2.1
			c0.5,0.9,1.4,1.4,2.8,1.4c1.5,0,2.5-0.5,3-1.4c0.3-0.5,0.4-1.3,0.4-2.4v-4.5c0-0.9-0.1-1.5-0.4-1.8c-0.2-0.2-0.7-0.4-1.4-0.4v-0.3
			h4.2v0.3c-0.7,0.1-1.2,0.2-1.4,0.5c-0.2,0.2-0.3,0.8-0.3,1.7v4.5c0,1.2-0.2,2.1-0.6,2.8c-0.7,1.2-2.1,1.8-4.1,1.8
			c-2,0-3.3-0.6-4-1.8c-0.4-0.6-0.6-1.5-0.6-2.6v-5.4c0-0.6-0.1-1-0.3-1.2c-0.2-0.2-0.7-0.3-1.3-0.3v-0.3H23z M31,44.2v-0.3
			c0.5,0,0.8-0.2,1-0.5c0.2-0.3,0.6-1.1,1.2-2.3l3.8-8.5h0.4l4.6,9.8c0.3,0.7,0.5,1.1,0.7,1.2c0.2,0.2,0.5,0.3,0.9,0.3v0.3H39v-0.3
			c0.5,0,0.9-0.1,1-0.2c0.1-0.1,0.2-0.2,0.2-0.5c0-0.1,0-0.2-0.1-0.4c-0.1-0.2-0.1-0.4-0.3-0.7l-0.8-1.7h-4.8
			c-0.5,1.1-0.8,1.8-0.9,2.1c-0.1,0.3-0.1,0.4-0.1,0.6c0,0.3,0.1,0.5,0.4,0.6c0.2,0.1,0.4,0.1,0.9,0.1v0.3H31z M38.9,39.7L36.8,35
			l-2.1,4.7H38.9z"/>
		<path class="st2" d="M76.2,20.2v5.6c0,2.1,0.9,3,2.2,3c1.4,0,2.3-0.9,2.3-3v-5.6h1.2v5.5c0,2.9-1.5,4.1-3.5,4.1
			c-1.9,0-3.4-1.1-3.4-4v-5.5H76.2z"/>
		<path class="st2" d="M85.1,29.6v-9.4h1.3l3,4.7c0.7,1.1,1.2,2.1,1.7,3l0,0C91,26.8,91,25.6,91,24.2v-3.9h1.1v9.4h-1.2l-3-4.8
			c-0.7-1-1.3-2.1-1.8-3.1l0,0c0.1,1.2,0.1,2.3,0.1,3.9v4H85.1z"/>
	</g>
	<rect x="95.3" y="20.2" class="st2" width="1.2" height="9.4"/>
	<g>
		<path class="st2" d="M101.8,29.6l-3.1-9.4h1.3l1.5,4.6c0.4,1.3,0.7,2.4,1,3.5h0c0.3-1.1,0.7-2.3,1.1-3.5l1.6-4.6h1.3l-3.4,9.4
			H101.8z"/>
	</g>
	<polygon class="st2" points="113.5,25.2 109.9,25.2 109.9,28.6 113.9,28.6 113.9,29.6 108.7,29.6 108.7,20.2 113.7,20.2 
		113.7,21.3 109.9,21.3 109.9,24.2 113.5,24.2 	"/>
	<g>
		<path class="st2" d="M117.8,24.6h1.2c1.3,0,2.1-0.7,2.1-1.8c0-1.2-0.9-1.7-2.2-1.8c-0.6,0-1,0.1-1.2,0.1V24.6z M116.6,20.4
			c0.6-0.1,1.5-0.2,2.3-0.2c1.3,0,2.1,0.2,2.7,0.8c0.5,0.4,0.7,1.1,0.7,1.8c0,1.2-0.8,2.1-1.8,2.4v0c0.7,0.2,1.2,0.9,1.4,1.9
			c0.3,1.3,0.5,2.2,0.7,2.6h-1.3c-0.2-0.3-0.4-1.1-0.6-2.2c-0.3-1.3-0.8-1.8-1.9-1.8h-1.1v4.1h-1.2V20.4z"/>
		<path class="st2" d="M125,28.1c0.5,0.3,1.3,0.6,2.2,0.6c1.2,0,2-0.7,2-1.6c0-0.9-0.5-1.4-1.8-1.9c-1.5-0.5-2.5-1.3-2.5-2.7
			c0-1.5,1.2-2.5,3-2.5c1,0,1.7,0.2,2.1,0.5l-0.3,1c-0.3-0.2-0.9-0.4-1.8-0.4c-1.3,0-1.8,0.8-1.8,1.4c0,0.9,0.6,1.3,1.9,1.8
			c1.6,0.6,2.4,1.4,2.4,2.8c0,1.4-1.1,2.7-3.3,2.7c-0.9,0-1.9-0.3-2.4-0.6L125,28.1z"/>
	</g>
	<rect x="133.2" y="20.2" class="st2" width="1.2" height="9.4"/>
	<g>
		<path class="st2" d="M138.8,28.7c0.3,0.1,0.7,0.1,1.2,0.1c2.6,0,4-1.4,4-4c0-2.2-1.2-3.6-3.8-3.6c-0.6,0-1.1,0.1-1.4,0.1V28.7z
			 M137.6,20.4c0.7-0.1,1.6-0.2,2.6-0.2c1.7,0,3,0.4,3.8,1.2c0.8,0.8,1.3,1.9,1.3,3.4c0,1.5-0.5,2.8-1.3,3.6
			c-0.9,0.9-2.3,1.3-4.1,1.3c-0.9,0-1.6,0-2.2-0.1V20.4z"/>
		<path class="st2" d="M152.4,25.7l-0.9-2.7c-0.2-0.6-0.4-1.2-0.5-1.7h0c-0.1,0.6-0.3,1.1-0.5,1.7l-0.9,2.7H152.4z M149.3,26.7l-1,3
			h-1.2l3.2-9.4h1.5l3.2,9.4h-1.3l-1-3H149.3z"/>
		<path class="st2" d="M158.6,28.7c0.3,0.1,0.8,0.1,1.2,0.1c2.6,0,4-1.4,4-4c0-2.2-1.2-3.6-3.8-3.6c-0.6,0-1.1,0.1-1.4,0.1V28.7z
			 M157.4,20.4c0.7-0.1,1.6-0.2,2.6-0.2c1.7,0,3,0.4,3.8,1.2c0.8,0.8,1.3,1.8,1.3,3.4c0,1.5-0.5,2.8-1.4,3.6
			c-0.9,0.9-2.3,1.3-4.1,1.3c-0.9,0-1.6,0-2.2-0.1V20.4z"/>
		<path class="st2" d="M80.1,38.9l-1.1-3.1c-0.2-0.7-0.4-1.4-0.6-2h0c-0.2,0.7-0.3,1.3-0.6,2l-1.1,3.1H80.1z M76.6,40l-1.1,3.4H74
			l3.7-10.9h1.7l3.7,10.9h-1.5L80.4,40H76.6z"/>
		<path class="st2" d="M86.9,32.6V39c0,2.4,1.1,3.5,2.5,3.5c1.6,0,2.6-1.1,2.6-3.5v-6.4h1.4v6.3c0,3.3-1.8,4.7-4.1,4.7
			c-2.2,0-3.9-1.3-3.9-4.6v-6.4H86.9z"/>
	</g>
	<polygon class="st2" points="99.3,33.8 96,33.8 96,32.6 104,32.6 104,33.8 100.7,33.8 100.7,43.4 99.3,43.4 	"/>
	<g>
		<path class="st2" d="M106.9,38.1c0,2.3,1.3,4.4,3.5,4.4c2.2,0,3.5-2,3.5-4.5c0-2.2-1.1-4.4-3.5-4.4
			C108.1,33.5,106.9,35.7,106.9,38.1 M115.4,37.9c0,3.7-2.3,5.7-5,5.7c-2.9,0-4.9-2.2-4.9-5.5c0-3.4,2.1-5.7,5-5.7
			C113.5,32.4,115.4,34.7,115.4,37.9"/>
		<path class="st2" d="M118.5,43.4V32.6h1.5l3.5,5.5c0.8,1.3,1.4,2.4,2,3.5l0,0c-0.1-1.5-0.2-2.8-0.2-4.5v-4.5h1.3v10.9h-1.4
			l-3.4-5.5c-0.8-1.2-1.5-2.5-2-3.6l0,0c0.1,1.4,0.1,2.7,0.1,4.5v4.6H118.5z"/>
		<path class="st2" d="M131.2,38.1c0,2.3,1.3,4.4,3.5,4.4c2.2,0,3.5-2,3.5-4.5c0-2.2-1.1-4.4-3.5-4.4
			C132.4,33.5,131.2,35.7,131.2,38.1 M139.7,37.9c0,3.7-2.3,5.7-5,5.7c-2.9,0-4.9-2.2-4.9-5.5c0-3.4,2.1-5.7,5-5.7
			C137.7,32.4,139.7,34.7,139.7,37.9"/>
		<path class="st2" d="M151.9,38.7c-0.1-1.5-0.2-3.3-0.2-4.7h0c-0.4,1.3-0.8,2.6-1.4,4.1l-1.9,5.3h-1.1l-1.8-5.2
			c-0.5-1.5-1-2.9-1.3-4.2h0c0,1.4-0.1,3.2-0.2,4.8l-0.3,4.7h-1.3l0.8-10.9h1.8l1.8,5.3c0.5,1.3,0.8,2.5,1.1,3.7h0
			c0.3-1.1,0.7-2.3,1.1-3.7l1.9-5.3h1.8l0.7,10.9h-1.4L151.9,38.7z"/>
		<path class="st2" d="M162.2,38.9l-1.1-3.1c-0.2-0.7-0.4-1.4-0.6-2h0c-0.2,0.6-0.3,1.3-0.5,2l-1.1,3.1H162.2z M158.6,40l-1.1,3.4
			H156l3.7-10.9h1.7l3.7,10.9h-1.5l-1.2-3.4H158.6z"/>
		<path class="st2" d="M75,54.3c0.3,0,0.6,0.1,1,0.1c2.1,0,3.2-1.2,3.2-3.2c0-1.8-1-2.9-3.1-2.9c-0.5,0-0.9,0-1.2,0.1V54.3z
			 M74,47.5c0.6-0.1,1.3-0.2,2.1-0.2c1.4,0,2.4,0.3,3.1,1c0.7,0.6,1.1,1.5,1.1,2.7c0,1.2-0.4,2.3-1.1,3c-0.7,0.7-1.9,1.1-3.4,1.1
			c-0.7,0-1.3,0-1.8-0.1V47.5z"/>
	</g>
	<polygon class="st2" points="91.3,51.5 88.3,51.5 88.3,54.2 91.7,54.2 91.7,55.1 87.4,55.1 87.4,47.4 91.5,47.4 91.5,48.3 
		88.3,48.3 88.3,50.7 91.3,50.7 	"/>
	<g>
		<path class="st2" d="M113,54.8c-0.4,0.2-1.1,0.4-2,0.4c-2.2,0-3.8-1.4-3.8-3.9c0-2.4,1.6-4,4-4c0.9,0,1.5,0.2,1.8,0.3l-0.2,0.8
			c-0.4-0.2-0.9-0.3-1.5-0.3c-1.8,0-3,1.1-3,3.2c0,1.9,1.1,3.1,2.9,3.1c0.6,0,1.2-0.1,1.6-0.3L113,54.8z"/>
	</g>
	<polygon class="st2" points="120.9,47.4 120.9,50.6 124.5,50.6 124.5,47.4 125.5,47.4 125.5,55.1 124.5,55.1 124.5,51.5 
		120.9,51.5 120.9,55.1 119.9,55.1 119.9,47.4 	"/>
	<rect x="134.8" y="47.4" class="st2" width="1" height="7.6"/>
	<polygon class="st2" points="145.8,47.4 146.8,47.4 146.8,54.2 150.1,54.2 150.1,55.1 145.8,55.1 	"/>
	<polygon class="st2" points="162.4,51.5 159.4,51.5 159.4,54.2 162.7,54.2 162.7,55.1 158.4,55.1 158.4,47.4 162.5,47.4 
		162.5,48.3 159.4,48.3 159.4,50.7 162.4,50.7 	"/>
</g>
</svg>
