<?xml version="1.0" standalone="no"?>
<!DOCTYPE svg PUBLIC "-//W3C//DTD SVG 20010904//EN"
 "http://www.w3.org/TR/2001/REC-SVG-20010904/DTD/svg10.dtd">
<svg version="1.0" xmlns="http://www.w3.org/2000/svg"
 width="91.000000pt" height="32.000000pt" viewBox="0 0 91.000000 32.000000"
 preserveAspectRatio="xMidYMid meet">
<metadata>
Created by potrace 1.15, written by Peter Selinger 2001-2017
</metadata>
<g transform="translate(0.000000,32.000000) scale(0.100000,-0.100000)"
fill="#000000" stroke="none">
<path d="M546 161 c-4 -5 -38 -9 -77 -10 -40 0 -73 -2 -75 -4 -4 -3 -7 -64 -5
-99 l1 -26 185 1 c151 2 187 5 195 17 8 12 10 12 16 -3 9 -23 61 -23 67 0 4
17 5 17 6 1 0 -10 7 -18 15 -18 11 0 15 13 15 52 0 75 -5 86 -34 80 -14 -2
-31 1 -39 7 -10 8 -16 9 -21 1 -9 -14 -48 -13 -64 3 -11 10 -13 9 -7 -6 3 -10
6 -21 6 -23 0 -2 6 -4 14 -4 24 0 4 -54 -22 -58 -18 -3 -22 1 -22 26 0 17 6
32 13 35 31 11 -9 21 -74 19 -31 -2 -37 -6 -38 -24 -1 -45 -5 -57 -19 -63 -7
-3 -19 -2 -25 2 -6 4 -2 10 11 14 16 6 22 17 22 39 0 31 -23 42 -34 18 -3 -7
-3 -3 0 10 5 22 0 30 -10 13z"/>
</g>
</svg>
