<?xml version="1.0" encoding="utf-8"?>
<!-- Generator: Adobe Illustrator 25.0.1, SVG Export Plug-In . SVG Version: 6.00 Build 0)  -->
<svg version="1.1" id="Capa_1" xmlns="http://www.w3.org/2000/svg" xmlns:xlink="http://www.w3.org/1999/xlink" x="0px" y="0px"
	 viewBox="0 0 530 420" style="enable-background:new 0 0 530 420;" xml:space="preserve">
<style type="text/css">
	.st0{fill-rule:evenodd;clip-rule:evenodd;fill:#005092;}
	.st1{fill:#005092;}
	.st2{fill:none;stroke:#005092;stroke-width:2.589;stroke-miterlimit:3.864;}
	.st3{fill:none;stroke:#005091;stroke-width:1.953;stroke-miterlimit:3.864;}
	.st4{fill:none;stroke:#005091;stroke-width:1.953;stroke-linecap:round;stroke-miterlimit:3.864;}
	.st5{fill:#005091;}
	.st6{fill-rule:evenodd;clip-rule:evenodd;fill:#005091;}
	.st7{fill:none;stroke:#005091;stroke-width:1.964;stroke-linecap:round;stroke-miterlimit:3.864;}
</style>
<path class="st0" d="M22.9,371.3V399h6.4c2.2,0.1,4-0.2,5.6-0.8c1.6-0.6,2.8-1.5,3.8-2.7c0.9-1.2,1.7-2.4,2.2-3.7
	c0.6-1.3,0.9-2.7,1.1-4.1c0-0.1,0-0.2,0-0.3c0-0.1,0-0.2,0.1-0.3c0-0.1,0-0.2,0-0.3c0-0.1,0-0.2,0-0.3s0-0.2,0-0.3s0-0.2,0.1-0.4
	c0-0.1,0-0.2,0-0.3c0-0.1,0-0.2,0-0.3c0-1.9-0.2-3.6-0.7-5.2c-0.5-1.6-1.2-3.1-2.2-4.5c-1-1.4-2.3-2.4-3.9-3.1c-1.7-0.7-3.7-1-6-1
	L22.9,371.3 M13.1,363.3h17.3c3.6,0.1,6.7,0.7,9.4,1.8c2.7,1.1,5,2.7,6.8,4.8c1.8,2.2,3.2,4.5,4.1,7.1s1.4,5.3,1.4,8.3
	c0,3.1-0.5,6-1.4,8.6c-0.9,2.6-2.3,4.9-4.1,7c-1.8,2-4.2,3.6-7.1,4.6c-2.9,1-6.3,1.5-10.2,1.5H13.1V363.3z"/>
<polyline class="st1" points="87,399 87,407 58.1,407 58.1,363.3 86.6,363.3 86.6,371.3 67.8,371.3 67.8,380.5 85.8,380.5 
	85.8,388.5 67.8,388.5 67.8,399 87,399 "/>
<polyline class="st1" points="136.5,399 136.5,407 106.6,407 106.6,363.3 116.4,363.3 116.4,399 136.5,399 "/>
<path class="st0" d="M164.5,390.7l-6.3-17l-5.8,17H164.5 M163.7,363.3l17.5,43.6h-10.5l-3.2-8.6h-17.6l-2.9,8.6h-10.4l15.8-43.6
	H163.7z"/>
<polyline class="st1" points="224.7,363.3 224.7,371.3 207.5,371.3 207.5,381.1 224.7,381.1 224.7,389 207.5,389 207.5,407 
	197.7,407 197.7,363.3 224.7,363.3 "/>
<path class="st0" d="M240.9,371.3v9.9h5.2c0.7,0.1,1.3,0,1.9-0.1c0.6-0.2,1.2-0.4,1.8-0.8c0.5-0.4,1-0.9,1.2-1.5
	c0.3-0.6,0.4-1.4,0.4-2.4c0-0.8-0.1-1.5-0.4-2.1c-0.2-0.6-0.6-1.1-1.1-1.5c-0.5-0.4-1-0.7-1.7-1c-0.7-0.2-1.5-0.3-2.4-0.3
	L240.9,371.3 M231.1,363.3h17.6c2,0.1,3.8,0.4,5.4,1.1c1.6,0.6,2.9,1.6,4.1,2.9c1.1,1.3,2,2.6,2.5,4.1c0.6,1.5,0.9,3,0.9,4.6
	c0,1.2-0.1,2.3-0.4,3.4c-0.3,1-0.7,2-1.2,2.9c-0.6,0.9-1.3,1.7-2.1,2.4c-0.8,0.7-1.8,1.4-2.9,2c0.4,0.2,0.8,0.5,1.2,0.8
	c0.3,0.3,0.7,0.6,1,1c0.2,0.2,0.3,0.4,0.5,0.6c0.2,0.2,0.3,0.4,0.5,0.6c0.1,0.3,0.2,0.5,0.4,0.7c0.2,0.2,0.3,0.5,0.5,0.7
	c0.4,0.8,0.9,1.7,1.4,2.8c0.5,1.1,1,2.2,1.5,3.5c0.5,1.3,1.1,2.7,1.8,4.3c0.7,1.6,1.4,3.3,2.3,5.2h-10.8c-0.5-0.9-0.9-1.8-1.3-2.7
	s-0.7-1.8-1.1-2.7c-0.3-0.9-0.7-1.8-1-2.6c-0.3-0.9-0.6-1.7-1-2.4c-0.5-1-0.9-2-1.4-2.8c-0.5-0.9-1-1.6-1.5-2.3
	c-0.5-0.6-1.1-1.1-1.7-1.5c-0.6-0.3-1.3-0.5-2.1-0.5l-2.8-0.1V407h-9.8V363.3z"/>
<path class="st0" d="M301.2,385.1c0-2-0.3-3.7-0.9-5.3c-0.6-1.6-1.4-3-2.5-4.2c-1.2-1.2-2.5-2.2-4-2.8c-1.5-0.6-3.2-0.9-5-0.9
	c-1.9,0-3.6,0.3-5.1,0.9c-1.5,0.6-2.8,1.5-4,2.8c-1.2,1.2-2,2.6-2.6,4.2c-0.6,1.6-0.8,3.4-0.8,5.4c0,2,0.3,3.8,0.8,5.4
	c0.6,1.6,1.4,3,2.6,4.3c1.2,1.2,2.5,2.1,4,2.7c1.5,0.6,3.2,0.9,5.1,0.9c1.8,0,3.5-0.3,5-0.9c1.5-0.6,2.8-1.5,4-2.7
	c1.1-1.2,2-2.7,2.5-4.3c0.6-1.6,0.9-3.4,0.9-5.4V385.1 M311.3,385.1c0,2.9-0.5,5.6-1.5,8.2c-1,2.6-2.5,5-4.4,7.3
	c-2,2.3-4.4,4.1-7.1,5.2s-5.9,1.7-9.4,1.7c-3.6,0-6.7-0.6-9.5-1.7c-2.7-1.1-5.1-2.8-7.1-5.1c-2-2.3-3.4-4.7-4.4-7.2
	c-1-2.5-1.5-5.2-1.6-7.9c0,0,0-0.1,0-0.1s0-0.1,0-0.1c0,0,0-0.1,0-0.1c0,0,0-0.1,0-0.1c0-0.3,0-0.5,0-0.8c0-0.3,0-0.5,0.1-0.8
	c0-0.3,0-0.5,0.1-0.8c0-0.3,0.1-0.5,0.1-0.8c0.3-2.4,1-4.7,2.1-6.9c1.1-2.2,2.6-4.3,4.5-6.3c1.9-2,4.1-3.5,6.7-4.5
	c2.6-1,5.6-1.5,8.9-1.5c3.3,0,6.2,0.5,8.8,1.5c2.6,1,4.8,2.5,6.7,4.5c1.9,2,3.4,4,4.5,6.2c1.1,2.2,1.9,4.5,2.2,6.8
	c0,0.3,0.1,0.6,0.1,0.9c0,0.3,0,0.6,0.1,0.8c0,0.1,0,0.3,0,0.4c0,0.1,0,0.3,0.1,0.4c0,0.2,0,0.3,0,0.4s0,0.3,0,0.4V385.1z"/>
<polyline class="st1" points="356.8,363.3 356.8,407 348.6,407 326.9,379 326.9,407 317.1,407 317.1,363.3 326.1,363.3 347.1,390 
	347.1,363.3 356.8,363.3 "/>
<polyline class="st1" points="399.8,363.3 399.8,371.3 385.6,371.3 385.6,407 375.8,407 375.8,371.3 361.5,371.3 361.5,363.3 
	399.8,363.3 "/>
<polyline class="st1" points="433.5,399 433.5,407 404.5,407 404.5,363.3 433.1,363.3 433.1,371.3 414.3,371.3 414.3,380.5 
	432.2,380.5 432.2,388.5 414.3,388.5 414.3,399 433.5,399 "/>
<path class="st0" d="M449.5,371.3v9.9h5.2c0.7,0.1,1.3,0,1.9-0.1c0.6-0.2,1.2-0.4,1.8-0.8c0.5-0.4,1-0.9,1.2-1.5
	c0.3-0.6,0.4-1.4,0.4-2.4c0-0.8-0.1-1.5-0.4-2.1c-0.3-0.6-0.6-1.1-1.1-1.5c-0.5-0.4-1-0.7-1.7-1s-1.5-0.3-2.4-0.3L449.5,371.3
	 M439.7,363.3h17.6c2,0.1,3.8,0.4,5.4,1.1c1.6,0.6,2.9,1.6,4.1,2.9c1.1,1.3,2,2.6,2.5,4.1c0.6,1.5,0.9,3,0.9,4.6
	c0,1.2-0.1,2.3-0.4,3.4c-0.3,1-0.7,2-1.2,2.9c-0.6,0.9-1.3,1.7-2.1,2.4c-0.8,0.7-1.8,1.4-2.9,2c0.4,0.2,0.8,0.5,1.2,0.8
	c0.3,0.3,0.7,0.6,1,1c0.2,0.2,0.3,0.4,0.5,0.6c0.2,0.2,0.3,0.4,0.5,0.6c0.1,0.3,0.2,0.5,0.4,0.7c0.2,0.2,0.3,0.5,0.5,0.7
	c0.4,0.8,0.9,1.7,1.4,2.8c0.5,1.1,1,2.2,1.5,3.5c0.5,1.3,1.1,2.7,1.8,4.3c0.7,1.6,1.4,3.3,2.3,5.2h-10.8c-0.5-0.9-0.9-1.8-1.3-2.7
	s-0.7-1.8-1.1-2.7c-0.3-0.9-0.7-1.8-1-2.6c-0.3-0.9-0.6-1.7-1-2.4c-0.5-1-0.9-2-1.4-2.8c-0.5-0.9-1-1.6-1.5-2.3
	c-0.5-0.6-1.1-1.1-1.7-1.5c-0.6-0.3-1.3-0.5-2.1-0.5l-2.8-0.1V407h-9.8V363.3z"/>
<path class="st0" d="M501.1,390.7l-6.3-17l-5.8,17H501.1 M500.3,363.3l17.5,43.6h-10.5l-3.2-8.6h-17.6l-2.9,8.6h-10.4l15.8-43.6
	H500.3z"/>
<path class="st1" d="M37.6,318.5v16.8c0,1.7-0.3,3.3-0.8,4.7c-0.5,1.4-1.3,2.6-2.3,3.6c-1,1-2.3,1.8-3.8,2.3
	c-1.5,0.5-3.3,0.8-5.4,0.8c-1.5,0-2.9-0.2-4.2-0.6c-1.3-0.4-2.6-1.1-3.8-1.9c-1.2-0.9-2.1-2-2.7-3.4c-0.6-1.4-0.9-3-0.9-4.9v-17.3h4
	v16.4c0,0.8,0,1.6,0.1,2.2c0.1,0.6,0.2,1.1,0.3,1.5c0.1,0.4,0.3,0.8,0.5,1.1c0.2,0.4,0.5,0.7,0.8,1c0.4,0.4,0.8,0.8,1.2,1
	c0.4,0.3,0.9,0.5,1.4,0.8c0.5,0.2,1,0.3,1.6,0.4c0.6,0.1,1.1,0.1,1.7,0.1c0.8,0,1.5-0.1,2.1-0.2c0.7-0.1,1.2-0.3,1.8-0.5
	c0.5-0.2,1-0.5,1.5-0.7c0.4-0.3,0.8-0.5,1.1-0.9c0.4-0.4,0.6-0.7,0.9-1.2c0.2-0.4,0.4-0.9,0.5-1.4c0.1-0.5,0.2-1.1,0.3-1.6
	c0.1-0.6,0.1-1.2,0.1-1.8v-16.2H37.6z"/>
<path class="st2" d="M37.6,318.5v16.8c0,1.7-0.3,3.3-0.8,4.7c-0.5,1.4-1.3,2.6-2.3,3.6c-1,1-2.3,1.8-3.8,2.3
	c-1.5,0.5-3.3,0.8-5.4,0.8c-1.5,0-2.9-0.2-4.2-0.6c-1.3-0.4-2.6-1.1-3.8-1.9c-1.2-0.9-2.1-2-2.7-3.4c-0.6-1.4-0.9-3-0.9-4.9v-17.3h4
	v16.4c0,0.8,0,1.6,0.1,2.2c0.1,0.6,0.2,1.1,0.3,1.5c0.1,0.4,0.3,0.8,0.5,1.1c0.2,0.4,0.5,0.7,0.8,1c0.4,0.4,0.8,0.8,1.2,1
	c0.4,0.3,0.9,0.5,1.4,0.8c0.5,0.2,1,0.3,1.6,0.4c0.6,0.1,1.1,0.1,1.7,0.1c0.8,0,1.5-0.1,2.1-0.2c0.7-0.1,1.2-0.3,1.8-0.5
	c0.5-0.2,1-0.5,1.5-0.7c0.4-0.3,0.8-0.5,1.1-0.9c0.4-0.4,0.6-0.7,0.9-1.2c0.2-0.4,0.4-0.9,0.5-1.4c0.1-0.5,0.2-1.1,0.3-1.6
	c0.1-0.6,0.1-1.2,0.1-1.8v-16.2H37.6z"/>
<polygon class="st1" points="93.8,318.5 93.8,346.2 90.4,346.2 71.8,324.8 71.8,346.2 68.1,346.2 68.1,318.5 71.3,318.5 90.1,339.9 
	90.1,318.5 "/>
<polygon class="st2" points="93.8,318.5 93.8,346.2 90.4,346.2 71.8,324.8 71.8,346.2 68.1,346.2 68.1,318.5 71.3,318.5 90.1,339.9 
	90.1,318.5 "/>
<path class="st1" d="M128.9,318.5 M124.9,318.5h4v27.7h-4V318.5z"/>
<path class="st2" d="M128.9,318.5 M124.9,318.5h4v27.7h-4V318.5z"/>
<polygon class="st1" points="181.6,318.5 169.8,346.4 169,346.4 157,318.5 161,318.5 169.3,337.9 177.6,318.5 "/>
<polygon class="st2" points="181.6,318.5 169.8,346.4 169,346.4 157,318.5 161,318.5 169.3,337.9 177.6,318.5 "/>
<polygon class="st1" points="225.4,318.5 225.4,322 213.6,322 213.6,330.4 225,330.4 225,334 213.6,334 213.6,342.6 225.8,342.6 
	225.8,346.2 209.6,346.2 209.6,318.5 "/>
<polygon class="st2" points="225.4,318.5 225.4,322 213.6,322 213.6,330.4 225,330.4 225,334 213.6,334 213.6,342.6 225.8,342.6 
	225.8,346.2 209.6,346.2 209.6,318.5 "/>
<path class="st0" d="M259,321.9v8.7h2.6c1.1,0.1,1.9,0,2.7-0.3c0.7-0.2,1.3-0.6,1.6-1c0.4-0.5,0.7-0.9,0.9-1.5
	c0.2-0.5,0.3-1.1,0.3-1.6c0,0,0,0,0,0c0,0,0,0,0,0c0-0.6-0.1-1.2-0.4-1.7c-0.2-0.5-0.5-0.9-0.9-1.3c-0.4-0.4-1-0.7-1.7-0.9
	c-0.7-0.2-1.5-0.3-2.5-0.3L259,321.9 M255.1,318.5h7c1.4,0.1,2.7,0.3,3.8,0.6c1.1,0.3,2.1,0.9,2.9,1.6c0.8,0.7,1.4,1.5,1.8,2.5
	c0.4,1,0.6,2,0.6,3.2c0,0.8-0.1,1.6-0.3,2.3c-0.2,0.7-0.5,1.3-0.9,1.9c-0.4,0.6-0.9,1.1-1.5,1.5c-0.6,0.4-1.2,0.8-2,1.1
	c0.4,0.3,0.7,0.6,1.1,0.9c0.4,0.3,0.7,0.6,1,1c0.3,0.4,0.6,0.7,1,1.1c0.3,0.4,0.6,0.8,0.9,1.3c0.2,0.3,0.3,0.5,0.5,0.8
	c0.2,0.3,0.4,0.6,0.5,0.9c0.2,0.3,0.4,0.6,0.6,0.9c0.2,0.3,0.4,0.6,0.6,0.9c0.1,0.1,0.1,0.2,0.1,0.2s0.1,0.1,0.1,0.2
	c0,0.1,0.1,0.1,0.1,0.2c0,0.1,0.1,0.1,0.1,0.2c0.1,0.1,0.2,0.2,0.2,0.3c0.1,0.1,0.2,0.2,0.2,0.3c0,0,0,0,0,0.1s0,0,0,0
	c0,0,0,0,0,0.1c0,0,0,0,0,0.1c0,0,0.1,0.1,0.1,0.1c0,0,0.1,0.1,0.1,0.1c0.2,0.2,0.3,0.5,0.5,0.8c0.2,0.3,0.4,0.5,0.6,0.8
	c0.2,0.3,0.4,0.6,0.7,0.9c0.2,0.3,0.5,0.7,0.8,1.1h-4.8l-3.7-5.7c-0.8-1.2-1.5-2.1-2.1-2.9c-0.6-0.8-1.2-1.4-1.6-1.8
	c-0.5-0.4-1-0.7-1.4-1c-0.4-0.2-0.9-0.4-1.3-0.4c0,0-0.1,0-0.1,0s-0.1,0-0.1,0c0,0-0.1,0-0.1,0c0,0-0.1,0-0.1,0c0,0-0.1,0-0.1,0
	s-0.1,0-0.1,0c-0.1,0-0.1,0-0.1,0s-0.1,0-0.1,0l-1.7-0.1v12h-4V318.5z"/>
<path class="st2" d="M255.1,318.5h7c1.4,0.1,2.7,0.3,3.8,0.6c1.1,0.3,2.1,0.9,2.9,1.6c0.8,0.7,1.4,1.5,1.8,2.5c0.4,1,0.6,2,0.6,3.2
	c0,0.8-0.1,1.6-0.3,2.3c-0.2,0.7-0.5,1.3-0.9,1.9c-0.4,0.6-0.9,1.1-1.5,1.5c-0.6,0.4-1.2,0.8-2,1.1c0.4,0.3,0.7,0.6,1.1,0.9
	c0.4,0.3,0.7,0.6,1,1c0.3,0.4,0.6,0.7,1,1.1c0.3,0.4,0.6,0.8,0.9,1.3c0.2,0.3,0.3,0.5,0.5,0.8c0.2,0.3,0.4,0.6,0.5,0.9
	c0.2,0.3,0.4,0.6,0.6,0.9c0.2,0.3,0.4,0.6,0.6,0.9c0.1,0.1,0.1,0.2,0.1,0.2s0.1,0.1,0.1,0.2c0,0.1,0.1,0.1,0.1,0.2
	c0,0.1,0.1,0.1,0.1,0.2c0.1,0.1,0.2,0.2,0.2,0.3c0.1,0.1,0.2,0.2,0.2,0.3c0,0,0,0,0,0.1s0,0,0,0c0,0,0,0,0,0.1c0,0,0,0,0,0.1
	c0,0,0.1,0.1,0.1,0.1c0,0,0.1,0.1,0.1,0.1c0.2,0.2,0.3,0.5,0.5,0.8c0.2,0.3,0.4,0.5,0.6,0.8c0.2,0.3,0.4,0.6,0.7,0.9
	c0.2,0.3,0.5,0.7,0.8,1.1h-4.8l-3.7-5.7c-0.8-1.2-1.5-2.1-2.1-2.9c-0.6-0.8-1.2-1.4-1.6-1.8c-0.5-0.4-1-0.7-1.4-1
	c-0.4-0.2-0.9-0.4-1.3-0.4c0,0-0.1,0-0.1,0s-0.1,0-0.1,0c0,0-0.1,0-0.1,0c0,0-0.1,0-0.1,0c0,0-0.1,0-0.1,0s-0.1,0-0.1,0
	c-0.1,0-0.1,0-0.1,0s-0.1,0-0.1,0l-1.7-0.1v12h-4V318.5z"/>
<path class="st2" d="M259,321.9v8.7h2.6c1.1,0.1,1.9,0,2.7-0.3c0.7-0.2,1.3-0.6,1.6-1c0.4-0.5,0.7-0.9,0.9-1.5
	c0.2-0.5,0.3-1.1,0.3-1.6c0,0,0,0,0,0c0,0,0,0,0,0c0-0.7-0.1-1.2-0.4-1.7c-0.2-0.5-0.5-0.9-0.9-1.3c-0.4-0.4-1-0.7-1.7-0.9
	c-0.7-0.2-1.5-0.3-2.5-0.3L259,321.9z"/>
<path class="st0" d="M317.7,320.1v4.5c-0.6-0.5-1.2-1-1.7-1.3c-0.6-0.4-1.1-0.7-1.7-0.9c-0.6-0.2-1.1-0.4-1.6-0.5
	c-0.5-0.1-1-0.1-1.5-0.1c-0.7,0-1.2,0.1-1.8,0.2c-0.5,0.2-1,0.4-1.4,0.7c-0.4,0.3-0.7,0.6-0.9,1c-0.2,0.4-0.3,0.8-0.3,1.3
	c0,0.5,0.1,1,0.3,1.4s0.5,0.8,0.8,1.2c0.4,0.4,0.8,0.7,1.3,1c0.5,0.3,1,0.6,1.5,0.9c0.2,0.1,0.3,0.2,0.5,0.3
	c0.2,0.1,0.3,0.2,0.5,0.3c0.2,0.1,0.4,0.2,0.6,0.3s0.4,0.2,0.6,0.3c0.7,0.4,1.4,0.9,2.1,1.4c0.7,0.5,1.3,1.1,2,1.7
	c0.6,0.6,1.1,1.4,1.4,2.2c0.3,0.9,0.5,1.8,0.5,2.9c0,1.1-0.2,2.1-0.5,3c-0.4,0.9-0.9,1.7-1.6,2.4c-0.7,0.7-1.6,1.2-2.5,1.6
	c-0.9,0.3-2,0.5-3.1,0.5c-0.8,0-1.5,0-2.2-0.1c-0.7-0.1-1.3-0.2-2-0.4c-0.6-0.2-1.2-0.5-1.9-0.8c-0.6-0.3-1.2-0.7-1.8-1.1V339
	c0.5,0.7,1.1,1.3,1.6,1.8s1.2,0.9,1.8,1.3c0.6,0.4,1.3,0.6,1.9,0.8c0.7,0.2,1.3,0.2,2,0.2c0.6,0,1.2-0.1,1.7-0.2
	c0.5-0.1,0.9-0.3,1.3-0.6c0.4-0.3,0.7-0.6,0.9-0.9c0.2-0.3,0.4-0.6,0.5-1c0-0.1,0-0.1,0-0.2c0-0.1,0-0.1,0.1-0.2c0,0,0-0.1,0-0.1
	c0,0,0-0.1,0-0.1c0,0,0-0.1,0-0.1c0,0,0-0.1,0-0.1c0-0.6-0.1-1.2-0.3-1.7c-0.2-0.5-0.6-1-1-1.4c-0.5-0.4-1-0.8-1.5-1.2
	c-0.5-0.4-1.1-0.8-1.7-1.2c-0.1-0.1-0.2-0.1-0.3-0.2c-0.1-0.1-0.3-0.1-0.4-0.2c-0.1-0.1-0.1-0.1-0.2-0.1c-0.1,0-0.1-0.1-0.2-0.1
	c-0.1,0-0.1-0.1-0.2-0.1c-0.1,0-0.1-0.1-0.2-0.1c-0.8-0.5-1.5-0.9-2.2-1.5c-0.7-0.5-1.3-1.1-2-1.6s-1.1-1.2-1.4-2
	c-0.3-0.8-0.5-1.6-0.5-2.6c0-1.1,0.2-2.1,0.6-3c0.4-0.9,0.9-1.7,1.7-2.4c0.8-0.7,1.7-1.2,2.7-1.5c1-0.3,2.2-0.5,3.4-0.5
	c0.3,0,0.5,0,0.8,0c0.3,0,0.5,0,0.8,0.1c0.2,0,0.5,0.1,0.8,0.1c0.3,0.1,0.5,0.1,0.8,0.2c0.5,0.2,1.1,0.4,1.6,0.6
	C316.8,319.5,317.3,319.8,317.7,320.1L317.7,320.1z"/>
<path class="st2" d="M317.7,320.1v4.5c-0.6-0.5-1.2-1-1.7-1.3c-0.6-0.4-1.1-0.7-1.7-0.9c-0.6-0.2-1.1-0.4-1.6-0.5
	c-0.5-0.1-1-0.1-1.5-0.1c-0.7,0-1.2,0.1-1.8,0.2c-0.5,0.2-1,0.4-1.4,0.7c-0.4,0.3-0.7,0.6-0.9,1c-0.2,0.4-0.3,0.8-0.3,1.3
	c0,0.5,0.1,1,0.3,1.4s0.5,0.8,0.8,1.2c0.4,0.4,0.8,0.7,1.3,1c0.5,0.3,1,0.6,1.5,0.9c0.2,0.1,0.3,0.2,0.5,0.3
	c0.2,0.1,0.3,0.2,0.5,0.3c0.2,0.1,0.4,0.2,0.6,0.3s0.4,0.2,0.6,0.3c0.7,0.4,1.4,0.9,2.1,1.4c0.7,0.5,1.3,1.1,2,1.7
	c0.6,0.6,1.1,1.4,1.4,2.2c0.3,0.9,0.5,1.8,0.5,2.9c0,1.1-0.2,2.1-0.5,3c-0.4,0.9-0.9,1.7-1.6,2.4c-0.7,0.7-1.6,1.2-2.5,1.6
	c-0.9,0.3-2,0.5-3.1,0.5c-0.8,0-1.5,0-2.2-0.1c-0.7-0.1-1.3-0.2-2-0.4c-0.6-0.2-1.2-0.5-1.9-0.8c-0.6-0.3-1.2-0.7-1.8-1.1V339
	c0.5,0.7,1.1,1.3,1.6,1.8s1.2,0.9,1.8,1.3c0.6,0.4,1.3,0.6,1.9,0.8c0.7,0.2,1.3,0.2,2,0.2c0.6,0,1.2-0.1,1.7-0.2
	c0.5-0.1,0.9-0.3,1.3-0.6c0.4-0.3,0.7-0.6,0.9-0.9c0.2-0.3,0.4-0.6,0.5-1c0-0.1,0-0.1,0-0.2c0-0.1,0-0.1,0.1-0.2c0,0,0-0.1,0-0.1
	c0,0,0-0.1,0-0.1c0,0,0-0.1,0-0.1c0,0,0-0.1,0-0.1c0-0.6-0.1-1.2-0.3-1.7c-0.2-0.5-0.6-1-1-1.4c-0.5-0.4-1-0.8-1.5-1.2
	c-0.5-0.4-1.1-0.8-1.7-1.2c-0.1-0.1-0.2-0.1-0.3-0.2c-0.1-0.1-0.3-0.1-0.4-0.2c-0.1-0.1-0.1-0.1-0.2-0.1c-0.1,0-0.1-0.1-0.2-0.1
	c-0.1,0-0.1-0.1-0.2-0.1c-0.1,0-0.1-0.1-0.2-0.1c-0.8-0.5-1.5-0.9-2.2-1.5c-0.7-0.5-1.3-1.1-2-1.6s-1.1-1.2-1.4-2
	c-0.3-0.8-0.5-1.6-0.5-2.6c0-1.1,0.2-2.1,0.6-3c0.4-0.9,0.9-1.7,1.7-2.4c0.8-0.7,1.7-1.2,2.7-1.5c1-0.3,2.2-0.5,3.4-0.5
	c0.3,0,0.5,0,0.8,0c0.3,0,0.5,0,0.8,0.1c0.2,0,0.5,0.1,0.8,0.1c0.3,0.1,0.5,0.1,0.8,0.2c0.5,0.2,1.1,0.4,1.6,0.6
	C316.8,319.5,317.3,319.8,317.7,320.1L317.7,320.1z"/>
<path class="st1" d="M352.3,318.5 M348.3,318.5h4v27.7h-4V318.5z"/>
<path class="st2" d="M352.3,318.5 M348.3,318.5h4v27.7h-4V318.5z"/>
<path class="st0" d="M387.5,322v20.6h6.3c1.5,0.1,2.8-0.1,4-0.4c1.1-0.3,2.1-0.8,2.9-1.4c0.8-0.6,1.5-1.3,2-2c0.6-0.7,1-1.4,1.3-2.2
	c0.1-0.2,0.2-0.4,0.2-0.6c0.1-0.2,0.1-0.4,0.2-0.6c0.1-0.2,0.1-0.3,0.2-0.5c0.1-0.2,0.1-0.4,0.1-0.6c0.1-0.4,0.1-0.7,0.1-1.1
	c0-0.3,0.1-0.6,0.1-0.9c0-1.4-0.2-2.7-0.7-3.9c-0.5-1.2-1.2-2.3-2.1-3.3c-0.9-1-2.1-1.8-3.5-2.3c-1.4-0.5-3.1-0.8-5-0.8L387.5,322
	 M383.5,346.2v-27.7h10.8c2.3,0.1,4.4,0.4,6.1,1c1.7,0.6,3.2,1.6,4.4,2.8c1.2,1.2,2.1,2.6,2.8,3.9c0.7,1.4,1.1,2.8,1.3,4.3
	c0,0.1,0,0.2,0,0.2c0,0.1,0,0.1,0,0.2c0,0.1,0,0.2,0,0.2c0,0.1,0,0.2,0,0.2c0,0.1,0,0.2,0,0.2c0,0.1,0,0.1,0,0.2c0,0.1,0,0.2,0,0.2
	c0,0.1,0,0.2,0,0.2c0,1.8-0.3,3.5-1,5.1c-0.7,1.6-1.6,3.1-2.9,4.5c-1.3,1.4-2.9,2.5-4.7,3.1c-1.8,0.7-3.8,1-6.1,1H383.5z"/>
<path class="st2" d="M383.5,346.2v-27.7h10.8c2.3,0.1,4.4,0.4,6.1,1c1.7,0.6,3.2,1.6,4.4,2.8c1.2,1.2,2.1,2.6,2.8,3.9
	c0.7,1.4,1.1,2.8,1.3,4.3c0,0.1,0,0.2,0,0.2c0,0.1,0,0.1,0,0.2c0,0.1,0,0.2,0,0.2c0,0.1,0,0.2,0,0.2c0,0.1,0,0.2,0,0.2
	c0,0.1,0,0.1,0,0.2c0,0.1,0,0.2,0,0.2c0,0.1,0,0.2,0,0.2c0,1.8-0.3,3.5-1,5.1c-0.7,1.6-1.6,3.1-2.9,4.5c-1.3,1.4-2.9,2.5-4.7,3.1
	c-1.8,0.7-3.8,1-6.1,1H383.5z"/>
<path class="st2" d="M387.5,322v20.6h6.3c1.5,0.1,2.8-0.1,4-0.4c1.1-0.3,2.1-0.8,2.9-1.4c0.8-0.6,1.5-1.3,2-2c0.6-0.7,1-1.4,1.3-2.2
	c0.1-0.2,0.2-0.4,0.2-0.6s0.1-0.4,0.2-0.6c0.1-0.2,0.1-0.3,0.2-0.5c0.1-0.2,0.1-0.4,0.1-0.6c0.1-0.4,0.1-0.7,0.1-1.1
	c0-0.3,0.1-0.6,0.1-0.9c0-1.4-0.2-2.7-0.7-3.9c-0.5-1.2-1.2-2.3-2.1-3.3c-0.9-1-2.1-1.8-3.5-2.3c-1.4-0.5-3.1-0.8-5-0.8L387.5,322z"
	/>
<path class="st0" d="M447.2,324.4l-4.1,10h8.6L447.2,324.4 M448.7,318.3l12.4,27.9H457l-3.7-8.2h-11.8l-3.5,8.2H434l11.9-27.9H448.7
	z"/>
<polygon class="st2" points="448.7,318.3 461.1,346.2 457,346.2 453.3,338 441.5,338 438,346.2 434,346.2 445.9,318.3 "/>
<polygon class="st2" points="447.2,324.4 443.1,334.4 451.7,334.4 "/>
<path class="st0" d="M493.2,322v20.6h6.3c1.5,0.1,2.8-0.1,4-0.4c1.1-0.3,2.1-0.8,2.9-1.4c0.8-0.6,1.5-1.3,2-2c0.6-0.7,1-1.4,1.3-2.2
	c0.1-0.2,0.2-0.4,0.2-0.6c0.1-0.2,0.1-0.4,0.2-0.6c0.1-0.2,0.1-0.3,0.2-0.5c0.1-0.2,0.1-0.4,0.1-0.6c0.1-0.4,0.1-0.7,0.1-1.1
	c0-0.3,0.1-0.6,0.1-0.9c0-1.4-0.2-2.7-0.7-3.9c-0.5-1.2-1.2-2.3-2.1-3.3c-0.9-1-2.1-1.8-3.5-2.3c-1.4-0.5-3.1-0.8-5-0.8L493.2,322
	 M489.2,346.2v-27.7H500c2.3,0.1,4.4,0.4,6.1,1c1.7,0.6,3.2,1.6,4.4,2.8c1.2,1.2,2.1,2.6,2.8,3.9c0.7,1.4,1.1,2.8,1.3,4.3
	c0,0.1,0,0.2,0,0.2c0,0.1,0,0.1,0,0.2c0,0.1,0,0.2,0,0.2c0,0.1,0,0.2,0,0.2c0,0.1,0,0.2,0,0.2c0,0.1,0,0.1,0,0.2c0,0.1,0,0.2,0,0.2
	c0,0.1,0,0.2,0,0.2c0,1.8-0.3,3.5-1,5.1c-0.7,1.6-1.6,3.1-2.9,4.5c-1.3,1.4-2.9,2.5-4.7,3.1c-1.8,0.7-3.8,1-6.1,1H489.2z"/>
<path class="st2" d="M489.2,346.2v-27.7H500c2.3,0.1,4.4,0.4,6.1,1c1.7,0.6,3.2,1.6,4.4,2.8c1.2,1.2,2.1,2.6,2.8,3.9
	c0.7,1.4,1.1,2.8,1.3,4.3c0,0.1,0,0.2,0,0.2c0,0.1,0,0.1,0,0.2c0,0.1,0,0.2,0,0.2c0,0.1,0,0.2,0,0.2c0,0.1,0,0.2,0,0.2
	c0,0.1,0,0.1,0,0.2c0,0.1,0,0.2,0,0.2c0,0.1,0,0.2,0,0.2c0,1.8-0.3,3.5-1,5.1c-0.7,1.6-1.6,3.1-2.9,4.5c-1.3,1.4-2.9,2.5-4.7,3.1
	c-1.8,0.7-3.8,1-6.1,1H489.2z"/>
<path class="st2" d="M493.2,322v20.6h6.3c1.5,0.1,2.8-0.1,4-0.4c1.1-0.3,2.1-0.8,2.9-1.4c0.8-0.6,1.5-1.3,2-2c0.6-0.7,1-1.4,1.3-2.2
	c0.1-0.2,0.2-0.4,0.2-0.6s0.1-0.4,0.2-0.6c0.1-0.2,0.1-0.3,0.2-0.5c0.1-0.2,0.1-0.4,0.1-0.6c0.1-0.4,0.1-0.7,0.1-1.1
	c0-0.3,0.1-0.6,0.1-0.9c0-1.4-0.2-2.7-0.7-3.9c-0.5-1.2-1.2-2.3-2.1-3.3c-0.9-1-2.1-1.8-3.5-2.3c-1.4-0.5-3.1-0.8-5-0.8L493.2,322z"
	/>
<path class="st3" d="M406.5,215.5c0,0-4.9,3.1-6.5,5"/>
<line class="st3" x1="369.1" y1="205.9" x2="375" y2="212.3"/>
<line class="st4" x1="163" y1="207.4" x2="158.3" y2="212.6"/>
<ellipse class="st3" cx="266" cy="125.6" rx="112.2" ry="112.2"/>
<path class="st5" d="M160.7,133.5l0.1-2.6l7.1,0.2c1.1,0,1.9,0,2.2,0c0.5-0.1,1-0.3,1.3-0.8c0.3-0.4,0.5-1,0.5-1.7
	c0-0.7-0.1-1.3-0.4-1.7c-0.3-0.4-0.7-0.6-1.1-0.7c-0.4-0.1-1.2-0.2-2.2-0.2l-7.2-0.3l0.1-2.6l6.9,0.2c1.6,0.1,2.7,0.2,3.3,0.3
	c0.6,0.2,1.2,0.4,1.6,0.8c0.4,0.4,0.8,0.9,1,1.6c0.2,0.6,0.3,1.5,0.3,2.5c0,1.2-0.2,2.2-0.5,2.8c-0.3,0.6-0.7,1.1-1.2,1.5
	c-0.5,0.4-1,0.6-1.5,0.7c-0.8,0.1-1.9,0.2-3.3,0.1L160.7,133.5"/>
<polyline class="st5" points="174.4,120.2 161.5,118.1 161.9,115.6 171.4,111.7 162.8,110.3 163.2,107.9 176,109.9 175.6,112.5 
	166.3,116.4 174.8,117.8 174.4,120.2 "/>
<polyline class="st5" points="176.9,106.8 164.2,103.6 164.9,101.1 177.5,104.2 176.9,106.8 "/>
<polyline class="st5" points="179.5,98.1 165.6,98 166.6,95.4 176.8,95.6 168.8,89.3 169.8,86.6 180.5,95.4 179.5,98.1 "/>
<polyline class="st5" points="182.9,89.4 171.1,83.7 175.4,75 177.4,75.9 174.3,82.3 176.9,83.5 179.7,77.7 181.7,78.6 178.9,84.5 
	182,86 185.2,79.5 187.2,80.5 182.9,89.4 "/>
<path class="st6" d="M184.2,71.5l1.1-1.6c0.7-1,1.1-1.7,1.2-2c0.1-0.3,0.1-0.6,0-0.9c-0.1-0.3-0.3-0.6-0.6-0.8
	c-0.4-0.3-0.7-0.4-1.1-0.3c-0.4,0-0.7,0.2-1,0.5c-0.1,0.2-0.5,0.7-1.1,1.5l-1.2,1.7L184.2,71.5 M188.9,78l-10.7-7.5l3.2-4.5
	c0.8-1.1,1.5-1.9,2-2.3c0.6-0.4,1.2-0.6,1.9-0.5c0.7,0,1.4,0.3,2,0.7c0.8,0.6,1.3,1.3,1.5,2.1c0.2,0.8,0,1.8-0.5,2.8
	c0.6-0.3,1.2-0.4,1.7-0.5c0.5-0.1,1.4-0.1,2.6,0l3,0.2l-1.8,2.6l-3.4-0.1c-1.2,0-2,0-2.4,0c-0.4,0.1-0.7,0.2-0.9,0.3s-0.5,0.5-0.9,1
	l-0.3,0.4l4.5,3.1L188.9,78z"/>
<path class="st5" d="M193.4,64.4l1.6-2.1c0.7,0.5,1.4,0.7,2,0.6c0.6-0.1,1.2-0.4,1.7-1c0.6-0.6,0.9-1.2,0.9-1.8c0-0.6-0.1-1-0.5-1.3
	c-0.2-0.2-0.5-0.3-0.8-0.3c-0.3,0-0.6,0.1-1.1,0.3c-0.3,0.2-0.9,0.5-1.9,1.1c-1.2,0.8-2.2,1.2-3,1.3c-1.1,0.1-2-0.2-2.7-0.9
	c-0.5-0.5-0.8-1-1-1.7c-0.2-0.7-0.1-1.4,0.1-2.1c0.3-0.7,0.7-1.5,1.4-2.2c1.1-1.2,2.2-1.8,3.3-2c1.1-0.1,2.1,0.2,3,1l-1.7,2
	c-0.6-0.4-1.1-0.5-1.6-0.5c-0.5,0.1-1,0.4-1.5,0.9c-0.5,0.6-0.8,1.1-0.9,1.6c0,0.3,0.1,0.6,0.3,0.9c0.2,0.2,0.5,0.3,0.8,0.3
	c0.4-0.1,1.2-0.4,2.3-1.2c1.1-0.7,2-1.2,2.6-1.4c0.7-0.2,1.3-0.3,2-0.1c0.6,0.1,1.3,0.5,1.9,1c0.5,0.5,0.9,1.1,1.1,1.9
	c0.2,0.7,0.1,1.5-0.1,2.3c-0.3,0.8-0.8,1.6-1.6,2.4c-1.1,1.2-2.3,1.9-3.4,2C195.8,65.6,194.6,65.2,193.4,64.4"/>
<polyline class="st5" points="205.7,57.7 197,48 198.9,46.2 207.7,55.9 205.7,57.7 "/>
<path class="st6" d="M205.7,43.6l5.1,7l1.6-1.2c0.6-0.4,1-0.8,1.2-1c0.3-0.3,0.5-0.7,0.5-1.1c0.1-0.4,0-0.8-0.2-1.4
	s-0.6-1.3-1.2-2.1c-0.6-0.8-1.1-1.4-1.6-1.7c-0.5-0.3-0.9-0.5-1.3-0.6c-0.4-0.1-0.9,0-1.3,0.2c-0.3,0.1-1,0.5-1.8,1.2L205.7,43.6
	 M202.3,43.3l3.9-2.8c0.9-0.6,1.6-1.1,2.2-1.3c0.8-0.3,1.5-0.3,2.3-0.2c0.8,0.1,1.5,0.5,2.2,1s1.4,1.3,2.2,2.2
	c0.6,0.9,1.1,1.7,1.3,2.5c0.3,1,0.4,1.9,0.2,2.7c-0.1,0.6-0.4,1.3-0.9,1.9c-0.4,0.5-0.9,1-1.7,1.6l-4,2.9L202.3,43.3z"/>
<path class="st6" d="M225,38.1l-3.9-3.4l0.7,5.1L225,38.1 M231.7,40.4l-2.5,1.3l-2.4-2.1l-4.6,2.5l0.4,3.1l-2.5,1.3l-1.7-13.9
	l2.5-1.3L231.7,40.4z"/>
<path class="st6" d="M232.7,28.6l2.8,8.2l1.9-0.6c0.7-0.2,1.2-0.5,1.5-0.6c0.4-0.2,0.6-0.5,0.8-0.9c0.2-0.3,0.3-0.8,0.2-1.4
	c0-0.6-0.2-1.4-0.5-2.3c-0.3-1-0.7-1.7-1-2.1c-0.3-0.5-0.7-0.8-1.1-1c-0.4-0.2-0.8-0.2-1.3-0.2c-0.4,0-1.1,0.2-2.1,0.6L232.7,28.6
	 M229.5,27.4l4.5-1.6c1-0.4,1.8-0.5,2.4-0.6c0.8,0,1.5,0.1,2.2,0.5c0.7,0.4,1.3,0.9,1.9,1.6c0.5,0.7,1,1.6,1.4,2.8
	c0.4,1,0.5,1.9,0.5,2.8c0,1-0.2,1.9-0.6,2.6c-0.3,0.6-0.8,1.1-1.4,1.6c-0.5,0.4-1.2,0.7-2.1,1l-4.7,1.6L229.5,27.4z"/>
<path class="st6" d="M254.2,23.4L255,32l2-0.2c0.7-0.1,1.3-0.2,1.6-0.3c0.4-0.1,0.8-0.4,1-0.6c0.3-0.3,0.4-0.7,0.6-1.3
	c0.1-0.6,0.1-1.4,0.1-2.4c-0.1-1-0.2-1.8-0.5-2.3c-0.2-0.5-0.5-0.9-0.9-1.2c-0.3-0.3-0.8-0.4-1.3-0.5c-0.4-0.1-1.1,0-2.2,0.1
	L254.2,23.4 M251.4,21.4l4.8-0.4c1.1-0.1,1.9-0.1,2.5,0c0.8,0.2,1.5,0.5,2.1,1s1.1,1.2,1.4,2c0.4,0.8,0.6,1.8,0.7,3
	c0.1,1.1,0,2-0.2,2.8c-0.2,1-0.6,1.8-1.2,2.4c-0.4,0.5-1,0.9-1.8,1.2c-0.6,0.2-1.3,0.4-2.3,0.5l-4.9,0.4L251.4,21.4z"/>
<polyline class="st5" points="266.3,33.3 266.7,20.3 276.4,20.6 276.3,22.8 269.3,22.6 269.2,25.5 275.7,25.7 275.7,27.9 
	269.1,27.7 269,31.2 276.3,31.5 276.2,33.7 266.3,33.3 "/>
<polyline class="st5" points="284.6,35.1 287.7,22.5 290.3,23.1 287.7,33.6 294,35.1 293.5,37.3 284.6,35.1 "/>
<path class="st6" d="M304.3,35.9l0.1-5.2l-3.4,3.8L304.3,35.9 M306.8,42.6l-2.6-1.1l0.1-3.2l-4.9-2l-2.1,2.3l-2.6-1l9.6-10.2l2.6,1
	L306.8,42.6z"/>
<polyline class="st5" points="312.9,46.1 320,35.1 327.5,40 326.3,41.8 321,38.4 319.3,41 323.9,44 322.7,45.8 318.1,42.8 
	315.1,47.5 312.9,46.1 "/>
<path class="st6" d="M329.7,48.9l1.4,1.3c0.9,0.8,1.6,1.3,1.9,1.5c0.3,0.1,0.6,0.2,0.9,0.1c0.3-0.1,0.6-0.3,0.9-0.5
	c0.3-0.3,0.4-0.7,0.5-1c0-0.4-0.1-0.7-0.4-1c-0.1-0.2-0.6-0.6-1.4-1.3l-1.5-1.4L329.7,48.9 M322.7,52.8l8.7-9.7l4.1,3.7
	c1,0.9,1.7,1.7,2,2.3c0.3,0.6,0.4,1.2,0.3,1.9c-0.1,0.7-0.4,1.3-1,1.9c-0.7,0.7-1.4,1.1-2.3,1.2c-0.9,0.1-1.8-0.2-2.7-0.8
	c0.2,0.6,0.3,1.2,0.3,1.8c0,0.5-0.1,1.4-0.3,2.6l-0.5,3l-2.3-2.1l0.5-3.4c0.2-1.2,0.3-2,0.2-2.4c0-0.4-0.1-0.7-0.2-0.9
	c-0.1-0.3-0.4-0.6-0.9-1l-0.4-0.4l-3.6,4.1L322.7,52.8z"/>
<path class="st6" d="M339.4,59.6c-1.1,1-1.8,1.9-1.9,3c-0.1,1,0.1,1.9,0.8,2.7c0.7,0.8,1.5,1.2,2.5,1.3c1,0,2.1-0.4,3.3-1.4
	c1.1-1,1.8-1.9,1.9-2.9c0.1-1-0.1-1.9-0.8-2.7c-0.7-0.8-1.5-1.3-2.5-1.3C341.6,58.2,340.5,58.6,339.4,59.6 M337.5,57.6
	c1-0.9,2-1.4,3-1.7c0.7-0.2,1.4-0.3,2.2-0.2s1.4,0.2,2,0.5c0.8,0.4,1.5,1,2.2,1.8c1.2,1.5,1.8,3,1.6,4.7c-0.2,1.7-1.1,3.2-2.7,4.5
	c-1.6,1.4-3.3,2-4.9,1.9c-1.7-0.1-3.1-0.9-4.3-2.4c-1.2-1.5-1.8-3.1-1.6-4.7C335.1,60.4,336,58.9,337.5,57.6z"/>
<polyline class="st5" points="342.3,73.7 353.3,66.8 354.7,69 350.1,78.2 357.5,73.5 358.8,75.6 347.8,82.5 346.4,80.3 350.8,71.2 
	343.6,75.8 342.3,73.7 "/>
<polyline class="st5" points="350.6,88.3 360.5,83.9 358.9,80.4 360.9,79.5 365.1,89 363.1,89.9 361.6,86.3 351.6,90.8 350.6,88.3 
	"/>
<polyline class="st5" points="354,96.4 366.5,92.6 369.3,101.9 367.2,102.5 365.2,95.8 362.4,96.7 364.3,102.9 362.2,103.5 
	360.3,97.3 356.9,98.3 359,105.3 356.9,105.9 354,96.4 "/>
<path class="st6" d="M365.5,110l0.3,1.9c0.2,1.2,0.4,2,0.6,2.3c0.2,0.3,0.4,0.5,0.7,0.6c0.3,0.1,0.6,0.2,1,0.1
	c0.4-0.1,0.8-0.3,1-0.5c0.2-0.3,0.3-0.6,0.3-1.1c0-0.2-0.1-0.8-0.3-1.9l-0.4-2L365.5,110 M357.6,108.7l12.9-2.3l1,5.5
	c0.2,1.4,0.3,2.4,0.2,3.1c-0.1,0.7-0.4,1.2-1,1.7c-0.5,0.5-1.2,0.8-1.9,0.9c-1,0.2-1.8,0-2.5-0.4c-0.7-0.5-1.3-1.2-1.6-2.3
	c-0.2,0.6-0.5,1.1-0.8,1.6c-0.3,0.4-0.9,1-1.8,1.8l-2.2,2l-0.5-3.1l2.5-2.4c0.9-0.8,1.4-1.4,1.6-1.7c0.2-0.3,0.3-0.6,0.4-0.9
	c0-0.3,0-0.7-0.1-1.3l-0.1-0.5l-5.4,0.9L357.6,108.7z"/>
<path class="st6" d="M365.2,129.2l4.8-2l-4.9-1.6L365.2,129.2 M360.2,134.2l-0.1-2.8l2.9-1.2l-0.2-5.2l-3-1l-0.1-2.8l13.2,4.6
	l0.1,2.8L360.2,134.2z"/>
<polyline class="st5" points="200.2,210.8 205.3,204 202.9,202.2 203.9,200.8 210.4,205.7 209.4,207.1 207,205.3 201.9,212 
	200.2,210.8 "/>
<polyline class="st5" points="206.8,215.4 211.7,206.5 218.3,210.1 217.5,211.6 212.7,209 211.6,210.9 216,213.4 215.2,214.9 
	210.7,212.4 209.4,214.9 214.4,217.6 213.5,219.1 206.8,215.4 "/>
<polyline class="st5" points="216.3,220.5 220.1,211.1 223,212.3 222.1,219.4 226.4,213.6 229.2,214.8 225.4,224.2 223.7,223.5 
	226.7,216.1 221.8,222.8 219.9,222 221.1,213.8 218.1,221.3 216.3,220.5 "/>
<path class="st5" d="M231.4,215.4l2,0.5l-1.4,5.3c-0.2,0.8-0.3,1.4-0.4,1.7c0,0.4,0.1,0.8,0.3,1.1c0.3,0.3,0.7,0.6,1.2,0.7
	c0.6,0.2,1,0.1,1.4,0c0.3-0.2,0.6-0.4,0.7-0.7c0.1-0.3,0.3-0.9,0.5-1.6l1.5-5.4l2,0.5l-1.4,5.2c-0.3,1.2-0.6,2-0.8,2.5
	c-0.2,0.5-0.5,0.8-0.9,1.1c-0.4,0.3-0.8,0.4-1.4,0.5c-0.5,0.1-1.2,0-2-0.2c-0.9-0.3-1.6-0.6-2-0.9c-0.4-0.3-0.7-0.7-0.9-1.2
	c-0.2-0.4-0.3-0.8-0.3-1.2c0-0.6,0.2-1.5,0.5-2.6L231.4,215.4"/>
<path class="st5" d="M246.9,225.3l1.9,0.9c-0.5,1.1-1.1,1.8-1.9,2.2c-0.8,0.4-1.7,0.6-2.8,0.4c-1.3-0.2-2.4-0.8-3.1-1.9
	c-0.7-1.1-1-2.4-0.7-4c0.3-1.7,0.9-2.9,1.9-3.7c1-0.8,2.2-1.1,3.6-0.8c1.2,0.2,2.2,0.7,2.8,1.6c0.4,0.5,0.6,1.2,0.7,2l-2.1,0.2
	c0-0.5-0.2-1-0.6-1.4c-0.3-0.4-0.8-0.6-1.3-0.7c-0.7-0.1-1.4,0.1-1.9,0.5c-0.6,0.5-0.9,1.3-1.1,2.5c-0.2,1.3-0.1,2.2,0.3,2.8
	c0.4,0.6,0.9,1,1.7,1.1c0.5,0.1,1,0,1.5-0.3C246.3,226.5,246.6,226,246.9,225.3"/>
<path class="st6" d="M253.2,224.7c-0.1,1.2,0.2,2,0.7,2.7c0.5,0.6,1.2,1,2,1c0.8,0,1.5-0.2,2.1-0.8c0.6-0.6,0.9-1.4,0.9-2.6
	c0.1-1.2-0.2-2.1-0.6-2.7c-0.5-0.6-1.1-0.9-2-1c-0.8,0-1.5,0.2-2.1,0.8C253.6,222.6,253.3,223.5,253.2,224.7 M251.1,224.6
	c0.1-1,0.3-1.9,0.6-2.6c0.3-0.5,0.6-1,1-1.3c0.4-0.4,0.9-0.7,1.4-0.8c0.6-0.2,1.4-0.3,2.2-0.3c1.5,0.1,2.7,0.6,3.5,1.6
	c0.9,1,1.2,2.3,1.1,4c-0.1,1.6-0.6,2.9-1.5,3.8c-0.9,0.9-2.2,1.3-3.7,1.2c-1.5-0.1-2.7-0.6-3.5-1.6
	C251.4,227.5,251,226.2,251.1,224.6z"/>
<polyline class="st5" points="267.1,226.1 267,224.1 269,224.1 269.1,226 267.1,226.1 "/>
<path class="st5" d="M282.3,224.8l2.1,0.3c-0.1,1.2-0.5,2-1.2,2.7c-0.6,0.6-1.5,1-2.6,1.2c-1.3,0.2-2.5-0.1-3.5-0.9
	c-1-0.8-1.6-2-1.8-3.6c-0.2-1.7,0-3,0.7-4.1c0.7-1.1,1.8-1.7,3.2-1.9c1.2-0.2,2.3,0.1,3.2,0.7c0.5,0.4,1,0.9,1.3,1.7l-1.9,0.8
	c-0.2-0.5-0.5-0.9-0.9-1.1c-0.4-0.2-0.9-0.3-1.4-0.3c-0.7,0.1-1.3,0.5-1.7,1.1c-0.4,0.6-0.5,1.5-0.3,2.7c0.2,1.3,0.5,2.2,1.1,2.6
	c0.5,0.5,1.2,0.7,1.9,0.6c0.5-0.1,1-0.3,1.3-0.7C282,226.2,282.2,225.6,282.3,224.8"/>
<polyline class="st5" points="287.9,227.6 285.2,217.7 287.2,217.2 288.3,221 292.1,220 291.1,216.1 293.1,215.6 295.7,225.4 
	293.7,226 292.6,221.7 288.7,222.7 289.9,227 287.9,227.6 "/>
<polyline class="st5" points="298.5,224.6 295.2,215 297.1,214.3 300.4,223.9 298.5,224.6 "/>
<polyline class="st5" points="303.1,223.1 299.1,213.8 301,213 304.3,220.7 309,218.7 309.7,220.3 303.1,223.1 "/>
<polyline class="st5" points="312.1,219.2 307.2,210.2 313.8,206.6 314.6,208.1 309.8,210.8 310.9,212.7 315.4,210.3 316.2,211.8 
	311.7,214.2 313.1,216.7 318,213.9 318.9,215.4 312.1,219.2 "/>
<path class="st5" d="M143.2,225.1l-0.2,0.1l-2.3-3.2l0.2-0.1l0.1,0.2c0.1,0.2,0.3,0.3,0.4,0.4c0.1,0,0.2,0.1,0.3,0
	c0.1,0,0.3-0.1,0.6-0.4l4-2.9c0.3-0.2,0.5-0.4,0.6-0.5c0.1-0.1,0.1-0.2,0.1-0.3c0-0.1-0.1-0.3-0.2-0.5l-0.1-0.2l0.2-0.1l2.3,3.2
	l-0.2,0.1l-0.1-0.2c-0.1-0.2-0.3-0.3-0.4-0.4c-0.1,0-0.2-0.1-0.4,0c-0.1,0-0.3,0.1-0.6,0.4l-4,2.9c-0.3,0.2-0.5,0.4-0.6,0.5
	c-0.1,0.1-0.1,0.2-0.1,0.4c0,0.1,0.1,0.3,0.2,0.5L143.2,225.1"/>
<path class="st5" d="M155,228l-1.6,1.3l-0.1-0.1c0.3-0.4,0.5-0.7,0.5-1c0.1-0.2,0.1-0.5,0-0.8c0-0.2-0.2-0.4-0.4-0.6l-0.4-0.4
	l-4.5,3.8c-0.3,0.3-0.5,0.4-0.5,0.5c0,0.1-0.1,0.2,0,0.4c0,0.1,0.1,0.3,0.2,0.5l0.2,0.2l-0.1,0.1l-2.5-3l0.1-0.1l0.2,0.2
	c0.1,0.2,0.3,0.3,0.4,0.3c0.1,0,0.2,0,0.4,0c0.1,0,0.3-0.2,0.6-0.4l4.5-3.8l-0.4-0.4c-0.3-0.4-0.6-0.6-1-0.6
	c-0.4-0.1-0.9,0.1-1.4,0.4l-0.1-0.2l1.6-1.3L155,228"/>
<path class="st5" d="M154.1,237.7l-0.1,0.1l-2.7-2.8l0.1-0.1l0.2,0.2c0.2,0.2,0.3,0.3,0.5,0.3c0.1,0,0.2,0,0.3,0
	c0.1,0,0.3-0.2,0.6-0.4l3.6-3.5c0.3-0.3,0.4-0.5,0.5-0.6c0-0.1,0-0.2,0-0.4c0-0.1-0.1-0.3-0.3-0.4l-0.2-0.2l0.1-0.1l2.7,2.8
	l-0.1,0.1l-0.2-0.2c-0.2-0.2-0.3-0.3-0.5-0.3c-0.1,0-0.2,0-0.4,0c-0.1,0-0.3,0.2-0.6,0.4l-3.6,3.5c-0.3,0.3-0.4,0.5-0.5,0.6
	c0,0.1,0,0.2,0,0.4c0,0.1,0.1,0.3,0.3,0.4L154.1,237.7"/>
<path class="st5" d="M162.9,236l-0.5,6l2.2-2.4c0.3-0.3,0.5-0.6,0.5-0.8c0-0.3-0.1-0.6-0.4-0.8l0.1-0.1l1.8,1.7l-0.1,0.1
	c-0.3-0.2-0.5-0.3-0.6-0.3c-0.1,0-0.3,0-0.4,0.1c-0.1,0.1-0.3,0.2-0.6,0.5l-4.3,4.6l-0.1-0.1l0.6-8.1l-3.3,3.5
	c-0.3,0.3-0.4,0.6-0.4,0.9c0,0.2,0.2,0.5,0.3,0.6l0.1,0.1l-0.1,0.1l-2-1.8l0.1-0.1c0.3,0.3,0.6,0.4,0.8,0.4c0.2,0,0.5-0.2,0.8-0.5
	l3.6-3.9l0-0.3c0-0.3,0-0.5,0-0.6c0-0.1-0.1-0.3-0.3-0.4l0.1-0.1L162.9,236"/>
<path class="st5" d="M170.5,243.2l-1.9,2.4l0.1,0.1c0.4,0.3,0.7,0.4,1.1,0.3c0.4-0.1,0.7-0.4,1.1-0.8l0.2,0.1l-2.4,3.1l-0.2-0.1
	c0.2-0.4,0.4-0.7,0.4-1c0.1-0.3,0-0.6-0.1-0.7c-0.1-0.2-0.3-0.4-0.6-0.6l-1.3,1.7c-0.3,0.3-0.4,0.5-0.4,0.6c0,0.1,0,0.2,0,0.3
	c0,0.1,0.1,0.2,0.3,0.4l0.4,0.3c0.6,0.4,1.1,0.7,1.6,0.7c0.5,0,1.1-0.2,1.6-0.6l0.2,0.1l-1.7,1.7l-5.1-4l0.1-0.2l0.2,0.2
	c0.2,0.1,0.3,0.2,0.5,0.2c0.1,0,0.2,0,0.3-0.1c0.1,0,0.2-0.2,0.5-0.5l3.1-3.9c0.2-0.3,0.3-0.4,0.4-0.5c0.1-0.1,0.1-0.2,0-0.4
	c0-0.2-0.2-0.3-0.4-0.5l-0.2-0.2l0.1-0.2l5,3.9l-1.4,1.8l-0.2-0.1c0.3-0.5,0.4-0.9,0.4-1.2c0-0.3-0.1-0.6-0.3-0.9
	c-0.1-0.2-0.4-0.4-0.9-0.8L170.5,243.2"/>
<path class="st6" d="M178,248.7l-1.8,2.7l0.3,0.2c0.4,0.3,0.8,0.5,1,0.5c0.3,0.1,0.5,0,0.8-0.1c0.3-0.1,0.5-0.3,0.7-0.7
	c0.3-0.5,0.4-0.9,0.4-1.3c-0.1-0.4-0.4-0.7-0.8-1.1L178,248.7 M175.9,251.8l-1.2,1.8c-0.2,0.3-0.4,0.6-0.4,0.7s0,0.2,0.1,0.4
	c0.1,0.1,0.2,0.3,0.5,0.5l-0.1,0.2l-3.2-2.2l0.1-0.2c0.3,0.2,0.5,0.3,0.6,0.3c0.1,0,0.3,0,0.4-0.1c0.1-0.1,0.3-0.3,0.5-0.6l2.8-4.1
	c0.2-0.3,0.4-0.6,0.4-0.7c0-0.1,0-0.2-0.1-0.4c-0.1-0.1-0.2-0.3-0.5-0.5l0.1-0.2l2.9,2c0.8,0.5,1.3,0.9,1.6,1.3
	c0.3,0.3,0.4,0.7,0.5,1.2c0,0.4-0.1,0.8-0.3,1.2c-0.3,0.5-0.7,0.7-1.3,0.8c-0.3,0-0.7,0-1.2-0.2l0.1,3.1c0,0.4,0,0.7,0.1,0.8
	c0.1,0.2,0.2,0.3,0.3,0.5l-0.1,0.2l-2-1.3l-0.1-4.2L175.9,251.8z"/>
<path class="st6" d="M185.6,258.8l0.3-2.8l-2.3,1.7L185.6,258.8 M185.5,259.3l-2.3-1.3l-0.7,0.5c-0.2,0.2-0.4,0.3-0.4,0.5
	c-0.1,0.2-0.1,0.4,0,0.5c0.1,0.1,0.2,0.3,0.6,0.5l-0.1,0.2l-2.2-1.3l0.1-0.2c0.3,0.1,0.5,0.1,0.7,0c0.2-0.1,0.6-0.3,1.1-0.7l5.3-3.9
	l0.1,0.1l-0.7,6.7c-0.1,0.6-0.1,1.1,0,1.3c0.1,0.2,0.2,0.3,0.4,0.4l-0.1,0.2l-3.2-1.8l0.1-0.2l0.1,0.1c0.3,0.1,0.5,0.2,0.6,0.2
	c0.1,0,0.2-0.1,0.2-0.2c0-0.1,0.1-0.1,0.1-0.2c0,0,0-0.2,0.1-0.5L185.5,259.3z"/>
<path class="st6" d="M195.4,258.9l-1.4,3l0.3,0.1c0.5,0.2,0.8,0.4,1.1,0.4s0.5,0,0.8-0.2c0.2-0.2,0.4-0.4,0.6-0.8
	c0.3-0.5,0.3-1,0.2-1.3c-0.1-0.4-0.5-0.7-1-0.9L195.4,258.9 M193.8,262.2l-0.9,1.9c-0.2,0.4-0.3,0.6-0.3,0.7c0,0.1,0,0.2,0.1,0.3
	s0.3,0.2,0.6,0.4l-0.1,0.2l-3.5-1.7l0.1-0.2c0.3,0.2,0.5,0.2,0.7,0.2c0.1,0,0.3,0,0.3-0.1c0.1-0.1,0.2-0.3,0.4-0.7l2.2-4.4
	c0.2-0.4,0.3-0.6,0.3-0.7c0-0.1,0-0.2-0.1-0.3s-0.3-0.2-0.6-0.4l0.1-0.2l3.2,1.5c0.8,0.4,1.4,0.8,1.7,1.1c0.3,0.3,0.5,0.7,0.6,1.1
	c0.1,0.4,0,0.8-0.2,1.3c-0.2,0.5-0.6,0.8-1.1,1c-0.3,0.1-0.7,0.1-1.2,0l0.5,3.1c0.1,0.4,0.1,0.7,0.2,0.8c0.1,0.2,0.2,0.3,0.4,0.4
	l-0.1,0.2l-2.1-1l-0.7-4.2L193.8,262.2z"/>
<path class="st5" d="M203.1,269.9l-0.1,0.2l-3.6-1.5l0.1-0.2l0.2,0.1c0.2,0.1,0.4,0.1,0.5,0.1c0.1,0,0.2-0.1,0.3-0.2
	c0.1-0.1,0.2-0.3,0.3-0.6l1.9-4.6c0.1-0.4,0.2-0.6,0.2-0.7c0-0.1,0-0.2-0.1-0.3c-0.1-0.1-0.2-0.2-0.4-0.3l-0.2-0.1l0.1-0.2l3.6,1.5
	l-0.1,0.2l-0.2-0.1c-0.2-0.1-0.4-0.1-0.5-0.1c-0.1,0-0.2,0.1-0.3,0.2c-0.1,0.1-0.2,0.3-0.3,0.6l-1.9,4.6c-0.1,0.4-0.2,0.6-0.2,0.7
	c0,0.1,0,0.2,0.1,0.3c0.1,0.1,0.2,0.2,0.4,0.3L203.1,269.9"/>
<path class="st5" d="M208,264l3.7,1.3l-0.1,0.2l-0.2-0.1c-0.3-0.1-0.5-0.1-0.6-0.1c-0.1,0-0.2,0.1-0.3,0.2c-0.1,0.1-0.2,0.3-0.3,0.7
	l-1.3,3.5c-0.2,0.6-0.3,1.1-0.3,1.3c0,0.2,0.1,0.5,0.3,0.7c0.2,0.2,0.4,0.4,0.8,0.5c0.4,0.1,0.7,0.2,1.1,0.1
	c0.3-0.1,0.6-0.2,0.9-0.5c0.2-0.3,0.5-0.8,0.8-1.5l1.1-2.9c0.1-0.3,0.2-0.6,0.2-0.7c0-0.2-0.1-0.3-0.1-0.4c-0.1-0.1-0.3-0.3-0.6-0.4
	l0.1-0.2l2.5,0.9l-0.1,0.2l-0.1-0.1c-0.2-0.1-0.4-0.1-0.5-0.1c-0.2,0-0.3,0.1-0.4,0.3c-0.1,0.1-0.2,0.3-0.3,0.6l-1,2.7
	c-0.3,0.8-0.6,1.4-0.8,1.7c-0.2,0.3-0.6,0.6-1.2,0.7c-0.5,0.2-1.2,0.1-1.9-0.2c-0.6-0.2-1.1-0.5-1.3-0.8c-0.4-0.4-0.6-0.8-0.7-1.2
	c-0.1-0.4,0-0.9,0.2-1.5l1.3-3.5c0.1-0.4,0.2-0.7,0.2-0.8c0-0.1-0.1-0.2-0.1-0.3c-0.1-0.1-0.3-0.2-0.6-0.3L208,264"/>
<path class="st5" d="M221.2,273.6l3.3-4.3l3,0.8l-0.1,0.2l-0.2-0.1c-0.2-0.1-0.4-0.1-0.5,0c-0.1,0-0.2,0.1-0.3,0.2
	c-0.1,0.1-0.1,0.3-0.2,0.7l-1.3,4.8c-0.1,0.4-0.1,0.6-0.1,0.7c0,0.1,0.1,0.2,0.2,0.3c0.1,0.1,0.3,0.2,0.5,0.2l0.2,0.1l0,0.2l-3.8-1
	l0.1-0.2l0.2,0.1c0.2,0.1,0.4,0.1,0.5,0c0.1,0,0.2-0.1,0.3-0.2c0.1-0.1,0.1-0.3,0.2-0.7l1.4-5.4l-4.6,5.9l-0.1,0l-1.1-7.4l-1.4,5.1
	c-0.1,0.4-0.1,0.6-0.2,0.7c0,0.2,0.1,0.4,0.2,0.5c0.1,0.2,0.4,0.3,0.7,0.4l-0.1,0.2l-2.5-0.7l0.1-0.2l0.1,0c0.2,0,0.3,0.1,0.5,0
	c0.2,0,0.3-0.1,0.4-0.1c0.1-0.1,0.2-0.2,0.3-0.4c0,0,0.1-0.2,0.2-0.6l1.2-4.6c0.1-0.4,0.1-0.6,0.1-0.7c0-0.1-0.1-0.2-0.2-0.3
	s-0.3-0.2-0.5-0.2l-0.2-0.1l0.1-0.2l3,0.8L221.2,273.6"/>
<path class="st5" d="M238.5,277.4l2.8-4.6l3,0.5l0,0.2l-0.2,0c-0.2,0-0.4,0-0.5,0c-0.1,0-0.2,0.1-0.3,0.2c-0.1,0.1-0.1,0.3-0.2,0.7
	l-0.8,4.9c-0.1,0.4-0.1,0.6-0.1,0.7c0,0.1,0.1,0.2,0.2,0.3c0.1,0.1,0.3,0.2,0.5,0.2l0.2,0l0,0.2l-3.9-0.6l0-0.2l0.2,0
	c0.2,0,0.4,0,0.5,0c0.1,0,0.2-0.1,0.3-0.2c0.1-0.1,0.1-0.3,0.2-0.7l0.9-5.5l-3.9,6.3l-0.1,0l-1.8-7.2l-0.8,5.3
	c-0.1,0.4-0.1,0.6-0.1,0.7c0,0.2,0.1,0.4,0.2,0.5c0.1,0.1,0.4,0.2,0.7,0.3l0,0.2l-2.6-0.4l0-0.2l0.1,0c0.2,0,0.3,0,0.5,0
	c0.2,0,0.3-0.1,0.4-0.2c0.1-0.1,0.2-0.2,0.2-0.4c0,0,0-0.2,0.1-0.6l0.7-4.7c0.1-0.4,0.1-0.6,0.1-0.7c0-0.1-0.1-0.2-0.2-0.3
	c-0.1-0.1-0.3-0.2-0.5-0.2l-0.2,0l0-0.2l3,0.5L238.5,277.4"/>
<path class="st5" d="M249.4,274.1l-0.3,3.1l0.1,0c0.5,0,0.8-0.1,1.1-0.4c0.2-0.3,0.4-0.7,0.5-1.3l0.2,0l-0.3,3.9l-0.2,0
	c0-0.4-0.1-0.8-0.2-1.1c-0.1-0.3-0.3-0.5-0.4-0.6c-0.2-0.1-0.5-0.2-0.8-0.2l-0.2,2.1c0,0.4,0,0.7,0,0.8c0,0.1,0.1,0.2,0.2,0.2
	c0.1,0.1,0.2,0.1,0.5,0.1l0.4,0c0.7,0.1,1.3-0.1,1.7-0.3s0.8-0.8,1-1.4l0.2,0l-0.5,2.4l-6.5-0.6l0-0.2l0.2,0c0.2,0,0.4,0,0.5-0.1
	c0.1,0,0.2-0.1,0.2-0.2c0-0.1,0.1-0.3,0.1-0.7l0.4-5c0-0.3,0-0.6,0-0.6c0-0.1-0.1-0.2-0.2-0.3c-0.1-0.1-0.3-0.2-0.6-0.2l-0.2,0
	l0-0.2l6.3,0.6l-0.2,2.2l-0.2,0c-0.1-0.6-0.2-1-0.3-1.2c-0.2-0.3-0.4-0.5-0.8-0.6c-0.2-0.1-0.6-0.2-1.2-0.2L249.4,274.1"/>
<path class="st5" d="M258.6,274.4l3.6,4.8l0.1-3.2c0-0.5,0-0.8-0.2-0.9c-0.2-0.2-0.5-0.3-0.9-0.3l0-0.2l2.5,0.1l0,0.2
	c-0.3,0-0.5,0.1-0.6,0.1c-0.1,0.1-0.2,0.2-0.3,0.3s-0.1,0.4-0.1,0.8l-0.2,6.3l-0.2,0l-4.9-6.5l-0.2,4.8c0,0.4,0.1,0.7,0.3,0.9
	c0.2,0.2,0.4,0.2,0.7,0.3l0.2,0l0,0.2l-2.7-0.1l0-0.2c0.4,0,0.7-0.1,0.9-0.2c0.2-0.2,0.3-0.4,0.3-0.9l0.2-5.3l-0.2-0.2
	c-0.2-0.2-0.3-0.4-0.4-0.4c-0.1-0.1-0.3-0.1-0.5-0.1l0-0.2L258.6,274.4"/>
<path class="st5" d="M273,274.4l0.1,2l-0.2,0c-0.1-0.5-0.3-0.8-0.4-1c-0.2-0.2-0.4-0.4-0.6-0.5c-0.1-0.1-0.4-0.1-0.7-0.1l-0.6,0
	l0.2,5.8c0,0.4,0,0.6,0.1,0.7c0,0.1,0.1,0.2,0.3,0.2c0.1,0.1,0.3,0.1,0.5,0.1l0.2,0l0,0.2l-3.9,0.1l0-0.2l0.2,0
	c0.2,0,0.4-0.1,0.5-0.1c0.1-0.1,0.2-0.1,0.2-0.3c0-0.1,0-0.3,0-0.7l-0.2-5.8l-0.5,0c-0.5,0-0.9,0.1-1.1,0.4
	c-0.3,0.3-0.5,0.7-0.6,1.3l-0.2,0l-0.1-2L273,274.4"/>
<path class="st5" d="M279.8,281.4l0,0.2l-3.9,0.3l0-0.2l0.2,0c0.2,0,0.4-0.1,0.5-0.2c0.1-0.1,0.2-0.2,0.2-0.3c0-0.1,0-0.3,0-0.7
	l-0.3-5c0-0.4-0.1-0.6-0.1-0.7c0-0.1-0.1-0.2-0.3-0.2c-0.1-0.1-0.3-0.1-0.5-0.1l-0.3,0l0-0.2l3.9-0.3l0,0.2l-0.2,0
	c-0.2,0-0.4,0.1-0.5,0.2c-0.1,0.1-0.2,0.2-0.2,0.3c0,0.1,0,0.3,0,0.7l0.3,5c0,0.4,0.1,0.6,0.1,0.7c0,0.1,0.1,0.2,0.3,0.2
	c0.1,0.1,0.3,0.1,0.5,0.1L279.8,281.4"/>
<path class="st5" d="M286.7,273l0.4,2.5l-0.2,0c-0.2-0.6-0.5-1.1-1-1.4c-0.5-0.3-0.9-0.5-1.4-0.4c-0.4,0-0.7,0.2-0.9,0.4
	c-0.2,0.2-0.3,0.5-0.2,0.7c0,0.2,0.1,0.3,0.2,0.4c0.1,0.2,0.3,0.3,0.6,0.4c0.2,0.1,0.6,0.3,1.3,0.5c0.9,0.3,1.6,0.7,1.9,1
	c0.4,0.3,0.6,0.8,0.6,1.3c0.1,0.6-0.1,1.2-0.5,1.7c-0.4,0.5-1,0.8-1.8,0.9c-0.2,0-0.5,0-0.7,0c-0.2,0-0.5-0.1-0.8-0.2
	c-0.2-0.1-0.3-0.1-0.5-0.1c-0.1,0-0.2,0.1-0.3,0.1c-0.1,0.1-0.2,0.2-0.2,0.4l-0.2,0l-0.3-2.8l0.2,0c0.3,0.8,0.6,1.3,1.2,1.7
	c0.5,0.4,1,0.5,1.6,0.4c0.4,0,0.7-0.2,0.9-0.5c0.2-0.3,0.3-0.5,0.3-0.8c0-0.2-0.1-0.3-0.2-0.5c-0.1-0.2-0.3-0.3-0.5-0.4
	c-0.2-0.1-0.6-0.3-1.1-0.5c-0.7-0.3-1.2-0.5-1.6-0.7c-0.3-0.2-0.6-0.4-0.8-0.7c-0.2-0.3-0.3-0.6-0.4-0.9c-0.1-0.6,0.1-1.1,0.5-1.6
	s0.9-0.8,1.6-0.8c0.2,0,0.5,0,0.7,0c0.2,0,0.4,0.1,0.7,0.2c0.3,0.1,0.4,0.1,0.5,0.1c0.1,0,0.2,0,0.2-0.1c0-0.1,0.1-0.2,0.1-0.4
	L286.7,273"/>
<path class="st6" d="M298.9,276.4l-1.6-2.3l-0.6,2.7L298.9,276.4 M299.1,276.7l-2.6,0.5l-0.2,0.8c-0.1,0.3-0.1,0.5,0,0.6
	c0,0.2,0.2,0.3,0.3,0.4c0.1,0,0.4,0,0.8,0l0,0.2l-2.5,0.5l0-0.2c0.3-0.1,0.5-0.2,0.6-0.5c0.1-0.2,0.3-0.6,0.4-1.3l1.5-6.4l0.1,0
	l3.9,5.6c0.4,0.5,0.7,0.9,0.8,1c0.1,0.1,0.3,0.1,0.6,0.1l0,0.2l-3.6,0.7l0-0.2l0.1,0c0.3-0.1,0.5-0.1,0.6-0.2
	c0.1-0.1,0.1-0.2,0.1-0.3c0-0.1,0-0.1-0.1-0.2c0,0-0.1-0.2-0.2-0.4L299.1,276.7z"/>
<path class="st6" d="M306.3,270l1.5,5.7c0.1,0.3,0.1,0.5,0.2,0.5c0,0.1,0.1,0.1,0.2,0.1c0.1,0,0.3,0,0.4,0c0.6-0.2,1-0.5,1.2-1
	c0.3-0.7,0.3-1.6,0-2.7c-0.3-0.9-0.6-1.6-1-2.1c-0.4-0.4-0.7-0.6-1.1-0.7C307.4,269.7,306.9,269.8,306.3,270 M305.4,277.6l-0.1-0.2
	l0.2-0.1c0.2-0.1,0.4-0.1,0.5-0.2c0.1-0.1,0.2-0.2,0.2-0.3c0-0.1,0-0.3-0.1-0.7l-1.3-4.8c-0.1-0.4-0.2-0.6-0.2-0.7
	c-0.1-0.1-0.2-0.1-0.3-0.2c-0.1,0-0.3,0-0.5,0l-0.2,0.1l0-0.2l3.3-0.9c0.9-0.2,1.6-0.3,2.2-0.2c0.7,0.1,1.3,0.4,1.8,0.9
	c0.5,0.5,0.8,1.1,1,1.9c0.1,0.5,0.2,1,0.1,1.5c0,0.5-0.2,0.9-0.4,1.2c-0.2,0.4-0.4,0.7-0.7,0.9c-0.3,0.3-0.7,0.5-1.2,0.7
	c-0.2,0.1-0.5,0.2-1,0.3L305.4,277.6z"/>
<path class="st5" d="M324.9,263.5l0.1,0.2c-0.2,0.1-0.4,0.4-0.5,0.7c-0.1,0.2-0.1,0.7-0.2,1.5l-0.5,6.3l-0.2,0.1l-4.5-4.8
	c-0.5-0.6-0.9-0.9-1-1c-0.1-0.1-0.4-0.1-0.6,0l-0.1-0.2l3.4-1.2l0.1,0.2l-0.1,0c-0.3,0.1-0.5,0.2-0.6,0.3c-0.1,0.1-0.1,0.2,0,0.3
	c0,0.1,0.1,0.1,0.1,0.2c0.1,0.1,0.2,0.3,0.5,0.6l2.8,3l0.3-3.6c0-0.4,0-0.7,0-0.9c0-0.1,0-0.3-0.1-0.4c0-0.1-0.1-0.2-0.2-0.3
	c-0.1-0.1-0.2-0.1-0.3-0.1c-0.2,0-0.4,0-0.6,0.1l-0.1-0.2L324.9,263.5"/>
<path class="st5" d="M329.7,262l1.3,2.8l0.1-0.1c0.4-0.2,0.7-0.5,0.8-0.8c0.1-0.4,0-0.8-0.2-1.4l0.2-0.1l1.6,3.6l-0.2,0.1
	c-0.2-0.4-0.4-0.7-0.7-0.9c-0.2-0.2-0.5-0.3-0.7-0.3c-0.2,0-0.5,0.1-0.8,0.2l0.9,1.9c0.2,0.4,0.3,0.6,0.4,0.7
	c0.1,0.1,0.2,0.1,0.3,0.1c0.1,0,0.3,0,0.5-0.1l0.4-0.2c0.6-0.3,1.1-0.7,1.4-1.1c0.3-0.5,0.3-1,0.2-1.7l0.2-0.1l0.7,2.3l-6,2.7
	l-0.1-0.2l0.2-0.1c0.2-0.1,0.3-0.2,0.4-0.3c0.1-0.1,0.1-0.2,0.1-0.3c0-0.1-0.1-0.3-0.2-0.7l-2-4.6c-0.1-0.3-0.2-0.5-0.3-0.6
	c-0.1-0.1-0.2-0.2-0.3-0.2c-0.2,0-0.4,0-0.6,0.1l-0.2,0.1l-0.1-0.2l5.8-2.6l0.9,2l-0.2,0.1c-0.3-0.5-0.6-0.8-0.9-0.9
	c-0.3-0.1-0.6-0.2-1-0.1c-0.2,0-0.6,0.2-1.1,0.4L329.7,262"/>
<path class="st6" d="M338.1,258l1.5,2.9l0.3-0.1c0.5-0.2,0.8-0.5,1-0.7s0.3-0.4,0.3-0.7c0-0.3-0.1-0.6-0.2-1
	c-0.3-0.5-0.6-0.8-0.9-0.9c-0.4-0.1-0.8,0-1.3,0.2L338.1,258 M339.8,261.3l1,1.9c0.2,0.4,0.3,0.6,0.4,0.7c0.1,0.1,0.2,0.1,0.4,0.1
	c0.1,0,0.4-0.1,0.7-0.2l0.1,0.2l-3.4,1.8l-0.1-0.2c0.3-0.2,0.5-0.3,0.6-0.4c0.1-0.1,0.1-0.2,0.1-0.3c0-0.1-0.1-0.4-0.3-0.7l-2.2-4.4
	c-0.2-0.4-0.3-0.6-0.4-0.7c-0.1-0.1-0.2-0.1-0.4-0.1c-0.1,0-0.4,0.1-0.7,0.2l-0.1-0.2l3.1-1.6c0.8-0.4,1.4-0.7,1.9-0.7
	c0.4-0.1,0.9,0,1.2,0.2c0.4,0.2,0.7,0.5,0.9,0.9c0.3,0.5,0.3,1,0.1,1.5c-0.1,0.3-0.4,0.6-0.7,1l2.8,1.5c0.4,0.2,0.6,0.3,0.7,0.3
	c0.2,0,0.4,0,0.6-0.1l0.1,0.2L344,263l-3.7-2L339.8,261.3z"/>
<path class="st5" d="M351.5,258.4l0.1,0.2l-3.4,2l-0.1-0.2l0.2-0.1c0.2-0.1,0.3-0.2,0.4-0.4c0.1-0.1,0.1-0.2,0.1-0.3
	c0-0.1-0.1-0.3-0.3-0.6l-2.6-4.3c-0.2-0.3-0.3-0.5-0.4-0.6c-0.1-0.1-0.2-0.1-0.3-0.1c-0.1,0-0.3,0.1-0.5,0.2l-0.2,0.1l-0.1-0.2
	l3.4-2l0.1,0.2l-0.2,0.1c-0.2,0.1-0.3,0.2-0.4,0.4c-0.1,0.1-0.1,0.2-0.1,0.3c0,0.1,0.1,0.3,0.3,0.6l2.6,4.3c0.2,0.3,0.3,0.5,0.4,0.6
	c0.1,0.1,0.2,0.1,0.3,0.1c0.1,0,0.3-0.1,0.5-0.2L351.5,258.4"/>
<path class="st5" d="M355.4,247l1.1,1.7l-0.2,0.1c-0.4-0.3-0.7-0.5-0.9-0.6c-0.2-0.1-0.5-0.1-0.8-0.1c-0.2,0-0.4,0.1-0.7,0.3
	l-0.5,0.3l3.3,4.8c0.2,0.3,0.4,0.5,0.5,0.6c0.1,0.1,0.2,0.1,0.3,0.1c0.1,0,0.3-0.1,0.5-0.2l0.2-0.1l0.1,0.2l-3.3,2.2l-0.1-0.2
	l0.2-0.1c0.2-0.1,0.3-0.3,0.4-0.4c0.1-0.1,0.1-0.2,0-0.3c0-0.1-0.1-0.3-0.3-0.6l-3.3-4.8l-0.5,0.3c-0.4,0.3-0.7,0.6-0.7,0.9
	c-0.1,0.4,0,0.9,0.2,1.4l-0.2,0.1l-1.1-1.7L355.4,247"/>
<path class="st6" d="M363.3,247.3l-2.5-1.3l0.7,2.7L363.3,247.3 M363.7,247.5l-2.1,1.6l0.2,0.8c0.1,0.3,0.2,0.5,0.3,0.6
	c0.1,0.2,0.3,0.2,0.5,0.2c0.1,0,0.3-0.1,0.7-0.3l0.1,0.2l-2,1.5l-0.1-0.2c0.2-0.2,0.3-0.4,0.3-0.7s0-0.7-0.2-1.3l-1.6-6.4l0.1-0.1
	l6,3.2c0.6,0.3,1,0.5,1.2,0.5c0.2,0,0.4,0,0.5-0.2l0.1,0.2l-2.9,2.2l-0.1-0.2l0.1-0.1c0.2-0.2,0.4-0.3,0.4-0.5c0-0.1,0-0.2-0.1-0.3
	c0-0.1-0.1-0.1-0.2-0.1c0,0-0.2-0.1-0.4-0.2L363.7,247.5z"/>
<path class="st5" d="M369.3,235.5l1.4,1.5l-0.1,0.1c-0.4-0.3-0.7-0.4-1-0.5c-0.2-0.1-0.5,0-0.8,0c-0.1,0-0.4,0.2-0.6,0.4l-0.4,0.4
	l3.9,4.3c0.3,0.3,0.4,0.5,0.5,0.5c0.1,0,0.2,0.1,0.4,0c0.1,0,0.3-0.1,0.4-0.3l0.2-0.2l0.1,0.1l-2.9,2.6l-0.1-0.1l0.2-0.2
	c0.2-0.1,0.3-0.3,0.3-0.4c0-0.1,0-0.2,0-0.4c0-0.1-0.2-0.3-0.4-0.6l-3.9-4.3l-0.4,0.4c-0.4,0.3-0.6,0.7-0.6,1c0,0.4,0.1,0.9,0.4,1.4
	l-0.2,0.1l-1.4-1.5L369.3,235.5"/>
<path class="st5" d="M373.4,232.1l2.2,2.1l0.1-0.1c0.3-0.3,0.5-0.7,0.4-1.1s-0.3-0.8-0.7-1.2l0.1-0.2l2.8,2.8l-0.2,0.2
	c-0.3-0.3-0.7-0.4-1-0.5c-0.3-0.1-0.5-0.1-0.7,0c-0.2,0.1-0.4,0.2-0.7,0.5l1.5,1.5c0.3,0.3,0.5,0.5,0.6,0.5c0.1,0,0.2,0,0.3,0
	c0.1,0,0.2-0.1,0.4-0.3l0.3-0.3c0.5-0.5,0.8-1,0.8-1.6c0.1-0.5-0.1-1.1-0.4-1.7l0.1-0.1l1.5,1.9l-4.5,4.7l-0.1-0.1l0.2-0.2
	c0.2-0.2,0.2-0.3,0.3-0.5c0-0.1,0-0.2,0-0.3c0-0.1-0.2-0.3-0.5-0.5l-3.6-3.5c-0.2-0.2-0.4-0.4-0.5-0.4c-0.1-0.1-0.2-0.1-0.4-0.1
	c-0.2,0-0.3,0.1-0.5,0.3l-0.2,0.2l-0.1-0.1l4.4-4.5l1.6,1.6l-0.2,0.2c-0.5-0.3-0.9-0.5-1.2-0.5c-0.3,0-0.6,0.1-1,0.2
	c-0.2,0.1-0.5,0.4-0.9,0.8L373.4,232.1"/>
<path class="st5" d="M384.8,225.9l-2.7-4.7l1.9-2.4l0.2,0.1l-0.1,0.2c-0.1,0.2-0.2,0.3-0.2,0.5c0,0.1,0,0.2,0.1,0.3
	c0,0.1,0.2,0.2,0.5,0.5l3.9,3.1c0.3,0.2,0.5,0.4,0.6,0.4c0.1,0,0.2,0,0.4,0c0.1-0.1,0.3-0.2,0.4-0.3l0.2-0.2l0.2,0.1l-2.4,3.1
	l-0.2-0.1l0.2-0.2c0.1-0.2,0.2-0.3,0.2-0.5c0-0.1,0-0.2-0.1-0.3c0-0.1-0.2-0.2-0.5-0.5l-4.4-3.4l3.6,6.5l-0.1,0.1l-7.2-1.9l4.2,3.3
	c0.3,0.2,0.5,0.4,0.6,0.4c0.2,0.1,0.4,0.1,0.6,0c0.2-0.1,0.4-0.2,0.6-0.5l0.2,0.1l-1.6,2l-0.2-0.1l0-0.1c0.1-0.1,0.2-0.3,0.2-0.4
	c0-0.1,0-0.3,0-0.4c0-0.1-0.1-0.2-0.2-0.4c0,0-0.2-0.2-0.4-0.4l-3.8-2.9c-0.3-0.2-0.5-0.4-0.6-0.4s-0.2,0-0.4,0
	c-0.1,0.1-0.3,0.2-0.4,0.3l-0.1,0.2l-0.2-0.1l1.9-2.4L384.8,225.9"/>
<path class="st5" d="M292.5,42.5c-8-2.3-11.9-3.2-18.6-3.5c0,6.5-0.2,20.4,0.1,21.1C282.5,58,287.9,52.1,292.5,42.5"/>
<path class="st5" d="M241.3,42.7c8-2.3,11.9-3.2,18.6-3.5c0,6.5,0.2,20.4-0.1,21.1C251.3,58.2,246,52.4,241.3,42.7"/>
<path class="st5" d="M189.7,86.1c7.5-16.3,20.2-28.9,37.4-38.1c5.1,12.9,16.6,25.2,33,27.5v23.9c-7.8,2.7-18,11.2-19.7,19
	c-1,0-23.3,0-23.3,0C214.4,102.9,201.6,89.5,189.7,86.1"/>
<path class="st5" d="M179.9,118.4c0.5-6.4,1.8-12.6,3.7-18.6c6.9,3,15.1,9.3,17.6,18.6C197.7,118.4,179.9,118.4,179.9,118.4"/>
<path class="st5" d="M344.2,86.1c-7.5-16.3-20.2-28.9-37.4-38.1c-5.1,12.9-16.5,25.2-33,27.5v23.8c7.8,2.7,18,11.3,19.8,19.2
	c1,0,23.2,0,23.2,0C319.5,102.9,332.3,89.5,344.2,86.1"/>
<path class="st5" d="M354.1,118.4c-0.5-6.4-1.8-12.6-3.7-18.6c-6.9,3-15.1,9.3-17.6,18.6C336.2,118.4,354.1,118.4,354.1,118.4"/>
<path class="st5" d="M241.8,209.3c8,2.3,11.9,3.2,18.6,3.5c0-6.5,0.2-20.4-0.1-21.1C251.8,193.8,246.4,199.7,241.8,209.3"/>
<path class="st5" d="M293,209.1c-8,2.3-11.9,3.2-18.6,3.5c0-6.5-0.2-20.4,0.1-21.1C283,193.5,288.3,199.4,293,209.1"/>
<path class="st5" d="M344.6,165.7c-7.5,16.3-20.2,28.9-37.4,38.1c-5.1-12.9-16.6-25.2-33-27.5v-23.9c7.8-2.7,18-11.2,19.7-19
	c1,0,23.3,0,23.3,0C319.9,148.9,332.7,162.3,344.6,165.7"/>
<path class="st5" d="M354.5,133.4c-0.5,6.4-1.8,12.6-3.7,18.6c-6.9-3-15.1-9.3-17.6-18.6C336.6,133.4,354.5,133.4,354.5,133.4"/>
<path class="st5" d="M190.1,165.7c7.5,16.3,20.2,28.9,37.4,38.1c5.1-12.9,16.5-25.2,33-27.5v-23.8c-7.8-2.7-18-11.3-19.8-19.2
	c-1,0-23.2,0-23.2,0C214.8,148.9,202,162.3,190.1,165.7"/>
<path class="st5" d="M180.2,133.4c0.5,6.4,1.8,12.6,3.7,18.6c6.9-3,15.1-9.3,17.6-18.6C198.1,133.4,180.2,133.4,180.2,133.4"/>
<line class="st7" x1="124.8" y1="228.6" x2="150.9" y2="204.7"/>
<line class="st7" x1="406.8" y1="229.4" x2="383.4" y2="204.1"/>
<line class="st7" x1="428.3" y1="211.4" x2="410.6" y2="189.5"/>
<path class="st4" d="M412.2,192.9c0,3.8-4.9,8.5-11.9,8.5c-7,0-9.4-4.5-8-8c0.7-1.8,2.2-6.3,3.4-7.8"/>
<line class="st4" x1="118.5" y1="220.7" x2="140.5" y2="198.4"/>
<path class="st4" d="M124.1,187.7c-4.7,4.5-3,11.6,5.2,12.9c6.9,1.1,12.9-3.3,11.9-6.9c-0.5-1.8-2.1-6-3.1-7.6"/>
<path class="st3" d="M123.4,188.1c-5.3,4.4-21,22.1-21,22.1c-0.4,4.1,0.8,7.5,4.3,9.6c5.2,3.2,10.3,5.8,18.8-6.2c0,0,4.1,3.8,4.4,4
	c1.9,1.7,3.4,3.8,3.4,3.8l-8.4,7.3c27.9,38.6,89.3,69.9,151.3,65.3c47.2-3.5,86.3-15.4,130.3-63.9"/>
<path class="st4" d="M163.2,207.2c-0.6-3.7-4.5-8.6-9.1-13.8c-5.3-6-10.7-8.3-16.9-7.4l-12.2,12.7"/>
<line class="st4" x1="151.4" y1="204.9" x2="162.5" y2="207.4"/>
<path class="st4" d="M406.8,198.3c-0.5,0-8.7-10.5-10.1-12.4c-8.3-1.5-12.2,2.6-17.1,6.2c-4.9,3.5-8.4,9.1-10.7,13.8l13.7-1.8
	c-17.3,26.4-71.2,55.3-116.2,54.1c-52.9-1.3-94.4-24.6-115.1-53.2"/>
<path class="st4" d="M428.5,211.8c0,3.8-2.5,9.3-12,9.5c-2.2,0.1-3.3,0-5.6-1.6c-7.1-7.7-17.6-21-18.4-21.2"/>
</svg>
